<?xml version="1.0" standalone="no"?>
<!DOCTYPE svg PUBLIC "-//W3C//DTD SVG 1.1//EN" "http://www.w3.org/Graphics/SVG/1.1/DTD/svg11.dtd" >
<svg xmlns="http://www.w3.org/2000/svg">
<metadata></metadata>
<defs>
<font id="naivebold" horiz-adv-x="1615" >
<font-face units-per-em="2048" ascent="1536" descent="-512" />
<missing-glyph horiz-adv-x="942" />
<glyph horiz-adv-x="0" />
<glyph horiz-adv-x="0" />
<glyph horiz-adv-x="682" />
<glyph unicode="&#xd;" horiz-adv-x="942" />
<glyph unicode=" "  horiz-adv-x="942" />
<glyph unicode="&#x09;" horiz-adv-x="942" />
<glyph unicode="&#xa0;" horiz-adv-x="942" />
<glyph unicode="!" horiz-adv-x="655" d="M281 1546q11 7 22 11t17.5 4.5t20 1t19.5 0.5q15 1 37 -5t43 -8q5 -14 1 -88t-3 -90q2 -60 -6.5 -217t-9.5 -180q-6 -98 -6 -227q1 -81 -6.5 -164.5t-15.5 -126.5l-7 -43q-2 -2 -5.5 -7.5t-6 -7t-11 1t-22.5 11.5q-5 43 -10.5 153t-9.5 144q-1 6 -3 40.5t-5.5 95.5 t-6.5 111q-16 216 -16 236q0 23 -6.5 153t-3.5 201zM288.5 88.5q12.5 36.5 51.5 42.5q8 4 41 4q22 0 38.5 -16t22.5 -39q5 -34 -12.5 -57t-42.5 -35q-63 -19 -90 30q-21 34 -8.5 70.5z" />
<glyph unicode="&#x22;" horiz-adv-x="712" d="M91 1187q-3 41 1 85q7 60 76 176q30 50 71.5 70t69.5 15t29 -17q1 -17 -7.5 -24.5t-29.5 -14.5h-2l-8 -4q-31 -17 -45 -29q-54 -61 -80 -162q60 5 110 -21t46 -71q-5 -54 -40.5 -85t-93.5 -24q-43 4 -68.5 34.5t-28.5 71.5zM381 1270q9 54 76 176q19 31 43 51t45 26.5 t40 6.5t30 -5.5t12 -11.5q1 -9 -1 -15t-9 -10.5t-10 -6t-15 -6.5h-2l-8 -5q-42 -24 -47 -28q-54 -61 -80 -162q60 5 109.5 -21t45.5 -71q-3 -54 -39 -85t-94 -24q-62 6 -84 62t-12 129z" />
<glyph unicode="#" horiz-adv-x="1181" d="M49 500q5 15 21 26.5t29 16t22 6.5q23 1 86 2t94 2l100 321l11 33l-125 4q-30 -1 -50.5 3t-29.5 10t-12 14t-1 14.5t7 12.5q21 30 69 30h168q16 37 17 39q8 20 30 99q2 6 4 10v10l17 45v-2l10 29l70 202q8 21 10 27q8 16 18 23.5t29 7.5q15 0 23.5 -19t1.5 -45 q-4 -8 -4 -14l-27 -84l-12 -39l-9 -20l-8 -23l-28 -90l-50 -156h359l24 78q0 2 2.5 8.5t2.5 8.5q0 1 1 5t1 5l57 168l47 127l12 28l8 23q6 18 25 28.5t39 8.5q33 -2 14 -76l-55 -164l-80 -248h121q70 -2 78 -7q12 -6 6 -32q-4 -19 -26.5 -31t-43.5 -12l-166 -8 q-24 -82 -34 -119l-7 -18l-16 -70q-1 -4 -16 -40t-23 -70q-2 -5 -5 -17.5t-5 -17.5q30 0 75 -1t62 -1h41q80 -4 80 -49q-3 -24 -25.5 -30.5t-68.5 -4.5h-56q-48 0 -75 -2h-60q-43 -142 -71 -225l-25 -80l-16 -47q-4 -8 -4 -13l-19 -49l-10 -18l2 2q-11 -26 -25 -44t-26 -18 q-26 0 -32.5 26.5t7.5 72.5q0 4 4 16q1 4 6.5 16.5t6.5 18.5l4 22q12 36 96 322l-356 -2q-78 -265 -86 -287l-27 -72q0 -1 -0.5 -2t-1.5 -2.5t-2 -4.5t-2.5 -7t-4 -10.5t-5.5 -13.5q-13 -33 -40 -64.5t-38 -28.5q-38 7 -8 90l6 23l14 39q14 45 20 63q6 19 17.5 59t17.5 56 q30 97 49 162h-170h-14q-28 0 -37.5 8t-3.5 27zM391 553h166h191l102 321q8 19 10 31h-289h-67l-39 -127l-19 -57q-5 -13 -10.5 -30t-12.5 -39.5t-11 -35.5l-15 -32z" />
<glyph unicode="$" horiz-adv-x="1189" d="M164 1108q-9 104 35 176q51 76 96.5 117t120.5 78q64 33 145 39v59q0 4 -1 20.5t-1 26.5q0 23 2 31q0 10 4 26q5 10 8 13q4 4 9 4h4q8 4 12 4q6 0 14 -4q1 -1 6 -4.5t7 -7.5q4 -8 4 -13q2 -4 2 -16q2 -6 2 -21q0 -8 -1 -21t-1 -18v-77q40 -2 75.5 -13t52 -20t50.5 -31 l98 -57q-2 44 4 67.5t27 24.5q16 2 25.5 -6t13 -26t5 -35t2 -44.5t1.5 -42.5q8 -107 -9 -139q-11 -21 -32 -22q-24 -1 -31 24t-4 53.5t-4 49.5q-5 12 -53 50.5t-68 45.5q-34 20 -51.5 29t-44.5 17.5t-53 8.5h-4v-580q6 -3 26 -8q114 -36 226 -112q48 -34 92.5 -89.5 t62.5 -109.5q29 -95 3.5 -222t-78.5 -186q-35 -38 -55 -57t-57.5 -42t-89.5 -36.5t-128 -23.5h-2v-86q0 -2 1 -9t1 -12v-53q-1 -2 -1.5 -5.5t-1.5 -6.5t-3 -6q-7 -10 -15 -13q-6 -2 -16 -2q-12 0 -16 2q-8 3 -15 13q-2 4 -6 18v20q0 11 1 30t1 24v84q-91 4 -139 30 q-18 9 -33 17.5t-31 20t-24.5 18t-30 24t-31.5 25.5q-2 -12 -2.5 -33.5t-1.5 -34t-8.5 -23.5t-23.5 -12t-25.5 7t-13 25.5t-5 34.5t-2 43t-2.5 42q-4 38 -6 70t10 52.5t39 18.5q5 0 9 -1.5t6.5 -2.5t4.5 -4.5t3 -5.5t2 -7.5t1.5 -8.5t1.5 -11t1 -12q0 -19 7.5 -36t15 -25.5 t22 -21t17.5 -15.5q39 -39 102 -70q58 -28 137 -31v625l-29 12q-15 5 -24.5 9t-15.5 6t-14.5 6.5t-11 6t-15.5 10t-19 11.5q-103 63 -146.5 109.5t-78.5 112.5q-38 75 -43 141zM283 1196q-14 -98 71 -168q83 -68 207 -125v547q-67 -7 -145 -53q-44 -25 -84 -83t-49 -118z M631 61q35 2 84 21q34 12 49.5 18.5t43 24.5t46.5 43q31 39 49.5 112.5t1.5 131.5q-32 109 -102 159q-27 19 -40 26.5t-34 17t-39 18.5q-34 9 -59 20v-592z" />
<glyph unicode="%" horiz-adv-x="1130" d="M105 -16.5q-7 12.5 0 36t28 54.5v-2l39 67l43 74q89 147 182 326l172 307q25 48 45 82v-2l45 80q19 59 60 116v-2l16 27q18 31 23 45l14 29q88 171 137 223v-2q14 34 30.5 51.5t29.5 17.5q16 0 22.5 -16.5t0 -46.5t-26.5 -62l-33 -51v2l-17 -30l-43 -76l-18 -33l-20 -35 l-35 -55q-120 -242 -209 -391l-25 -39q-50 -76 -69 -127q-128 -254 -201 -373q-24 -33 -27 -47l-6 -10v2l-12 -21q-1 -1 -0.5 -3.5t-0.5 -3.5t-5 -1q-27 -49 -62.5 -86t-50.5 -37q-19 0 -26 12.5zM168 1212q0 52 31.5 96t79.5 54q27 6 63 6q39 0 66 -6q72 -13 96 -111 q-1 -55 -31.5 -108.5t-62.5 -75.5q-32 -8 -70 -8q-46 0 -88 18.5t-62 48.5q-22 37 -22 86zM250 1206q1 -35 30 -55.5t66 -15.5q45 3 70 67q9 20 -4 58q-16 32 -72 32q-35 0 -53 -12q-40 -15 -37 -74zM604 279q0 57 31 99.5t78 53.5q30 6 65 6q36 0 66 -6q43 -10 63.5 -38.5 t28.5 -76.5q6 -55 -27 -107t-73 -73q-32 -8 -62 -8q-46 0 -86.5 18.5t-60.5 49.5q-23 44 -23 82zM684 266q3 -23 33 -42t65 -15q38 5 74 65q0 32 -8 56q-7 18 -27.5 28.5t-44.5 10.5q-38 0 -61 -19h-4q-13 -6 -21.5 -32t-5.5 -52z" />
<glyph unicode="&#x26;" horiz-adv-x="1482" d="M164 387q0 47 2 70l6 55q12 117 170 270l59 45l19 13q34 27 82 55q-5 9 -18.5 25t-16.5 20q-80 80 -80 268q0 126 55 217l11 9l49 49q66 53 160 53q15 0 55 -10l43 -19q34 -24 55 -47.5t39 -74.5t18 -121t-24 -151t-47 -81v-2q0 -2 -2.5 -4.5t-6 -7.5t-6.5 -10l-6 -7 q-1 -2 -4 -5t-4 -5l-6 -8q-2 0 -4.5 -5t-5.5 -7l-23 -19l-45 -34q-1 0 -2.5 -2t-3.5 -4.5t-4 -4.5l-8 -6q21 -40 55 -74l55 -69l76 -94q1 -2 84 -107l33 -33l26 -35q11 -11 46 -56t61 -66h2q1 0 1 1q1 4 3 9l23 20l14 31q63 86 63 279q-3 1 -22.5 2t-30 9t-10.5 27 q0 18 13.5 30.5t35.5 12.5h45q15 3 43 3q64 0 64 -37v-2q0 -39 -62 -39v-13q-3 -87 -22 -165q-1 -2 -6 -25t-7 -30.5t-8 -27.5t-11 -30.5t-13 -25t-17 -25.5l-24 -31q-1 -3 -7 -10t-8 -11l-10 -14l8 -8l17 -16q19 -26 51 -56q21 -23 46 -50.5t44.5 -48.5t50.5 -52l10 -6 l21 2q37 0 54.5 -11t17.5 -26q0 -10 -1.5 -15t-8.5 -13t-26.5 -12t-52.5 -5l-75 -2q-9 0 -22 2.5t-26.5 11t-13.5 20.5v3q-4 2 -12 10q-1 1 -5 4q-91 76 -91 96l-2 2q-2 4 -17 19l-47 49l-86 -78l-12 -11q-12 -12 -27 -22l-14 -6q-2 0 -6 -4l-41 -29l-109 -43 q-94 -24 -151 -24h-31q-34 0 -57 4q-40 5 -110.5 29t-70.5 38l-6 2q-1 0 -2 1t-5 5.5t-11 10.5l-23 18q-12 0 -53 51l-8 9l-64 104l-10 27q-14 34 -14 102zM279 520q0 -5 0.5 -26t1 -29.5t1.5 -27.5t3 -30t5 -25.5t7 -25.5t10 -20l35 -64q89 -127 155 -169t146 -42 q16 0 72 9l49 12q12 6 20 8l27 8l47 27l80 55q18 10 49 45l21 21l14 14q-4 4 -4 8v4q-14 16 -29 32.5t-20 21.5l-31 32q-7 8 -29 32.5t-32 39.5l-9 10q-9 13 -36 42t-35 38l-43 55l-86 117q-13 17 -41 47t-47.5 54t-26.5 41l-27 -17q-12 -4 -67 -39v-2l-21 -10l-14 -10 q-66 -42 -102.5 -98.5t-42.5 -137.5zM485 1264q0 -52 15 -99t29 -70.5t47.5 -68.5t44.5 -61l16 12q13 13 40.5 39t39.5 38t30.5 35.5t26.5 42.5t14.5 47.5t6.5 61.5q0 40 -9.5 97t-21.5 57l-4 8q-13 23 -49 37t-70 14h-14q-36 -5 -62 -16l-33 -33l-26 -33l-10 -31 q-11 -42 -11 -77z" />
<glyph unicode="'" horiz-adv-x="413" d="M96 1094q-1 18 8 26t31 15h2l8 4q1 1 10.5 5.5t17 10t15.5 14.5q17 17 41 59t39 97q-60 0 -109.5 26.5t-45.5 67.5q5 54 41.5 86t95.5 25h-2q65 -6 87.5 -63t10.5 -130q-10 -54 -78 -174q-19 -31 -43.5 -51t-46 -26.5t-40.5 -6.5t-30 4.5t-12 10.5z" />
<glyph unicode="(" horiz-adv-x="561" d="M96 639l2 158q0 33 9.5 111t15.5 100l4 18q3 22 10 39l10 39l15 41q3 9 12 35t12.5 35.5t14.5 33.5t26 54q20 40 47.5 90t36.5 67l15 27l12 20q13 26 41 68q8 22 39 56.5t47 35.5l8 -4h23q0 -22 -9 -31h2l-16 -37l-41 -71q-11 -19 -44 -84t-44 -90l-12 -27l-10 -25 q-28 -64 -60 -215q-26 -143 -26 -327v-62q0 -152 10 -252q11 -106 37 -243q43 -210 217 -435q4 -5 4.5 -17t-5 -22.5t-12.5 -7.5q-24 0 -78 64t-106 162l-63 125q-42 104 -54 135q-14 35 -30 93.5t-26 99.5l-9 42l-19 99v10q0 2 -1 6.5t-1 5.5q-4 46 -4 80z" />
<glyph unicode=")" horiz-adv-x="587" d="M96 -236q174 225 217 435q26 137 37 243q10 100 10 252v62q0 151 -32 327q-4 18 -12 59t-12 60t-12 46.5t-18 49.5l-8 25l-14 27q-11 25 -44 90t-44 84l-41 71l-17 37h3q-9 9 -9 31h23l8 4q16 -1 47 -35.5t39 -56.5q28 -42 41 -68l12 -20l15 -27q9 -17 36.5 -67t47.5 -90 q15 -30 26 -54t14.5 -33.5t12.5 -35.5t12 -35l15 -41l10 -39q7 -17 10 -39l4 -18q6 -22 15.5 -100t9.5 -111l2 -158q0 -34 -4 -80q0 -1 -1 -5.5t-1 -6.5v-10l-19 -99q-34 -157 -65 -235l-54 -135l-63 -125q-52 -98 -106 -162t-78 -64q-13 26 -13 47z" />
<glyph unicode="*" horiz-adv-x="1021" d="M154 1292q5 10 14 13.5t24.5 -0.5t27.5 -9t36 -16l68 -33q32 -16 122 -67l15 -9l16 -12q0 90 2 113v16q0 4 1 11t1 10v37q0 51 1 73.5t8 45.5t22 34q32 25 40 -40q3 -25 3 -68q0 -93 -2 -136l-2 -73q52 50 186 145v-2q9 6 21 18q19 15 38.5 18.5t28.5 -5.5 q30 -26 -88 -115l-35 -31l-49 -45l-71 -61l75 -39l13 -8q22 -18 39 -21q99 -44 144.5 -72.5t29.5 -50.5v5l-2 -7q-36 -42 -330 127v-6q0 -2 1 -6t1 -6q4 -65 2 -100q-2 -25 -2 -66q-1 -35 -2 -52t-5.5 -36t-13 -26t-22.5 -7q-26 0 -33 309q-53 -34 -71 -55 q-78 -53 -154.5 -87.5t-85.5 -16.5h2q-11 12 7.5 34.5t51.5 45.5l39 22l43 29h-2l82 53q34 18 49 29q-66 24 -162 90v-2q-57 34 -92 62t-30 46z" />
<glyph unicode="+" horiz-adv-x="993" d="M111 625q0 16 25 30t52 17q57 4 215 4h48v84l2 162q-1 43 4.5 63t12 22.5t22.5 2.5q10 0 22.5 -27t15.5 -53q5 -74 5 -234v-20q170 0 213 -2q59 -3 94.5 -15.5t38.5 -31.5q0 -27 -16.5 -34t-76.5 -9h-253q0 -146 -3 -211v-45q0 -90 -49 -90q-12 0 -19 8.5t-9.5 26.5 t-3 28t-0.5 31v252h-58l-196 2q-34 2 -60 12.5t-26 26.5z" />
<glyph unicode="," horiz-adv-x="425" d="M-18 -324l155 351l58 129q4 25 23 49.5t48 21.5q12 -3 15.5 -25.5t-5.5 -62.5q-35 -86 -69 -149l-158 -344q-13 -17 -30 -15.5t-30 17t-7 28.5z" />
<glyph unicode="-" horiz-adv-x="993" d="M113 631q3 13 28 26t47 15q57 4 218 4h67q197 0 281 -2h28q101 -3 101 -45q0 -38 -88 -41q-16 -1 -34 -1t-41.5 0.5t-37.5 0.5h-307l-178 2q-34 -1 -55 6t-26 16t-3 19z" />
<glyph unicode="." horiz-adv-x="382" d="M138.5 88.5q12.5 36.5 51.5 42.5q8 4 41 4q22 0 39 -16t23 -39q5 -34 -12.5 -57t-42.5 -35q-64 -20 -91 30q-21 34 -8.5 70.5z" />
<glyph unicode="/" horiz-adv-x="798" d="M57 -145q-1 45 17 100l18 61l17 64q24 79 30 104q57 167 109 359l104 338l58 176q7 40 34 133q0 1 1 3t1 3q1 2 1 6.5t1 7.5t5 7l8 26q58 194 112 322q9 30 26 55t28 25q23 0 30 -33.5t-12 -89.5l-16 -41l-39 -115q-27 -91 -43 -133l-17 -43q-9 -35 -110 -389l-14 -47 l-19 -56q-35 -101 -41 -133q-52 -205 -117 -399q-12 -31 -36 -109l-9 -22l-12 -35q-29 -88 -37 -100v2q-12 -38 -28.5 -65t-28.5 -27q-20 0 -21 45z" />
<glyph unicode="0" horiz-adv-x="1140" d="M137 723v29v45q0 20 4 53.5t4 40.5q4 76 31 188q8 38 14 51l5 21q6 28 38 94q6 16 20 44.5t17 35.5q7 14 20 31t17 24q4 6 12 16t9 11q33 45 94 76q12 8 67 30q47 16 84 21l9 4q33 -2 80 -10l36 -6q21 -4 35 -9l12 -8l9 -8q20 -11 30 -17.5t17 -9.5l20 -26q29 -29 39 -41 q64 -83 90 -133q23 -50 39 -90t25 -72.5t13 -50t9 -46.5t6 -36q19 -121 19 -158v-160q-9 -131 -23 -194q-7 -34 -14 -58t-16.5 -50.5t-14.5 -41.5q-12 -36 -25 -60.5t-26.5 -44t-17.5 -26.5q-7 -12 -29 -43l-70 -84l-6 -4l-6 -2l-4 -2l-4 -4q0 -3 -31 -18q-75 -45 -196 -45 q-50 0 -93 12q-10 3 -20.5 8t-25.5 13.5t-21 11.5q-42 25 -62 45q-34 34 -43 49q-8 14 -23 35t-26.5 40t-21.5 42q-4 12 -21 53.5t-26 64.5q-2 8 -8 32.5t-9 35.5q-18 85 -18 88q-2 22 -9 65t-10.5 78t-3.5 70zM305 678q0 -130 8 -223l4 -68q9 -89 29 -149q7 -22 23 -54 q39 -70 51 -82q18 -18 35 -30q6 -2 13.5 -7.5t10.5 -7.5q32 -14 72 -14q5 0 16 -2t19 -2h43q5 0 12.5 1.5t15.5 3.5t11 3q5 1 18 8.5t21 10.5l38 18q5 4 12.5 11t16.5 17t14 15q13 14 33 45q29 59 41 115q33 129 33 389v211q0 31 -3.5 85t-4.5 68q-5 61 -25 152 q-18 75 -33 102q-7 15 -10.5 27t-5 17t-4.5 8q-8 12 -23 28q-4 12 -41 47l-20 19q-6 6 -36.5 20.5t-35.5 14.5q-3 0 -14 1t-18 1q-28 0 -70 -7q-15 -2 -51 -16q-6 -3 -21 -7.5t-18 -6.5l-8 -8l-11 -17l-4 -2l-39 -49l-12 -14l-4 -4l-29 -76q-18 -52 -30 -148l-9 -65 q-8 -100 -8 -178q-2 -66 -2 -201z" />
<glyph unicode="1" horiz-adv-x="759" d="M82 1253q0 11 2 15l8 10q28 28 55 47l82 76q1 0 2 1t2 1v2q3 3 13 14t12 13l39 28q6 0 10 10l10 13q4 4 7 4q10 0 20.5 12.5t27.5 25.5t42 13q4 0 20.5 0.5t29 0.5t28.5 -1.5t27.5 -5t17.5 -10.5l2 -2l2 -23q0 -13 -2 -35t-2 -30v-9q0 -33 4 -103t4 -108q0 -19 -3 -54.5 t-3 -57.5l-9 -8h11q-2 -25 -2 -74q0 -31 1 -96.5t1 -98.5v-71q0 -4 1 -17t1 -20v-99q0 -50 1 -150.5t1 -150.5q0 -133 -8 -237q8 -2 20 -2l27 -4q6 -3 12 -9q10 -10 10 -24q0 -10 -2 -10l-6 -11q-12 -8 -14 -10h-2q0 -10 -39 -10h-156q-5 0 -16.5 -1t-16.5 -1q-43 0 -43 33 q0 39 64 39h14l4 14v24q4 32 4 54q0 14 -3 44t-3 46q0 14 2 39t2 39q0 13 -1 39t-1 41v30q2 23 2 66q0 22 -1 67t-1 68q0 33 2 98.5t2 96.5q0 35 -3 101.5t-3 100.5v4q0 16 1 44.5t1 41.5v4q0 22 -4 67t-4 67v18q0 15 1 43t1 41q0 55 -2 84q0 -2 -8 -10l-12 -6l-35 -37 l-8 -4q-8 0 -38 -28.5t-71.5 -68.5t-69.5 -59l-6 -8q-7 -7 -18 -10h-2q-5 0 -13 4l-18 12q-4 12 -4 18z" />
<glyph unicode="2" horiz-adv-x="1105" d="M135 45q0 63 34.5 119.5t121.5 122.5l84 84q12 11 47.5 39.5t60.5 54.5l35 37q13 18 28.5 30.5t33.5 32.5q21 28 38 45l7 8l32 44l35 38l25 45q2 7 8 7l12 26q74 166 72 316v6q0 106 -39 217q-5 13 -12 25.5t-24 37t-47.5 44.5t-68.5 30q-6 1 -17 2.5t-20 2.5t-16 1 q-147 0 -229 -51q-18 -9 -45 -35.5t-27 -52.5q0 -52 19.5 -88.5t19.5 -63.5l-2 -12q-15 -27 -34.5 -38t-53.5 -11h-2q-38 0 -56 32.5t-18 78.5v8q0 89 111 200q50 58 131.5 81.5t185.5 31.5h10q91 -3 150 -37l53 -30q23 -13 76 -66l31 -31q90 -90 90 -274q0 -53 -8.5 -100 t-19 -78.5t-32 -67t-35.5 -54t-41.5 -51.5t-39.5 -49l-23 -22l-14 -25l-19 -20q-7 -8 -19.5 -20t-18.5 -19l-15 -18l-41 -46l-35 -34q-29 -29 -75 -70q-25 -31 -70 -74t-53 -43l-2 -4q-2 -2 -4 -6q-2 3 -3 0q-2 -3 -3.5 -6t-5 -8t-10.5 -10.5t-17 -10.5l-27 -30 q-4 -3 -14 -13t-17.5 -17t-11.5 -7l-4 -2l-25 -27l-20 -31q-2 -2 -2 -4q20 -1 70 -5.5t77 -4.5h17q50 1 154.5 5.5t154.5 6.5q7 0 20 -2t19 -2q18 1 82.5 -0.5t85.5 2.5q0 33 8 50.5t31 17.5q16 0 24 -12t8 -27q0 -7 -2 -21.5t-2 -21.5v-6q4 -7 4 -9v-2q-1 -4 -2 -17t-2 -19 l-2 -56l-6 -2q-41 -8 -94 -8q-53 -3 -107.5 -3.5t-130.5 0.5t-108 1h-27q-22 0 -66 -2t-67 -2h-14q-10 1 -29 2.5t-34 2.5t-29 1q-12 0 -40 -2t-42 -2q-35 0 -49 8l-7 4q-10 23 -10 35z" />
<glyph unicode="3" horiz-adv-x="1003" d="M125 1262q0 22 2 30q1 12 16 56q1 1 1.5 3t1 5.5t1.5 5.5l25 55q6 8 47 49l19 19l10 4l51 22l33 13q3 1 9.5 4t11.5 5t9 3q27 7 89 12q12 2 41 2q71 0 129 -20q38 -10 43 -12q28 -8 34 -11q3 -2 17.5 -7t17.5 -7q78 -43 109 -86q29 -41 39.5 -67t17.5 -62q8 -44 8 -123 q0 -86 -28 -133l-35 -59q-18 -34 -70 -72q-16 -12 -41 -27.5t-37 -25.5q-2 -1 -9.5 -6.5t-20 -12.5t-31.5 -16l-49 -25l35 -8l30 -10l17 -10q23 -8 47 -21l24 -14l41 -27q5 -4 29.5 -22t36.5 -33q15 -22 28 -31q35 -35 62 -110q12 -38 12 -89q0 -107 -2 -129 q-3 -46 -28 -104q-4 -10 -37 -59q-8 -12 -19 -21t-12 -10q-40 -40 -96 -70q-63 -32 -129 -49q-48 -12 -70 -12h-2q-53 0 -127 20q-12 4 -20 4q-17 4 -21 7q-11 3 -23 12l-22 14q-24 12 -35 23q-37 33 -104 131q-1 3 -15 51l-12 51q-8 32 -8 55q0 11 4 27t14 21q9 6 19 6h2 q8 0 16 -4l8 -9l9 -16l4 -18q0 -27 2 -39q10 -51 24 -78q12 -30 39 -64q3 -5 13.5 -14t13.5 -12q6 -5 16 -15t15 -14q12 -8 22 -14.5t14.5 -9.5t8 -5.5t6.5 -3.5l24 -10q50 -16 107 -16q5 0 15.5 1t15.5 1q27 4 55 22l63 49l6 9q13 17 19.5 27t11.5 19t12 19l13 31 q16 47 22 104q10 69 11 80l-3 49q-1 18 -20 74q-16 45 -27 64q-8 13 -12.5 21t-6.5 11.5t-3 5.5l-25 23l-10 16l-49 25v2l-45 23q-11 7 -37 14l-12 6l-6 4l-31 4q-20 0 -33 8q-10 5 -14 21q0 2 -1 4.5t-1 3.5q0 15 14 29q9 7 27 14q14 7 44 21t47.5 23t40 27.5t38.5 41.5 l12 16l12 16q9 14 23 46q17 46 26 129q-2 140 -12 180q-15 55 -35 78l-33 34l-22 23l-14 8l-19 8q-38 19 -92 19h-4q-5 0 -18.5 -1t-20.5 -1q-9 -1 -25.5 -1t-28.5 -1t-22 -4q-25 -5 -74 -35q-21 -14 -36 -29q-28 -24 -31 -29q-8 -16 -8 -39q-1 -2 0 -7t2.5 -9.5t1.5 -5.5 q0 -9 6 -33l8 -31l2 -2l2 -2q2 -2 2 -4h2q0 -3 5.5 -19.5t5.5 -27.5q0 -3 -1 -7.5t-1 -6.5q-2 -15 -17 -33q-18 -14 -37 -14h-4q-38 0 -55 14q-19 14 -31 37q-10 25 -10 70z" />
<glyph unicode="4" horiz-adv-x="1210" d="M68 283q-1 2 2 11l4 9q2 3 6.5 13.5l7.5 17.5q7 17 10 20l13 25q8 17 26 46.5t25 43.5q2 5 10 23.5t14 27.5q18 26 43.5 87.5t38.5 84.5l6 6l2 4q0 1 2.5 6l4.5 9l26 51q1 3 5.5 14t7.5 17l18 47q1 1 1.5 3l1.5 6t3 7l6 6l2 2q6 8 20.5 50t16.5 47q18 38 38 90t36 86 l31 59q60 121 96 205q6 11 22 55q16 32 25 41q15 18 39 27q4 2 14 2q11 0 32 -6.5t30 -12.5q20 -20 22 -34q0 -2 1 -6.5t1 -6.5q0 -17 -12 -41l-25 -34q-21 -31 -60.5 -108t-55.5 -103l-43 -70q-5 -8 -20 -31t-23 -37q-3 -7 -21 -34q-46 -84 -57 -107l-37 -76l-21 -32 l-26 -56l-29 -55l-96 -180l-6 -10l-10 -21l-5 -2q-2 -4 -7.5 -17.5t-10.5 -21.5l-47 -94q85 1 272 7.5t289 6.5v8q0 17 -1 55.5t-1 59.5v29v6v4v6v43q0 86 -2 129q0 4 -1 11.5t-1 11.5q0 5 1 15t1 15q0 36 2 43q3 17 23 29q17 10 34 10q45 0 58 -10l22 -27l2 -4v-2 q-4 -46 -4 -65q0 -31 3 -94t3 -91v-45q4 -66 4 -110v-25q7 0 22 -1t23 -1q26 0 84 4h39h23q9 -3 16 -14q4 -12 4 -16v-2q0 -13 -6 -19q-2 -3 -3.5 -4.5t-2.5 -2t-2 -1.5q-9 -6 -20 -6l-25 -4h-45q-21 0 -55.5 -2t-51.5 -2q3 -113 9 -220q2 0 8.5 -1t9.5 -1h33q15 -5 18 -10 q5 -5 8 -14v-12q0 -13 -4 -17l-14 -10q-12 -4 -37 -4h-33q-3 0 -13 -2.5t-15 -3.5q-16 -2 -58 -2.5t-51 -1.5h-29q-14 0 -20 2q-12 3 -16 14q-4 12 -4 16q0 15 8 27q8 6 24 10q7 1 22 1t21 1q-4 152 -8 226q-25 2 -80 2q-67 0 -204 -5.5t-207 -5.5q-21 0 -65.5 -4t-68.5 -4 q-20 0 -24 2l-8 4z" />
<glyph unicode="5" horiz-adv-x="1017" d="M121 244q0 15 4 35q2 11 10 26t17 21q22 13 42.5 13.5t28.5 -3.5q19 -3 31 -8l10 -9l5 -4q5 -4 7 -8q7 -12 7 -37q0 -19 -12 -61.5t-7 -61.5q10 -37 23 -43l14 -6l6 -6q65 -31 103 -35q10 -2 32 -2q36 0 86 11q38 10 72 30l57 41l7 6l16 17q80 97 90 299q2 16 2 55 q0 130 -24 195q-16 50 -74 104q-28 22 -29 23l-27 18l-16 6q-62 25 -125 25q-40 0 -71 -8q-61 -16 -113 -62l-2 -2l-4 -4l-27 -23l-27 -30l-22 -25q-24 -12 -37 -12q-9 0 -18 6q-6 6 -11 16v23q-2 18 -2 59q0 19 1 52t1 45q2 37 2 116q0 66 -2 173t-2 173q0 7 -1 49t-1 50 q0 44 6 47q12 4 21 4q4 2 14 2q7 0 22 -1t21 -1h33q14 0 45 -2t51 -2q6 0 50.5 1.5t56.5 0.5h254q128 0 155 -6q6 -1 8.5 -14t2.5 -32v-22v-45q0 -4 0.5 -15t0.5 -20.5t-1 -15.5q0 -10 -7.5 -20.5t-17.5 -10.5q-14 0 -26.5 6t-12.5 17q0 33 -2 43h-6h-145q-12 0 -47.5 0.5 t-63.5 0.5t-43 -1q-13 -2 -126.5 -0.5t-168.5 0.5q-2 -27 -2 -117q0 -57 2 -146.5t2 -148.5q0 -94 -2 -139q50 44 121 80q8 1 55 22q35 13 60 15h28q27 0 56 -5q31 -5 59 -10q36 -7 102 -41q40 -18 76 -49q30 -26 42.5 -41.5t43.5 -64.5q20 -31 32 -57t14 -36l1 -10 q13 -64 15 -86q2 -23 2 -61q2 -77 -31 -183l-21 -49q-8 -18 -24.5 -42t-20.5 -31q-1 -1 -14.5 -19t-35.5 -41.5t-46 -42.5q-24 -18 -46 -33t-32 -21l-10 -5q-19 -14 -41 -23q-22 -8 -25 -8l-26 -8q-48 -10 -90 -10q-5 0 -15.5 1t-15.5 1q-39 3 -76 12q-1 0 -2 1t-2 1v2 q-2 0 -2 2q-1 0 -3 -1t-3 -1t-3 1t-3 1q-8 2 -21.5 8.5t-15.5 7.5q-60 31 -72 39q-58 41 -78 86q-26 47 -26 99z" />
<glyph unicode="6" horiz-adv-x="1069" d="M135 457v14q0 30 12 88q13 70 50 139l26 54q11 22 37 67t37 68q33 55 59 112q5 15 14 32.5t24 45t24 45.5q6 9 6 15l31 65l94 189l26 67q3 4 23 45q19 23 43 31q1 0 4.5 1t11 2t17.5 1q29 0 49 -20q4 -3 6.5 -5.5t4 -5.5t2 -4.5t1 -6.5t0.5 -7v-12q0 -33 -32 -74l-11 -21 q-10 -20 -30.5 -47t-30.5 -45l-37 -57l-51 -88l-51 -80l-52 -88q-7 -13 -31 -54.5t-43 -75.5t-28 -54q4 2 43.5 30t48.5 31q59 25 117 25q10 0 16 -2q24 0 78 -13q70 -13 150 -76q9 -7 22.5 -21t22.5 -24l10 -10q37 -52 59 -92q3 -14 19 -45q2 -4 4 -14t4 -15q13 -44 16 -84 q2 -12 2 -41q0 -72 -18 -133v-6l-4 -12q-15 -49 -31 -80q-23 -44 -47 -70q-46 -58 -94 -88l-21 -10l-16 -10q-26 -19 -57 -25q-34 -12 -56 -14q-38 -6 -88 -6q-66 0 -127 30l-33 19l-32 18q-3 3 -17 12.5t-22 16.5l-35 31q-6 6 -21 24l-18 23q-2 3 -12.5 20t-16.5 29 q-3 6 -7 18.5t-7 18.5q-1 2 -7 16.5t-7 22.5q-23 87 -23 170zM279 508q0 -67 18 -195l12 -51l8 -29q2 -8 10 -24.5t9 -18.5l8 -20q1 -3 3 -6t5 -6.5t4 -5.5q22 -33 41 -50l9 -8l16 -8l10 -8l12 -6q57 -17 107 -17q49 0 88 17q14 5 43 22q11 5 20.5 18.5t10.5 14.5l12 18 l10 17q2 0 2 4q17 22 31 57q5 10 16 47l9 47q6 55 6 115q0 72 -11 123q0 10 -4 18q-3 9 -7.5 35t-9 43t-18 44.5t-34.5 52.5q-31 37 -79.5 52t-86.5 15q-15 0 -23 -2q-42 -5 -71 -20q-19 -8 -64 -35q-30 -21 -49 -51q-28 -42 -37 -68q-2 -6 -8 -29.5t-9 -35t-6 -31t-3 -35.5 z" />
<glyph unicode="7" horiz-adv-x="983" d="M119 1503q0 9 4 15q5 10 12 12l2 2h2q10 2 37 2q13 0 37.5 -1t32.5 -1h4q14 0 46 2t48 2l256 -2q24 0 77 1t81 1q56 0 192 -4h6l5 -4q4 -16 4 -21q0 -10 -7 -24l-8 -19q-2 -4 -4 -13.5t-4 -14.5q-2 -4 -6.5 -12.5t-5.5 -12.5l-96 -192l-25 -45q-21 -39 -55 -115.5 t-54 -114.5q-35 -58 -86 -184l-67 -172l-53 -125q-6 -17 -22.5 -49t-22.5 -47q-8 -23 -32.5 -69t-27.5 -52q-6 -13 -18 -36.5t-17 -33.5l-49 -104l-12 -33q-1 -2 -3 -6.5t-3 -6l-3 -4.5t-5 -5.5t-7 -4.5q-12 -12 -39 -20q-3 0 -13.5 -0.5t-18 -1t-18 1.5t-19.5 6 q-11 6 -18.5 11.5t-11 12t-5 9.5t-1.5 11l-1 7v12q0 20 18 45q3 8 12 24.5t11 19.5q18 28 45 83l100 164q2 2 6 11.5t7 13.5q2 4 5 9.5t11 18.5t19 33t35 62t55 96q7 18 27.5 54.5t21.5 39.5q42 82 45 88q12 20 32.5 63.5t34.5 67.5q24 46 31 60q5 14 25 43l53 100l29 51 l20 45q5 12 18 34t19 34q21 42 22 45l19 29q-48 0 -157 -2t-167 -2q-31 0 -89 -3t-75 -4h-38q-18 0 -53 1t-52 1h-22q0 -12 -2 -18q0 -13 -3 -25l-6 -16q-10 -10 -24 -10h-4q-13 0 -19 4q-8 8 -10 14q-6 10 -6 33v107q0 4 -1 13.5t-1 14.5z" />
<glyph unicode="8" horiz-adv-x="1019" d="M109 340v47q4 52 12 98q6 40 22 73.5t25.5 46t30.5 36.5q55 63 82 78l30 18q4 4 8.5 6.5t10.5 6t10 6.5q21 12 96 51l-18 7q-19 8 -29 13q-4 0 -8 4l-19 13q-4 2 -11 7.5t-9 6.5q-18 14 -51 47q-11 11 -27.5 38.5t-19.5 31.5l-11 24q-32 72 -32 172q0 39 2 62q2 9 16 57 q5 28 8 35l17 29q0 2 2 2q0 4 2 8l12 20q4 6 31 33q19 24 28 31q7 4 20.5 12.5t20.5 12.5q32 23 41 28q58 21 105 29q12 2 41 2q69 0 127 -14q36 -8 78 -27q33 -14 59 -31q35 -25 72 -67l22 -39q2 -2 2 -6l13 -25q21 -49 24 -94q2 -14 2 -43q0 -46 -4 -60q-6 -43 -59 -125 q-3 -4 -8.5 -9t-6.5 -7l-12 -14q-11 -12 -27 -25t-28.5 -22t-35 -23t-32 -20t-35 -21t-30.5 -18q8 -4 28 -13t31 -14q41 -25 64 -43q61 -45 98 -98q11 -14 26 -43q15 -25 33 -80q12 -32 15 -70q0 -3 1 -10t1 -10q0 -27 -9 -88q-2 -43 -20 -97l-2 -4l-2 -2q-2 -5 -17 -30 l-16 -37l-22 -33v-2l-3 -2l-2 -2l-14 -19q-10 -17 -24 -28l-37 -33q-1 0 -4.5 -3t-6.5 -5q-12 -12 -36 -27l-15 -10q-46 -31 -104 -45q-68 -14 -107 -14h-2q-66 0 -149 22l-60 21q-12 6 -22.5 11.5t-20 13t-15 12t-16.5 14.5t-16 14q-13 10 -23.5 22.5t-17.5 21t-15 25 t-11 23t-11.5 28.5t-11.5 28q-17 46 -24 104zM262 399q0 -23 4 -59l6 -45q10 -63 39 -111q28 -51 47 -65q24 -20 41 -29q27 -14 56 -20q74 -9 90 -9q26 0 61 7l31 8q4 1 10.5 3.5t10 4t4.5 2.5l49 31q28 28 34 35l29 32l14 15q10 16 23 45q15 24 18 45q14 37 15 41 q10 45 10 88q0 55 -16 102q-11 26 -23 45q-13 21 -57 62q-12 11 -28 23t-26 18l-10 6q-23 15 -59 31q-15 7 -47 28q-4 3 -15.5 9t-21.5 12l-47 18q-19 -9 -62 -35q-3 -2 -9.5 -4t-8.5 -4l-39 -39q-12 -9 -26.5 -25.5t-22.5 -28.5l-8 -13l-15 -27q-18 -28 -30 -57 q-21 -69 -21 -140zM283 1194q0 -21 2 -31q4 -27 12 -49q16 -51 37 -72q16 -16 22 -20q39 -25 43 -29l78 -45l39 -20l45 -23l33 -16q9 4 39 26l29 21q17 12 28 21t14.5 13t7.5 9.5t5 7.5l20 23l11 14q3 5 8.5 15.5t7.5 14.5t5.5 12.5t5.5 15.5t4.5 17.5t4.5 22.5l7 109 q-3 91 -41 141q-53 74 -113 92q-33 9 -94 9q-8 0 -21 -1.5t-16 -1.5q-27 -6 -43 -12q-5 -2 -19 -5t-20 -5q-2 0 -4 -2l-21 -14l-18 -15q-24 -16 -49 -45q-4 -13 -15 -29.5t-14 -23.5q-20 -52 -20 -125z" />
<glyph unicode="9" horiz-adv-x="1005" d="M96 1090q0 66 23 151l18 45q11 31 41 70l29 41l26 30l39 35q8 8 17 11l12 10l74 41q54 20 143 20q42 0 98 -16q-3 3 4 0q44 -17 68 -33l21 -10q7 -6 23 -18t24 -19t20.5 -18.5t23 -24t21.5 -27.5l4 -8q80 -144 80 -295v-14q0 -13 -1 -26.5t-2 -24.5t-5 -25t-6 -22.5 t-7.5 -23.5t-8 -21.5t-9.5 -22.5t-9 -20t-10 -21t-9 -20l-23 -48q-26 -54 -49.5 -100t-65.5 -125t-79 -151q-7 -10 -7 -15l-30 -65q-17 -36 -49.5 -99.5t-45.5 -89.5l-26 -67q-5 -9 -16 -29.5t-17 -28t-22.5 -15t-42.5 -7.5q-29 0 -45.5 15.5t-18.5 33.5v12q1 28 19.5 61.5 t50 74t37.5 49.5l36 57q9 17 43.5 68.5t55.5 87.5l170 290q-17 -9 -53 -31.5t-53.5 -31.5t-50 -18t-67.5 -9q-87 0 -141 33l-8 4q-21 10 -23 12l-6 5q-21 12 -39 24q-1 1 -10.5 8t-20.5 17.5t-25.5 26.5t-31.5 42t-34 58l-15 26q-15 37 -20 56q-19 63 -19 125zM246 1100 q0 -115 14 -142l6 -16l19 -66q35 -102 75 -122l7 -9l10 -2q48 -30 112 -30q15 0 23 2q13 2 24 4t22 6.5t17 6.5t17.5 9t15 9t17 11l16.5 11l18 12q45 32 68 98t23 146q0 108 -11 186l-18 84q-11 37 -14 43l-15 27q-27 46 -49 64l-25 18l-24 10q-46 17 -107 17 q-40 0 -72.5 -8t-55 -24.5t-38 -32t-26.5 -41t-16 -39.5t-11 -39.5t-8 -30.5l-8 -48q-3 -16 -4 -35t-1 -42.5t-1 -36.5z" />
<glyph unicode=":" horiz-adv-x="419" d="M156 864q0 7 2 13q48 52 96 47q59 -26 59 -68q0 -20 -26 -63q-30 -31 -60.5 -22t-53 40t-17.5 55v-2zM164 106q0 24 12 48t29 28h8q60 10 98 -41q17 -52 -9 -75t-69 -25q-30 -4 -49.5 17t-19.5 48z" />
<glyph unicode=";" horiz-adv-x="419" d="M-18 -324q-6 -13 7 -28.5t30 -17t30 15.5l158 344q34 63 69 149q9 40 5.5 62.5t-15.5 25.5q-29 3 -48 -21.5t-23 -49.5l-58 -129q-130 -294 -155 -351zM179.5 861q12.5 36 51.5 42q8 4 41 4q22 0 39 -16t23 -39q5 -34 -12.5 -57t-42.5 -35q-63 -20 -91 31q-21 34 -8.5 70 z" />
<glyph unicode="&#x3c;" horiz-adv-x="1474" d="M160 551q0 11 8 27q11 15 22 22l19 10l14 8q14 9 19 9l8 4h-2l315 172l92 47q79 43 131 68l13 4q4 0 10 6q27 17 76 41.5t61 27.5l60 33l30 21l160 79q30 15 57 15q22 0 25.5 -19t-2.5 -39q-26 -22 -49 -38q-27 -11 -33 -21l-51 -27l-76 -40l-12 -5h2l-62 -30 q2 2 -28 -13q-29 -19 -49 -26q-7 -6 -28.5 -16.5t-25.5 -12.5l-86 -43l-33 -20q-60 -26 -79 -41l-2 -4q-255 -126 -367 -187l37 -12q19 -8 106 -55l82 -41q6 -2 48 -21t61 -26q132 -53 200 -89l379 -190q12 -4 35.5 -18.5t32.5 -26.5h-2q16 -16 9.5 -39.5t-21.5 -28.5 q-22 0 -33 7l-14 8l-27 12l-146 68l-196 92l-143 76l-33 14l-168 72q-96 42 -168 79q-8 3 -38 16.5t-44 18.5q-6 0 -10 4l-21 11q-8 0 -12 4h2q-4 1 -12.5 5t-12.5 5q-20 8 -26 27z" />
<glyph unicode="=" horiz-adv-x="1038" d="M133 365q1 14 25.5 22t52.5 10q57 4 209 4l205 -6q67 0 75 2q31 4 72 2h29q57 -2 79.5 -8.5t22.5 -28.5q0 -46 -90 -49h-418l-176 2q-36 -1 -57 8t-26 19.5t-3 22.5zM133 709q7 23 80 28q57 4 215 4h66q192 0 276 -2q4 0 16.5 2t16.5 2q32 -1 46 -2t29.5 -4.5t21 -10.5 t5.5 -19q0 -22 -23.5 -38.5t-66.5 -17.5h-418l-176 2q-52 -1 -71 17t-17 39z" />
<glyph unicode="&#x3e;" horiz-adv-x="1472" d="M173 44.5q-6 23.5 9 39.5h-2q9 12 33.5 27.5t32.5 17.5l379 190q94 47 198 89l113 47l160 80l32 12q10 0 37 16q-44 24 -89.5 47.5t-101 51t-87.5 43.5l-94 45l2 2q-11 7 -54 28l-28 15l-33 18q-78 40 -88 45q-6 0 -12 6l-39 23l-15 7q-24 10 -34 15l-29 17l-60 30 q-2 0 -4 2l-8 3l-78 40l-49 27l-28 21q-52 27 -52 38l-4 9q-1 12 -1 23t6.5 18.5t19.5 7.5q25 0 59 -17q140 -71 158 -77l31 -21l55 -31q36 -14 123 -61l16 -8q8 -8 12 -8l13 -4l131 -68q7 -4 27 -14.5t36.5 -19.5t26.5 -13l315 -172h-2q8 -4 11 -4l28 -15l25 -12 q8 -4 20 -22q8 -12 8 -27l-2 -16q-10 -24 -28 -27l-23 -10l-12 -4q-1 0 -3 -1t-3 -1h2l-17 -9l-10 -4h2l-47 -20q-21 -7 -37 -15q-72 -37 -168 -79l-168 -72l-28 -14q-103 -55 -148 -76l-194 -92l-152 -70l-22 -12q-7 0 -13 -6q-10 -7 -34 -7q-14 5 -20 28.5z" />
<glyph unicode="?" horiz-adv-x="874" d="M10 1255v5q10 65 35 110l21 35l28 41q22 32 42 50t43.5 31t33.5 21l33 17l86 24q42 10 78 10q16 2 67 -5t51 -11q5 -1 22 -3.5t26 -5.5t24.5 -9t32 -18t35.5 -29l29 -27q47 -49 63 -98l14 -29q12 -35 12 -74q3 -62 -6 -111t-33.5 -93t-43.5 -69.5t-58 -70.5 q-8 -9 -12 -14l-27 -29l-37 -37l-10 -12q-4 -5 -14 -17t-18 -22t-13 -20q-7 -12 -11.5 -16t-8 -5.5t-17.5 -27.5t-39 -78l-8 -31l-10 -21q-1 -4 -8 -34l-4 -11q-1 -9 -1 -26.5t-1 -24.5q0 -1 -1 -22.5t-3 -43.5t-11 -41t-24 -20q-7 0 -25 6l-2 2q-14 14 -14 25v29 q0 79 39 223q15 51 46.5 107.5t83 133t76.5 119.5l29 68q4 16 13 42t12 38.5t5 41.5t1 70q-3 49 -19 95q-6 41 -50.5 86.5t-119.5 50.5q-6 0 -8 -2h-18q-97 -5 -179 -69.5t-92 -155.5q-6 -73 -17 -95t-36 -22q-39 -1 -59.5 17.5t-22.5 51.5zM309.5 87q11.5 37 50.5 44 q10 6 39 6q23 0 40.5 -15t23.5 -38q7 -34 -10 -58t-41 -36q-62 -22 -93 26q-21 34 -9.5 71z" />
<glyph unicode="@" horiz-adv-x="1777" d="M117 750q0 137 59 249l23 43q4 9 15.5 26.5t16.5 25.5l11 22q14 24 51 61t51 58l14 12q4 4 12.5 10.5t12.5 10.5v2q259 219 635 219h37q87 -8 184.5 -40.5t155.5 -76.5l67 -51q59 -47 70 -72l16 -20q4 -6 9 -14t16 -26.5t26 -41.5q5 -19 11 -19v-4q20 -20 35 -106 q16 -74 16 -164v-31q-3 -36 -15 -79t-25 -77.5t-15 -43.5l-37 -68l-4 -16q-9 -13 -9 -15h-4q-24 -51 -67 -90l-15 -15t-24 -22.5t-33.5 -23.5t-44.5 -23.5t-55.5 -16.5t-69.5 -7q-74 0 -126.5 33.5t-63.5 103.5q-4 0 -4 -2l-2 -2q-1 -20 -33 -55.5t-58 -47.5l-47 -22 q-69 -19 -106 -19q-12 0 -23.5 2t-24.5 6t-18 5l-14 4q-12 0 -16 2l-23 16q-1 0 -3 1t-3 1l-16 10q-130 87 -130 267q0 122 59.5 225.5t153.5 173.5l33 25q2 0 2 2l8 6q9 6 31 14t27 10l26 13q8 4 17 4l16 6h88q62 0 127 -51l10 -8q4 -7 7 -9v-2q4 0 8 -6l18 -41 q14 49 29 84l6 4q16 4 57 4q42 0 58 -4h8v-10q0 -12 -3 -24t-8.5 -27t-6.5 -19l-74 -245l-4 -9q-4 -9 -8 -34q-6 -18 -11.5 -33.5t-8 -22.5t-4.5 -12t-3 -11t-1.5 -10.5t-2.5 -19.5t-4 -29l-11 -30q0 -6 -1 -20t-1 -21q0 -90 86 -107h2q28 0 52.5 6.5t45.5 21t32 23.5 t30.5 30t22.5 24q70 70 127 229l8 23q12 49 12 155q0 76 -45 189l-8 26l-8 8q-4 6 -10 18.5t-9 16.5l-14 17q-5 6 -16 21t-19 24t-12 12l-10 8q-6 5 -127 94l-41 17q-73 33 -138.5 44t-152.5 11h-10q-106 -6 -201 -35l-39 -8q-16 -6 -92 -43l-64 -35q-52 -35 -55 -37 l-10 -12q-19 -14 -34.5 -27.5t-31 -33t-23 -29.5t-25.5 -37t-23 -35l-7 -6q0 -6 -7.5 -15t-8.5 -13q-80 -131 -80 -338q0 -113 23.5 -196.5t63 -143t116.5 -146.5q52 -58 109.5 -91t136.5 -54l47 -12q76 -21 145 -21h27q248 0 440 127l51 35q10 6 13 6l20 16q1 0 4.5 1 t5.5 1t7 -1t6 -1l18 -22q4 -12 4 -21q0 -14 -12 -26l-21 -15q0 -6 -39 -33.5t-57 -35.5q-16 -8 -51.5 -20.5t-58.5 -24.5l-15 -4q-6 0 -8 -2l-10 -7q-11 -3 -56 -14t-66 -15.5t-56.5 -10.5t-65.5 -7h-14q-10 0 -31 1t-31 1h-73q-75 6 -164.5 32.5t-157.5 64.5l-33 22 q-3 0 -12 6l-31 21q-13 3 -43 33h-4q-7 0 -33 26l-16 15q-6 3 -12 9t-10 10.5t-10 12.5t-9 11l-59 75q-9 7 -39 70l-8 14l-2 4l-13 15q-2 4 -2 8v4q-25 37 -44 133t-19 191zM651 573q9 -71 23 -106l6 -6q4 -4 7.5 -9.5t5.5 -9t3 -4.5h2l4 -4q5 -10 7 -10l10 -6 q26 -18 42 -23.5t44 -5.5q31 0 67 13.5t41 13.5q15 8 34.5 31t31.5 42l12 19l2 2q45 76 80 184t35 199v27q-8 52 -44.5 85t-88.5 33h-2l2 9h-4v-11q-53 0 -100 -27.5t-78 -72.5l-7 -6q0 -4 -2 -8l-16 -19q-5 -9 -15.5 -23t-11.5 -16q-90 -120 -90 -280v-11z" />
<glyph unicode="A" d="M82 42q4 10 9 15t17 7.5t21 2.5h23.5t23.5 1q9 18 31 55t33 59q0 1 9.5 25t24 61t31 77.5t34 80t30.5 63.5q13 32 26 68.5t28 80.5t23 67q7 22 24 61.5t19 44.5l46 104l45 103q11 24 25 70.5t22 66.5q4 12 16 34.5t16 35.5q49 146 70 243q15 60 76 60q25 0 75 -1t72 -1 q28 0 40 -1t22.5 -7t11.5 -19q1 -20 -16 -28.5t-56 -10.5q2 -21 8.5 -46t12.5 -41.5t17.5 -46t15.5 -40.5q18 -50 46.5 -142.5t37.5 -121.5q11 -34 32 -92t29 -82q59 -169 143 -442q13 -48 64 -170q8 -19 19 -53.5t22 -61t26 -49.5q21 1 41 2q20 0 32 -8t11 -24 q0 -18 -11 -28q-10 -10 -26 -13t-37.5 -3.5t-45.5 0.5q-76 3 -121 3q-22 0 -37 -1q-74 0 -74 45q0 22 21 28q14 4 38 4q12 0 27 -1q-30 47 -63 146.5t-43 123.5q-20 45 -45 148.5t-47 150.5q-240 0 -543 -10q-22 -39 -64 -154q-10 -28 -34 -77t-31 -66q-61 -152 -88 -209 q-2 -5 -15.5 -28t-15.5 -38q32 8 59.5 1t26.5 -35q-1 -11 -6 -18t-17.5 -9.5t-21 -3t-28.5 -0.5h-13q-20 1 -64 -2q-22 -2 -39 -2t-31 2q-27 3 -38 20q-3 9 -3 16q-1 6 1 10zM530 702h29q157 0 461 19q-5 16 -44 140.5t-61 191.5q-8 26 -28.5 79t-28.5 80q-27 95 -59 156 q-2 2 -3 5t-3 3q-5 0 -5 -2q-45 -132 -81 -219q-4 -11 -15.5 -34.5t-15.5 -35.5q-5 -14 -14 -49.5t-17 -54.5q-15 -41 -56 -134.5t-59 -144.5z" />
<glyph unicode="B" horiz-adv-x="1320" d="M111 33q0 20 33 32q23 8 53 7q3 20 0 59q0 10 1 31t1 31q1 51 1 69t-2 67t-3 66l-5 101q0 49 6 156.5t7 156.5q0 24 0.5 48.5t-0.5 50.5q-1 52 -3 117t-3 103q-1 41 -1 83q0 125 7 257q-9 1 -23.5 1t-24 0.5t-19.5 2.5t-15 8t-6 15q-1 16 8 25.5t27.5 12.5t35 3.5t42 0 t36.5 -0.5q30 2 193 2q95 0 140 -4t128 -21q68 -16 72 -18q57 -18 69 -25q9 -4 45 -36q34 -26 49.5 -38.5t39.5 -37.5t40 -53q46 -75 54 -119q3 -21 2 -42q0 -43 -10 -84q-16 -62 -48 -106q-36 -52 -98 -90q-25 -15 -56.5 -26t-76.5 -23.5t-66 -19.5q113 -29 192.5 -62.5 t129.5 -87.5q57 -63 73 -169q5 -38 5 -74q-1 -68 -19 -134q-28 -102 -88 -153q-35 -30 -139 -66q-35 -12 -75.5 -19t-65.5 -9.5t-82 -6.5q-82 -6 -254 -6q-48 0 -96 -4q-47 -4 -69 -4h-5q-24 0 -88 4q-49 5 -49 29zM346 658.5q0 -46.5 4 -104.5t4 -89q0 -43 -1.5 -127.5 t-1.5 -151.5t3 -118q74 -1 138 -1q32 1 62 1q89 0 168 18t132 57q9 7 64 68q25 32 34 72.5t13 105.5q-1 8 1 40q1 19 1 33v15q0 8 -6.5 24.5t-6.5 18.5q-17 63 -51 105q-2 2 -13.5 16.5t-19.5 22t-16 12.5q-54 33 -109.5 48.5t-142.5 18.5q-33 2 -74 2q-25 -1 -53 -1 q-52 -2 -92 -1h-29q-8 -38 -8 -84.5zM352 805q24 0 47 -0.5t34 -0.5q4 0 8 -1q9 0 23 1q20 1 48 3q47 2 118.5 16.5t104.5 32.5q40 20 80 55q48 37 80 105q29 62 29 130v13q0 54 -23 105q-4 6 -10.5 14.5t-16.5 20t-16 18.5q-73 83 -162 115q-124 48 -232 48q-14 0 -28 -1 q-26 -1 -42 0q-8 0 -17 0.5t-19 -0.5q-7 -77 -7 -210q-1 -60 1 -131q2 -109 3 -189q0 -90 -3 -144z" />
<glyph unicode="C" horiz-adv-x="1294" d="M158 598q-8 47 -8 108q0 75 12 173q44 281 190 434q28 30 99 82q72 56 104 73q30 15 68.5 25.5t67.5 14.5t78 10t75 10q6 1 13 1q45 0 149 -32q18 -5 42.5 -20t45.5 -19q3 24 5 33.5t10 19.5t24 11q17 1 27.5 -9t14 -31.5t4 -39t-1 -48.5t-1.5 -42q0 -17 -0.5 -26.5 t-3.5 -23.5t-11 -22t-20 -10q-25 0 -33 10q-13 10 -9.5 36.5t-0.5 47.5q-4 10 -18 26t-27 21q-41 20 -80 31q-50 13 -129 13q-39 0 -86 -3q-113 -9 -221 -102q-86 -77 -140 -183q-68 -202 -68 -380q0 -35 3 -70q4 -110 16 -180q22 -122 86 -228q23 -32 32.5 -44.5t28 -31.5 t40.5 -36q46 -34 86 -56q11 -4 40.5 -21t53.5 -24q113 -26 196 -26q40 0 74 6q17 4 33.5 11.5t26.5 13.5t28 19t25 17q2 8 1.5 44t9 56.5t36.5 20.5q14 0 22.5 -8.5t11.5 -27t4 -31.5q0 -6 0.5 -16.5t-0.5 -23.5q-1 -27 -1 -34v-13q0 -41 -11 -71q-13 -35 -34 -35 q-38 0 -38 52q0 7 1 16q-37 -29 -70 -43q-43 -17 -137 -17q-47 0 -107 4q-144 15 -245 53q-85 31 -141 82t-113 134q-104 143 -129 319z" />
<glyph unicode="D" horiz-adv-x="1421" d="M102 45v5q0 20 20 26q18 5 50 4h21q-1 39 -1 87q0 121 4 301q5 254 5 357v90q-6 18 -7 38.5t1 48t2 38.5v103q2 83 10 305q-8 1 -24.5 2t-28 2.5t-24 4.5t-19 10t-5.5 18q1 14 11.5 22.5t29.5 11.5t37 3.5t41 0.5t33 1q14 1 31.5 1t39.5 -0.5t33 -0.5q148 0 300 -19 q163 -22 271.5 -64.5t178.5 -127.5q48 -56 72 -90q81 -129 96 -224q2 -11 14 -59t13 -72q1 -8 1 -17.5t-0.5 -21t-0.5 -18.5q2 -50 2.5 -85.5t-2.5 -55.5q-1 -13 -8 -34.5t-9 -31.5q-1 -4 -4.5 -28.5t-7.5 -36.5q-8 -30 -55 -121q-8 -14 -31.5 -58.5t-38.5 -64.5 q-9 -12 -23 -26.5t-22 -21.5t-31.5 -27t-27.5 -23q-93 -72 -185.5 -118t-204.5 -63q-94 -12 -196 -12h-41q-18 2 -37 2l-37 -2h-90q-20 2 -61 2q-13 1 -25.5 0t-24.5 0.5t-21.5 4.5t-15.5 11.5t-8 22.5zM352 61q14 -1 35 -1t48 1q54 2 93 5l39 2q24 0 47 3.5t46 11.5 t39.5 13.5t40 18.5t34 19t35.5 21.5t31 18.5q15 9 29.5 20t24 18.5t22.5 21t19.5 20t22 23.5t21.5 24q30 33 55 84q30 61 44 93t30.5 89t19.5 111q0 16 2 46t2 46v18v22q0 24 -4 44q0 1 -6 68q-8 55 -49 147q-34 83 -69 135q-13 23 -70 80q-71 66 -160 109q-57 26 -92 37 q-7 2 -34.5 9t-40.5 10t-36 7.5t-41 5.5h-18.5h-17.5h-18h-46q-10 0 -18 1q-33 0 -47 -5q-1 -40 -7 -234q-4 -120 -4 -201q0 -50 2 -85q4 -53 4 -159t-4 -265q-5 -223 -5 -356q0 -57 1 -97z" />
<glyph unicode="E" horiz-adv-x="1220" d="M133 1489q-1 4 -1 8q0 11 6 19q8 10 26 14q16 5 38 7q14 1 29 1h15q22 -1 39 0q75 0 259.5 -1t270.5 -1q18 0 70 1q35 1 62 1h25q34 0 62 -6q0 -10 1.5 -36.5t1.5 -44t-3 -38t-12 -31.5t-25 -12q-26 0 -37 28q-9 22 -9 53q0 8 1 17q-99 6 -191 6q-74 0 -143 -4 q-26 -1 -69 -1h-47h-47q-42 0 -66 -1q-7 -117 -7 -312q0 -130 3 -296q80 -4 184.5 -4t233.5 4q1 7 1.5 20t1.5 19.5t3.5 14.5t7 12t12.5 6q17 4 28 -1t16.5 -24.5t7 -29t3.5 -40.5q1 -7 1 -10q1 -21 0 -40.5t-3 -34.5t-10.5 -24t-23.5 -9q-24 -2 -33.5 16t-5.5 56 q-54 -2 -123 -2q-124 0 -295 6q-2 -59 -2 -87t2.5 -101t3.5 -103q0 -53 7 -152.5t8 -140.5v-45t2.5 -57.5t9.5 -40.5q55 0 174 -1q79 -1 143 -1h59q83 0 167 4q-1 16 -1 31q0 19 2 35q4 30 11 36q6 6 19.5 9.5t23.5 0.5q24 -7 24 -79v-6v-11v-16.5v-17t-0.5 -14.5t-2.5 -14 t-5.5 -10t-9.5 -8q-5 -3 -13 -4.5t-19.5 -2t-21.5 -0.5t-26 0.5t-26 0.5h-84h-210q-43 0 -81 1q-152 0 -217 -5q-8 0 -41.5 -3t-54 -3t-46 3t-36 15.5t-5.5 32.5q4 17 23 22t49 7h8q7 155 7 295.5t-7 265.5l-4 110q0 5 -3 16t-3 17q-1 23 -1 72v57q0 19 1 36q0 67 -2 95 q-4 86 -4 129q1 15 -3 145q-1 54 -2 89q0 50 3 63q-68 0 -74 29z" />
<glyph unicode="F" horiz-adv-x="1175" d="M117 1495q-1 17 17 27t46 10q350 0 842 -8q3 -34 3 -61q0 -105 -44 -105q-25 0 -32 26q-5 20 -5 54v20q-146 5 -246 5q-50 0 -88 -1q-19 -1 -46 -1q-31 -1 -72 1q-49 2 -81 3q-18 0 -30 -1q-6 -135 -6.5 -283t6.5 -309q20 -8 51 -10t60 0q12 1 26 1q18 0 39 -1 q99 -3 155 -3q33 0 50 1q1 29 2.5 40t9.5 21.5t25 10.5q29 1 38 -28.5t11 -84.5q0 -22 -0.5 -32.5t-3 -25.5t-7 -22t-14.5 -11.5t-24 -2.5q-33 2 -33 45q0 11 2 25q-7 0 -158.5 1t-222.5 5q-5 -75 -5 -107v-9q0 -33 2 -106q4 -83 5 -114q6 -163 6 -164q2 -24 3.5 -75.5 t5 -86.5t12.5 -65q11 1 21 1q59 0 67 -36q3 -13 -7 -21.5t-29.5 -11t-45 -3.5t-52.5 0t-51 -1q-27 -1 -45.5 -1.5t-42 -0.5t-38.5 2t-29 5t-20.5 9.5t-6.5 14.5q1 26 21 34.5t61 10.5q0 38 1 112t1 113q-1 20 3 65q3 35 3 57v11q0 9 -3 27t-3 22q-1 13 -1 42v34q0 11 1 21 q0 40 -2 57q-8 98 -8 149l-4 160q-8 207 -8 370q0 74 2 140q-20 0 -28 0.5t-24.5 3.5t-23.5 11q-8 9 -8 24z" />
<glyph unicode="G" horiz-adv-x="1425" d="M193 877q22 133 59 231q51 142 219 276q70 57 102 72q128 72 260 72h11q35 -1 69 -6t72 -16.5t56 -18t61 -24t47 -19.5q-2 8 -2 15q0 28 26 48q28 23 49 6q7 -6 11 -18q3 -15 3 -44.5t-3 -72.5q0 -6 0.5 -21.5t0.5 -24.5t-1.5 -22.5t-5.5 -21t-12.5 -13.5t-20.5 -7 q-34 0 -39 22q-3 9 -2.5 35t-3.5 39q-2 6 -18 19t-33 20q-69 30 -117 41q-73 20 -138 20q-30 0 -59 -4q-86 -14 -150.5 -53t-123.5 -100q-17 -17 -47 -66q-3 -7 -10 -23t-13.5 -27.5t-15.5 -19.5q-39 -114 -47 -165q-13 -83 -21 -226q-2 -28 -2 -58q0 -73 11 -152 q15 -112 47 -185q1 -2 10.5 -40t19.5 -54q21 -33 31.5 -47.5t28.5 -35t39 -38.5q103 -78 223 -104q47 -12 97 -12q39 0 79 7q93 16 135 66q-7 103 -6 113q0 38 1 154q1 78 1 139q0 30 -1 57q0 78 -5 147q-71 3 -86 14q-14 10 -12 29q3 39 80 39q94 4 155 4h10q82 0 93 -18 q7 -12 7 -21q0 -17 -21 -28q-26 -14 -56 -14q-9 0 -18 1v-29q0 -54 3 -136q3 -106 3 -195.5t-9 -167.5q-1 -8 -1 -24t-1 -27.5t-4 -18.5q-5 -15 -53 -51q-70 -49 -141 -75q-56 -20 -123 -20q-18 0 -37 1q-24 1 -69.5 7t-57.5 7q-58 8 -115 27q-148 54 -198 94 q-33 25 -84 105q-4 6 -19.5 28t-23 33.5t-17.5 30t-16 33.5q-17 39 -31 77q-45 116 -45 260q0 83 15 175z" />
<glyph unicode="H" horiz-adv-x="1495" d="M154 35q0 36 59 36q9 0 18 -1q1 27 1 63q0 55 -2 129q-3 124 -3 166q-1 21 1 62t1 61q0 13 -3.5 35t-4.5 30q0 35 8 109q1 17 1 49v55q-1 44 -1 73v32q0 19 2 54t2 52q0 5 -3 33t-3 43q-1 23 0 48.5t3 56.5t3 47q1 24 1 60.5t0.5 66t3.5 57.5q-6 2 -24 6t-24.5 6.5 t-15 10t-12.5 18.5q-4 10 4 17.5t24.5 11t36 5t43.5 1.5h84h20h48t37 -3t30 -10t9 -18q0 -41 -77 -41h-11q-7 -34 -7 -145q-4 -91 -4 -185q0 -146 9 -299q157 -8 316 -8q221 0 445 15q1 53 3 200q4 146 4 212v30q0 65 -2 176q-12 -1 -23 -1q-64 0 -64 46q0 7 2 12t7 8 t10 4.5t14 2.5t16 1t18.5 0.5t19.5 0.5q46 4 80 4q95 0 96 -31q0 -11 -4 -19t-9.5 -12.5t-17 -7t-19 -3.5t-23 -1.5t-22.5 -1.5q-4 -164 -4 -503q0 -226 2 -529v-35q0 -36 1 -72q2 -54 7.5 -132t6.5 -103q12 -4 37 -5.5t36 -8.5t11 -27q0 -19 -11.5 -28t-23.5 -10t-38 -1 h-11h-16q-37 0 -56.5 0.5t-46.5 4t-39 12.5t-10 24q2 14 13.5 22t23 10t38.5 4q7 1 11 1q2 15 2 35q0 26 -4 62q-6 63 -6 73q0 14 0.5 40.5t0.5 48.5t-1 42q0 33 -11 377h-31q-69 0 -187.5 -3t-191.5 -3h-34q-29 0 -98 2q-43 2 -78 2h-40q-49 -2 -93 -9q-5 -23 -5.5 -47.5 t0.5 -61.5t1 -50q0 -48 -4 -258q-2 -105 -2 -167.5t2 -84.5q81 -8 81 -41q-3 -38 -72 -38q-11 0 -24 1h-125q-8 -1 -24 -2.5t-24.5 -2t-21 -0.5t-19 2.5t-13.5 6.5t-9 12q-1 6 -1 13v8z" />
<glyph unicode="I" horiz-adv-x="706" d="M172 1492q0 8 8 19q10 14 29 15q3 0 16.5 1.5t20.5 0.5q22 -2 62 -2t98 2q10 0 27.5 1t26.5 1h10h12q14 0 21 -1.5t14.5 -4.5t10 -9t2.5 -14q-1 -20 -14.5 -26.5t-41.5 -7t-40 -3.5v-16q0 -22 -2 -58q-2 -50 -2 -65q0 -25 4 -78t4 -78q4 -102 4 -385q0 -18 -1 -52t-1 -61 t2 -50q8 -175 8 -279q0 -43 -1 -74q-1 -8 -4 -46t-4 -56t0.5 -47t7.5 -49q7 0 20.5 -0.5t19 -0.5t16 -1t15 -3t11 -5.5t9 -8t4 -12t1.5 -16.5q-1 -10 -7 -15.5t-18.5 -7t-24.5 -1t-31 1.5t-30 1q-18 0 -57 -2t-67 -2q-6 0 -12 -1q-24 0 -48 2q-30 2 -46.5 11t-15.5 25 q2 34 79 33h22q11 167 11 353q0 286 -26 617q-4 37 -4 119q0 31 -2.5 94t-2.5 116t5 97q-24 4 -44 2q-21 -2 -36 2q-18 6 -18 24z" />
<glyph unicode="J" horiz-adv-x="1003" d="M90 178q0 28 68 31q11 1 33 -0.5t30 -1.5q9 0 34 1.5t38 0.5q27 -2 44 -11t17 -24q-1 -12 -5 -14.5t-25 -5.5q-20 -4 -52 -4q18 -85 39 -114q21 -31 54 -36q49 -6 81 -6t46 6q54 23 83 82q3 7 7.5 33t5.5 30q3 20 4 41t1 49.5t1 45.5q0 26 4 80t4 83q0 21 -14 392l-2 202 q-5 46 -5 85q0 16 1 32q0 31 -3 95t-3 117t6 97q-13 2 -42.5 2.5t-42 6t-14.5 24.5q0 24 37 27q4 0 16 4q10 2 17 2h4q35 -4 86 -4q34 0 74 2q24 1 46.5 0.5t40.5 -3t28 -9.5t10 -19q0 -22 -16 -27q-15 -6 -35.5 -3.5t-42.5 -2.5q-7 -72 -7 -145q0 -33 4 -139q0 -2 4 -72 q3 -55 3 -87v-15v-28v-59q2 -58 2 -77q0 -227 4 -269q2 -31 2 -96q2 -2 1 -47l-1 -45q0 -41 -6 -84q-1 -10 -3.5 -39t-5.5 -43q-5 -18 -11 -63t-15 -68q-10 -26 -20.5 -38.5t-36.5 -33.5q-63 -49 -164 -69q-24 -5 -54 -5q-27 0 -58 4q-67 8 -105 27q-22 10 -46.5 38.5 t-37.5 56.5q-16 32 -29 82q-2 0 -23 2t-30 4q-25 7 -25 22z" />
<glyph unicode="K" horiz-adv-x="1589" d="M186 39q0 26 18 31t62 2q7 64 9.5 191.5t5.5 176.5q3 39 3 98q0 78 -5 189q-2 7 -2 32q-1 21 1 55q2 74 3 89v154q0 17 3 52t3 52q0 23 -2 67t-2 66q0 18 2 53t2 64.5t-4 54.5q-10 2 -28 3t-28 2.5t-21 6t-15.5 14t-2.5 24.5q1 9 8 14t18 6.5t25.5 2t30 -0.5t31.5 0 q33 1 62 1q172 0 174 -26q1 -15 -7 -24t-22.5 -12t-33.5 -4t-38 0q2 -27 2 -64q0 -51 -4 -121q-4 -78 -3 -128q0 -28 1 -48q0 -21 4 -45v-55q-2 -36 -2 -89t2 -124q17 4 43 35q17 19 55 52t48 42q11 9 21.5 20t23.5 27.5t18 21.5q17 17 60.5 59.5t75.5 75t59 62.5 q27 29 235 274q-11 2 -33 3t-33 3t-20.5 11t-9.5 26q0 31 86 31q14 0 36.5 -0.5t38.5 -0.5t31 1h18q81 0 81 -33q0 -11 -11 -22t-24 -14q-8 -3 -33 -2t-35 -3q-9 -3 -21.5 -16t-28.5 -34t-21 -27q-290 -328 -486 -517l-39 -34q0 -3 10.5 -11.5t25.5 -19.5t20 -16 q21 -19 43 -45q45 -52 133.5 -139t126.5 -128l82 -94q13 -15 36 -45t39 -47q18 -20 58 -66t75 -85t62 -66h17h16h14t13 -1t10 -2t9.5 -2.5t7.5 -4.5t6.5 -6.5t4.5 -8.5q3 -7 3 -14q0 -15 -17 -25q-20 -12 -86 -12q-9 0 -18 -1q-54 0 -95 3h-45.5t-47.5 0.5t-40 1.5 t-33.5 4.5t-17.5 9.5q-3 3 -4.5 10.5t-1.5 13.5v7q-1 5 0 9t4 6.5t7 4.5t11 3t12.5 1.5t14.5 0.5h16h17.5h17.5q-1 1 -40 45t-79.5 87t-97.5 101l-37 47l-78 84q-12 15 -35 47t-47.5 56t-84.5 78l-66 71q-6 6 -21.5 23t-27 27.5t-25.5 17.5q2 -51 2 -116q0 -211 -20 -572 q12 -2 32.5 -2t31 -1.5t19.5 -9t9 -22.5q0 -7 -1.5 -12.5t-5 -9.5t-7 -7t-10 -4.5t-11 -2.5t-13.5 -1h-14.5h-16h-15.5q-18 0 -58 -2q-30 -1 -51 -1q-7 1 -13 1q-24 0 -52.5 2.5t-42.5 12.5t-15 26z" />
<glyph unicode="L" horiz-adv-x="1208" d="M150 1505q0 24 36 27q18 0 85.5 -1t105.5 -1q99 0 118 -6q22 -7 23 -23q-3 -44 -77 -44q-12 0 -25 1l-2 -227q-3 -33 -3 -97q1 -32 1 -72q1 -67 1 -111q0 -35 -1 -56q0 -13 -1 -42t-1 -42v-78q0 -25 -4 -71q0 -14 2 -45t2 -46l-2 -88q-2 -44 -2 -87.5t2 -86.5 q1 -26 1 -61q0 -70 -3 -178q19 -4 55 -4q18 0 41 1q41 2 67 2q18 0 29 -1q41 -2 113 -2h79q56 1 100 1q58 0 95 -1q-2 25 -2 41.5t2.5 32.5t9.5 23.5t19 6.5q41 -3 41 -70q2 -22 2 -39q0 -38 -8 -53q-7 -4 -21 -4.5t-32 1.5t-27 1q-113 -6 -371 -6h-188q-26 0 -90 -2 q-45 -2 -73 -2h-20q-48 3 -59 10q-12 9 -10 29q3 19 27.5 28.5t50.5 4.5q-2 44 -2 128t2 208q4 206 4 299v32q0 631 -2 725q-21 2 -32 3.5t-25 6.5q-13 4 -21 12q-10 10 -10 23z" />
<glyph unicode="M" horiz-adv-x="1769" d="M158 1499q0 11 3.5 18.5t13.5 12t17.5 7.5t25 4t25 1h27.5h13q18 0 30.5 -2t29.5 -9t32.5 -24.5t27.5 -44.5q16 -33 72 -121t84 -127l29 -47q2 -2 8 -5t8 -5l10 -14l43 -58l39 -67q7 -13 26 -35t26 -35q78 -116 117 -158q23 -25 48 -45l121 183l307 530q17 37 43.5 56.5 t43.5 20.5l18 1q13 0 35 0.5t34.5 0.5t30 -0.5t27.5 -3.5t19.5 -8t13.5 -14q3 -7 2 -16v-6q-1 -11 -6.5 -17t-14 -8.5t-19 -3t-21 0t-21.5 -0.5v-12q0 -42 -6 -112q-6 -80 -7 -111q-1 -25 3 -97q2 -46 3 -78q0 -18 -1 -32q-2 -56 -3 -197t-4 -215q-2 -39 -2.5 -112t-1.5 -97 q-3 -73 -3 -139q0 -103 7 -188q36 2 54 -3t22 -22q7 -22 -5 -35q-12 -12 -40 -16q-25 -3 -49 -3q-4 1 -7 1q-28 0 -68 1.5t-62 0.5q-24 0 -44 -0.5t-33.5 8.5t-14.5 29q0 12 4.5 20t15 11.5t19 5t25.5 2.5t26 2q2 14 2 42q0 21 -1 48q-3 65 -3 76q-3 98 -3 164q0 33 1 57 q0 9 6 102q1 10 1 24q0 27 -3 65q-4 58 -4 79q1 20 3 75.5t2 75.5t-1 76q-1 17 -1 38q-1 66 7 168q8 111 8 171v23q-21 -37 -52 -98.5t-63.5 -118.5t-76.5 -121l-144 -230l-94 -131q-4 -5 -12 -19t-15 -24.5t-15.5 -22t-17 -17.5t-16.5 -5q-8 0 -23.5 17.5t-47.5 57 t-60 69.5l-96 135q-27 38 -82.5 126t-85.5 130q-5 6 -19 22t-20 25q-87 169 -106 176q0 -14 -3 -57.5t-2.5 -58t2.5 -58.5l7 -55v-68q6 -258 6 -260v-72q0 -39 2 -117t2 -116v-29q0 -40 -2 -95q-2 -77 -2 -144t6 -127q9 1 16 0q66 0 66 -45q-1 -29 -43 -33q-17 -2 -33 -2 q-24 0 -47 4q-17 1 -34.5 0t-33 0.5t-27 5t-18.5 13t-6 24.5q1 10 5 16.5t14.5 10t17 4.5t24 2t23.5 2q-3 38 -3 123q0 51 1 118q2 135 2 197v33q0 43 -5 149q-4 76 -4 127q0 21 1 37q1 39 1 81q0 98 -5 210q-1 34 -4.5 144t-3.5 169h-10q-71 0 -74 39z" />
<glyph unicode="N" horiz-adv-x="1439" d="M184 1493q-1 17 7.5 27t26.5 13t34 3q4 0 9 1q13 1 33 -1q26 -2 38 -2q7 0 26 0.5t24.5 0t20.5 -1.5t20.5 -4t16.5 -8t16.5 -13t13 -19.5t13.5 -26.5q19 -34 60 -110.5t65 -121t61 -107.5t70 -113q34 -46 68 -113q13 -21 41.5 -56.5t36.5 -47.5q44 -82 67 -113 q85 -127 142 -215q1 -2 11.5 -20.5t14 -24t12.5 -19.5t17.5 -22.5t17.5 -16.5q4 177 4.5 542t4.5 552q-28 -4 -51.5 -1t-32.5 18q-16 28 8 49q7 6 24 8t34.5 1.5t35.5 0.5q11 0 30.5 1.5t32 2t29 0.5t27.5 -2.5t20.5 -6.5t14 -12.5t4.5 -19.5q-1 -12 -7.5 -19.5t-16 -10 t-22 -3.5t-26.5 0t-28 0l-9 -489q0 -20 4 -62.5t5 -64.5q0 -45 -1.5 -136t-1.5 -135q-1 -25 1.5 -59t2.5 -49q-1 -10 -1.5 -46t-2.5 -48q-2 -32 -2 -76q0 -62 5 -147q0 -9 2.5 -34.5t3 -43t-1 -38.5t-10 -33.5t-23.5 -14.5h-4q-13 0 -27 10q-16 12 -23 23.5t-20 33.5 q-43 69 -137 198t-140 206l-55 88q-8 14 -27.5 40.5t-27.5 41.5q-10 15 -26.5 44.5t-26.5 43.5q-86 125 -160 258q-17 29 -64 108t-79 135.5t-60 110.5q5 -69 6 -212t2 -187q1 -33 1 -94t1 -109.5t4 -91.5q5 -61 5 -287v-9q0 -58 10 -274q9 -1 27.5 -1.5t29 -1.5t23 -4 t18.5 -9.5t6 -17.5q0 -14 -4.5 -22.5t-16 -11.5t-19.5 -4t-28 0t-28 1q-16 0 -47.5 -2t-51 -2t-41.5 2.5t-32.5 12t-9.5 26.5q0 14 7 22t19 10.5t28 2.5t34 -1q2 11 2 30q0 33 -6 89q-4 46 -4 78q-2 28 -2.5 81t-2.5 81q-1 31 -4 87t-4 85q0 7 1.5 34.5t0.5 41.5v17 q0 20 1 51.5t1 53.5v19q-2 29 -2 71q0 58 4 140q4 92 3 153q0 33 -1 58q-1 37 -5 113.5t-5 113.5q-41 -2 -60 4.5t-22 28.5z" />
<glyph unicode="O" horiz-adv-x="1394" d="M174 829q0 21 1 66t1 66q0 16 3.5 47.5t4.5 42.5l4.5 40.5t6.5 49.5q25 152 157 270q132 115 310 129q28 2 56 1.5t58 -1.5q176 -14 309 -129q133 -119 158 -270q3 -18 6 -49t4 -41q1 -12 5 -43t4 -47q0 -21 1 -66t1 -66q0 -10 -1 -25q1 -38 3 -109q1 -38 0 -67 q0 -45 -2 -65q-10 -107 -17 -135q-23 -113 -65 -186q-37 -66 -95.5 -118t-130.5 -81q-10 -3 -39 -14.5t-47 -16.5q-31 -10 -180 -20l-18 2q-96 5 -127 14q-101 32 -173 87t-124 147q-24 41 -44 117t-26 143q-3 63 -3 138q1 14 1 26v35q0 70 -2 128zM348 857q0 -18 -1 -37 q-1 -58 1 -128q2 -94 2 -139q3 -91 19 -178q6 -71 32 -139t54 -101q24 -31 82.5 -53.5t105.5 -29.5l47 -7q31 0 59.5 4t53.5 12.5t39.5 14t34.5 15.5l22 11q39 25 84 82q26 30 49.5 87.5t30.5 111.5q20 108 22 174q0 17 3.5 48t3.5 36q3 46 3 105q0 105 -10 251 q-5 87 -12 144.5t-29.5 127.5t-58.5 107q-127 114 -272 117q-65 -4 -88 -10q-78 -22 -166 -101q-90 -95 -107 -385q-4 -69 -4 -140z" />
<glyph unicode="P" horiz-adv-x="1280" d="M137 1493q-1 3 -1 5q0 11 15 20q18 10 48 13q31 3 67 5q22 1 42 0h27q33 -1 56 0q64 1 119 1q210 0 297 -15q64 -11 147 -58q52 -29 86.5 -64t65.5 -89q50 -75 55 -142q1 -10 2 -22q0 -42 -14 -119q-12 -72 -37 -120.5t-72 -92.5q-50 -46 -96.5 -70t-116.5 -28 q-74 -5 -240 -7t-202 -3q-5 -53 -5 -124q0 -101 10 -237q16 -234 16 -280q12 -2 30 -2.5t26.5 -1t16 -6t8.5 -17.5q1 -18 -10.5 -29t-37 -14.5t-47 -4t-60 0t-56.5 0.5q-8 0 -31 -1q-12 0 -20 -1q-9 0 -13 1q-10 1 -23.5 4t-19 11.5t-5.5 22.5q1 26 26 30.5t60 -1.5 q1 20 1 44q0 93 -13 246q-6 78 -6 171.5t3 214.5t3 192v153q0 27 -4 73t-5 65q-1 14 -1 40q0 33 2 83q1 24 0 43q0 56 -5 79q-16 1 -30.5 1t-25.5 0.5t-19.5 7.5t-12.5 22zM379 1473q6 -105 6 -209q0 -47 2 -72q5 -44 5 -125q0 -41 -2 -91q-2 -95 -2 -152q0 -32 1 -52 q22 0 95.5 -0.5t113.5 -0.5t93.5 2.5t84.5 8.5q25 5 70 23q15 6 38 28.5t25 24.5q13 10 23 26t22 44t17 37q21 41 26 63q11 40 11 80q0 47 -15 94q-27 88 -82 146q-62 69 -131 94q-65 26 -189 32q-59 3 -110 2q-56 0 -102 -3z" />
<glyph unicode="Q" horiz-adv-x="1427" d="M197 961q0 16 3.5 47.5t4.5 42.5q1 10 4 41t6 49q25 151 158 270q133 115 309 129q11 1 21 1q22 0 36 -5q14 5 37 5q10 0 21 -1q176 -14 309 -129q133 -119 158 -270q3 -18 6 -49t4 -41q1 -11 4.5 -42.5t3.5 -47.5q0 -21 -3 -66t-3 -66q-3 -134 -12 -266q-1 -9 -1 -22 q0 -19 2 -46t2 -46q0 -12 -1 -21q-2 -93 -56 -186q-72 -126 -225 -191q0 -2 2 -2q21 -23 63.5 -74.5t55.5 -64.5q29 -30 29 -53q0 -3 -1 -6q-4 -24 -28 -24h-2q-27 1 -51 19q-26 24 -46.5 46.5t-43.5 49t-41 46.5l-31 35q-59 -18 -176 -27h-21l-2 2q-11 1 -37.5 1t-47 1.5 t-36.5 5.5q-102 32 -176.5 88t-126.5 148q-53 91 -55 186q-1 9 -1 22q0 19 2 45.5t2 45.5q0 13 -1 22q-9 132 -12 266q0 21 -3 66t-3 66zM373 997q-3 -67 -3 -134q0 -111 9 -222q1 -8 4.5 -37.5t3.5 -46.5q5 -134 12 -174q8 -60 30.5 -128.5t45.5 -96.5q18 -40 77 -64 t109 -28l50 -5q68 0 129 21q-3 4 -26 31t-32 41q-16 21 1.5 35.5t41.5 15t31 -3.5l68 -82q16 11 42 35.5t35 31.5q25 30 48 86.5t30 110.5q9 47 13 174q0 17 3.5 46.5t4.5 37.5q2 29 0 52t-1 51t7 49q3 50 3 101t-3 103q-5 86 -12 143.5t-29.5 127t-58.5 106.5 q-33 31 -82.5 63.5t-89.5 43.5q-18 5 -101 10q-65 -4 -88 -10q-82 -23 -166 -99q-89 -93 -106 -385z" />
<glyph unicode="R" horiz-adv-x="1384" d="M113 1505q-1 19 49 26q37 5 78 5q18 0 36 -1q26 -1 48 -1q30 0 55 2q33 3 85 3q69 0 173 -5q64 -3 92 -5t78 -10t76 -20q57 -20 106 -55q43 -32 82.5 -90t58.5 -115q11 -33 13 -71q1 -14 1 -26q0 -22 -2 -41q-4 -30 -12 -73q-13 -79 -24 -102q-24 -59 -78 -113 q-95 -88 -207 -100q-3 0 -8 -1t-8 -1q16 -26 27.5 -41.5t16.5 -21.5t7 -9q6 -14 22 -40.5t37.5 -60.5t26.5 -42l64 -109q8 -10 19 -34t15 -31q16 -31 38 -66t38.5 -59t44 -63.5t39.5 -57.5q32 -1 52 -4q20 -2 36 -14q12 -9 11 -22q0 -4 -1 -9q-3 -14 -20 -21.5t-44 -9 t-52 -1t-58 2.5t-49 2q-15 0 -32 17t-28 36t-25.5 46.5t-18.5 33.5q-22 25 -39 64q-21 44 -80 135.5t-82 148.5q-38 54 -86 156q-7 14 -22 35.5t-21 32.5q-71 -2 -154 -3t-108 -2q0 -43 -3 -119t-3 -114q1 -43 11 -182q8 -107 8 -177q0 -21 -1 -38q5 0 15 -1q18 -1 26.5 -2 t21 -4t17 -7.5t7.5 -12.5t1 -20q-2 -13 -18 -21t-42.5 -10t-52 -2t-60 1t-52.5 1q-8 0 -23 -0.5t-22.5 0t-19.5 1t-18 2.5t-13 6t-10 10.5t-3 15.5q-1 25 20 31q16 5 45 6q9 0 19 -1q1 21 1 46q0 73 -6 183q-8 148 -9 212q0 160 6 327q2 50 2 103q1 45 -1 93 q-2 105 -8.5 242.5t-8.5 200.5q-9 1 -24.5 1t-25 1t-19.5 4q-10 2 -16 9q-6 8 -7 20zM371 1475q-1 -70 5 -324q4 -164 4 -279q0 -62 -1 -110h74q181 0 267 12q103 16 175 82q20 18 59 107q15 24 25 69l4 29q1 5 4.5 13t3.5 11q0 1 -6 37q-7 89 -18 117q-16 45 -50 90t-65 68 q-72 49 -210 69q-88 12 -174 13q-49 0 -97 -4z" />
<glyph unicode="S" horiz-adv-x="1148" d="M152 1122q-2 19 -2 36q0 83 36 142q50 77 96.5 118.5t123.5 80.5q81 41 189 41h15q44 -1 81 -11t57.5 -20.5t52.5 -31.5q48 -31 98 -60q-1 30 0.5 47.5t9 31.5t23.5 15q16 2 25.5 -6.5t12.5 -26t4 -35t1.5 -44.5t1.5 -43q2 -31 2 -57q0 -107 -41 -107q-19 0 -28 15t-9 34 v44t-4 36q-5 12 -53 50.5t-68 45.5q-4 2 -15.5 9t-15.5 9t-14 8t-14.5 8t-14 6.5t-15 6t-14 4.5t-15 4t-15 2t-16.5 1q-74 0 -116.5 -12.5t-104.5 -47.5q-44 -25 -85.5 -84t-50.5 -119q-2 -13 -2 -26q0 -81 76 -144q61 -50 144.5 -95t160.5 -68q104 -33 225 -115 q49 -34 94.5 -90t63.5 -111q15 -51 16 -110q0 -53 -13 -114q-26 -128 -79 -189q-38 -40 -56.5 -57.5t-57 -42.5t-90 -38.5t-127.5 -23.5q-27 -4 -56 -4t-59 4q-62 7 -98 28q-22 11 -42.5 24t-33 22.5t-37 29t-39.5 31.5q-2 -11 -3 -43t-7.5 -46t-26.5 -16q-11 -1 -19.5 3.5 t-13.5 14t-8 19.5t-4 26.5t-1.5 29t-0.5 32v29.5q-2 28 -1 53.5t4 45.5t13 32t27 12q5 0 9 -1t6.5 -2t4.5 -4.5t3 -5.5t2 -8l1.5 -9t1.5 -11t1 -12q0 -16 3.5 -29.5t12.5 -25t14 -17t18.5 -16.5t14.5 -12q38 -38 103 -70q27 -12 72 -22q41 -9 76 -10q4 0 7 1q55 2 77.5 5.5 t60.5 17.5q34 12 49.5 18.5t43 24.5t46.5 43q31 42 50 116q10 38 10 71q0 32 -9 61q-33 113 -102 162q-27 19 -40.5 26.5t-33.5 16t-39 18.5q-33 9 -85 33.5t-75 32.5q-15 5 -24.5 9t-15.5 6t-14.5 6.5t-11 6t-15.5 10t-19 11.5q-104 65 -148.5 111.5t-78.5 111.5 q-38 79 -43 143z" />
<glyph unicode="T" horiz-adv-x="1206" d="M168 1478v35q11 6 25 9t22.5 3.5t27.5 1.5t25 1q19 1 53 1q43 1 109 -1q40 -1 71 -1q63 0 95 3q3 2 26 2q19 0 52 -2q72 -2 84 -2q40 0 117 1t118 1q6 0 20.5 0.5t22.5 0.5t19.5 -2t19.5 -7q5 -7 6 -15v-7q-1 -6 -1 -16q-2 -14 -1 -22q0 -7 0.5 -18t0.5 -18t-0.5 -16 t-2 -14.5t-4.5 -10.5t-8.5 -8t-13.5 -3q-14 -1 -23 4.5t-14 19.5t-6 23t-3 32q-1 7 -1 11q-18 4 -61 4q-31 0 -77 -2q-90 -4 -126 -4h-13q-4 -42 -4.5 -57.5t2.5 -58.5t4 -58q0 -22 -2 -65t-2 -64q3 -57 3 -93q0 -18 -1 -32v-55q1 -55 1 -150v-78q0 -92 -3 -120 q-1 -42 -1 -94q0 -175 15 -474q11 -2 28.5 -3t26 -2t17 -6.5t10.5 -16.5q6 -28 -11.5 -36.5t-59.5 -8.5q-13 0 -48.5 1t-52.5 1q-25 2 -51 0.5t-51 -1t-44.5 2.5t-32 11t-13.5 24q-3 29 22.5 35.5t59.5 -1.5q8 14 12 33t4 32.5t-1 38t-1 34.5v22q0 48 3 125q4 97 5 121 q0 24 -1 70.5t-1 68.5q0 11 2.5 65t-0.5 62q0 15 -4 39.5t-4 28.5v14q0 42 4 143q2 60 2.5 103t-2.5 67q-4 56 -8 166t-8 166q-43 -3 -91.5 -3t-110 1.5t-95.5 1.5v-24.5t-1 -25t-4 -18t-10 -15t-18 -5.5q-16 -1 -25.5 7t-13 25.5t-4.5 31.5q-1 10 -1 24q1 8 1 16z" />
<glyph unicode="U" horiz-adv-x="1400" d="M113 1497v6q-1 25 21 31q24 6 61 0q16 -2 32 -2q21 0 43 4q20 3 34.5 2.5t42.5 -2.5t42 -2q39 0 58.5 -7t19.5 -30q1 -12 -4.5 -20t-14.5 -10.5t-21 -3.5t-26 -0.5t-28 -0.5q-17 -91 -17 -280q0 -44 2 -188q1 -87 0 -153v-79q0 -30 -3 -101.5t-4 -116.5v-19q0 -39 3 -85 q4 -58 15 -98q18 -71 39.5 -119.5t58.5 -83.5q71 -68 143 -85q32 -7 65 -8q44 0 93 13q71 14 117 37q18 8 52 39.5t38 34.5q51 37 75 80.5t46 122.5q11 38 16 86t5.5 77.5t0.5 100.5q0 26 3 80t3 82q0 103 -10 205q-3 39 -3 101q1 56 3 130q2 67 1 118q0 68 -3 107 q-6 1 -17.5 2t-17.5 2t-14.5 3t-13 4t-9.5 6t-7.5 9.5t-2.5 12.5q-1 10 2 17t11 11.5t15 7.5t21.5 4t23 1.5t26.5 1t26 0.5q18 1 34 1q87 0 87 -36q0 -18 -13 -28q-11 -8 -26.5 -10t-37.5 -3h-11q3 -31 3 -87q1 -43 -1 -97q-3 -77 -3 -128q0 -34 1 -58q4 -76 12 -240v-15 q0 -38 -4 -106q-3 -57 -3 -95q0 -17 1 -30q2 -31 2 -61q0 -91 -14 -172q-29 -179 -125 -254q-180 -140 -373 -140q-78 0 -158 23q-138 40 -216 122t-107 220q-8 37 -11.5 84t-3.5 80.5t1 92.5t1 87q0 42 8 162q5 74 5 126q0 33 -2 58q-4 24 -4 83q-1 53 3 137q6 174 7 202 q-10 1 -27 2t-26 2.5t-19.5 4.5t-15.5 10t-6 18z" />
<glyph unicode="V" horiz-adv-x="1638" d="M138 1536q16 7 43.5 8t54.5 0.5t63.5 -2.5t54.5 -2q10 0 32 1t33.5 1t24 -3t17.5 -9q22 -28 -4 -52q-17 -16 -41 -16q-12 0 -25 4q-4 -7 2 -17.5t6 -12.5q1 -4 7 -39q4 -12 15 -36t15 -38q3 -8 10 -36t13 -42q21 -62 72.5 -180t72.5 -178q11 -40 12 -41q2 -6 9.5 -16 t9.5 -13q4 -10 10 -33t10 -34q3 -7 13.5 -24.5t13.5 -27.5q4 -9 11.5 -28.5t11.5 -28.5q7 -17 25.5 -52t25.5 -54q58 -148 110 -224q9 9 16.5 25t15 39t9.5 28q4 13 16.5 35t16.5 31q25 56 64 167t45 126q11 28 45 98t49 111q3 8 7 22t5 17q3 7 10 17t9 13q7 13 14.5 39 t11.5 35q22 53 76 172.5t80 181.5q-21 0 -40 -1t-33 8t-15 28q0 11 5 19.5t16 13t23 6.5q10 4 28 4h17h15q14 0 33 -1t29 -1q8 0 21.5 0.5t20.5 0.5t17.5 -0.5t16 -2.5t11.5 -5.5t9 -9.5t4 -14v-2q0 -25 -22 -34t-70 -9q-11 -21 -26.5 -61t-22.5 -55q-8 -20 -29 -57t-29 -54 q-11 -18 -31 -68t-37.5 -98.5t-19.5 -52.5q-14 -32 -38.5 -96.5t-37.5 -94.5q-3 -7 -34.5 -67t-36.5 -96q-31 -52 -75.5 -179.5t-66.5 -173.5q-4 -9 -13 -27.5t-13 -27.5q-1 -3 -11 -23.5t-14 -31.5q-6 -16 -11.5 -49t-8.5 -45q-5 -16 -19 -42t-18 -36q-4 -8 -6 -18 t-3.5 -14.5t-6 -9t-13.5 -5.5q-3 -1 -7 -1q-12 -1 -22 9q-14 12 -24 35.5t-16.5 43t-14 47t-8.5 32.5q-2 5 -5 16t-5 16q-6 19 -31 76q-13 35 -33 80q-11 22 -37 71t-38 76q-39 86 -96 253.5t-87 240.5q-14 34 -43.5 96t-52 115.5t-37.5 103.5q-4 12 -16.5 54t-22 69.5 t-20.5 53.5q-19 -1 -38 -3t-33 10q-13 11 -13 33q0 16 17 23z" />
<glyph unicode="W" horiz-adv-x="2707" d="M139 1505q0 16 7.5 25.5t24 11.5t28.5 1.5t34.5 -3.5t28.5 -4h10q31 0 136 4q12 0 49 2t57 0.5t27 -10.5q8 -11 8.5 -25.5t-8.5 -25.5q-6 -7 -16.5 -9.5t-29 -3.5t-26.5 -2q12 -51 31.5 -110.5t34 -99.5t41.5 -109t38 -100q22 -63 25 -70q4 -10 16.5 -28.5t16.5 -28.5 q6 -14 14.5 -40.5t9.5 -29.5l25 -68l27 -63q4 -11 10 -34.5t10 -35.5q2 -6 55 -114l21 -35q9 -17 22 -50t27 -59t33 -43q12 10 21 25t13.5 27t11.5 31.5t11 29.5l98 246q3 7 22 51t27 67q40 103 50 121q26 50 51 106.5t57.5 133.5t46.5 110q-4 12 -28.5 69.5t-30.5 96.5 q-5 0 -16 0.5t-16.5 0.5t-15 1t-14.5 2t-12 3t-11 5t-8 7.5t-5.5 10.5t-1.5 13q0 16 10.5 24t24.5 10t41 3h5h121q19 0 54 2t55.5 2t43.5 -2.5t33 -12t9 -26.5q0 -24 -20 -31t-58 -8h-12q5 -29 13 -58.5t18.5 -63t17 -54t21.5 -61t20 -53.5q10 -26 32.5 -88t40 -105 t37.5 -82q52 -98 64 -127q29 -76 61 -131q14 -25 35 -74t25 -57q1 -2 24.5 -66t44.5 -84l123 300q9 24 29.5 70t28.5 67q15 36 79.5 176.5t92.5 220.5q17 46 58 135t58 135q-19 -4 -37 -4q-13 0 -27 2q-30 6 -30 35q-2 31 36 39q24 5 52 6q16 0 34 -2q17 -2 35 -2q30 0 58 6 q14 3 27 3q15 0 27 -4q22 -8 22 -32q0 -12 -6 -22q-5 -8 -17 -11t-21 -4t-28.5 -1.5t-29.5 -1.5q-15 -25 -28.5 -53t-29.5 -66.5t-24 -55.5q-7 -14 -31.5 -60t-34.5 -73q-62 -153 -74 -182q-5 -11 -29 -59.5t-34 -77.5q-28 -70 -29 -72q-23 -55 -69.5 -176.5t-71.5 -181.5 q-56 -137 -80 -221q-3 -11 -7 -23.5t-9 -27t-8 -23.5q-19 -60 -25 -76q-8 -24 -18.5 -34t-30.5 -7q-16 3 -25 18t-6 37q3 13 0 29q0 12 -29 72q-59 108 -94 213q-49 139 -88 221q-7 14 -16 39.5t-13 34.5q-7 17 -27.5 61t-29.5 70q-3 8 -7.5 22t-8.5 25.5t-8 21.5t-16.5 30 t-16.5 30q-5 12 -12.5 36.5t-12.5 36.5q-6 13 -36.5 87t-51.5 110q-11 -27 -86.5 -200.5t-114.5 -272.5q-5 -14 -30 -81t-35 -93t-31 -77.5t-39 -91t-37 -77.5q-23 -40 -53 -141q-11 -46 -12 -47q-2 -6 -8.5 -17.5t-8.5 -17.5q0 -1 -6 -35q-21 -63 -47 -65h-6h-10 q-8 2 -11 4.5t-10.5 8t-9.5 7.5q-2 32 -10.5 66.5t-16 57t-22.5 61t-21 55.5q-10 27 -35 86t-36 90q-27 88 -29 94q-5 13 -18.5 42.5t-18.5 45.5q-12 29 -38 85.5t-38 84.5q-9 21 -24 68t-25 73q0 1 -9 16t-11 23q-6 16 -15.5 47t-15.5 47l-37 84q-53 133 -155 338 q-13 4 -41 4t-43.5 6.5t-16.5 28.5z" />
<glyph unicode="X" horiz-adv-x="1503" d="M102 17q0 21 25 32q7 3 27 1t30 1q8 3 17.5 16t15.5 26t14.5 32.5t10.5 24.5q86 152 164 282q37 61 107 189.5t110 189.5q-6 6 -11 20.5t-6 16.5q-2 4 -24 37q-9 16 -27 48.5t-27 47.5q-2 3 -5 11.5t-5 11.5q-9 16 -42.5 68t-47.5 83q-26 53 -84.5 156.5t-85.5 156.5 h-14.5h-14.5h-13.5t-13.5 1t-12 2.5t-10.5 4.5t-7.5 7t-6 9.5t-2 12.5q-1 17 10 26.5t32.5 11.5t42 2t50 -1.5t45.5 -1.5q8 0 22 1t21 1t15.5 -1.5t13 -6.5t6.5 -14q5 -26 -14.5 -39.5t-59.5 -7.5q25 -49 78 -147.5t78 -147.5q6 -11 82 -144q8 -13 24 -45t29.5 -54.5 t30.5 -39.5q11 7 19 18t16.5 27t13.5 23q95 133 133 204q55 100 86 144q43 64 82 145q-9 -1 -18 -1q-34 0 -50 23q-17 25 7 44q13 11 36 14q17 3 41.5 3t59.5 -1.5t55 -1.5q12 0 31 0.5t30.5 0.5t26.5 -0.5t23.5 -3t17 -6.5t12.5 -11.5t4 -18.5q0 -13 -7 -20t-19.5 -9.5 t-29.5 -2.5t-36 1q-21 -32 -53 -110q-16 -33 -66 -103q-1 -2 -41 -73q-9 -15 -40.5 -64t-47.5 -76q-3 -4 -92 -137q-5 -8 -22.5 -29.5t-26.5 -35.5q-35 -62 -35 -76q0 -13 7.5 -29.5t21.5 -39.5t18 -31q9 -16 60 -93q46 -74 57 -90q10 -17 33 -45t31 -41q4 -7 15.5 -29 t16.5 -30q14 -21 49.5 -68t51.5 -73q26 -41 49 -70q32 -40 49 -68q35 5 62 0t28 -32q0 -8 -1.5 -14t-6.5 -10.5t-9.5 -7.5t-14 -5.5t-16 -3.5t-18.5 -2t-19 -1t-21.5 -0.5t-20.5 -0.5q-12 0 -35.5 -2t-37.5 -2q-4 0 -7 -1q-11 -1 -23 1q-16 2 -25 7.5t-11 16.5q-7 28 13 40 q16 10 47 9h16q-81 127 -131 195q-6 8 -23.5 31.5t-26.5 37.5q-7 12 -24 34t-25 34q-10 16 -59.5 93.5t-75.5 125.5q-4 6 -15 25t-19.5 30t-14.5 11q-20 0 -51 -70q-36 -69 -41 -78q-4 -9 -19 -35.5t-22 -42.5q-37 -72 -41 -78q-21 -36 -85 -138t-93 -161q4 0 21 -0.5 t23 -1.5t16.5 -4.5t14.5 -11.5t3 -20q-1 -16 -13.5 -25t-37 -11.5t-47.5 -2t-57 2t-54 1.5q-7 0 -26.5 -3.5t-36.5 -5.5t-35 -1.5t-30 8.5q-12 9 -12 29z" />
<glyph unicode="Y" horiz-adv-x="1667" d="M106 1516q2 13 11.5 19.5t23.5 7t31.5 0.5t34.5 1q39 2 45 2q1 1 3 1q10 0 46 -3q43 -2 49 -2q7 0 18.5 -0.5t17.5 -0.5t15.5 -0.5t14.5 -1.5t11.5 -3t10 -4.5t7 -6t5 -9t1.5 -11.5q0 -15 -10 -24t-22 -12t-36 -6q-5 -1 -8 -1q17 -46 51 -108q13 -24 47 -77t49 -87 q41 -77 107 -176q20 -28 61.5 -100t69.5 -107q11 -13 35.5 -51.5t40.5 -53.5q15 16 31 36t28 37t29 43t26 40t27 43.5t24 40.5q24 41 149 235.5t175 290.5q-20 -3 -36 -3q-58 0 -60 46q0 8 6.5 14t20.5 9t29 5t36 2h37t37.5 -0.5t31.5 -0.5q6 0 20.5 1t20 1t16.5 -0.5 t15.5 -3t10 -7t6.5 -11.5v-9v-10q-1 -12 -7 -19t-16 -9.5t-22 -3.5t-26 -0.5t-28 -0.5q-11 -10 -19.5 -23t-18 -31.5t-15.5 -27.5q-7 -12 -25 -37t-26 -40q-57 -117 -150 -246q-11 -17 -116 -180q-33 -43 -88.5 -138.5t-67.5 -128.5q-4 -13 -5.5 -31.5t-1.5 -31.5t0.5 -36.5 t0.5 -31.5q0 -2 6 -137q2 -20 2 -57q0 -32 -1 -77q-3 -76 -3 -115v-19q12 -2 33 -4.5t30.5 -5t17.5 -11t7 -24.5q-3 -28 -43 -34q-18 -3 -40 -3q-25 0 -54 4q-26 4 -58 0.5t-66 -3.5t-44 9q-23 25 -1.5 49t56.5 19v13q0 32 -3 89q-4 47 -4 77q0 14 1 24q2 38 2 78 q0 71 -6 147q0 10 1.5 27t1.5 31t-3 26q-1 9 -16.5 28t-18.5 25q-8 9 -20 29t-15 24q-5 8 -69 107q-33 48 -66 110q-5 8 -25.5 39.5t-26 40.5t-22 35t-24 39.5t-20.5 35.5t-23 42.5t-21 42.5q-5 12 -17.5 31t-15.5 24q-20 34 -40.5 72t-44 83.5t-37.5 71.5h-16q-33 0 -53 7 q-20 8 -20 34v7z" />
<glyph unicode="Z" horiz-adv-x="1247" d="M86 1437q0 3 -1 6q-1 22 3 44q4 25 10 41q41 8 197 8q31 0 153.5 -1t155.5 -1q42 0 126 -2q63 -1 113 -1q17 1 32 1q61 0 112 4q6 1 16 1t24.5 -0.5t23.5 -0.5q6 0 20.5 0.5t21 0t18 -1t17 -3t11.5 -6.5t8 -11t2 -16q-2 -41 -64 -41q-15 0 -32 2q-14 -52 -62 -138.5 t-59 -111.5q-85 -202 -133 -297q-23 -45 -90.5 -173.5t-71.5 -135.5q-65 -126 -102 -207q-41 -88 -66 -151q-5 -12 -15.5 -37.5t-17 -41t-13 -38t-9.5 -41.5q39 -7 111 -7q29 0 63 1q43 0 192 2t197 2q8 11 13 26t6.5 25t8 18t17.5 9q22 1 32 -35q7 -24 8 -50q0 -12 -2 -25 q-5 -39 -20 -46q-13 -7 -102 -7q-74 0 -201 5h-354q-20 -1 -94 -3.5t-115 -2.5q-17 -1 -29 -1q-32 0 -41 4q-16 8 -14 30q1 10 5.5 17.5t12.5 12t15 7.5t19 4.5t18.5 2t19.5 1t17 0.5q17 24 87.5 172.5t84.5 185.5q31 78 106.5 222t104.5 212q7 26 70 157.5t65 137.5 q15 34 66 133t71 156q-316 4 -502 4q-124 0 -190 -2q-2 -10 -3 -24.5t-1.5 -24t-3.5 -19t-9.5 -13.5t-17.5 -3q-19 2 -29 21t-10 44z" />
<glyph unicode="[" horiz-adv-x="614" d="M102 690q-1 44 7 246.5t6 265.5q-5 91 -5.5 238t5.5 157q4 3 15.5 4t21.5 1h10q3 3 55.5 1.5t61.5 -1.5h73q6 0 17.5 0.5t16.5 0.5t14 -2.5t18 -7.5q9 -12 7.5 -29t-19.5 -20l-46 -8q-16 1 -47.5 -0.5t-64.5 -1.5q0 -32 -1 -90t-1 -86q0 -129 -6 -264q-4 -93 -4 -580 q0 -267 6 -559v-2h2q29 0 56.5 -2t35.5 -2q39 0 55 -2q19 -1 26 -18t-3 -29q-9 -6 -17 -8.5t-12.5 -3t-16 0t-16.5 0.5q-10 0 -40 -1t-38 -1h-30h-17q-40 0 -71 2l-52 -2q-9 0 0 201q1 37 -0.5 121.5t0.5 124.5q1 24 1 72t1 71v123q-4 46 -4 90z" />
<glyph unicode="\" horiz-adv-x="780" d="M94 1622q0 48 17 44q25 -5 59 -99q26 -63 57 -160q18 -63 35 -111q46 -127 121 -403q9 -42 41 -133l16 -55q70 -220 129 -443l17 -43l16 -55q4 -13 13 -40t12 -40l57 -160q14 -41 14 -74q0 -60 -21 -60q-26 -1 -51 91q0 2 -1 4q-50 112 -111 310l-4 16l-14 53 q-30 83 -39 137l-56 179l-108 342q-54 200 -107 360l-69 231q-23 82 -23 109z" />
<glyph unicode="]" horiz-adv-x="604" d="M103.5 1560q-1.5 17 7.5 29q9 5 17.5 7t14 2t16 -0.5t17.5 -0.5q14 0 37 2.5t37 2.5q9 0 61.5 1.5t55.5 -1.5q39 1 47 -5q6 -4 7.5 -165t-3.5 -246q-2 -65 -1.5 -250t-0.5 -238v-131q0 -20 1 -54t1 -56q1 -23 1 -73t1 -73q2 -52 2.5 -124t1.5 -99q9 -201 0 -201l-51 2 q-31 -2 -72 -2q-2 0 -7.5 1t-8.5 1h-31q-8 0 -38 1t-40 1q-5 0 -16.5 -0.5t-15.5 0t-12 3t-17 8.5q-10 12 -3.5 29t25.5 18l56 2q8 0 35.5 2t56.5 2h2l8 6q6 118 5 181t-5 176.5t-4 177.5q0 24 1 178.5t0.5 270t-3.5 177.5q-6 135 -6 236q0 28 -1 86t-1 90q-82 0 -113 -2 l-45 8q-18 3 -19.5 20z" />
<glyph unicode="_" horiz-adv-x="1482" d="M113 -168q3 14 28.5 28.5t46.5 16.5q111 6 779 6q76 0 198 -4q10 0 38.5 -1t37.5 -1h29q100 -3 100 -49q0 -30 -88 -33q-29 -2 -98 -2q-51 0 -78 2q-29 2 -199 2q-286 0 -397 -2q-39 0 -83.5 -1t-47.5 -1q-47 0 -92.5 1.5t-67.5 3.5l-22 1q-92 -2 -84 33z" />
<glyph unicode="`" horiz-adv-x="630" d="M84 1833q11 14 33 15t40 -6t27 -15l123 -80q175 -121 230 -154q24 -16 15 -36q-11 -24 -57 -7l-10 4l-219 121h-2l-18 13q-94 51 -125 73q-55 35 -37 72z" />
<glyph unicode="a" d="M82 42q4 10 9 15t17 7.5t21 2.5h23.5t23.5 1q9 18 31 55t33 59q0 1 9.5 25t24 61t31 77.5t34 80t30.5 63.5q13 32 26 68.5t28 80.5t23 67q7 22 24 61.5t19 44.5l46 104l45 103q11 24 25 70.5t22 66.5q4 12 16 34.5t16 35.5q49 146 70 243q15 60 76 60q25 0 75 -1t72 -1 q28 0 40 -1t22.5 -7t11.5 -19q1 -20 -16 -28.5t-56 -10.5q2 -21 8.5 -46t12.5 -41.5t17.5 -46t15.5 -40.5q18 -50 46.5 -142.5t37.5 -121.5q11 -34 32 -92t29 -82q59 -169 143 -442q13 -48 64 -170q8 -19 19 -53.5t22 -61t26 -49.5q21 1 41 2q20 0 32 -8t11 -24 q0 -18 -11 -28q-10 -10 -26 -13t-37.5 -3.5t-45.5 0.5q-76 3 -121 3q-22 0 -37 -1q-74 0 -74 45q0 22 21 28q14 4 38 4q12 0 27 -1q-30 47 -63 146.5t-43 123.5q-20 45 -45 148.5t-47 150.5q-240 0 -543 -10q-22 -39 -64 -154q-10 -28 -34 -77t-31 -66q-61 -152 -88 -209 q-2 -5 -15.5 -28t-15.5 -38q32 8 59.5 1t26.5 -35q-1 -11 -6 -18t-17.5 -9.5t-21 -3t-28.5 -0.5h-13q-20 1 -64 -2q-22 -2 -39 -2t-31 2q-27 3 -38 20q-3 9 -3 16q-1 6 1 10zM530 702h29q157 0 461 19q-5 16 -44 140.5t-61 191.5q-8 26 -28.5 79t-28.5 80q-27 95 -59 156 q-2 2 -3 5t-3 3q-5 0 -5 -2q-45 -132 -81 -219q-4 -11 -15.5 -34.5t-15.5 -35.5q-5 -14 -14 -49.5t-17 -54.5q-15 -41 -56 -134.5t-59 -144.5z" />
<glyph unicode="b" horiz-adv-x="1320" d="M111 33q0 20 33 32q23 8 53 7q3 20 0 59q0 10 1 31t1 31q1 51 1 69t-2 67t-3 66l-5 101q0 49 6 156.5t7 156.5q0 24 0.5 48.5t-0.5 50.5q-1 52 -3 117t-3 103q-1 41 -1 83q0 125 7 257q-9 1 -23.5 1t-24 0.5t-19.5 2.5t-15 8t-6 15q-1 16 8 25.5t27.5 12.5t35 3.5t42 0 t36.5 -0.5q30 2 193 2q95 0 140 -4t128 -21q68 -16 72 -18q57 -18 69 -25q9 -4 45 -36q34 -26 49.5 -38.5t39.5 -37.5t40 -53q46 -75 54 -119q3 -21 2 -42q0 -43 -10 -84q-16 -62 -48 -106q-36 -52 -98 -90q-25 -15 -56.5 -26t-76.5 -23.5t-66 -19.5q113 -29 192.5 -62.5 t129.5 -87.5q57 -63 73 -169q5 -38 5 -74q-1 -68 -19 -134q-28 -102 -88 -153q-35 -30 -139 -66q-35 -12 -75.5 -19t-65.5 -9.5t-82 -6.5q-82 -6 -254 -6q-48 0 -96 -4q-47 -4 -69 -4h-5q-24 0 -88 4q-49 5 -49 29zM346 658.5q0 -46.5 4 -104.5t4 -89q0 -43 -1.5 -127.5 t-1.5 -151.5t3 -118q74 -1 138 -1q32 1 62 1q89 0 168 18t132 57q9 7 64 68q25 32 34 72.5t13 105.5q-1 8 1 40q1 19 1 33v15q0 8 -6.5 24.5t-6.5 18.5q-17 63 -51 105q-2 2 -13.5 16.5t-19.5 22t-16 12.5q-54 33 -109.5 48.5t-142.5 18.5q-33 2 -74 2q-25 -1 -53 -1 q-52 -2 -92 -1h-29q-8 -38 -8 -84.5zM352 805q24 0 47 -0.5t34 -0.5q4 0 8 -1q9 0 23 1q20 1 48 3q47 2 118.5 16.5t104.5 32.5q40 20 80 55q48 37 80 105q29 62 29 130v13q0 54 -23 105q-4 6 -10.5 14.5t-16.5 20t-16 18.5q-73 83 -162 115q-124 48 -232 48q-14 0 -28 -1 q-26 -1 -42 0q-8 0 -17 0.5t-19 -0.5q-7 -77 -7 -210q-1 -60 1 -131q2 -109 3 -189q0 -90 -3 -144z" />
<glyph unicode="c" horiz-adv-x="1294" d="M158 598q-8 47 -8 108q0 75 12 173q44 281 190 434q28 30 99 82q72 56 104 73q30 15 68.5 25.5t67.5 14.5t78 10t75 10q6 1 13 1q45 0 149 -32q18 -5 42.5 -20t45.5 -19q3 24 5 33.5t10 19.5t24 11q17 1 27.5 -9t14 -31.5t4 -39t-1 -48.5t-1.5 -42q0 -17 -0.5 -26.5 t-3.5 -23.5t-11 -22t-20 -10q-25 0 -33 10q-13 10 -9.5 36.5t-0.5 47.5q-4 10 -18 26t-27 21q-41 20 -80 31q-50 13 -129 13q-39 0 -86 -3q-113 -9 -221 -102q-86 -77 -140 -183q-68 -202 -68 -380q0 -35 3 -70q4 -110 16 -180q22 -122 86 -228q23 -32 32.5 -44.5t28 -31.5 t40.5 -36q46 -34 86 -56q11 -4 40.5 -21t53.5 -24q113 -26 196 -26q40 0 74 6q17 4 33.5 11.5t26.5 13.5t28 19t25 17q2 8 1.5 44t9 56.5t36.5 20.5q14 0 22.5 -8.5t11.5 -27t4 -31.5q0 -6 0.5 -16.5t-0.5 -23.5q-1 -27 -1 -34v-13q0 -41 -11 -71q-13 -35 -34 -35 q-38 0 -38 52q0 7 1 16q-37 -29 -70 -43q-43 -17 -137 -17q-47 0 -107 4q-144 15 -245 53q-85 31 -141 82t-113 134q-104 143 -129 319z" />
<glyph unicode="d" horiz-adv-x="1421" d="M102 45v5q0 20 20 26q18 5 50 4h21q-1 39 -1 87q0 121 4 301q5 254 5 357v90q-6 18 -7 38.5t1 48t2 38.5v103q2 83 10 305q-8 1 -24.5 2t-28 2.5t-24 4.5t-19 10t-5.5 18q1 14 11.5 22.5t29.5 11.5t37 3.5t41 0.5t33 1q14 1 31.5 1t39.5 -0.5t33 -0.5q148 0 300 -19 q163 -22 271.5 -64.5t178.5 -127.5q48 -56 72 -90q81 -129 96 -224q2 -11 14 -59t13 -72q1 -8 1 -17.5t-0.5 -21t-0.5 -18.5q2 -50 2.5 -85.5t-2.5 -55.5q-1 -13 -8 -34.5t-9 -31.5q-1 -4 -4.5 -28.5t-7.5 -36.5q-8 -30 -55 -121q-8 -14 -31.5 -58.5t-38.5 -64.5 q-9 -12 -23 -26.5t-22 -21.5t-31.5 -27t-27.5 -23q-93 -72 -185.5 -118t-204.5 -63q-94 -12 -196 -12h-41q-18 2 -37 2l-37 -2h-90q-20 2 -61 2q-13 1 -25.5 0t-24.5 0.5t-21.5 4.5t-15.5 11.5t-8 22.5zM352 61q14 -1 35 -1t48 1q54 2 93 5l39 2q24 0 47 3.5t46 11.5 t39.5 13.5t40 18.5t34 19t35.5 21.5t31 18.5q15 9 29.5 20t24 18.5t22.5 21t19.5 20t22 23.5t21.5 24q30 33 55 84q30 61 44 93t30.5 89t19.5 111q0 16 2 46t2 46v18v22q0 24 -4 44q0 1 -6 68q-8 55 -49 147q-34 83 -69 135q-13 23 -70 80q-71 66 -160 109q-57 26 -92 37 q-7 2 -34.5 9t-40.5 10t-36 7.5t-41 5.5h-18.5h-17.5h-18h-46q-10 0 -18 1q-33 0 -47 -5q-1 -40 -7 -234q-4 -120 -4 -201q0 -50 2 -85q4 -53 4 -159t-4 -265q-5 -223 -5 -356q0 -57 1 -97z" />
<glyph unicode="e" horiz-adv-x="1220" d="M133 1489q-1 4 -1 8q0 11 6 19q8 10 26 14q16 5 38 7q14 1 29 1h15q22 -1 39 0q75 0 259.5 -1t270.5 -1q18 0 70 1q35 1 62 1h25q34 0 62 -6q0 -10 1.5 -36.5t1.5 -44t-3 -38t-12 -31.5t-25 -12q-26 0 -37 28q-9 22 -9 53q0 8 1 17q-99 6 -191 6q-74 0 -143 -4 q-26 -1 -69 -1h-47h-47q-42 0 -66 -1q-7 -117 -7 -312q0 -130 3 -296q80 -4 184.5 -4t233.5 4q1 7 1.5 20t1.5 19.5t3.5 14.5t7 12t12.5 6q17 4 28 -1t16.5 -24.5t7 -29t3.5 -40.5q1 -7 1 -10q1 -21 0 -40.5t-3 -34.5t-10.5 -24t-23.5 -9q-24 -2 -33.5 16t-5.5 56 q-54 -2 -123 -2q-124 0 -295 6q-2 -59 -2 -87t2.5 -101t3.5 -103q0 -53 7 -152.5t8 -140.5v-45t2.5 -57.5t9.5 -40.5q55 0 174 -1q79 -1 143 -1h59q83 0 167 4q-1 16 -1 31q0 19 2 35q4 30 11 36q6 6 19.5 9.5t23.5 0.5q24 -7 24 -79v-6v-11v-16.5v-17t-0.5 -14.5t-2.5 -14 t-5.5 -10t-9.5 -8q-5 -3 -13 -4.5t-19.5 -2t-21.5 -0.5t-26 0.5t-26 0.5h-84h-210q-43 0 -81 1q-152 0 -217 -5q-8 0 -41.5 -3t-54 -3t-46 3t-36 15.5t-5.5 32.5q4 17 23 22t49 7h8q7 155 7 295.5t-7 265.5l-4 110q0 5 -3 16t-3 17q-1 23 -1 72v57q0 19 1 36q0 67 -2 95 q-4 86 -4 129q1 15 -3 145q-1 54 -2 89q0 50 3 63q-68 0 -74 29z" />
<glyph unicode="f" horiz-adv-x="1175" d="M117 1495q0 18 17 27q19 10 46 10q350 0 842 -8q3 -34 3 -61q0 -105 -44 -105q-25 0 -32 26q-5 20 -5 54v20q-146 5 -246 5q-50 0 -88 -1q-19 -1 -46 -1q-31 0 -72 1q-49 3 -81 3q-18 0 -30 -1q-7 -135 -7 -283t7 -309q20 -8 51 -9.5t60 -0.5q12 1 26 1q18 0 39 -1 q99 -3 155 -3q33 0 50 1q1 29 2.5 40t9.5 21.5t25 10.5q29 1 38 -28.5t11 -84.5q0 -22 -0.5 -32.5t-3 -25.5t-7 -22t-14.5 -11.5t-24 -2.5q-33 2 -33 45q0 11 2 25q-7 0 -158.5 1t-222.5 5q-5 -76 -5 -107q-1 -4 -1 -9q0 -33 3 -106q4 -83 5 -114q6 -163 6 -164 q2 -24 3.5 -75.5t5 -86.5t12.5 -65q11 1 21 1q58 0 67 -36q3 -13 -7 -21.5t-29.5 -11t-45 -3.5t-52.5 0t-51 -1q-27 -1 -45.5 -1.5t-42 -0.5t-38.5 2t-29 5t-20.5 9.5t-6.5 14.5q1 26 21 34.5t61 10.5q0 38 1 112t1 113q0 20 3 65q3 35 3 57v11q0 9 -3 27t-3 22q-1 13 -1 42 v34q1 11 1 21q0 40 -2 57q-8 98 -8 149l-4 160q-8 207 -8 370q0 75 2 140q-20 0 -28 0.5t-24.5 3.5t-23.5 11q-8 9 -8 24z" />
<glyph unicode="g" horiz-adv-x="1425" d="M193 877q22 133 59 231q51 142 219 276q70 57 102 72q128 72 260 72h11q35 -1 69 -6t72 -16.5t56 -18t61 -24t47 -19.5q-2 8 -2 15q0 28 26 48q28 23 49 6q7 -6 11 -18q3 -15 3 -44.5t-3 -72.5q0 -6 0.5 -21.5t0.5 -24.5t-1.5 -22.5t-5.5 -21t-12.5 -13.5t-20.5 -7 q-34 0 -39 22q-3 9 -2.5 35t-3.5 39q-2 6 -18 19t-33 20q-69 30 -117 41q-73 20 -138 20q-30 0 -59 -4q-86 -14 -150.5 -53t-123.5 -100q-17 -17 -47 -66q-3 -7 -10 -23t-13.5 -27.5t-15.5 -19.5q-39 -114 -47 -165q-13 -83 -21 -226q-2 -28 -2 -58q0 -73 11 -152 q15 -112 47 -185q1 -2 10.5 -40t19.5 -54q21 -33 31.5 -47.5t28.5 -35t39 -38.5q103 -78 223 -104q47 -12 97 -12q39 0 79 7q93 16 135 66q-7 103 -6 113q0 38 1 154q1 78 1 139q0 30 -1 57q0 78 -5 147q-71 3 -86 14q-14 10 -12 29q3 39 80 39q94 4 155 4h10q82 0 93 -18 q7 -12 7 -21q0 -17 -21 -28q-26 -14 -56 -14q-9 0 -18 1v-29q0 -54 3 -136q3 -106 3 -195.5t-9 -167.5q-1 -8 -1 -24t-1 -27.5t-4 -18.5q-5 -15 -53 -51q-70 -49 -141 -75q-56 -20 -123 -20q-18 0 -37 1q-24 1 -69.5 7t-57.5 7q-58 8 -115 27q-148 54 -198 94 q-33 25 -84 105q-4 6 -19.5 28t-23 33.5t-17.5 30t-16 33.5q-17 39 -31 77q-45 116 -45 260q0 83 15 175z" />
<glyph unicode="h" horiz-adv-x="1495" d="M154 35q0 36 59 36q9 0 18 -1q1 27 1 63q0 55 -2 129q-3 124 -3 166q-1 21 1 62t1 61q0 13 -3.5 35t-4.5 30q0 35 8 109q1 17 1 49v55q-1 44 -1 73v32q0 19 2 54t2 52q0 5 -3 33t-3 43q-1 23 0 48.5t3 56.5t3 47q1 24 1 60.5t0.5 66t3.5 57.5q-6 2 -24 6t-24.5 6.5 t-15 10t-12.5 18.5q-4 10 4 17.5t24.5 11t36 5t43.5 1.5h84h20h48t37 -3t30 -10t9 -18q0 -41 -77 -41h-11q-7 -34 -7 -145q-4 -91 -4 -185q0 -146 9 -299q157 -8 316 -8q221 0 445 15q1 53 3 200q4 146 4 212v30q0 65 -2 176q-12 -1 -23 -1q-64 0 -64 46q0 7 2 12t7 8 t10 4.5t14 2.5t16 1t18.5 0.5t19.5 0.5q46 4 80 4q95 0 96 -31q0 -11 -4 -19t-9.5 -12.5t-17 -7t-19 -3.5t-23 -1.5t-22.5 -1.5q-4 -164 -4 -503q0 -226 2 -529v-35q0 -36 1 -72q2 -54 7.5 -132t6.5 -103q12 -4 37 -5.5t36 -8.5t11 -27q0 -19 -11.5 -28t-23.5 -10t-38 -1 h-11h-16q-37 0 -56.5 0.5t-46.5 4t-39 12.5t-10 24q2 14 13.5 22t23 10t38.5 4q7 1 11 1q2 15 2 35q0 26 -4 62q-6 63 -6 73q0 14 0.5 40.5t0.5 48.5t-1 42q0 33 -11 377h-31q-69 0 -187.5 -3t-191.5 -3h-34q-29 0 -98 2q-43 2 -78 2h-40q-49 -2 -93 -9q-5 -23 -5.5 -47.5 t0.5 -61.5t1 -50q0 -48 -4 -258q-2 -105 -2 -167.5t2 -84.5q81 -8 81 -41q-3 -38 -72 -38q-11 0 -24 1h-125q-8 -1 -24 -2.5t-24.5 -2t-21 -0.5t-19 2.5t-13.5 6.5t-9 12q-1 6 -1 13v8z" />
<glyph unicode="i" horiz-adv-x="706" d="M172 1492q0 8 8 19q10 14 29 15q3 0 16.5 1.5t20.5 0.5q22 -2 62 -2t98 2q10 0 27.5 1t26.5 1h10h12q14 0 21 -1.5t14.5 -4.5t10 -9t2.5 -14q-1 -20 -14.5 -26.5t-41.5 -7t-40 -3.5v-16q0 -22 -2 -58q-2 -50 -2 -65q0 -25 4 -78t4 -78q4 -102 4 -385q0 -18 -1 -52t-1 -61 t2 -50q8 -175 8 -279q0 -43 -1 -74q-1 -8 -4 -46t-4 -56t0.5 -47t7.5 -49q7 0 20.5 -0.5t19 -0.5t16 -1t15 -3t11 -5.5t9 -8t4 -12t1.5 -16.5q-1 -10 -7 -15.5t-18.5 -7t-24.5 -1t-31 1.5t-30 1q-18 0 -57 -2t-67 -2q-6 0 -12 -1q-24 0 -48 2q-30 2 -46.5 11t-15.5 25 q2 34 79 33h22q11 167 11 353q0 286 -26 617q-4 37 -4 119q0 31 -2.5 94t-2.5 116t5 97q-24 4 -44 2q-21 -2 -36 2q-18 6 -18 24z" />
<glyph unicode="j" horiz-adv-x="1003" d="M90 178q0 28 68 31q11 1 33 -0.5t30 -1.5q9 0 34 1.5t38 0.5q27 -2 44 -11t17 -24q-1 -12 -5 -14.5t-25 -5.5q-20 -4 -52 -4q18 -85 39 -114q21 -31 54 -36q49 -6 81 -6t46 6q54 23 83 82q3 7 7.5 33t5.5 30q3 20 4 41t1 49.5t1 45.5q0 26 4 80t4 83q0 21 -14 392l-2 202 q-5 46 -5 85q0 16 1 32q0 31 -3 95t-3 117t6 97q-13 2 -42.5 2.5t-42 6t-14.5 24.5q0 24 37 27q4 0 16 4q10 2 17 2h4q35 -4 86 -4q34 0 74 2q24 1 46.5 0.5t40.5 -3t28 -9.5t10 -19q0 -22 -16 -27q-15 -6 -35.5 -3.5t-42.5 -2.5q-7 -72 -7 -145q0 -33 4 -139q0 -2 4 -72 q3 -55 3 -87v-15v-28v-59q2 -58 2 -77q0 -227 4 -269q2 -31 2 -96q2 -2 1 -47l-1 -45q0 -41 -6 -84q-1 -10 -3.5 -39t-5.5 -43q-5 -18 -11 -63t-15 -68q-10 -26 -20.5 -38.5t-36.5 -33.5q-63 -49 -164 -69q-24 -5 -54 -5q-27 0 -58 4q-67 8 -105 27q-22 10 -46.5 38.5 t-37.5 56.5q-16 32 -29 82q-2 0 -23 2t-30 4q-25 7 -25 22z" />
<glyph unicode="k" horiz-adv-x="1589" d="M186 39q0 26 18 31t62 2q7 64 9.5 191.5t5.5 176.5q3 39 3 98q0 78 -5 189q-2 7 -2 32q-1 21 1 55q2 74 3 89v154q0 17 3 52t3 52q0 23 -2 67t-2 66q0 18 2 53t2 64.5t-4 54.5q-10 2 -28 3t-28 2.5t-21 6t-15.5 14t-2.5 24.5q1 9 8 14t18 6.5t25.5 2t30 -0.5t31.5 0 q33 1 62 1q172 0 174 -26q1 -15 -7 -24t-22.5 -12t-33.5 -4t-38 0q2 -27 2 -64q0 -51 -4 -121q-4 -78 -3 -128q0 -28 1 -48q0 -21 4 -45v-55q-2 -36 -2 -89t2 -124q17 4 43 35q17 19 55 52t48 42q11 9 21.5 20t23.5 27.5t18 21.5q17 17 60.5 59.5t75.5 75t59 62.5 q27 29 235 274q-11 2 -33 3t-33 3t-20.5 11t-9.5 26q0 31 86 31q14 0 36.5 -0.5t38.5 -0.5t31 1h18q81 0 81 -33q0 -11 -11 -22t-24 -14q-8 -3 -33 -2t-35 -3q-9 -3 -21.5 -16t-28.5 -34t-21 -27q-290 -328 -486 -517l-39 -34q0 -3 10.5 -11.5t25.5 -19.5t20 -16 q21 -19 43 -45q45 -52 133.5 -139t126.5 -128l82 -94q13 -15 36 -45t39 -47q18 -20 58 -66t75 -85t62 -66h17h16h14t13 -1t10 -2t9.5 -2.5t7.5 -4.5t6.5 -6.5t4.5 -8.5q3 -7 3 -14q0 -15 -17 -25q-20 -12 -86 -12q-9 0 -18 -1q-54 0 -95 3h-45.5t-47.5 0.5t-40 1.5 t-33.5 4.5t-17.5 9.5q-3 3 -4.5 10.5t-1.5 13.5v7q-1 5 0 9t4 6.5t7 4.5t11 3t12.5 1.5t14.5 0.5h16h17.5h17.5q-1 1 -40 45t-79.5 87t-97.5 101l-37 47l-78 84q-12 15 -35 47t-47.5 56t-84.5 78l-66 71q-6 6 -21.5 23t-27 27.5t-25.5 17.5q2 -51 2 -116q0 -211 -20 -572 q12 -2 32.5 -2t31 -1.5t19.5 -9t9 -22.5q0 -7 -1.5 -12.5t-5 -9.5t-7 -7t-10 -4.5t-11 -2.5t-13.5 -1h-14.5h-16h-15.5q-18 0 -58 -2q-30 -1 -51 -1q-7 1 -13 1q-24 0 -52.5 2.5t-42.5 12.5t-15 26z" />
<glyph unicode="l" horiz-adv-x="1208" d="M150 1505q0 24 36 27q18 0 85.5 -1t105.5 -1q99 0 118 -6q22 -7 23 -23q-3 -44 -77 -44q-12 0 -25 1l-2 -227q-3 -33 -3 -97q1 -32 1 -72q1 -67 1 -111q0 -35 -1 -56q0 -13 -1 -42t-1 -42v-78q0 -25 -4 -71q0 -14 2 -45t2 -46l-2 -88q-2 -44 -2 -87.5t2 -86.5 q1 -26 1 -61q0 -70 -3 -178q19 -4 55 -4q18 0 41 1q41 2 67 2q18 0 29 -1q41 -2 113 -2h79q56 1 100 1q58 0 95 -1q-2 25 -2 41.5t2.5 32.5t9.5 23.5t19 6.5q41 -3 41 -70q2 -22 2 -39q0 -38 -8 -53q-7 -4 -21 -4.5t-32 1.5t-27 1q-113 -6 -371 -6h-188q-26 0 -90 -2 q-45 -2 -73 -2h-20q-48 3 -59 10q-12 9 -10 29q3 19 27.5 28.5t50.5 4.5q-2 44 -2 128t2 208q4 206 4 299v32q0 631 -2 725q-21 2 -32 3.5t-25 6.5q-13 4 -21 12q-10 10 -10 23z" />
<glyph unicode="m" horiz-adv-x="1769" d="M158 1499q0 11 3.5 18.5t13.5 12t17.5 7.5t25 4t25 1h27.5h13q18 0 30.5 -2t29.5 -9t32.5 -24.5t27.5 -44.5q16 -33 72 -121t84 -127l29 -47q2 -2 8 -5t8 -5l10 -14l43 -58l39 -67q7 -13 26 -35t26 -35q78 -116 117 -158q23 -25 48 -45l121 183l307 530q17 37 43.5 56.5 t43.5 20.5l18 1q13 0 35 0.5t34.5 0.5t30 -0.5t27.5 -3.5t19.5 -8t13.5 -14q3 -7 2 -16v-6q-1 -11 -6.5 -17t-14 -8.5t-19 -3t-21 0t-21.5 -0.5v-12q0 -42 -6 -112q-6 -80 -7 -111q-1 -25 3 -97q2 -46 3 -78q0 -18 -1 -32q-2 -56 -3 -197t-4 -215q-2 -39 -2.5 -112t-1.5 -97 q-3 -73 -3 -139q0 -103 7 -188q36 2 54 -3t22 -22q7 -22 -5 -35q-12 -12 -40 -16q-25 -3 -49 -3q-4 1 -7 1q-28 0 -68 1.5t-62 0.5q-24 0 -44 -0.5t-33.5 8.5t-14.5 29q0 12 4.5 20t15 11.5t19 5t25.5 2.5t26 2q2 14 2 42q0 21 -1 48q-3 65 -3 76q-3 98 -3 164q0 33 1 57 q0 9 6 102q1 10 1 24q0 27 -3 65q-4 58 -4 79q1 20 3 75.5t2 75.5t-1 76q-1 17 -1 38q-1 66 7 168q8 111 8 171v23q-21 -37 -52 -98.5t-63.5 -118.5t-76.5 -121l-144 -230l-94 -131q-4 -5 -12 -19t-15 -24.5t-15.5 -22t-17 -17.5t-16.5 -5q-8 0 -23.5 17.5t-47.5 57 t-60 69.5l-96 135q-27 38 -82.5 126t-85.5 130q-5 6 -19 22t-20 25q-87 169 -106 176q0 -14 -3 -57.5t-2.5 -58t2.5 -58.5l7 -55v-68q6 -258 6 -260v-72q0 -39 2 -117t2 -116v-29q0 -40 -2 -95q-2 -77 -2 -144t6 -127q9 1 16 0q66 0 66 -45q-1 -29 -43 -33q-17 -2 -33 -2 q-24 0 -47 4q-17 1 -34.5 0t-33 0.5t-27 5t-18.5 13t-6 24.5q1 10 5 16.5t14.5 10t17 4.5t24 2t23.5 2q-3 38 -3 123q0 51 1 118q2 135 2 197v33q0 43 -5 149q-4 76 -4 127q0 21 1 37q1 39 1 81q0 98 -5 210q-1 34 -4.5 144t-3.5 169h-10q-71 0 -74 39z" />
<glyph unicode="n" horiz-adv-x="1439" d="M184 1493q-1 17 7.5 27t26.5 13t34 3q4 0 9 1q13 1 33 -1q26 -2 38 -2q7 0 26 0.5t24.5 0t20.5 -1.5t20.5 -4t16.5 -8t16.5 -13t13 -19.5t13.5 -26.5q19 -34 60 -110.5t65 -121t61 -107.5t70 -113q34 -46 68 -113q13 -21 41.5 -56.5t36.5 -47.5q44 -82 67 -113 q85 -127 142 -215q1 -2 11.5 -20.5t14 -24t12.5 -19.5t17.5 -22.5t17.5 -16.5q4 177 4.5 542t4.5 552q-28 -4 -51.5 -1t-32.5 18q-16 28 8 49q7 6 24 8t34.5 1.5t35.5 0.5q11 0 30.5 1.5t32 2t29 0.5t27.5 -2.5t20.5 -6.5t14 -12.5t4.5 -19.5q-1 -12 -7.5 -19.5t-16 -10 t-22 -3.5t-26.5 0t-28 0l-9 -489q0 -20 4 -62.5t5 -64.5q0 -45 -1.5 -136t-1.5 -135q-1 -25 1.5 -59t2.5 -49q-1 -10 -1.5 -46t-2.5 -48q-2 -32 -2 -76q0 -62 5 -147q0 -9 2.5 -34.5t3 -43t-1 -38.5t-10 -33.5t-23.5 -14.5h-4q-13 0 -27 10q-16 12 -23 23.5t-20 33.5 q-43 69 -137 198t-140 206l-55 88q-8 14 -27.5 40.5t-27.5 41.5q-10 15 -26.5 44.5t-26.5 43.5q-86 125 -160 258q-17 29 -64 108t-79 135.5t-60 110.5q5 -69 6 -212t2 -187q1 -33 1 -94t1 -109.5t4 -91.5q5 -61 5 -287v-9q0 -58 10 -274q9 -1 27.5 -1.5t29 -1.5t23 -4 t18.5 -9.5t6 -17.5q0 -14 -4.5 -22.5t-16 -11.5t-19.5 -4t-28 0t-28 1q-16 0 -47.5 -2t-51 -2t-41.5 2.5t-32.5 12t-9.5 26.5q0 14 7 22t19 10.5t28 2.5t34 -1q2 11 2 30q0 33 -6 89q-4 46 -4 78q-2 28 -2.5 81t-2.5 81q-1 31 -4 87t-4 85q0 7 1.5 34.5t0.5 41.5v17 q0 20 1 51.5t1 53.5v19q-2 29 -2 71q0 58 4 140q4 92 3 153q0 33 -1 58q-1 37 -5 113.5t-5 113.5q-41 -2 -60 4.5t-22 28.5z" />
<glyph unicode="o" horiz-adv-x="1394" d="M174 829q0 21 1 66t1 66q0 16 3.5 47.5t4.5 42.5l4.5 40.5t6.5 49.5q25 152 157 270q132 115 310 129q28 2 56 1.5t58 -1.5q176 -14 309 -129q133 -119 158 -270q3 -18 6 -49t4 -41q1 -12 5 -43t4 -47q0 -21 1 -66t1 -66q0 -10 -1 -25q1 -38 3 -109q1 -38 0 -67 q0 -45 -2 -65q-10 -107 -17 -135q-23 -113 -65 -186q-37 -66 -95.5 -118t-130.5 -81q-10 -3 -39 -14.5t-47 -16.5q-31 -10 -180 -20l-18 2q-96 5 -127 14q-101 32 -173 87t-124 147q-24 41 -44 117t-26 143q-3 63 -3 138q1 14 1 26v35q0 70 -2 128zM348 857q0 -18 -1 -37 q-1 -58 1 -128q2 -94 2 -139q3 -91 19 -178q6 -71 32 -139t54 -101q24 -31 82.5 -53.5t105.5 -29.5l47 -7q31 0 59.5 4t53.5 12.5t39.5 14t34.5 15.5l22 11q39 25 84 82q26 30 49.5 87.5t30.5 111.5q20 108 22 174q0 17 3.5 48t3.5 36q3 46 3 105q0 105 -10 251 q-5 87 -12 144.5t-29.5 127.5t-58.5 107q-127 114 -272 117q-65 -4 -88 -10q-78 -22 -166 -101q-90 -95 -107 -385q-4 -69 -4 -140z" />
<glyph unicode="p" horiz-adv-x="1280" d="M137 1493q-1 3 -1 5q0 12 15 20q18 9 48 12.5t67 5.5h42h27q33 -1 56 0q64 1 119 1q210 0 297 -15q64 -11 147 -58q52 -29 86.5 -64t65.5 -89q50 -75 55 -142q1 -10 1 -22q0 -43 -13 -119q-12 -72 -37 -120.5t-72 -92.5q-50 -46 -96.5 -70t-116.5 -28q-74 -5 -240 -7 t-202 -3q-5 -53 -5 -124q0 -100 10 -237q15 -233 16 -280q12 -2 30 -2.5t26.5 -1t16 -6t8.5 -17.5q1 -18 -10.5 -29t-37 -14.5t-47 -4t-60 0t-56.5 0.5q-8 0 -31 -1q-11 -1 -19.5 -1t-13.5 1q-9 1 -23 4t-19.5 11.5t-5.5 22.5q1 26 26 30.5t60 -0.5q1 20 1 43q0 93 -13 246 q-6 78 -6 171.5t3 214.5t3 192v153q0 27 -4 73t-5 65q-1 14 -1 40q0 32 2 83v43q0 56 -5 79q-16 1 -30.5 1t-25.5 0.5t-19.5 7.5t-12.5 22zM379 1473q6 -105 6 -209q0 -47 2 -72q5 -44 5 -125q0 -41 -2 -91q-2 -95 -2 -152q0 -32 1 -52q22 0 95.5 -0.5t113.5 -0.5t93.5 2.5 t84.5 8.5q25 5 70 23q15 6 38 28.5t25 24.5q13 10 23 26t22 44t17 37q21 41 26 63q11 40 11 80q0 46 -15 94q-27 88 -82 146q-62 69 -131 94q-65 26 -189 32q-59 2 -110 2q-56 0 -102 -3z" />
<glyph unicode="q" horiz-adv-x="1427" d="M197 961q0 16 3.5 47.5t4.5 42.5q1 10 4 41t6 49q25 151 158 270q133 115 309 129q11 1 21 1q22 0 36 -5q14 5 37 5q10 0 21 -1q176 -14 309 -129q133 -119 158 -270q3 -18 6 -49t4 -41q1 -11 4.5 -42.5t3.5 -47.5q0 -21 -3 -66t-3 -66q-3 -134 -12 -266q-1 -9 -1 -22 q0 -19 2 -46t2 -46q0 -12 -1 -21q-2 -93 -56 -186q-72 -126 -225 -191q0 -2 2 -2q21 -23 63.5 -74.5t55.5 -64.5q29 -30 29 -53q0 -3 -1 -6q-4 -24 -28 -24h-2q-27 1 -51 19q-26 24 -46.5 46.5t-43.5 49t-41 46.5l-31 35q-59 -18 -176 -27h-21l-2 2q-11 1 -37.5 1t-47 1.5 t-36.5 5.5q-102 32 -176.5 88t-126.5 148q-53 91 -55 186q-1 9 -1 22q0 19 2 45.5t2 45.5q0 13 -1 22q-9 132 -12 266q0 21 -3 66t-3 66zM373 997q-3 -67 -3 -134q0 -111 9 -222q1 -8 4.5 -37.5t3.5 -46.5q5 -134 12 -174q8 -60 30.5 -128.5t45.5 -96.5q18 -40 77 -64 t109 -28l50 -5q68 0 129 21q-3 4 -26 31t-32 41q-16 21 1.5 35.5t41.5 15t31 -3.5l68 -82q16 11 42 35.5t35 31.5q25 30 48 86.5t30 110.5q9 47 13 174q0 17 3.5 46.5t4.5 37.5q2 29 0 52t-1 51t7 49q3 50 3 101t-3 103q-5 86 -12 143.5t-29.5 127t-58.5 106.5 q-33 31 -82.5 63.5t-89.5 43.5q-18 5 -101 10q-65 -4 -88 -10q-82 -23 -166 -99q-89 -93 -106 -385z" />
<glyph unicode="r" horiz-adv-x="1384" d="M113 1505q-1 19 49 26q37 5 78 5q18 0 36 -1q26 -1 48 -1q30 0 55 2q33 3 85 3q69 0 173 -5q64 -3 92 -5t78 -10t76 -20q57 -20 106 -55q43 -32 82.5 -90t58.5 -115q11 -33 13 -71q1 -14 1 -26q0 -22 -2 -41q-4 -30 -12 -73q-13 -79 -24 -102q-24 -59 -78 -113 q-95 -88 -207 -100q-3 0 -8 -1t-8 -1q16 -26 27.5 -41.5t16.5 -21.5t7 -9q6 -14 22 -40.5t37.5 -60.5t26.5 -42l64 -109q8 -10 19 -34t15 -31q16 -31 38 -66t38.5 -59t44 -63.5t39.5 -57.5q32 -1 52 -4q20 -2 36 -14q12 -9 11 -22q0 -4 -1 -9q-3 -14 -20 -21.5t-44 -9 t-52 -1t-58 2.5t-49 2q-15 0 -32 17t-28 36t-25.5 46.5t-18.5 33.5q-22 25 -39 64q-21 44 -80 135.5t-82 148.5q-38 54 -86 156q-7 14 -22 35.5t-21 32.5q-71 -2 -154 -3t-108 -2q0 -43 -3 -119t-3 -114q1 -43 11 -182q8 -107 8 -177q0 -21 -1 -38q5 0 15 -1q18 -1 26.5 -2 t21 -4t17 -7.5t7.5 -12.5t1 -20q-2 -13 -18 -21t-42.5 -10t-52 -2t-60 1t-52.5 1q-8 0 -23 -0.5t-22.5 0t-19.5 1t-18 2.5t-13 6t-10 10.5t-3 15.5q-1 25 20 31q16 5 45 6q9 0 19 -1q1 21 1 46q0 73 -6 183q-8 148 -9 212q0 160 6 327q2 50 2 103q1 45 -1 93 q-2 105 -8.5 242.5t-8.5 200.5q-9 1 -24.5 1t-25 1t-19.5 4q-10 2 -16 9q-6 8 -7 20zM371 1475q-1 -70 5 -324q4 -164 4 -279q0 -62 -1 -110h74q181 0 267 12q103 16 175 82q20 18 59 107q15 24 25 69l4 29q1 5 4.5 13t3.5 11q0 1 -6 37q-7 89 -18 117q-16 45 -50 90t-65 68 q-72 49 -210 69q-88 12 -174 13q-49 0 -97 -4z" />
<glyph unicode="s" horiz-adv-x="1148" d="M152 1122q-2 19 -2 36q0 83 36 142q50 77 96.5 118.5t123.5 80.5q81 41 189 41h15q44 -1 81 -11t57.5 -20.5t52.5 -31.5q48 -31 98 -60q-1 30 0.5 47.5t9 31.5t23.5 15q16 2 25.5 -6.5t12.5 -26t4 -35t1.5 -44.5t1.5 -43q2 -31 2 -57q0 -107 -41 -107q-19 0 -28 15t-9 34 v44t-4 36q-5 12 -53 50.5t-68 45.5q-4 2 -15.5 9t-15.5 9t-14 8t-14.5 8t-14 6.5t-15 6t-14 4.5t-15 4t-15 2t-16.5 1q-74 0 -116.5 -12.5t-104.5 -47.5q-44 -25 -85.5 -84t-50.5 -119q-2 -13 -2 -26q0 -81 76 -144q61 -50 144.5 -95t160.5 -68q104 -33 225 -115 q49 -34 94.5 -90t63.5 -111q15 -51 16 -110q0 -53 -13 -114q-26 -128 -79 -189q-38 -40 -56.5 -57.5t-57 -42.5t-90 -38.5t-127.5 -23.5q-27 -4 -56 -4t-59 4q-62 7 -98 28q-22 11 -42.5 24t-33 22.5t-37 29t-39.5 31.5q-2 -11 -3 -43t-7.5 -46t-26.5 -16q-11 -1 -19.5 3.5 t-13.5 14t-8 19.5t-4 26.5t-1.5 29t-0.5 32v29.5q-2 28 -1 53.5t4 45.5t13 32t27 12q5 0 9 -1t6.5 -2t4.5 -4.5t3 -5.5t2 -8l1.5 -9t1.5 -11t1 -12q0 -16 3.5 -29.5t12.5 -25t14 -17t18.5 -16.5t14.5 -12q38 -38 103 -70q27 -12 72 -22q41 -9 76 -10q4 0 7 1q55 2 77.5 5.5 t60.5 17.5q34 12 49.5 18.5t43 24.5t46.5 43q31 42 50 116q10 38 10 71q0 32 -9 61q-33 113 -102 162q-27 19 -40.5 26.5t-33.5 16t-39 18.5q-33 9 -85 33.5t-75 32.5q-15 5 -24.5 9t-15.5 6t-14.5 6.5t-11 6t-15.5 10t-19 11.5q-104 65 -148.5 111.5t-78.5 111.5 q-38 79 -43 143z" />
<glyph unicode="t" horiz-adv-x="1206" d="M168 1478v35q11 6 25 9t22.5 3.5t27.5 1.5t25 1q19 1 53 1q43 1 109 -1q40 -1 71 -1q63 0 95 3q3 2 26 2q19 0 52 -2q72 -2 84 -2q40 0 117 1t118 1q6 0 20.5 0.5t22.5 0.5t19.5 -2t19.5 -7q5 -7 6 -15v-7q-1 -6 -1 -16q-2 -14 -1 -22q0 -7 0.5 -18t0.5 -18t-0.5 -16 t-2 -14.5t-4.5 -10.5t-8.5 -8t-13.5 -3q-14 -1 -23 4.5t-14 19.5t-6 23t-3 32q-1 7 -1 11q-18 4 -61 4q-31 0 -77 -2q-90 -4 -126 -4h-13q-4 -42 -4.5 -57.5t2.5 -58.5t4 -58q0 -22 -2 -65t-2 -64q3 -57 3 -93q0 -18 -1 -32v-55q1 -55 1 -150v-78q0 -92 -3 -120 q-1 -42 -1 -94q0 -175 15 -474q11 -2 28.5 -3t26 -2t17 -6.5t10.5 -16.5q6 -28 -11.5 -36.5t-59.5 -8.5q-13 0 -48.5 1t-52.5 1q-25 2 -51 0.5t-51 -1t-44.5 2.5t-32 11t-13.5 24q-3 29 22.5 35.5t59.5 -1.5q8 14 12 33t4 32.5t-1 38t-1 34.5v22q0 48 3 125q4 97 5 121 q0 24 -1 70.5t-1 68.5q0 11 2.5 65t-0.5 62q0 15 -4 39.5t-4 28.5v14q0 42 4 143q2 60 2.5 103t-2.5 67q-4 56 -8 166t-8 166q-43 -3 -91.5 -3t-110 1.5t-95.5 1.5v-24.5t-1 -25t-4 -18t-10 -15t-18 -5.5q-16 -1 -25.5 7t-13 25.5t-4.5 31.5q-1 10 -1 24q1 8 1 16z" />
<glyph unicode="u" horiz-adv-x="1400" d="M113 1497v6q-1 25 21 31q24 6 61 0q16 -2 32 -2q21 0 43 4q20 3 34.5 2.5t42.5 -2.5t42 -2q39 0 58.5 -7t19.5 -30q1 -12 -4.5 -20t-14.5 -10.5t-21 -3.5t-26 -0.5t-28 -0.5q-17 -91 -17 -280q0 -44 2 -188q1 -87 0 -153v-79q0 -30 -3 -101.5t-4 -116.5v-19q0 -39 3 -85 q4 -58 15 -98q18 -71 39.5 -119.5t58.5 -83.5q71 -68 143 -85q32 -7 65 -8q44 0 93 13q71 14 117 37q18 8 52 39.5t38 34.5q51 37 75 80.5t46 122.5q11 38 16 86t5.5 77.5t0.5 100.5q0 26 3 80t3 82q0 103 -10 205q-3 39 -3 101q1 56 3 130q2 67 1 118q0 68 -3 107 q-6 1 -17.5 2t-17.5 2t-14.5 3t-13 4t-9.5 6t-7.5 9.5t-2.5 12.5q-1 10 2 17t11 11.5t15 7.5t21.5 4t23 1.5t26.5 1t26 0.5q18 1 34 1q87 0 87 -36q0 -18 -13 -28q-11 -8 -26.5 -10t-37.5 -3h-11q3 -31 3 -87q1 -43 -1 -97q-3 -77 -3 -128q0 -34 1 -58q4 -76 12 -240v-15 q0 -38 -4 -106q-3 -57 -3 -95q0 -17 1 -30q2 -31 2 -61q0 -91 -14 -172q-29 -179 -125 -254q-180 -140 -373 -140q-78 0 -158 23q-138 40 -216 122t-107 220q-8 37 -11.5 84t-3.5 80.5t1 92.5t1 87q0 42 8 162q5 74 5 126q0 33 -2 58q-4 24 -4 83q-1 53 3 137q6 174 7 202 q-10 1 -27 2t-26 2.5t-19.5 4.5t-15.5 10t-6 18z" />
<glyph unicode="v" horiz-adv-x="1638" d="M138 1536q16 7 43.5 8t54.5 0.5t63.5 -2.5t54.5 -2q10 0 32 1t33.5 1t24 -3t17.5 -9q22 -28 -4 -52q-17 -16 -41 -16q-12 0 -25 4q-4 -7 2 -17.5t6 -12.5q1 -4 7 -39q4 -12 15 -36t15 -38q3 -8 10 -36t13 -42q21 -62 72.5 -180t72.5 -178q11 -40 12 -41q2 -6 9.5 -16 t9.5 -13q4 -10 10 -33t10 -34q3 -7 13.5 -24.5t13.5 -27.5q4 -9 11.5 -28.5t11.5 -28.5q7 -17 25.5 -52t25.5 -54q58 -148 110 -224q9 9 16.5 25t15 39t9.5 28q4 13 16.5 35t16.5 31q25 56 64 167t45 126q11 28 45 98t49 111q3 8 7 22t5 17q3 7 10 17t9 13q7 13 14.5 39 t11.5 35q22 53 76 172.5t80 181.5q-21 0 -40 -1t-33 8t-15 28q0 11 5 19.5t16 13t23 6.5q10 4 28 4h17h15q14 0 33 -1t29 -1q8 0 21.5 0.5t20.5 0.5t17.5 -0.5t16 -2.5t11.5 -5.5t9 -9.5t4 -14v-2q0 -25 -22 -34t-70 -9q-11 -21 -26.5 -61t-22.5 -55q-8 -20 -29 -57t-29 -54 q-11 -18 -31 -68t-37.5 -98.5t-19.5 -52.5q-14 -32 -38.5 -96.5t-37.5 -94.5q-3 -7 -34.5 -67t-36.5 -96q-31 -52 -75.5 -179.5t-66.5 -173.5q-4 -9 -13 -27.5t-13 -27.5q-1 -3 -11 -23.5t-14 -31.5q-6 -16 -11.5 -49t-8.5 -45q-5 -16 -19 -42t-18 -36q-4 -8 -6 -18 t-3.5 -14.5t-6 -9t-13.5 -5.5q-3 -1 -7 -1q-12 -1 -22 9q-14 12 -24 35.5t-16.5 43t-14 47t-8.5 32.5q-2 5 -5 16t-5 16q-6 19 -31 76q-13 35 -33 80q-11 22 -37 71t-38 76q-39 86 -96 253.5t-87 240.5q-14 34 -43.5 96t-52 115.5t-37.5 103.5q-4 12 -16.5 54t-22 69.5 t-20.5 53.5q-19 -1 -38 -3t-33 10q-13 11 -13 33q0 16 17 23z" />
<glyph unicode="w" horiz-adv-x="2707" d="M139 1505q0 16 7.5 25.5t24 11.5t28.5 1.5t34.5 -3.5t28.5 -4h10q31 0 136 4q12 0 49 2t57 0.5t27 -10.5q8 -11 8.5 -25.5t-8.5 -25.5q-6 -7 -16.5 -9.5t-29 -3.5t-26.5 -2q12 -51 31.5 -110.5t34 -99.5t41.5 -109t38 -100q22 -63 25 -70q4 -10 16.5 -28.5t16.5 -28.5 q6 -14 14.5 -40.5t9.5 -29.5l25 -68l27 -63q4 -11 10 -34.5t10 -35.5q2 -6 55 -114l21 -35q9 -17 22 -50t27 -59t33 -43q12 10 21 25t13.5 27t11.5 31.5t11 29.5l98 246q3 7 22 51t27 67q40 103 50 121q26 50 51 106.5t57.5 133.5t46.5 110q-4 12 -28.5 69.5t-30.5 96.5 q-5 0 -16 0.5t-16.5 0.5t-15 1t-14.5 2t-12 3t-11 5t-8 7.5t-5.5 10.5t-1.5 13q0 16 10.5 24t24.5 10t41 3h5h121q19 0 54 2t55.5 2t43.5 -2.5t33 -12t9 -26.5q0 -24 -20 -31t-58 -8h-12q5 -29 13 -58.5t18.5 -63t17 -54t21.5 -61t20 -53.5q10 -26 32.5 -88t40 -105 t37.5 -82q52 -98 64 -127q29 -76 61 -131q14 -25 35 -74t25 -57q1 -2 24.5 -66t44.5 -84l123 300q9 24 29.5 70t28.5 67q15 36 79.5 176.5t92.5 220.5q17 46 58 135t58 135q-19 -4 -37 -4q-13 0 -27 2q-30 6 -30 35q-2 31 36 39q24 5 52 6q16 0 34 -2q17 -2 35 -2q30 0 58 6 q14 3 27 3q15 0 27 -4q22 -8 22 -32q0 -12 -6 -22q-5 -8 -17 -11t-21 -4t-28.5 -1.5t-29.5 -1.5q-15 -25 -28.5 -53t-29.5 -66.5t-24 -55.5q-7 -14 -31.5 -60t-34.5 -73q-62 -153 -74 -182q-5 -11 -29 -59.5t-34 -77.5q-28 -70 -29 -72q-23 -55 -69.5 -176.5t-71.5 -181.5 q-56 -137 -80 -221q-3 -11 -7 -23.5t-9 -27t-8 -23.5q-19 -60 -25 -76q-8 -24 -18.5 -34t-30.5 -7q-16 3 -25 18t-6 37q3 13 0 29q0 12 -29 72q-59 108 -94 213q-49 139 -88 221q-7 14 -16 39.5t-13 34.5q-7 17 -27.5 61t-29.5 70q-3 8 -7.5 22t-8.5 25.5t-8 21.5t-16.5 30 t-16.5 30q-5 12 -12.5 36.5t-12.5 36.5q-6 13 -36.5 87t-51.5 110q-11 -27 -86.5 -200.5t-114.5 -272.5q-5 -14 -30 -81t-35 -93t-31 -77.5t-39 -91t-37 -77.5q-23 -40 -53 -141q-11 -46 -12 -47q-2 -6 -8.5 -17.5t-8.5 -17.5q0 -1 -6 -35q-21 -63 -47 -65h-6h-10 q-8 2 -11 4.5t-10.5 8t-9.5 7.5q-2 32 -10.5 66.5t-16 57t-22.5 61t-21 55.5q-10 27 -35 86t-36 90q-27 88 -29 94q-5 13 -18.5 42.5t-18.5 45.5q-12 29 -38 85.5t-38 84.5q-9 21 -24 68t-25 73q0 1 -9 16t-11 23q-6 16 -15.5 47t-15.5 47l-37 84q-53 133 -155 338 q-13 4 -41 4t-43.5 6.5t-16.5 28.5z" />
<glyph unicode="x" horiz-adv-x="1503" d="M102 17q0 21 25 32q7 3 27 1t30 1q8 3 17.5 16t15.5 26t14.5 32.5t10.5 24.5q86 152 164 282q37 61 107 189.5t110 189.5q-6 6 -11 20.5t-6 16.5q-2 4 -24 37q-9 16 -27 48.5t-27 47.5q-2 3 -5 11.5t-5 11.5q-9 16 -42.5 68t-47.5 83q-26 53 -84.5 156.5t-85.5 156.5 h-14.5h-14.5h-13.5t-13.5 1t-12 2.5t-10.5 4.5t-7.5 7t-6 9.5t-2 12.5q-1 17 10 26.5t32.5 11.5t42 2t50 -1.5t45.5 -1.5q8 0 22 1t21 1t15.5 -1.5t13 -6.5t6.5 -14q5 -26 -14.5 -39.5t-59.5 -7.5q25 -49 78 -147.5t78 -147.5q6 -11 82 -144q8 -13 24 -45t29.5 -54.5 t30.5 -39.5q11 7 19 18t16.5 27t13.5 23q95 133 133 204q55 100 86 144q43 64 82 145q-9 -1 -18 -1q-34 0 -50 23q-17 25 7 44q13 11 36 14q17 3 41.5 3t59.5 -1.5t55 -1.5q12 0 31 0.5t30.5 0.5t26.5 -0.5t23.5 -3t17 -6.5t12.5 -11.5t4 -18.5q0 -13 -7 -20t-19.5 -9.5 t-29.5 -2.5t-36 1q-21 -32 -53 -110q-16 -33 -66 -103q-1 -2 -41 -73q-9 -15 -40.5 -64t-47.5 -76q-3 -4 -92 -137q-5 -8 -22.5 -29.5t-26.5 -35.5q-35 -62 -35 -76q0 -13 7.5 -29.5t21.5 -39.5t18 -31q9 -16 60 -93q46 -74 57 -90q10 -17 33 -45t31 -41q4 -7 15.5 -29 t16.5 -30q14 -21 49.5 -68t51.5 -73q26 -41 49 -70q32 -40 49 -68q35 5 62 0t28 -32q0 -8 -1.5 -14t-6.5 -10.5t-9.5 -7.5t-14 -5.5t-16 -3.5t-18.5 -2t-19 -1t-21.5 -0.5t-20.5 -0.5q-12 0 -35.5 -2t-37.5 -2q-4 0 -7 -1q-11 -1 -23 1q-16 2 -25 7.5t-11 16.5q-7 28 13 40 q16 10 47 9h16q-81 127 -131 195q-6 8 -23.5 31.5t-26.5 37.5q-7 12 -24 34t-25 34q-10 16 -59.5 93.5t-75.5 125.5q-4 6 -15 25t-19.5 30t-14.5 11q-20 0 -51 -70q-36 -69 -41 -78q-4 -9 -19 -35.5t-22 -42.5q-37 -72 -41 -78q-21 -36 -85 -138t-93 -161q4 0 21 -0.5 t23 -1.5t16.5 -4.5t14.5 -11.5t3 -20q-1 -16 -13.5 -25t-37 -11.5t-47.5 -2t-57 2t-54 1.5q-7 0 -26.5 -3.5t-36.5 -5.5t-35 -1.5t-30 8.5q-12 9 -12 29z" />
<glyph unicode="y" horiz-adv-x="1667" d="M106 1516q2 13 11.5 19.5t23.5 7t31.5 0.5t34.5 1q39 2 45 2q1 1 3 1q10 0 46 -3q43 -2 49 -2q7 0 18.5 -0.5t17.5 -0.5t15.5 -0.5t14.5 -1.5t11.5 -3t10 -4.5t7 -6t5 -9t1.5 -11.5q0 -15 -10 -24t-22 -12t-36 -6q-5 -1 -8 -1q17 -46 51 -108q13 -24 47 -77t49 -87 q41 -77 107 -176q20 -28 61.5 -100t69.5 -107q11 -13 35.5 -51.5t40.5 -53.5q15 16 31 36t28 37t29 43t26 40t27 43.5t24 40.5q24 41 149 235.5t175 290.5q-20 -3 -36 -3q-58 0 -60 46q0 8 6.5 14t20.5 9t29 5t36 2h37t37.5 -0.5t31.5 -0.5q6 0 20.5 1t20 1t16.5 -0.5 t15.5 -3t10 -7t6.5 -11.5v-9v-10q-1 -12 -7 -19t-16 -9.5t-22 -3.5t-26 -0.5t-28 -0.5q-11 -10 -19.5 -23t-18 -31.5t-15.5 -27.5q-7 -12 -25 -37t-26 -40q-57 -117 -150 -246q-11 -17 -116 -180q-33 -43 -88.5 -138.5t-67.5 -128.5q-4 -13 -5.5 -31.5t-1.5 -31.5t0.5 -36.5 t0.5 -31.5q0 -2 6 -137q2 -20 2 -57q0 -32 -1 -77q-3 -76 -3 -115v-19q12 -2 33 -4.5t30.5 -5t17.5 -11t7 -24.5q-3 -28 -43 -34q-18 -3 -40 -3q-25 0 -54 4q-26 4 -58 0.5t-66 -3.5t-44 9q-23 25 -1.5 49t56.5 19v13q0 32 -3 89q-4 47 -4 77q0 14 1 24q2 38 2 78 q0 71 -6 147q0 10 1.5 27t1.5 31t-3 26q-1 9 -16.5 28t-18.5 25q-8 9 -20 29t-15 24q-5 8 -69 107q-33 48 -66 110q-5 8 -25.5 39.5t-26 40.5t-22 35t-24 39.5t-20.5 35.5t-23 42.5t-21 42.5q-5 12 -17.5 31t-15.5 24q-20 34 -40.5 72t-44 83.5t-37.5 71.5h-16q-33 0 -53 7 q-20 8 -20 34v7z" />
<glyph unicode="z" horiz-adv-x="1247" d="M86 1437q0 3 -1 6q-1 22 3 44q4 25 10 41q41 8 197 8q31 0 153.5 -1t155.5 -1q42 0 126 -2q63 -1 113 -1q17 1 32 1q61 0 112 4q6 1 16 1t24.5 -0.5t23.5 -0.5q6 0 20.5 0.5t21 0t18 -1t17 -3t11.5 -6.5t8 -11t2 -16q-2 -41 -64 -41q-15 0 -32 2q-14 -52 -62 -138.5 t-59 -111.5q-85 -202 -133 -297q-23 -45 -90.5 -173.5t-71.5 -135.5q-65 -126 -102 -207q-41 -88 -66 -151q-5 -12 -15.5 -37.5t-17 -41t-13 -38t-9.5 -41.5q39 -7 111 -7q29 0 63 1q43 0 192 2t197 2q8 11 13 26t6.5 25t8 18t17.5 9q22 1 32 -35q7 -24 8 -50q0 -12 -2 -25 q-5 -39 -20 -46q-13 -7 -102 -7q-74 0 -201 5h-354q-20 -1 -94 -3.5t-115 -2.5q-17 -1 -29 -1q-32 0 -41 4q-16 8 -14 30q1 10 5.5 17.5t12.5 12t15 7.5t19 4.5t18.5 2t19.5 1t17 0.5q17 24 87.5 172.5t84.5 185.5q31 78 106.5 222t104.5 212q7 26 70 157.5t65 137.5 q15 34 66 133t71 156q-316 4 -502 4q-124 0 -190 -2q-2 -10 -3 -24.5t-1.5 -24t-3.5 -19t-9.5 -13.5t-17.5 -3q-19 2 -29 21t-10 44z" />
<glyph unicode="{" horiz-adv-x="692" d="M80 774q0 37 8.5 55.5t32.5 18.5q20 0 26.5 -15t10.5 -49v-20q7 2 25 12.5t26 14.5l12 6h-2q57 33 76.5 86t19.5 166q0 28 -14 100q-25 138 -25 180q0 165 111 264q43 41 106.5 74t116.5 33q29 0 29 -17q-2 -12 -45 -22q-25 -4 -33 -8q-43 -17 -72.5 -37t-47.5 -47.5 t-23.5 -38.5t-16.5 -41q-18 -47 -18 -98q0 -52 20 -146q23 -127 23 -178q0 -63 -23.5 -127t-56.5 -100q-34 -40 -66.5 -62t-103.5 -49l35 -16q58 -24 98 -56q66 -57 109 -170q16 -40 16 -86q0 -62 -24 -192l-7 -27q-20 -74 -20 -121q0 -150 131 -237q15 -11 55 -29 q56 -24 64 -36q4 -5 4 -11q0 -10 -29 -10q-26 0 -68 18t-51 27h3q-79 43 -112 72q-112 97 -112 272q0 52 27 162q24 98 24 155q0 33 -2.5 55t-11.5 49.5t-25.5 48.5t-47 44.5t-74.5 44.5h-8v-8q0 -17 2 -23q0 -3 1 -9t1 -9q0 -33 -45 -33q-27 7 -27 43v19q0 3 1 10t1 10 q0 6 -1 20t-1 21q-2 14 -2 47z" />
<glyph unicode="}" horiz-adv-x="735" d="M123 -221q0 15 43.5 38.5t79.5 35.5q67 47 93 93t34 97q0 2 1 7t1 7q0 50 -21 144l-4 18l-6 37q-18 99 -18 164q0 39 18 84q36 103 96 160q29 27 105 59q5 2 17.5 7.5t19.5 10.5q-65 20 -100 43.5t-70 63.5q-31 33 -54.5 99t-23.5 128q0 79 22 176q21 99 21 142 q0 71 -33 135l-8 10q-48 77 -135 115l-29 6q-47 8 -49 22q0 17 35 17q52 0 114 -36t103 -77q106 -92 106 -252q0 -71 -22 -196q-13 -84 -13 -101q0 -102 20 -150t75 -79l57 -31v4q0 72 35 72q18 0 27 -8.5t11 -19t3 -33.5v-93q0 -50 -9.5 -67t-39.5 -17q-25 5 -25 41v19 q0 2 1 9t1 13q-45 -19 -75 -40t-46 -38.5t-24.5 -44t-10.5 -44.5t-4 -54q0 -5 -1 -16t-1 -17q0 -48 23 -127q29 -97 29 -157q0 -47 -8 -88t-17.5 -69.5t-29.5 -56t-33 -42t-39 -33.5t-36 -24.5t-36 -20.5l-21 -12q-15 -11 -56.5 -28t-65.5 -17q-27 0 -27 12z" />
<glyph unicode="&#xa1;" horiz-adv-x="655" d="M285 1464q-5 34 12.5 57t42.5 35q63 19 90 -30q21 -34 8.5 -70.5t-51.5 -42.5q-8 -4 -41 -4q-22 0 -38.5 16t-22.5 39zM286 82q-4 -74 1 -88q21 -2 43 -7.5t37 -4.5q7 0 20 0.5t19.5 1t17.5 4t22 10.5q3 71 -3.5 201t-6.5 153q0 20 -16 236q-3 50 -6.5 111t-5 96t-2.5 41 q-4 34 -10 144t-11 153q-14 9 -22.5 11t-11 1t-6 -7t-5.5 -8q-3 -17 -8.5 -47t-13.5 -117.5t-7 -168.5q0 -57 -1.5 -114t-3.5 -85l-1 -29q-1 -23 -9.5 -180t-6.5 -217q1 -16 -3 -90z" />
<glyph unicode="&#xa3;" horiz-adv-x="1224" d="M129 129q5 69 50.5 116.5t135.5 47.5q25 0 80 -10q13 4 13 49q0 231 -25 405q-12 2 -45 2q-16 0 -54 -1t-57 -1q-96 0 -96 31q0 14 8.5 23t31.5 12t36.5 3.5t48.5 0.5h23q69 0 102 -4q4 20 4 39q0 25 -3 64.5t-3 45.5q0 7 1 20.5t1 20.5t-1 21.5t-1 21.5q0 318 153 434 q4 2 23.5 17.5t32.5 21.5q59 27 127 27q41 0 72 -6t66.5 -23t63.5 -54t48 -93q14 -33 14 -66q0 -23 -19.5 -46t-54.5 -23q-24 0 -40 14.5t-22.5 36t-9 36.5t-2.5 27q0 66 -36 104t-86 38q-34 0 -62.5 -11.5t-48 -28t-35.5 -43.5t-25.5 -50.5t-17.5 -57t-11 -54t-7.5 -50 t-5.5 -37.5v-33q0 -12 -3.5 -36t-3.5 -36q0 -19 3.5 -54.5t3.5 -41.5q0 -9 1 -44t3 -60.5t6 -40.5q9 1 173.5 1t180.5 5q19 0 29 -10t10 -23q0 -10 -5 -17t-15.5 -11t-21 -6.5t-28 -3t-30 -0.5t-33 0.5t-31.5 0.5h-135q-65 0 -92 -2q-7 -285 -49 -456q0 -4 -1 -12t-1 -11 q0 -9 10.5 -18t27 -16.5t32 -13t31.5 -11t20 -6.5q16 -5 51.5 -21.5t69.5 -26.5t71 -10q85 0 151 48.5t93 115.5q1 4 3.5 15.5t5 18.5t9 13t15.5 6q12 0 20 -10t8 -20q0 -45 -18 -93t-29 -59q-23 -65 -107.5 -117.5t-140.5 -52.5q-33 0 -60.5 6.5t-40 11.5t-53.5 28t-63 34 q-15 7 -50.5 36.5t-59.5 37.5q-6 -1 -12.5 -10.5t-11 -18.5t-10 -22.5t-7.5 -16.5q0 -1 -4.5 -9.5t-7.5 -12.5t-9 -14t-11.5 -16t-14 -15.5t-17 -15.5t-20 -13t-23 -11t-26.5 -7t-31 -3q-58 0 -88.5 44.5t-30.5 115.5zM184 106q0 -27 23 -47t47 -20q16 0 29 4t23.5 15t18 19 t15.5 27t11.5 28t11.5 32.5t10 30.5q-26 15 -56 18q-6 0 -21 1t-22 1q-43 0 -66.5 -29t-23.5 -80z" />
<glyph unicode="&#xa5;" horiz-adv-x="1640" d="M147 1516q2 13 11.5 19.5t23.5 7t31.5 0.5t34.5 1q39 2 45 2.5t49 -2t49 -2.5q7 0 18.5 -0.5t17.5 -0.5t15.5 -0.5t14.5 -1.5t11.5 -3t10 -4.5t7 -6t5 -9t1.5 -11.5q0 -15 -10 -24t-22 -12t-36 -6q-5 -1 -8 -1q17 -46 51 -108q13 -24 47 -77t49 -87q41 -77 107 -176 q20 -28 61.5 -100t69.5 -107q11 -13 35.5 -51.5t40.5 -53.5q15 16 31 36t28 37t29 43t26 40t27 43.5t24 40.5q24 41 149 235.5t175 290.5q-93 -16 -96 43q0 8 6.5 14t20.5 9t29 5t36 2h37t37.5 -0.5t31.5 -0.5q6 0 20.5 1t20 1t16 -0.5t15 -3t10 -7t6.5 -12t0 -18.5 q-1 -12 -7 -19t-15.5 -9.5t-22 -3.5t-26 -0.5t-27.5 -0.5q-11 -10 -19.5 -23t-18 -31.5t-15.5 -27.5q-7 -12 -25 -37t-26 -40q-57 -117 -150 -246q-24 -35 -117 -180q-33 -43 -87.5 -138t-67.5 -129q30 0 88 -1t84 -1q4 0 16.5 2t16.5 2q32 -1 45.5 -2t29.5 -4.5t21.5 -10.5 t5.5 -19q0 -22 -23.5 -38.5t-66.5 -17.5h-225q0 -7 1 -21t1 -20q0 -34 4 -96h28q68 0 76 2q31 4 72 2h29q57 -2 79.5 -8.5t22.5 -28.5q0 -46 -90 -49h-213q1 -39 -2 -114t-2 -113q12 -2 33 -4.5t30.5 -5t17.5 -11t7 -24.5q-3 -28 -43 -34t-94 1q-26 4 -58 0.5t-66 -3.5 t-44 9q-23 25 -1.5 49t56.5 19q1 33 -3.5 101.5t-2.5 101.5q0 4 1 13.5t1 14.5h-35l-176 2q-36 -1 -57 7.5t-26 19t-3 22.5q1 14 25.5 22.5t52.5 10.5q57 4 209 4h10l-6 109v22h-27l-176 2q-52 -1 -71 17t-17 39q7 23 80 28q51 4 194 4q-13 13 -18 25q-8 9 -20 29t-15 24 l-70 107q-28 41 -65 110q-5 8 -25.5 39.5t-26 40.5t-22 35t-24 39.5t-20.5 35.5t-23 42.5t-21 42.5q-5 12 -17.5 31t-15.5 24q-20 34 -40.5 72t-44 83.5t-37.5 71.5q-45 -2 -68.5 7t-20.5 41z" />
<glyph unicode="&#xa8;" horiz-adv-x="892" d="M162 1632q0 31 15.5 55.5t39.5 30.5q27 8 62 0q38 -5 49 -59q5 -33 -13 -58.5t-43 -39.5q-28 -10 -57 -4t-41 24q-12 27 -12 51zM520 1632q0 31 15.5 55.5t39.5 30.5h-2q28 7 64 0h-2q38 -5 49 -59q5 -33 -12.5 -59t-42.5 -39q-26 -10 -56 -3.5t-41 23.5q-12 27 -12 51z " />
<glyph unicode="&#xab;" horiz-adv-x="1193" d="M133 676q0 11 8 22q7 23 27 31l137 107l246 182l61 47q8 6 30.5 15.5t33.5 9.5t18.5 -17.5t3.5 -30.5v2l-43 -43l-24 -20l-41 -33l-72 -49q-41 -26 -67 -47l-101 -82l-106 -92l39 -29q2 -2 11 -6t11 -6l125 -88l16 -10h-2q19 -19 29 -21l55 -39l95 -67q47 -39 59 -56v2 q5 -13 3 -32t-9 -29q-26 0 -39 10q-6 0 -12 6q-2 2 -10.5 7t-10.5 6l-115 80l-83 59q-19 13 -58 42t-59 42l-72 51l-33 16l-16 7h2l-16 18l-19 10zM428 674q0 16 10 26q3 8 10.5 15.5t14.5 7.5l31 22q4 3 20 14.5t23 18.5l77 53l117 87l107 77q18 11 52.5 36t51.5 36h-2l8 4 q38 19 58 19q10 0 17.5 -18t4.5 -32l-51 -45l-98 -69l-113 -84l-49 -35l-60 -43q-32 -28 -65 -51l-19 -13l-32 -22l49 -31l22 -10h-2l133 -90l64 -39l14 -6l47 -29l86 -63q42 -30 68 -56q8 -10 4.5 -29.5t-12.5 -29.5q-23 0 -31 4q-1 0 -4 1t-4 1q-31 19 -37 21h2l-123 79 l-94 62l-125 84l-84 55q-1 0 -6 2t-6 2l-17 8l-16 7h2l-18 18q-3 0 -23 10z" />
<glyph unicode="&#xad;" horiz-adv-x="993" d="M113 631q3 13 28 26t47 15q57 4 218 4h67q197 0 281 -2h28q101 -3 101 -45q0 -38 -88 -41q-16 -1 -34 -1t-41.5 0.5t-37.5 0.5h-307l-178 2q-34 -1 -55 6t-26 16t-3 19z" />
<glyph unicode="&#xb0;" horiz-adv-x="460" d="M117 1384q0 51 31.5 95.5t76.5 56.5q30 6 66 6q37 0 67 -6q72 -13 95 -115q-1 -54 -34.5 -108.5t-68.5 -75.5q-32 -8 -61 -8q-45 0 -87 18.5t-63 50.5q-22 42 -22 86zM193 1378q1 -38 30.5 -60.5t69.5 -17.5q46 3 74 74q8 18 -5 56q-18 40 -75 40q-42 0 -64 -18h2 q-35 -18 -32 -74zM221 1460l2 -8z" />
<glyph unicode="&#xb4;" horiz-adv-x="630" d="M81 1557.5q5 19.5 21 31.5l209 137l127 76q12 8 29 14t37.5 5t32.5 -13q18 -30 -39 -71q-47 -31 -105 -62l-43 -24l-221 -115q-30 -13 -41.5 -5.5t-6.5 27z" />
<glyph unicode="&#xb8;" horiz-adv-x="712" d="M143.5 -374.5q1.5 5.5 3.5 16.5q29 14 35 6q4 -2 47 -23q45 -7 97 0q38 6 53 23q20 20 31.5 58t11.5 67q0 36 -8 59q-10 40 -72 74q-4 2 -15 2t-25.5 -1t-18.5 -1q-23 -1 -34.5 -4.5t-21.5 -3.5q-13 0 -25 5t-12 15q0 2 -1 43.5t-1 78t2 46.5q2 15 34 16.5t34 -18.5v-123 q0 -6 12 -3q10 2 17 3q45 3 86 -6q74 -16 123 -78q10 -8 16 -33l6 -26q4 -14 4 -27.5t-2 -30t-2 -26.5q-1 -2 -5.5 -16.5t-10.5 -22.5q0 -8 -9.5 -20.5t-11.5 -18.5q-24 -33 -39 -45q-11 -9 -20.5 -15.5t-21.5 -11.5t-17.5 -7.5t-23 -8.5t-23.5 -8q-43 -4 -45 -4.5t-45 4.5 q-37 0 -72 24q-2 2 -9 8.5t-10 9.5t-8 10.5t-3.5 13z" />
<glyph unicode="&#xbb;" horiz-adv-x="1193" d="M135 1055q-3 9 6 22t19 13q23 0 65 -21l105 -74l104 -77l121 -87l76 -55q13 -8 34.5 -25t34.5 -24q17 -3 29 -27v2q10 -20 10 -28l-2 -23l-22 -10l-17 -25l-24 -4l-8 -4l-13 -6h2l-47 -33l-35 -22l-124 -86l-99 -60l-114 -75l-37 -21q-3 0 -23 -10q-1 0 -1.5 -0.5 t-2 -0.5t-4.5 -0.5t-8.5 -0.5h-12.5q-6 13 -8.5 31t6.5 32v-2q12 13 38 33.5t32 22.5l33 24l51 39l61 35h-2l64 39l127 86l31 16q3 1 12.5 8t13.5 9l19 12l-117 88l-57 41l-52 35l-112 84l-82 59q-15 11 -39 34.5t-31 35.5zM469 1038q-5 14 3 33t20 19q8 0 20 -3.5t23.5 -8 t13.5 -5.5l69 -55l244 -182l146 -109q14 -14 20 -29q8 -16 8 -22l-2 -21l-18 -10l-15 -18l-32 -17l-15 -6h2l-77 -55l-119 -86l-82 -57q-16 -12 -53.5 -37t-55.5 -39l-34 -23v-2q-23 -10 -43 -10q-8 11 -12 32t1 31q13 13 39 34t33 24v-2l10 10h-2q61 48 74 55l59 41 q14 7 39 29q68 45 125 88l27 16l-2 -2q4 3 11.5 8.5t10.5 6.5l21 14l-49 39l-60 49l-98 84l-154 104l-35 29h2l-24 19z" />
<glyph unicode="&#xbf;" horiz-adv-x="874" d="M41 287q-4 62 4 112t30.5 93t43 71.5t56.5 72.5q7 9 11 13l25 29q20 17 37 39l8 12q34 39 45 59q6 13 10 17t7.5 6t17.5 28t37 79l8 32l8 19q6 18 8 35l4 10q1 9 1 26.5t1 24.5v7q0 8 -0.5 16t0 20t1.5 23t4 22.5t6.5 20t9.5 14t14 6.5q7 0 25 -6l2 -2q14 -9 16 -23v-28 q2 -89 -35 -226q-13 -51 -43.5 -108.5t-79 -134t-73.5 -123.5l-27 -66q-4 -16 -10 -37t-8.5 -29.5t-6 -30.5t-2 -39.5t2.5 -57.5q0 -43 18 -95q8 -41 53.5 -85t120.5 -48q6 0 8 2q6 2 19 2q96 6 176 73t90 159q3 72 13.5 94.5t35.5 24.5q39 1 59.5 -17t22.5 -51v-4 q-3 -63 -31 -113l-18 -35l-29 -43q-21 -32 -40 -50t-43 -32.5t-33 -21.5l-33 -16l-84 -29q-74 -12 -76 -12q-20 0 -70.5 5t-50.5 9q-7 1 -22.5 3.5t-25 5t-25 8t-32.5 17.5t-36 29l-2 1q-2 2 -6.5 5.5t-10 8.5t-12.5 11.5t-14 14.5t-14.5 17t-14 19t-12.5 21.5t-10 22.5 l-15 29q-9 27 -14 74zM334 1501q-8 33 8.5 58t40.5 36q62 22 92 -24q23 -32 12.5 -70t-49.5 -45q-9 -6 -41 -6q-44 -3 -63 51z" />
<glyph unicode="&#xc0;" d="M82.5 42q4.5 10 9 15t16.5 7.5t21 2.5h23.5t23.5 1q9 18 31 55t33 59q0 1 9.5 25t24 61t31 77.5t34 80t30.5 63.5q13 32 26 68.5t28 80.5t23 67q7 22 24 61.5t19 44.5l46 104l45 103q11 24 25 70.5t22 66.5q4 12 16 34.5t16 35.5q49 146 70 243q15 60 76 60q25 0 75 -1 t72 -1q28 0 40 -1t22.5 -7t11.5 -19q1 -20 -16 -28.5t-56 -10.5q2 -21 8.5 -46t12.5 -41.5t17.5 -46t15.5 -40.5q18 -50 46.5 -142.5t37.5 -121.5q11 -34 32 -92t29 -82q59 -169 143 -442q13 -48 64 -170q8 -19 19 -53.5t22 -61t26 -49.5q21 1 40.5 1.5t32 -8t11.5 -26.5 q-1 -15 -11 -24.5t-26 -13t-37.5 -4t-45.5 0.5q-114 4 -158 2q-74 0 -74 45q0 22 21 28t65 3q-30 47 -63 146.5t-43 123.5q-20 45 -45 148.5t-47 150.5q-240 0 -543 -10q-22 -39 -64 -154q-10 -28 -34 -77t-31 -66q-61 -152 -88 -209q-2 -5 -15.5 -28t-15.5 -38q32 8 59.5 1 t26.5 -35q-1 -11 -6 -18t-17.5 -9.5t-21 -3t-28.5 -0.5h-13q-20 1 -63.5 -2t-70.5 0t-38 20q-6 16 -1.5 26zM530 702q157 -2 490 19q-5 16 -44 140.5t-61 191.5q-8 26 -28.5 79t-28.5 80q-27 95 -59 156q-2 2 -3 5t-3 3q-5 0 -5 -2q-45 -132 -81 -219q-4 -11 -15.5 -34.5 t-15.5 -35.5q-5 -14 -14 -49.5t-17 -54.5q-15 -41 -56 -134.5t-59 -144.5zM559 1976q12 15 36 16t44.5 -7t30.5 -17l137 -88q193 -135 254 -170q26 -19 18 -40q-10 -25 -56 -11q-8 2 -17 6l-244 135h-2l-23 15q-114 64 -137 81q-64 41 -41 80z" />
<glyph unicode="&#xc1;" d="M82.5 42q4.5 10 9 15t16.5 7.5t21 2.5h23.5t23.5 1q9 18 31 55t33 59q0 1 9.5 25t24 61t31 77.5t34 80t30.5 63.5q13 32 26 68.5t28 80.5t23 67q7 22 24 61.5t19 44.5l46 104l45 103q11 24 25 70.5t22 66.5q4 12 16 34.5t16 35.5q49 146 70 243q15 60 76 60q25 0 75 -1 t72 -1q28 0 40 -1t22.5 -7t11.5 -19q1 -20 -16 -28.5t-56 -10.5q2 -21 8.5 -46t12.5 -41.5t17.5 -46t15.5 -40.5q18 -50 46.5 -142.5t37.5 -121.5q11 -34 32 -92t29 -82q59 -169 143 -442q13 -48 64 -170q8 -19 19 -53.5t22 -61t26 -49.5q21 1 40.5 1.5t32 -8t11.5 -26.5 q-1 -15 -11 -24.5t-26 -13t-37.5 -4t-45.5 0.5q-114 4 -158 2q-74 0 -74 45q0 22 21 28t65 3q-30 47 -63 146.5t-43 123.5q-20 45 -45 148.5t-47 150.5q-240 0 -543 -10q-22 -39 -64 -154q-10 -28 -34 -77t-31 -66q-61 -152 -88 -209q-2 -5 -15.5 -28t-15.5 -38q32 8 59.5 1 t26.5 -35q-1 -11 -6 -18t-17.5 -9.5t-21 -3t-28.5 -0.5h-13q-20 1 -63.5 -2t-70.5 0t-38 20q-6 16 -1.5 26zM530 702q157 -2 490 19q-5 16 -44 140.5t-61 191.5q-8 26 -28.5 79t-28.5 80q-27 95 -59 156q-2 2 -3 5t-3 3q-5 0 -5 -2q-45 -132 -81 -219q-4 -11 -15.5 -34.5 t-15.5 -35.5q-5 -14 -14 -49.5t-17 -54.5q-15 -41 -56 -134.5t-59 -144.5zM563.5 1649q5.5 22 24.5 37q31 18 91 57t104 69l44 29l146 88q15 9 34 15.5t42 5.5t36 -15q26 -33 -45 -82q-45 -29 -118 -69l-50 -29l-254 -131q-34 -15 -47 -6t-7.5 31z" />
<glyph unicode="&#xc2;" d="M82.5 42q4.5 10 9 15t16.5 7.5t21 2.5h23.5t23.5 1q9 18 31 55t33 59q0 1 9.5 25t24 61t31 77.5t34 80t30.5 63.5q13 32 26 68.5t28 80.5t23 67q7 22 24 61.5t19 44.5l46 104l45 103q11 24 25 70.5t22 66.5q4 12 16 34.5t16 35.5q49 146 70 243q15 60 76 60q25 0 75 -1 t72 -1q28 0 40 -1t22.5 -7t11.5 -19q1 -20 -16 -28.5t-56 -10.5q2 -21 8.5 -46t12.5 -41.5t17.5 -46t15.5 -40.5q18 -50 46.5 -142.5t37.5 -121.5q11 -34 32 -92t29 -82q59 -169 143 -442q13 -48 64 -170q8 -19 19 -53.5t22 -61t26 -49.5q21 1 40.5 1.5t32 -8t11.5 -26.5 q-1 -15 -11 -24.5t-26 -13t-37.5 -4t-45.5 0.5q-114 4 -158 2q-74 0 -74 45q0 22 21 28t65 3q-30 47 -63 146.5t-43 123.5q-20 45 -45 148.5t-47 150.5q-240 0 -543 -10q-22 -39 -64 -154q-10 -28 -34 -77t-31 -66q-61 -152 -88 -209q-2 -5 -15.5 -28t-15.5 -38q32 8 59.5 1 t26.5 -35q-1 -11 -6 -18t-17.5 -9.5t-21 -3t-28.5 -0.5h-13q-20 1 -63.5 -2t-70.5 0t-38 20q-6 16 -1.5 26zM530 702q157 -2 490 19q-5 16 -44 140.5t-61 191.5q-8 26 -28.5 79t-28.5 80q-27 95 -59 156q-2 2 -3 5t-3 3q-5 0 -5 -2q-45 -132 -81 -219q-4 -11 -15.5 -34.5 t-15.5 -35.5q-5 -14 -14 -49.5t-17 -54.5q-15 -41 -56 -134.5t-59 -144.5zM567 1608q-32 4 167 254q4 6 14 18q12 16 18 23q43 38 68.5 52t54.5 13q33 -6 74 -39q10 -14 63 -67l31 -39q142 -184 117 -199q-4 -9 -13.5 -13t-17.5 -1q-34 5 -111 102q-12 12 -18 21q0 7 -27 34 l-29 25l-49 59q-21 21 -26 21l-31 -25l-35 -32v2l-31 -35l-32 -35l-35 -39l-23 -27h2l-8 -12l-14 -14l2 2q-3 -16 -64 -51q-30 -12 -47 2z" />
<glyph unicode="&#xc3;" d="M82.5 42q4.5 10 9 15t16.5 7.5t21 2.5h23.5t23.5 1q9 18 31 55t33 59q0 1 9.5 25t24 61t31 77.5t34 80t30.5 63.5q13 32 26 68.5t28 80.5t23 67q7 22 24 61.5t19 44.5l46 104l45 103q11 24 25 70.5t22 66.5q4 12 16 34.5t16 35.5q49 146 70 243q15 60 76 60q25 0 75 -1 t72 -1q28 0 40 -1t22.5 -7t11.5 -19q1 -20 -16 -28.5t-56 -10.5q2 -21 8.5 -46t12.5 -41.5t17.5 -46t15.5 -40.5q18 -50 46.5 -142.5t37.5 -121.5q11 -34 32 -92t29 -82q59 -169 143 -442q13 -48 64 -170q8 -19 19 -53.5t22 -61t26 -49.5q21 1 40.5 1.5t32 -8t11.5 -26.5 q-1 -15 -11 -24.5t-26 -13t-37.5 -4t-45.5 0.5q-114 4 -158 2q-74 0 -74 45q0 22 21 28t65 3q-30 47 -63 146.5t-43 123.5q-20 45 -45 148.5t-47 150.5q-240 0 -543 -10q-22 -39 -64 -154q-10 -28 -34 -77t-31 -66q-61 -152 -88 -209q-2 -5 -15.5 -28t-15.5 -38q32 8 59.5 1 t26.5 -35q-1 -11 -6 -18t-17.5 -9.5t-21 -3t-28.5 -0.5h-13q-20 1 -63.5 -2t-70.5 0t-38 20q-6 16 -1.5 26zM494 1726q2 36 19.5 65t47.5 44q67 33 139 33q69 0 170 -82q43 -28 93 -37q44 -4 95.5 14.5t24.5 51.5q-16 35 10 49t52 -2q33 -39 33 -66q0 -46 -56 -85t-112 -44 q-35 -2 -74.5 10.5t-59 23.5t-57.5 34q-80 51 -125 51q-27 0 -73 -19q-15 -7 -23 -11t-16 -12.5t-9 -19.5v-2q-3 -21 -22.5 -29.5t-38 1.5t-18.5 32zM530 702q157 -2 490 19q-5 16 -44 140.5t-61 191.5q-8 26 -28.5 79t-28.5 80q-27 95 -59 156q-2 2 -3 5t-3 3q-5 0 -5 -2 q-45 -132 -81 -219q-4 -11 -15.5 -34.5t-15.5 -35.5q-5 -14 -14 -49.5t-17 -54.5q-15 -41 -56 -134.5t-59 -144.5z" />
<glyph unicode="&#xc4;" d="M82.5 42q4.5 10 9 15t16.5 7.5t21 2.5h23.5t23.5 1q9 18 31 55t33 59q0 1 9.5 25t24 61t31 77.5t34 80t30.5 63.5q13 32 26 68.5t28 80.5t23 67q7 22 24 61.5t19 44.5l46 104l45 103q11 24 25 70.5t22 66.5q4 12 16 34.5t16 35.5q49 146 70 243q15 60 76 60q25 0 75 -1 t72 -1q28 0 40 -1t22.5 -7t11.5 -19q1 -20 -16 -28.5t-56 -10.5q2 -21 8.5 -46t12.5 -41.5t17.5 -46t15.5 -40.5q18 -50 46.5 -142.5t37.5 -121.5q11 -34 32 -92t29 -82q59 -169 143 -442q13 -48 64 -170q8 -19 19 -53.5t22 -61t26 -49.5q21 1 40.5 1.5t32 -8t11.5 -26.5 q-1 -15 -11 -24.5t-26 -13t-37.5 -4t-45.5 0.5q-114 4 -158 2q-74 0 -74 45q0 22 21 28t65 3q-30 47 -63 146.5t-43 123.5q-20 45 -45 148.5t-47 150.5q-240 0 -543 -10q-22 -39 -64 -154q-10 -28 -34 -77t-31 -66q-61 -152 -88 -209q-2 -5 -15.5 -28t-15.5 -38q32 8 59.5 1 t26.5 -35q-1 -11 -6 -18t-17.5 -9.5t-21 -3t-28.5 -0.5h-13q-20 1 -63.5 -2t-70.5 0t-38 20q-6 16 -1.5 26zM530 702q157 -2 490 19q-5 16 -44 140.5t-61 191.5q-8 26 -28.5 79t-28.5 80q-27 95 -59 156q-2 2 -3 5t-3 3q-5 0 -5 -2q-45 -132 -81 -219q-4 -11 -15.5 -34.5 t-15.5 -35.5q-5 -14 -14 -49.5t-17 -54.5q-15 -41 -56 -134.5t-59 -144.5zM573 1747q0 31 15.5 55.5t40.5 30.5q27 8 61 0q38 -5 49 -59q5 -33 -13 -59t-42 -40q-28 -10 -57 -3.5t-41 24.5q-13 29 -13 51zM932 1747q0 31 15.5 55.5t39.5 30.5h-2q28 7 64 0h-2q38 -5 49 -59 q5 -33 -13 -59.5t-43 -39.5q-26 -10 -55.5 -3.5t-40.5 24.5q-12 27 -12 51z" />
<glyph unicode="&#xc5;" d="M82.5 42q4.5 10 9 15t16.5 7.5t21 2.5h23.5t23.5 1q9 18 31 55t33 59q0 1 9.5 25t24 61t31 77.5t34 80t30.5 63.5q13 32 26 68.5t28 80.5t23 67q7 22 24 61.5t19 44.5l46 104l45 103q11 24 25 70.5t22 66.5q4 12 16 34.5t16 35.5q49 146 70 243q15 60 76 60q25 0 75 -1 t72 -1q28 0 40 -1t22.5 -7t11.5 -19q1 -20 -16 -28.5t-56 -10.5q2 -21 8.5 -46t12.5 -41.5t17.5 -46t15.5 -40.5q18 -50 46.5 -142.5t37.5 -121.5q11 -34 32 -92t29 -82q59 -169 143 -442q13 -48 64 -170q8 -19 19 -53.5t22 -61t26 -49.5q21 1 40.5 1.5t32 -8t11.5 -26.5 q-1 -15 -11 -24.5t-26 -13t-37.5 -4t-45.5 0.5q-114 4 -158 2q-74 0 -74 45q0 22 21 28t65 3q-30 47 -63 146.5t-43 123.5q-20 45 -45 148.5t-47 150.5q-240 0 -543 -10q-22 -39 -64 -154q-10 -28 -34 -77t-31 -66q-61 -152 -88 -209q-2 -5 -15.5 -28t-15.5 -38q32 8 59.5 1 t26.5 -35q-1 -11 -6 -18t-17.5 -9.5t-21 -3t-28.5 -0.5h-13q-20 1 -63.5 -2t-70.5 0t-38 20q-6 16 -1.5 26zM530 702q157 -2 490 19q-5 16 -44 140.5t-61 191.5q-8 26 -28.5 79t-28.5 80q-27 95 -59 156q-2 2 -3 5t-3 3q-5 0 -5 -2q-45 -132 -81 -219q-4 -11 -15.5 -34.5 t-15.5 -35.5q-5 -14 -14 -49.5t-17 -54.5q-15 -41 -56 -134.5t-59 -144.5zM676 1794q0 51 31.5 95.5t76.5 56.5q30 6 66 6q38 0 68 -6q71 -12 94 -115q-1 -54 -34.5 -108.5t-68.5 -75.5q-36 -9 -61 -9q-45 0 -87 19t-63 51q-22 42 -22 86zM752 1788q1 -38 30.5 -60.5 t69.5 -17.5q46 3 74 74q8 19 -4 55q-18 41 -76 41q-38 0 -55 -14l-7 -4q-35 -18 -32 -74z" />
<glyph unicode="&#xc6;" horiz-adv-x="1820" d="M43.5 42q4.5 10 9 15t16.5 7.5t21 2.5h23.5t23.5 1q7 11 31 50.5t37 63.5l10 24q10 25 25.5 62t33 77.5t36.5 80t32 63.5q7 15 84 216q7 21 24 58t21 48l47 104l49 103q10 23 25.5 68.5t25.5 68.5q4 13 16.5 35t16.5 35q52 135 78 243q5 25 24 43.5t33 22.5l11 2 q15 1 47 1t47 1q75 0 259.5 -1t270.5 -1q18 0 70.5 1t86.5 0.5t62 -5.5q0 -10 1.5 -36t1.5 -44t-2.5 -38.5t-11.5 -31.5t-25 -12q-26 0 -37 28t-8 70q-178 10 -334 2q-39 -2 -116.5 -1t-113.5 -1q-12 -195 -4 -608q160 -9 418 0q1 7 2 20t1.5 19t3 14.5t7.5 12.5t13 6 q17 4 27.5 -1t16 -23.5t7 -29t3.5 -39.5q1 -8 1 -12q1 -21 0.5 -40.5t-3 -34.5t-11 -24t-23.5 -9q-24 -2 -33.5 16t-5.5 56q-151 -5 -418 4q-2 -23 -2 -74v-76l6 -141q0 -53 7 -152.5t8 -140.5v-45t2.5 -57.5t9.5 -40.5q55 0 174 -1t202 -0.5t167 3.5q-3 35 0.5 65.5 t11.5 36.5q6 6 19.5 9.5t23.5 0.5q12 -3 18 -19t6.5 -29.5t0.5 -39.5v-8v-14v-14.5t-0.5 -12.5t-1.5 -13t-3 -10.5t-5.5 -9.5t-8.5 -6q-5 -3 -13 -4.5t-19.5 -2t-21.5 -0.5t-26 0.5t-26 0.5q-77 -1 -294 0.5t-298 -4.5q-79 0 -88 4q-10 41 -6 70q10 219 -9 561l-2 12 q-224 -4 -348 -8q-27 -45 -67 -154q-10 -26 -35.5 -73.5t-34.5 -69.5q-65 -151 -94 -209q-3 -7 -17 -29.5t-16 -36.5q32 8 59.5 1t26.5 -35q-1 -11 -6.5 -18t-18.5 -9.5t-21.5 -3t-28.5 -0.5h-13q-20 1 -63.5 -2t-70 0t-36.5 20q-6 16 -1.5 26zM510 702q95 -2 317 7v32 q0 5 -1 42.5t-1 43.5q-4 154 -6 207q-4 86 -4 129q0 15 -3.5 145t1.5 152h-6q-8 -23 -10 -37l-11 -47q-2 0 -2 -2q-52 -144 -86 -219q-28 -58 -32 -70q-6 -15 -16 -50t-19 -54q-16 -40 -59 -133.5t-62 -145.5z" />
<glyph unicode="&#xc7;" horiz-adv-x="1294" d="M158 598q-18 104 4 281q44 281 190 434q28 30 99 82q72 56 104 73q30 15 68.5 25.5t67.5 14.5t78 10t75 10q41 6 162 -31q18 -5 42.5 -20t45.5 -19q3 24 5 33.5t10 19.5t24 11q17 1 27.5 -9t14 -31.5t4 -39t-1 -48.5t-1.5 -42q0 -17 -0.5 -26.5t-3.5 -23.5t-11 -22 t-20 -10q-25 0 -33 10q-13 10 -9.5 36.5t-0.5 47.5q-4 10 -18 26t-27 21q-41 20 -80 31q-75 20 -215 10q-113 -9 -221 -102q-86 -77 -140 -183q-81 -242 -65 -450q4 -110 16 -180q22 -122 86 -228q23 -32 32.5 -44.5t28 -31.5t40.5 -36q46 -34 86 -56q11 -4 40.5 -21 t53.5 -24q168 -39 270 -20q17 4 33.5 11.5t26.5 13.5t28 19t25 17q2 8 1.5 44t9 56.5t36.5 20.5q14 0 22.5 -8.5t11.5 -27t4 -31.5t0 -40t-1 -34q2 -49 -11 -84t-34 -35q-43 0 -37 68q-37 -29 -70 -43q-64 -26 -244 -13q-25 2 -77 10v-108q0 -4 2 -4.5t9 1.5q10 2 17 3 q45 3 86 -6q74 -16 123 -78q7 -6 11.5 -17.5t7 -24.5t4.5 -17q4 -14 4 -27.5t-2 -30t-2 -26.5q-16 -38 -17 -39q0 -8 -9 -20.5t-11 -18.5q-24 -33 -39 -45q-11 -9 -21 -15.5t-21.5 -11.5t-18 -7.5t-23 -8t-23.5 -8.5q-43 -4 -45 -4.5t-45 4.5q-36 0 -71 24q-3 3 -9.5 8.5 t-9.5 8.5t-8 10.5t-3.5 13t3.5 16.5q29 15 35 7q4 -1 47 -23q44 -7 96 0q38 6 53 23q20 20 31.5 58t11.5 67q0 36 -8 59q-10 41 -71 74q-4 2 -15 2t-26 -1t-19 -1q-24 -1 -34.5 -5t-20.5 -4q-12 0 -24.5 5.5t-12.5 15.5q0 5 -1 44t-1.5 68.5t0.5 51.5q-46 11 -98 30 q-85 31 -141 82t-113 134q-104 143 -129 319z" />
<glyph unicode="&#xc8;" horiz-adv-x="1220" d="M133 1489q6 -29 74 -29q-5 -22 -1.5 -152t3.5 -145q0 -43 4 -129q2 -49 1.5 -131t0.5 -129q0 -6 3 -17t3 -16l4 -110q14 -251 0 -561q-57 -3 -70 -14q-8 -6 -10 -15q-5 -20 5.5 -32.5t36 -15.5t46 -3t54 3t41.5 3q81 6 298 4.5t294 -0.5q10 0 26 -0.5t26 -0.5t21.5 0.5 t19.5 2t13 4.5q6 3 9.5 8t5.5 10t2.5 14t0.5 14.5v17v16.5v11q1 78 -24 85q-10 3 -23.5 -0.5t-19.5 -9.5q-8 -6 -11.5 -36.5t-0.5 -65.5q-84 -3 -167 -3.5t-202 0.5t-174 1q-7 18 -9.5 40.5t-2.5 57.5v45q-1 41 -8 140.5t-7 152.5q-1 30 -3.5 103t-2.5 101t2 87 q267 -9 418 -4q-4 -38 5.5 -56t33.5 -16q15 0 23.5 9t11 24t3 34.5t-0.5 40.5q-5 73 -17 91q-12 20 -39 14q-8 -2 -12.5 -6t-7 -12t-3.5 -14.5t-1.5 -19.5t-1.5 -20q-258 -9 -418 0q-8 413 4 608q37 2 113 1t116 1q156 8 334 -2q-3 -42 8 -70t37 -28q16 1 25 12t12 31.5 t3 38t-1.5 44t-1.5 36.5q-28 5 -62 5.5t-86.5 -0.5t-70.5 -1q-86 0 -270.5 1t-259.5 1q-18 -1 -39.5 0t-43 -1t-38.5 -6t-25.5 -14.5t-5.5 -27.5zM344 1937q12 15 35 16.5t42.5 -6t29.5 -16.5l129 -84q184 -126 241 -161q24 -17 17 -37q-9 -25 -55 -10q-7 2 -15 6l-231 127 h-2l-21 12q-13 8 -61.5 36t-69.5 42q-58 37 -39 75z" />
<glyph unicode="&#xc9;" horiz-adv-x="1220" d="M133 1489q-3 17 5.5 27.5t25.5 14.5t38.5 6t43 1t39.5 0q75 0 259.5 -1t270.5 -1q18 0 70.5 1t86.5 0.5t62 -5.5q0 -10 1.5 -36.5t1.5 -44t-3 -38t-12 -31.5t-25 -12q-26 0 -37 28t-8 70q-178 10 -334 2q-39 -2 -116 -1t-113 -1q-12 -195 -4 -608q160 -9 418 0 q1 7 1.5 20t1.5 19.5t3.5 14.5t7 12t12.5 6q17 4 28 -1t16.5 -24.5t7 -29t3.5 -40.5q1 -7 1 -10q1 -21 0.5 -40.5t-3 -34.5t-11 -24t-23.5 -9q-24 -2 -33.5 16t-5.5 56q-151 -5 -418 4q-2 -59 -2 -87t2.5 -101t3.5 -103q0 -53 7 -152.5t8 -140.5v-45t2.5 -57.5t9.5 -40.5 q55 0 174 -1t202 -0.5t167 3.5q-3 35 0.5 65.5t11.5 36.5q6 6 19.5 9.5t23.5 0.5q25 -7 24 -85v-11v-16.5v-17t-0.5 -14.5t-2.5 -14t-5.5 -10t-9.5 -8q-5 -3 -13 -4.5t-19.5 -2t-21.5 -0.5t-26 0.5t-26 0.5q-77 -1 -294 0.5t-298 -4.5q-8 0 -41.5 -3t-54 -3t-46 3t-36 15.5 t-5.5 32.5q4 17 23 22t49 7h8q14 310 0 561l-4 110q0 5 -3 16t-3 17q-1 34 -0.5 129t-1.5 131q-4 86 -4 129q0 15 -3.5 145t1.5 152q-68 0 -74 29zM387 1639q-7 23 16 47q3 3 7 6l219 143l133 80q14 9 31 15t38.5 5t32.5 -14q24 -30 -39 -76q-70 -42 -110 -63l-45 -27 l-234 -121q-42 -22 -49 5z" />
<glyph unicode="&#xca;" horiz-adv-x="1220" d="M133 1489q6 -29 74 -29q-5 -22 -1.5 -152t3.5 -145q0 -43 4 -129q2 -49 1.5 -131t0.5 -129q0 -6 3 -17t3 -16l4 -110q14 -251 0 -561q-57 -3 -70 -14q-8 -6 -10 -15q-5 -20 5.5 -32.5t36 -15.5t46 -3t54 3t41.5 3q81 6 298 4.5t294 -0.5q10 0 26 -0.5t26 -0.5t21.5 0.5 t19.5 2t13 4.5q6 3 9.5 8t5.5 10t2.5 14t0.5 14.5v17v16.5v11q1 78 -24 85q-10 3 -23.5 -0.5t-19.5 -9.5q-8 -6 -11.5 -36.5t-0.5 -65.5q-84 -3 -167 -3.5t-202 0.5t-174 1q-7 18 -9.5 40.5t-2.5 57.5v45q-1 41 -8 140.5t-7 152.5q-1 30 -3.5 103t-2.5 101t2 87 q267 -9 418 -4q-4 -38 5.5 -56t33.5 -16q15 0 23.5 9t11 24t3 34.5t-0.5 40.5q-5 73 -17 91q-12 20 -39 14q-8 -2 -12.5 -6t-7 -12t-3.5 -14.5t-1.5 -19.5t-1.5 -20q-258 -9 -418 0q-8 413 4 608q37 2 113 1t116 1q156 8 334 -2q-3 -42 8 -70t37 -28q16 1 25 12t12 31.5 t3 38t-1.5 44t-1.5 36.5q-28 5 -62 5.5t-86.5 -0.5t-70.5 -1q-86 0 -270.5 1t-259.5 1q-18 -1 -39.5 0t-43 -1t-38.5 -6t-25.5 -14.5t-5.5 -27.5zM301 1645q-32 4 161 246q6 7 16 21q15 18 22 27q43 38 68.5 52.5t54.5 13.5q32 -5 73 -39q10 -14 64 -68l31 -38 q142 -183 116 -199q-4 -9 -13 -13t-17 -1q-34 5 -111 102q-14 14 -18 20q0 8 -27 35l-29 25l-49 59q-21 21 -27 21l-30 -25l-35 -33v2l-31 -34l-33 -35l-34 -39l-23 -27h2l-8 -12l-14 -14l2 2q-1 -7 -20.5 -22.5t-43.5 -29.5q-29 -12 -47 3z" />
<glyph unicode="&#xcb;" horiz-adv-x="1220" d="M133 1489q6 -29 74 -29q-5 -22 -1.5 -152t3.5 -145q0 -43 4 -129q2 -49 1.5 -131t0.5 -129q0 -6 3 -17t3 -16l4 -110q14 -251 0 -561q-57 -3 -70 -14q-8 -6 -10 -15q-5 -20 5.5 -32.5t36 -15.5t46 -3t54 3t41.5 3q81 6 298 4.5t294 -0.5q10 0 26 -0.5t26 -0.5t21.5 0.5 t19.5 2t13 4.5q6 3 9.5 8t5.5 10t2.5 14t0.5 14.5v17v16.5v11q1 78 -24 85q-10 3 -23.5 -0.5t-19.5 -9.5q-8 -6 -11.5 -36.5t-0.5 -65.5q-84 -3 -167 -3.5t-202 0.5t-174 1q-7 18 -9.5 40.5t-2.5 57.5v45q-1 41 -8 140.5t-7 152.5q-1 30 -3.5 103t-2.5 101t2 87 q267 -9 418 -4q-4 -38 5.5 -56t33.5 -16q15 0 23.5 9t11 24t3 34.5t-0.5 40.5q-5 73 -17 91q-12 20 -39 14q-8 -2 -12.5 -6t-7 -12t-3.5 -14.5t-1.5 -19.5t-1.5 -20q-258 -9 -418 0q-8 413 4 608q37 2 113 1t116 1q156 8 334 -2q-3 -42 8 -70t37 -28q16 1 25 12t12 31.5 t3 38t-1.5 44t-1.5 36.5q-28 5 -62 5.5t-86.5 -0.5t-70.5 -1q-86 0 -270.5 1t-259.5 1q-18 -1 -39.5 0t-43 -1t-38.5 -6t-25.5 -14.5t-5.5 -27.5zM350 1757q0 31 15.5 55.5t40.5 30.5q27 8 61 0q38 -5 49 -59q5 -33 -13 -58.5t-42 -39.5q-28 -10 -57.5 -4t-41.5 24 q-12 27 -12 51zM709 1757q0 31 15.5 55.5t39.5 30.5h-2q28 7 63 0h-2q38 -5 49 -59q5 -33 -12.5 -59t-42.5 -39q-26 -10 -55.5 -3.5t-40.5 23.5q-12 27 -12 51z" />
<glyph unicode="&#xcc;" horiz-adv-x="706" d="M123 1958q11 14 33 15t40 -6t27 -15l123 -80q174 -121 229 -154q23 -16 16 -35q-9 -24 -53 -9q-7 2 -14 5l-219 121h-2l-18 12q-88 48 -125 74q-55 35 -37 72zM172 1489q3 -17 18 -21.5t35.5 -2t44.5 -1.5q-5 -44 -5 -97t2.5 -116t2.5 -94q0 -82 4 -119q43 -546 15 -970 q-99 5 -101 -33q-1 -16 15.5 -25t47 -11t59 -1.5t67.5 2.5t57 2q11 0 30 -1t31 -1.5t24.5 1t18.5 7t7 15.5q0 9 -1.5 16.5t-4 12t-9 8t-11 5.5t-15 3t-16 1t-19 0.5t-20.5 0.5q-6 20 -7.5 49t-0.5 47t4 56t4 46q5 105 -7 353q-2 23 -2 50t1 61t1 52q0 283 -4 385q0 25 -4 78 t-4 78q0 15 2.5 65t1.5 74q12 3 40 3.5t41.5 7t14.5 26.5q0 8 -2.5 14t-10 9t-14.5 4.5t-20.5 2t-22.5 0t-26.5 -1.5t-27.5 -1q-115 -4 -160 0q-7 1 -20.5 -0.5t-16.5 -1.5q-19 -1 -29 -15t-8 -22z" />
<glyph unicode="&#xcd;" horiz-adv-x="706" d="M100 1699q5 20 21 32l209 137l127 76q12 8 29 14t37 5t32 -13q18 -31 -39 -72q-43 -28 -104 -61l-43 -25l-222 -115q-30 -13 -41 -5.5t-6 27.5zM172 1489q-2 8 8 22t29 15q3 0 16.5 1.5t20.5 0.5q45 -4 160 0q10 0 27.5 1t26.5 1.5t22.5 0t20.5 -2t14.5 -4.5t10 -9 t2.5 -14q-1 -20 -14.5 -26.5t-41.5 -7t-40 -3.5q1 -24 -1.5 -74t-2.5 -65q0 -25 4 -78t4 -78q4 -102 4 -385q0 -18 -1 -52t-1 -61t2 -50q12 -248 7 -353q-1 -8 -4 -46t-4 -56t0.5 -47t7.5 -49q7 0 20.5 -0.5t19 -0.5t16 -1t15 -3t11 -5.5t9 -8t4 -12t1.5 -16.5 q-1 -10 -7 -15.5t-18.5 -7t-24.5 -1t-31 1.5t-30 1q-18 0 -57 -2t-67.5 -2.5t-59 1.5t-47 11t-15.5 25q2 38 101 33q28 424 -15 970q-4 37 -4 119q0 31 -2.5 94t-2.5 116t5 97q-24 4 -44.5 1.5t-35.5 2t-18 21.5z" />
<glyph unicode="&#xce;" horiz-adv-x="706" d="M84 1642q-32 4 167 254q4 6 14 18q12 16 18 23q43 38 68.5 52.5t54.5 13.5q32 -5 73 -39q10 -14 64 -68l30 -38q142 -184 117 -199q-4 -9 -13.5 -13t-17.5 -1q-32 4 -110 102q-17 17 -19 20q0 9 -26 35l-29 25l-49 59q-21 21 -27 21l-30 -25l-35 -33v2l-31 -34l-33 -35 l-34 -39l-23 -27h2l-8 -12l-14 -14l2 2q-1 -7 -20.5 -22.5t-43.5 -29.5q-30 -12 -47 2zM172 1489q3 -17 18 -21.5t35.5 -2t44.5 -1.5q-5 -44 -5 -97t2.5 -116t2.5 -94q0 -82 4 -119q43 -546 15 -970q-99 5 -101 -33q-1 -16 15.5 -25t47 -11t59 -1.5t67.5 2.5t57 2 q11 0 30 -1t31 -1.5t24.5 1t18.5 7t7 15.5q0 9 -1.5 16.5t-4 12t-9 8t-11 5.5t-15 3t-16 1t-19 0.5t-20.5 0.5q-6 20 -7.5 49t-0.5 47t4 56t4 46q5 105 -7 353q-2 23 -2 50t1 61t1 52q0 283 -4 385q0 25 -4 78t-4 78q0 15 2.5 65t1.5 74q12 3 40 3.5t41.5 7t14.5 26.5 q0 8 -2.5 14t-10 9t-14.5 4.5t-20.5 2t-22.5 0t-26.5 -1.5t-27.5 -1q-115 -4 -160 0q-7 1 -20.5 -0.5t-16.5 -1.5q-19 -1 -29 -15t-8 -22z" />
<glyph unicode="&#xcf;" horiz-adv-x="706" d="M68 1792q0 31 15.5 55.5t39.5 30.5q27 8 61 0q38 -5 49 -59q5 -33 -13 -59t-42 -40q-28 -10 -57 -3.5t-41 24.5q-12 27 -12 51zM172 1489q3 -17 18 -21.5t35.5 -2t44.5 -1.5q-5 -44 -5 -97t2.5 -116t2.5 -94q0 -82 4 -119q43 -546 15 -970q-99 5 -101 -33 q-1 -16 15.5 -25t47 -11t59 -1.5t67.5 2.5t57 2q11 0 30 -1t31 -1.5t24.5 1t18.5 7t7 15.5q0 9 -1.5 16.5t-4 12t-9 8t-11 5.5t-15 3t-16 1t-19 0.5t-20.5 0.5q-6 20 -7.5 49t-0.5 47t4 56t4 46q5 105 -7 353q-2 23 -2 50t1 61t1 52q0 283 -4 385q0 25 -4 78t-4 78 q0 15 2.5 65t1.5 74q12 3 40 3.5t41.5 7t14.5 26.5q0 8 -2.5 14t-10 9t-14.5 4.5t-20.5 2t-22.5 0t-26.5 -1.5t-27.5 -1q-115 -4 -160 0q-7 1 -20.5 -0.5t-16.5 -1.5q-19 -1 -29 -15t-8 -22zM426 1792q0 31 15.5 55.5t39.5 30.5h-2q28 7 64 0h-2q38 -5 49 -59 q5 -33 -12.5 -59.5t-42.5 -39.5q-26 -10 -56 -3.5t-41 24.5q-12 27 -12 51z" />
<glyph unicode="&#xd0;" horiz-adv-x="1421" d="M-57 760q3 13 28 26t47 15q98 4 183 4v20v90q-6 18 -7 38.5t1 48t2 38.5v103q2 83 10 305q-8 1 -24.5 2t-28 2.5t-24 4.5t-19 10t-5.5 18q1 14 11.5 22.5t29.5 11.5t37 3.5t41 0.5t33 1q14 1 31.5 1t39.5 -0.5t33 -0.5q148 0 300 -19q163 -22 271.5 -64.5t178.5 -127.5 q48 -56 72 -90q81 -129 96 -224q2 -11 14 -59t13 -72q1 -8 1 -17.5t-0.5 -21t-0.5 -18.5q5 -101 0 -141q-1 -13 -8 -34.5t-9 -31.5q-1 -4 -4.5 -28.5t-7.5 -36.5q-8 -30 -55 -121q-8 -14 -31.5 -58.5t-38.5 -64.5q-9 -12 -23 -26.5t-22 -21.5t-31.5 -27t-27.5 -23 q-93 -72 -185.5 -118t-204.5 -63q-113 -15 -237 -12q-37 3 -74 0h-90q-20 2 -61 2q-13 1 -25.5 0t-24.5 0.5t-21.5 4.5t-15.5 11.5t-8 22.5q-3 24 20.5 30.5t70.5 4.5q-2 123 3 356t5 281l-174 2q-34 -1 -55 6t-26 16t-3 19zM352 61q29 -2 83 0t93 5l39 2q24 0 47 3.5 t46 11.5t39.5 13.5t40 18.5t34 19t35.5 21.5t31 18.5q15 9 29.5 20t24 18.5t22.5 21t19.5 20t22 23.5t21.5 24q30 33 55 84q30 61 44 93t30.5 89t19.5 111q0 16 1.5 46t2 46.5t0 40t-3.5 43.5q0 1 -6 68q-8 55 -49 147q-34 83 -69 135q-13 23 -70 80q-71 66 -160 109 q-57 26 -92 37q-7 2 -34.5 9t-40.5 10t-36 7.5t-41.5 5.5t-35.5 0q-16 -1 -64 0.5t-65 -4.5q0 -41 -6.5 -234.5t-2.5 -285.5q4 -86 4 -133q118 0 181 -2h28q101 -3 101 -45q0 -38 -88 -41q-9 -1 -33 -0.5t-37 0.5h-152q0 -33 -5 -279.5t-3 -376.5z" />
<glyph unicode="&#xd1;" horiz-adv-x="1439" d="M184 1493q3 -22 22 -28.5t60 -4.5q1 -37 5 -113.5t5 -113.5q3 -69 -2.5 -211t-1.5 -211q1 -25 -1 -72t-1 -69q1 -14 -0.5 -41.5t-1.5 -34.5q1 -29 4 -85t4 -87q2 -28 2.5 -81t2.5 -81q0 -32 4 -78q9 -87 4 -119q-18 1 -34 1t-28 -2.5t-19 -10.5t-7 -22q-1 -17 9.5 -26.5 t32.5 -12t41.5 -2.5t51 2t47.5 2q8 0 28 -1t28 0t19.5 4t16 11.5t4.5 22.5q0 11 -6 17.5t-18.5 9.5t-23 4t-29 1.5t-27.5 1.5q-11 236 -10 283q0 226 -5 287q-3 43 -4 91.5t-1 109.5t-1 94q-1 44 -2 187t-6 212q28 -54 60 -110.5t79 -135.5t64 -108q74 -133 160 -258 q10 -14 26.5 -43.5t26.5 -44.5q8 -15 27.5 -41.5t27.5 -40.5l55 -88q46 -77 140 -206t137 -198q13 -22 20.5 -33.5t23 -23.5t30.5 -10t23.5 14.5t10 33.5t1 38.5t-3.5 43t-3 34.5q-7 147 -2 223q1 12 2 48t2 46q0 15 -2.5 49t-1.5 59q0 44 1 135t1 136q0 22 -4 64.5t-4 62.5 l8 489q15 1 29 0t26.5 0t22 3.5t16 10t7.5 19.5q0 11 -4.5 19.5t-14 12.5t-20.5 6.5t-27.5 2.5t-29 -0.5t-32 -2t-30.5 -1.5q-18 -1 -35.5 -0.5t-34.5 -1.5t-24 -8q-24 -21 -8 -49q9 -15 32.5 -18t51.5 1q-4 -187 -4.5 -552t-4.5 -542q-9 8 -17.5 16.5t-17.5 22.5 t-12.5 19.5t-14 24t-11.5 20.5q-57 88 -142 215q-23 31 -67 113q-8 12 -36.5 47.5t-41.5 56.5q-34 67 -68 113q-33 50 -70 113t-61 107.5t-65 121t-60 110.5q-6 15 -13.5 26.5t-13 19.5t-16.5 13t-16.5 8t-20.5 4t-20.5 1.5t-24.5 0t-26 -0.5q-11 0 -37.5 1.5t-42 1 t-34 -3.5t-27 -13t-7.5 -27zM330 1767q2 36 19.5 65t47.5 44q67 33 140 33q69 0 170 -82q43 -29 92 -37q45 -4 96.5 14.5t24.5 50.5q-16 36 9.5 50t51.5 -2q33 -39 33 -66q0 -46 -56 -85t-112 -44q-35 -2 -74.5 10.5t-59 23.5t-57.5 34q-80 51 -125 51q-27 0 -73 -19 q-15 -6 -23 -10.5t-15.5 -13t-8.5 -19.5v-2q-3 -21 -23 -29.5t-38.5 1.5t-18.5 32z" />
<glyph unicode="&#xd2;" horiz-adv-x="1394" d="M174 829q0 21 1 66t1 66q0 16 3.5 47.5t4.5 42.5l4.5 40.5t6.5 49.5q25 152 157 270q132 115 310 129q55 3 114 0q176 -14 309 -129q133 -119 158 -270q3 -18 6 -49t4 -41q1 -12 5 -43t4 -47q0 -21 1 -66t1 -66q-1 -34 1.5 -134t-1.5 -132q-10 -107 -17 -135 q-23 -113 -65 -186q-37 -66 -95.5 -118t-130.5 -81q-10 -3 -39 -14.5t-47 -16.5q-31 -10 -180 -20l-18 2q-96 5 -127 14q-101 32 -173 87t-124 147q-24 41 -44 117t-26 143q-3 73 -2.5 163.5t-1.5 163.5zM347.5 857q-0.5 -71 1 -165t1.5 -139q3 -91 19 -178q6 -71 32 -139 t54 -101q24 -31 82.5 -53.5t105.5 -29.5l47 -7q31 0 59.5 4t53.5 12.5t39.5 14t34.5 15.5l22 11q39 25 84 82q26 30 49.5 87.5t30.5 111.5q20 108 22 174q0 17 3.5 48t3.5 36q9 127 -7 356q-5 87 -12 144.5t-29.5 127.5t-58.5 107q-127 114 -272 117q-65 -4 -88 -10 q-78 -22 -166 -101q-90 -95 -107 -385q-4 -69 -4.5 -140zM455 1978q12 16 35.5 17t43 -6.5t29.5 -16.5l133 -86q191 -133 250 -168q25 -18 17 -38q-10 -26 -57 -11q-7 3 -15 6l-240 133h-2l-20 13q-131 77 -135 80q-63 41 -39 77z" />
<glyph unicode="&#xd3;" horiz-adv-x="1394" d="M174 829q0 21 1 66t1 66q0 16 3.5 47.5t4.5 42.5l4.5 40.5t6.5 49.5q25 152 157 270q132 115 310 129q55 3 114 0q176 -14 309 -129q133 -119 158 -270q3 -18 6 -49t4 -41q1 -12 5 -43t4 -47q0 -21 1 -66t1 -66q-1 -34 1.5 -134t-1.5 -132q-10 -107 -17 -135 q-23 -113 -65 -186q-37 -66 -95.5 -118t-130.5 -81q-10 -3 -39 -14.5t-47 -16.5q-31 -10 -180 -20l-18 2q-96 5 -127 14q-101 32 -173 87t-124 147q-24 41 -44 117t-26 143q-3 73 -2.5 163.5t-1.5 163.5zM347.5 857q-0.5 -71 1 -165t1.5 -139q3 -91 19 -178q6 -71 32 -139 t54 -101q24 -31 82.5 -53.5t105.5 -29.5l47 -7q31 0 59.5 4t53.5 12.5t39.5 14t34.5 15.5l22 11q39 25 84 82q26 30 49.5 87.5t30.5 111.5q20 108 22 174q0 17 3.5 48t3.5 36q9 127 -7 356q-5 87 -12 144.5t-29.5 127.5t-58.5 107q-127 114 -272 117q-65 -4 -88 -10 q-78 -22 -166 -101q-90 -95 -107 -385q-4 -69 -4.5 -140zM474.5 1679q5.5 21 23.5 35l231 152l139 84q14 8 32.5 14.5t41.5 5.5t35 -14q4 -7 5 -11.5t-0.5 -15t-13.5 -24t-34 -29.5q-27 -18 -115 -68l-47 -26l-246 -127q-33 -14 -45 -5.5t-6.5 29.5z" />
<glyph unicode="&#xd4;" horiz-adv-x="1394" d="M174 829q0 21 1 66t1 66q0 16 3.5 47.5t4.5 42.5l4.5 40.5t6.5 49.5q25 152 157 270q132 115 310 129q55 3 114 0q176 -14 309 -129q133 -119 158 -270q3 -18 6 -49t4 -41q1 -12 5 -43t4 -47q0 -21 1 -66t1 -66q-1 -34 1.5 -134t-1.5 -132q-10 -107 -17 -135 q-23 -113 -65 -186q-37 -66 -95.5 -118t-130.5 -81q-10 -3 -39 -14.5t-47 -16.5q-31 -10 -180 -20l-18 2q-96 5 -127 14q-101 32 -173 87t-124 147q-24 41 -44 117t-26 143q-3 73 -2.5 163.5t-1.5 163.5zM347.5 857q-0.5 -71 1 -165t1.5 -139q3 -91 19 -178q6 -71 32 -139 t54 -101q24 -31 82.5 -53.5t105.5 -29.5l47 -7q31 0 59.5 4t53.5 12.5t39.5 14t34.5 15.5l22 11q39 25 84 82q26 30 49.5 87.5t30.5 111.5q20 108 22 174q0 17 3.5 48t3.5 36q9 127 -7 356q-5 87 -12 144.5t-29.5 127.5t-58.5 107q-127 114 -272 117q-65 -4 -88 -10 q-78 -22 -166 -101q-90 -95 -107 -385q-4 -69 -4.5 -140zM399 1683q-32 4 167 254q4 6 14 18q12 16 18 23q43 38 68.5 52.5t54.5 13.5q33 -6 74 -39q13 -18 63 -68l31 -39q141 -183 117 -198q-4 -9 -13.5 -13t-17.5 -1q-34 5 -111 102q-14 14 -18 20q0 8 -27 35l-28 25 l-50 59q-21 21 -26 21l-31 -25l-35 -33v2l-31 -34l-32 -35l-35 -39l-23 -27h2l-8 -12l-14 -14l2 2q-1 -7 -20.5 -22.5t-43.5 -29.5q-30 -12 -47 2z" />
<glyph unicode="&#xd5;" horiz-adv-x="1394" d="M174 829q0 21 1 66t1 66q0 16 3.5 47.5t4.5 42.5l4.5 40.5t6.5 49.5q25 152 157 270q132 115 310 129q55 3 114 0q176 -14 309 -129q133 -119 158 -270q3 -18 6 -49t4 -41q1 -12 5 -43t4 -47q0 -21 1 -66t1 -66q-1 -34 1.5 -134t-1.5 -132q-10 -107 -17 -135 q-23 -113 -65 -186q-37 -66 -95.5 -118t-130.5 -81q-10 -3 -39 -14.5t-47 -16.5q-31 -10 -180 -20l-18 2q-96 5 -127 14q-101 32 -173 87t-124 147q-24 41 -44 117t-26 143q-3 73 -2.5 163.5t-1.5 163.5zM347.5 857q-0.5 -71 1 -165t1.5 -139q3 -91 19 -178q6 -71 32 -139 t54 -101q24 -31 82.5 -53.5t105.5 -29.5l47 -7q31 0 59.5 4t53.5 12.5t39.5 14t34.5 15.5l22 11q39 25 84 82q26 30 49.5 87.5t30.5 111.5q20 108 22 174q0 17 3.5 48t3.5 36q9 127 -7 356q-5 87 -12 144.5t-29.5 127.5t-58.5 107q-127 114 -272 117q-65 -4 -88 -10 q-78 -22 -166 -101q-90 -95 -107 -385q-4 -69 -4.5 -140zM365 1778q2 36 19.5 64.5t47.5 43.5q67 33 139 33q69 0 170 -82q43 -28 93 -37q44 -4 95.5 14.5t24.5 51.5q-16 35 10 49t52 -2q33 -39 33 -66q0 -46 -56 -85t-112 -44q-35 -2 -74.5 10.5t-59 23.5t-57.5 34 q-80 51 -125 51q-29 0 -73 -18q-15 -7 -23 -11t-16 -12.5t-9 -19.5v-2q-3 -21 -22.5 -29.5t-38 1.5t-18.5 32z" />
<glyph unicode="&#xd6;" horiz-adv-x="1394" d="M174 829q0 21 1 66t1 66q0 16 3.5 47.5t4.5 42.5l4.5 40.5t6.5 49.5q25 152 157 270q132 115 310 129q55 3 114 0q176 -14 309 -129q133 -119 158 -270q3 -18 6 -49t4 -41q1 -12 5 -43t4 -47q0 -21 1 -66t1 -66q-1 -34 1.5 -134t-1.5 -132q-10 -107 -17 -135 q-23 -113 -65 -186q-37 -66 -95.5 -118t-130.5 -81q-10 -3 -39 -14.5t-47 -16.5q-31 -10 -180 -20l-18 2q-96 5 -127 14q-101 32 -173 87t-124 147q-24 41 -44 117t-26 143q-3 73 -2.5 163.5t-1.5 163.5zM347.5 857q-0.5 -71 1 -165t1.5 -139q3 -91 19 -178q6 -71 32 -139 t54 -101q24 -31 82.5 -53.5t105.5 -29.5l47 -7q31 0 59.5 4t53.5 12.5t39.5 14t34.5 15.5l22 11q39 25 84 82q26 30 49.5 87.5t30.5 111.5q20 108 22 174q0 17 3.5 48t3.5 36q9 127 -7 356q-5 87 -12 144.5t-29.5 127.5t-58.5 107q-127 114 -272 117q-65 -4 -88 -10 q-78 -22 -166 -101q-90 -95 -107 -385q-4 -69 -4.5 -140zM461 1772q0 31 15.5 55.5t39.5 30.5q27 8 62 0q38 -5 49 -60q5 -33 -13 -58.5t-43 -39.5q-28 -10 -57 -4t-41 24q-12 27 -12 52zM819 1772q0 31 15.5 55.5t39.5 30.5h-2q28 7 64 0h-2q38 -5 49 -60q5 -33 -12.5 -59 t-42.5 -39q-26 -10 -56 -3.5t-41 23.5q-12 27 -12 52z" />
<glyph unicode="&#xd7;" horiz-adv-x="966" d="M192.5 869q2.5 6 14.5 18q10 10 21 11t24 -6.5t20 -13t21 -18.5q21 -20 80.5 -80.5t89.5 -89.5l12 -14l37 37l133 121q58 56 79 65q27 13 46 -6q9 -9 11.5 -18.5t-3.5 -21.5t-15.5 -23.5t-27.5 -30.5q-31 -35 -59 -60l-135 -129q20 -25 51 -49q19 -18 58.5 -64t49.5 -57 l31 -32q30 -27 39.5 -53t-8.5 -46q-21 -21 -92 45l-189 197l-39 -41l-151 -152q-53 -69 -86 -36q-12 15 -5 42.5t25 47.5q93 106 117 131l41 41l35 30l-56 60l-120 125q-31 29 -41.5 46.5t-8 23.5z" />
<glyph unicode="&#xd8;" horiz-adv-x="1394" d="M174 829q0 21 1 66t1 66q0 16 3.5 47.5t4.5 42.5l4.5 40.5t6.5 49.5q25 152 157 270q132 115 310 129q55 3 114 0q69 -7 115 -22l18 47q9 30 26 55t28 25q23 0 30 -33.5t-12 -89.5l-14 -35q57 -25 118 -76q133 -119 158 -270q3 -18 6 -49t4 -41q1 -12 5 -43t4 -47 q0 -21 1 -66t1 -66q-1 -34 1.5 -134t-1.5 -132q-10 -107 -17 -135q-23 -113 -65 -186q-37 -66 -95.5 -118t-130.5 -81q-10 -3 -39 -14.5t-47 -16.5q-31 -10 -180 -20l-18 2q-96 5 -127 14q-12 2 -31 10l-6 -18q-29 -88 -37 -100v2q-12 -38 -28.5 -65t-28.5 -27q-20 0 -21 45 t17 100l18 61l8 35q-119 64 -188 191q-24 41 -44 117t-26 143q-3 73 -2.5 163.5t-1.5 163.5zM347.5 857q-0.5 -71 1 -165t1.5 -139q3 -91 19 -178q6 -71 32 -139t54 -101l4 -6q11 34 16 55q57 167 109 359l104 338l57 176q5 32 35 133q0 1 1 3t1 3q1 3 0.5 7t0.5 7t5 7l9 26 q29 104 69 213q-66 34 -153 37q-65 -4 -88 -10q-78 -22 -166 -101q-90 -95 -107 -385q-4 -69 -4.5 -140zM535 82q31 -12 70 -21.5t62 -12.5l23 -3q31 0 59.5 4t53.5 12.5t39.5 14t34.5 15.5l22 11q39 25 84 82q26 30 49.5 87.5t30.5 111.5q20 108 22 174q0 17 3.5 48t3.5 36 q9 127 -7 356q-5 87 -12 144.5t-29.5 127.5t-58.5 107q-30 25 -45 35l-14 -45q-27 -91 -43 -133l-17 -43q-9 -35 -110 -389l-15 -47l-18 -56q-35 -101 -41 -133q-52 -205 -117 -399q-15 -38 -30 -84z" />
<glyph unicode="&#xd9;" horiz-adv-x="1400" d="M113 1497q1 -11 6 -18t15.5 -10t19.5 -4.5t26 -2.5t27 -2q0 -28 -6.5 -201.5t0.5 -220.5q5 -65 -3 -184.5t-8 -161.5q0 -28 -1 -87t-1 -92.5t3.5 -80.5t11.5 -84q29 -138 107 -220t216 -122q278 -79 531 117q96 75 125 254q18 108 12 233q-2 42 2.5 125t3.5 121 q-8 164 -12 240q-3 58 1.5 186.5t-1.5 183.5q58 3 71 10q15 8 17 27q5 47 -121 39q-8 0 -26 -0.5t-26.5 -1t-23 -1.5t-21.5 -4t-15 -7.5t-11 -11.5t-2 -17q0 -7 2.5 -12.5t7.5 -9.5t9.5 -6t13 -4t14.5 -3t17.5 -2t17.5 -2q6 -76 1.5 -225.5t0.5 -230.5q10 -102 10 -205 q0 -28 -3 -82t-3 -80q0 -71 -0.5 -100.5t-5.5 -77.5t-16 -86q-22 -79 -46 -122.5t-75 -80.5q-4 -3 -38 -34.5t-52 -39.5q-46 -23 -117 -37q-86 -22 -158.5 -5t-142.5 85q-37 35 -58.5 83.5t-39.5 119.5q-11 40 -15 98.5t-3 103.5t4 116.5t3 101.5q1 87 -0.5 231.5 t-1.5 188.5q0 189 17 280q14 1 28 0.5t26 0.5t21 3.5t14.5 10.5t4.5 20q0 23 -19.5 30t-58.5 7q-14 0 -42 2t-42.5 2.5t-34.5 -2.5q-39 -7 -75 -1.5t-60.5 -1t-21.5 -36.5zM451 1933q12 15 35.5 16t42.5 -6.5t28 -15.5l133 -86q187 -129 246 -166q23 -15 17 -35 q-9 -25 -50 -14q-11 3 -22 8l-236 129h-2l-20 15q-9 5 -60.5 33.5t-73.5 43.5q-58 38 -38 78z" />
<glyph unicode="&#xda;" horiz-adv-x="1400" d="M113 1497q-3 30 21.5 36.5t60.5 1t75 1.5q20 3 34.5 2.5t42.5 -2.5t42 -2q39 0 58.5 -7t19.5 -30q1 -12 -4.5 -20t-14.5 -10.5t-21 -3.5t-26 -0.5t-28 -0.5q-17 -91 -17 -280q0 -44 1.5 -188.5t0.5 -231.5q0 -30 -3 -101.5t-4 -116.5t3 -103.5t15 -98.5 q18 -71 39.5 -119.5t58.5 -83.5q70 -68 142.5 -85t158.5 5q71 14 117 37q18 8 52 39.5t38 34.5q51 37 75 80.5t46 122.5q11 38 16 86t5.5 77.5t0.5 100.5q0 26 3 80t3 82q0 103 -10 205q-5 75 -0.5 231t-1.5 225q-6 1 -17.5 2t-17.5 2t-14.5 3t-13 4t-9.5 6t-7.5 9.5 t-2.5 12.5q-1 10 2 17t11 11.5t15 7.5t21.5 4t23 1.5t26.5 1t26 0.5q126 8 121 -39q-2 -16 -13 -24t-26.5 -10t-37.5 -3h-11q6 -55 1.5 -183.5t-1.5 -186.5q4 -76 12 -240q1 -38 -3.5 -121t-2.5 -125q6 -125 -12 -233q-29 -179 -125 -254q-253 -196 -531 -117 q-138 40 -216 122t-107 220q-8 37 -11.5 84t-3.5 80.5t1 92.5t1 87q0 42 8 161.5t3 184.5q-7 47 -0.5 220.5t6.5 201.5q-10 1 -27 2t-26 2.5t-19.5 4.5t-15.5 10t-6 18zM509.5 1664.5q5.5 20.5 22.5 33.5l218 141l131 80q14 8 31.5 14t38 5t32.5 -13q19 -32 -41 -76 q-17 -11 -108 -63l-43 -25l-232 -119q-31 -14 -43 -6t-6.5 28.5z" />
<glyph unicode="&#xdb;" horiz-adv-x="1400" d="M113 1497q1 -11 6 -18t15.5 -10t19.5 -4.5t26 -2.5t27 -2q0 -28 -6.5 -201.5t0.5 -220.5q5 -65 -3 -184.5t-8 -161.5q0 -28 -1 -87t-1 -92.5t3.5 -80.5t11.5 -84q29 -138 107 -220t216 -122q278 -79 531 117q96 75 125 254q18 108 12 233q-2 42 2.5 125t3.5 121 q-8 164 -12 240q-3 58 1.5 186.5t-1.5 183.5q58 3 71 10q15 8 17 27q5 47 -121 39q-8 0 -26 -0.5t-26.5 -1t-23 -1.5t-21.5 -4t-15 -7.5t-11 -11.5t-2 -17q0 -7 2.5 -12.5t7.5 -9.5t9.5 -6t13 -4t14.5 -3t17.5 -2t17.5 -2q6 -76 1.5 -225.5t0.5 -230.5q10 -102 10 -205 q0 -28 -3 -82t-3 -80q0 -71 -0.5 -100.5t-5.5 -77.5t-16 -86q-22 -79 -46 -122.5t-75 -80.5q-4 -3 -38 -34.5t-52 -39.5q-46 -23 -117 -37q-86 -22 -158.5 -5t-142.5 85q-37 35 -58.5 83.5t-39.5 119.5q-11 40 -15 98.5t-3 103.5t4 116.5t3 101.5q1 87 -0.5 231.5 t-1.5 188.5q0 189 17 280q14 1 28 0.5t26 0.5t21 3.5t14.5 10.5t4.5 20q0 23 -19.5 30t-58.5 7q-14 0 -42 2t-42.5 2.5t-34.5 -2.5q-39 -7 -75 -1.5t-60.5 -1t-21.5 -36.5zM414 1688q-32 4 167 255q4 6 13 17q13 15 18 22q43 38 68.5 52.5t54.5 13.5q33 -6 74 -39 q10 -14 63 -67l31 -39q142 -184 117 -199q-4 -9 -13.5 -13t-17.5 -1q-32 4 -110 102q-17 17 -19 20q0 9 -26 35l-29 25l-49 59q-21 21 -27 21l-31 -25l-34 -33v2l-31 -34l-33 -35l-35 -39l-22 -27h2l-8 -12l-15 -14l2 2q-3 -16 -63 -51q-30 -12 -47 2z" />
<glyph unicode="&#xdc;" horiz-adv-x="1400" d="M113 1497q1 -11 6 -18t15.5 -10t19.5 -4.5t26 -2.5t27 -2q0 -28 -6.5 -201.5t0.5 -220.5q5 -65 -3 -184.5t-8 -161.5q0 -28 -1 -87t-1 -92.5t3.5 -80.5t11.5 -84q29 -138 107 -220t216 -122q278 -79 531 117q96 75 125 254q18 108 12 233q-2 42 2.5 125t3.5 121 q-8 164 -12 240q-3 58 1.5 186.5t-1.5 183.5q58 3 71 10q15 8 17 27q5 47 -121 39q-8 0 -26 -0.5t-26.5 -1t-23 -1.5t-21.5 -4t-15 -7.5t-11 -11.5t-2 -17q0 -7 2.5 -12.5t7.5 -9.5t9.5 -6t13 -4t14.5 -3t17.5 -2t17.5 -2q6 -76 1.5 -225.5t0.5 -230.5q10 -102 10 -205 q0 -28 -3 -82t-3 -80q0 -71 -0.5 -100.5t-5.5 -77.5t-16 -86q-22 -79 -46 -122.5t-75 -80.5q-4 -3 -38 -34.5t-52 -39.5q-46 -23 -117 -37q-86 -22 -158.5 -5t-142.5 85q-37 35 -58.5 83.5t-39.5 119.5q-11 40 -15 98.5t-3 103.5t4 116.5t3 101.5q1 87 -0.5 231.5 t-1.5 188.5q0 189 17 280q14 1 28 0.5t26 0.5t21 3.5t14.5 10.5t4.5 20q0 23 -19.5 30t-58.5 7q-14 0 -42 2t-42.5 2.5t-34.5 -2.5q-39 -7 -75 -1.5t-60.5 -1t-21.5 -36.5zM469 1782q0 31 15.5 55.5t39.5 30.5q27 8 62 0q38 -5 49 -60q5 -33 -13 -58.5t-42 -39.5 q-28 -10 -57.5 -3.5t-41.5 24.5q-12 27 -12 51zM827 1782q0 31 15.5 55.5t40.5 30.5h-2q28 7 63 0h-2q38 -5 49 -60q5 -33 -12.5 -59t-42.5 -39q-26 -10 -55.5 -3.5t-40.5 24.5q-13 29 -13 51z" />
<glyph unicode="&#xdd;" horiz-adv-x="1667" d="M106 1516q2 13 11.5 19.5t23.5 7t31.5 0.5t34.5 1q39 2 45 2.5t49 -2t49 -2.5q7 0 18.5 -0.5t17.5 -0.5t15.5 -0.5t14.5 -1.5t11.5 -3t10 -4.5t7 -6t5 -9t1.5 -11.5q0 -15 -10 -24t-22 -12t-36 -6q-5 -1 -8 -1q17 -46 51 -108q13 -24 47 -77t49 -87q41 -77 107 -176 q20 -28 61.5 -100t69.5 -107q11 -13 35.5 -51.5t40.5 -53.5q15 16 31 36t28 37t29 43t26 40t27 43.5t24 40.5q24 41 149 235.5t175 290.5q-93 -16 -96 43q0 8 6.5 14t20.5 9t29 5t36 2h37t37.5 -0.5t31.5 -0.5q6 0 20.5 1t20 1t16.5 -0.5t15.5 -3t10 -7t6.5 -12t0 -18.5 q-1 -12 -7 -19t-16 -9.5t-22 -3.5t-26 -0.5t-28 -0.5q-11 -10 -19.5 -23t-18 -31.5t-15.5 -27.5q-7 -12 -25 -37t-26 -40q-57 -117 -150 -246q-11 -17 -116 -180q-33 -43 -88.5 -138.5t-67.5 -128.5q-4 -13 -5.5 -31.5t-1.5 -31.5t0.5 -36.5t0.5 -31.5q0 -2 6 -137 q4 -37 0.5 -134.5t-2.5 -133.5q12 -2 33 -4.5t30.5 -5t17.5 -11t7 -24.5q-3 -28 -43 -34t-94 1q-26 4 -58 0.5t-66 -3.5t-44 9q-23 25 -1.5 49t56.5 19q1 33 -3.5 101.5t-2.5 101.5q5 107 -4 225q0 10 1.5 27t1.5 31t-3 26q-1 9 -16.5 28t-18.5 25q-8 9 -20 29t-15 24 q-5 8 -69 107q-33 48 -66 110q-5 8 -25.5 39.5t-26 40.5t-22 35t-24 39.5t-20.5 35.5t-23 42.5t-21 42.5q-5 12 -17.5 31t-15.5 24q-20 34 -40.5 72t-44 83.5t-37.5 71.5q-45 -2 -68.5 7t-20.5 41zM602 1640q6 22 25 37q31 18 92 58t106 71l45 31l148 88q15 9 34.5 16 t43.5 5.5t37 -15.5q4 -7 5 -12t-0.5 -15.5t-14.5 -25t-36 -31.5q-21 -13 -65.5 -38.5t-56.5 -32.5l-50 -29l-258 -133q-35 -15 -48 -5.5t-7 31.5z" />
<glyph unicode="&#xdf;" horiz-adv-x="1320" d="M117 24q2 17 52 23q20 3 44 2q6 29 2 64v41q0 5 1 15t1 15q2 56 -2 152q0 9 -1 28t-1 29l-4 164q0 29 3 93.5t3 74.5q6 147 6 154q1 33 -4 211q-1 19 4.5 48.5t5.5 47.5q3 96 30.5 162.5t80.5 121.5q27 28 50 47.5t68.5 40t96.5 25.5q78 4 90.5 3.5t73.5 -9.5q8 -1 19 -8 t32 -13q51 -18 90 -57q26 -26 41.5 -44.5t30.5 -49.5t18 -64q12 -160 -53 -235q-59 -76 -94 -100q-9 -10 -25.5 -26.5t-24 -24.5t-18.5 -20.5t-15 -20.5t-7 -18t-1 -19.5t9 -18.5q22 -32 38 -50t25.5 -24.5t30.5 -17.5q62 -35 97 -60t89 -81q50 -52 85.5 -120t35.5 -132 q0 -88 -26 -166t-72 -121q-69 -64 -135 -86q-116 -40 -217 6q-62 20 -105 80q-5 7 -15 19.5t-15.5 20t-12 19t-10.5 23.5q3 15 24.5 20.5t32.5 -10.5q3 -10 10.5 -19.5t18.5 -19.5t16 -16q41 -56 113 -77t145 7q29 10 43.5 22.5t34.5 45.5q37 56 43 190q3 57 -38.5 126.5 t-77.5 103.5q-23 22 -48 47.5t-45 43t-63 50.5q-26 15 -45.5 28.5t-42.5 36t-34.5 52t-10.5 63.5q1 31 14 56t24.5 35.5t35.5 25.5t28 18q13 9 35 23.5t37 25t22 17.5q68 66 89 125t14 160q-1 13 -12.5 33.5t-22.5 34.5l-12 14q-10 21 -30 36.5t-67 34.5q-60 23 -110 25 t-81.5 -10t-60 -39.5t-41.5 -48.5t-28 -52q-50 -101 -43 -211q0 -29 -5 -73t-5 -70t-1 -82.5t-1 -79.5q-2 -14 -2 -43v-8q-9 -35 -9 -90q0 -34 4 -96q7 -116 7 -160q0 -21 -2.5 -66.5t-2.5 -68.5q0 -21 -1 -60.5t-1 -58.5q0 -87 5 -141q-3 -6 -3 -13q0 -30 7 -49 q-7 0 -21 -1t-18 -1q-46 -4 -90 -4q-12 0 -78 4q-48 5 -45 20z" />
<glyph unicode="&#xe0;" d="M82.5 42q4.5 10 9 15t16.5 7.5t21 2.5h23.5t23.5 1q9 18 31 55t33 59q0 1 9.5 25t24 61t31 77.5t34 80t30.5 63.5q13 32 26 68.5t28 80.5t23 67q7 22 24 61.5t19 44.5l46 104l45 103q11 24 25 70.5t22 66.5q4 12 16 34.5t16 35.5q49 146 70 243q15 60 76 60q25 0 75 -1 t72 -1q28 0 40 -1t22.5 -7t11.5 -19q1 -20 -16 -28.5t-56 -10.5q2 -21 8.5 -46t12.5 -41.5t17.5 -46t15.5 -40.5q18 -50 46.5 -142.5t37.5 -121.5q11 -34 32 -92t29 -82q59 -169 143 -442q13 -48 64 -170q8 -19 19 -53.5t22 -61t26 -49.5q21 1 40.5 1.5t32 -8t11.5 -26.5 q-1 -15 -11 -24.5t-26 -13t-37.5 -4t-45.5 0.5q-114 4 -158 2q-74 0 -74 45q0 22 21 28t65 3q-30 47 -63 146.5t-43 123.5q-20 45 -45 148.5t-47 150.5q-240 0 -543 -10q-22 -39 -64 -154q-10 -28 -34 -77t-31 -66q-61 -152 -88 -209q-2 -5 -15.5 -28t-15.5 -38q32 8 59.5 1 t26.5 -35q-1 -11 -6 -18t-17.5 -9.5t-21 -3t-28.5 -0.5h-13q-20 1 -63.5 -2t-70.5 0t-38 20q-6 16 -1.5 26zM530 702q157 -2 490 19q-5 16 -44 140.5t-61 191.5q-8 26 -28.5 79t-28.5 80q-27 95 -59 156q-2 2 -3 5t-3 3q-5 0 -5 -2q-45 -132 -81 -219q-4 -11 -15.5 -34.5 t-15.5 -35.5q-5 -14 -14 -49.5t-17 -54.5q-15 -41 -56 -134.5t-59 -144.5zM559 1976q12 15 36 16t44.5 -7t30.5 -17l137 -88q193 -135 254 -170q26 -19 18 -40q-10 -25 -56 -11q-8 2 -17 6l-244 135h-2l-23 15q-114 64 -137 81q-64 41 -41 80z" />
<glyph unicode="&#xe1;" d="M82.5 42q4.5 10 9 15t16.5 7.5t21 2.5h23.5t23.5 1q9 18 31 55t33 59q0 1 9.5 25t24 61t31 77.5t34 80t30.5 63.5q13 32 26 68.5t28 80.5t23 67q7 22 24 61.5t19 44.5l46 104l45 103q11 24 25 70.5t22 66.5q4 12 16 34.5t16 35.5q49 146 70 243q15 60 76 60q25 0 75 -1 t72 -1q28 0 40 -1t22.5 -7t11.5 -19q1 -20 -16 -28.5t-56 -10.5q2 -21 8.5 -46t12.5 -41.5t17.5 -46t15.5 -40.5q18 -50 46.5 -142.5t37.5 -121.5q11 -34 32 -92t29 -82q59 -169 143 -442q13 -48 64 -170q8 -19 19 -53.5t22 -61t26 -49.5q21 1 40.5 1.5t32 -8t11.5 -26.5 q-1 -15 -11 -24.5t-26 -13t-37.5 -4t-45.5 0.5q-114 4 -158 2q-74 0 -74 45q0 22 21 28t65 3q-30 47 -63 146.5t-43 123.5q-20 45 -45 148.5t-47 150.5q-240 0 -543 -10q-22 -39 -64 -154q-10 -28 -34 -77t-31 -66q-61 -152 -88 -209q-2 -5 -15.5 -28t-15.5 -38q32 8 59.5 1 t26.5 -35q-1 -11 -6 -18t-17.5 -9.5t-21 -3t-28.5 -0.5h-13q-20 1 -63.5 -2t-70.5 0t-38 20q-6 16 -1.5 26zM530 702q157 -2 490 19q-5 16 -44 140.5t-61 191.5q-8 26 -28.5 79t-28.5 80q-27 95 -59 156q-2 2 -3 5t-3 3q-5 0 -5 -2q-45 -132 -81 -219q-4 -11 -15.5 -34.5 t-15.5 -35.5q-5 -14 -14 -49.5t-17 -54.5q-15 -41 -56 -134.5t-59 -144.5zM563.5 1649q5.5 22 24.5 37q31 18 91 57t104 69l44 29l146 88q15 9 34 15.5t42 5.5t36 -15q26 -33 -45 -82q-45 -29 -118 -69l-50 -29l-254 -131q-34 -15 -47 -6t-7.5 31z" />
<glyph unicode="&#xe2;" d="M82.5 42q4.5 10 9 15t16.5 7.5t21 2.5h23.5t23.5 1q9 18 31 55t33 59q0 1 9.5 25t24 61t31 77.5t34 80t30.5 63.5q13 32 26 68.5t28 80.5t23 67q7 22 24 61.5t19 44.5l46 104l45 103q11 24 25 70.5t22 66.5q4 12 16 34.5t16 35.5q49 146 70 243q15 60 76 60q25 0 75 -1 t72 -1q28 0 40 -1t22.5 -7t11.5 -19q1 -20 -16 -28.5t-56 -10.5q2 -21 8.5 -46t12.5 -41.5t17.5 -46t15.5 -40.5q18 -50 46.5 -142.5t37.5 -121.5q11 -34 32 -92t29 -82q59 -169 143 -442q13 -48 64 -170q8 -19 19 -53.5t22 -61t26 -49.5q21 1 40.5 1.5t32 -8t11.5 -26.5 q-1 -15 -11 -24.5t-26 -13t-37.5 -4t-45.5 0.5q-114 4 -158 2q-74 0 -74 45q0 22 21 28t65 3q-30 47 -63 146.5t-43 123.5q-20 45 -45 148.5t-47 150.5q-240 0 -543 -10q-22 -39 -64 -154q-10 -28 -34 -77t-31 -66q-61 -152 -88 -209q-2 -5 -15.5 -28t-15.5 -38q32 8 59.5 1 t26.5 -35q-1 -11 -6 -18t-17.5 -9.5t-21 -3t-28.5 -0.5h-13q-20 1 -63.5 -2t-70.5 0t-38 20q-6 16 -1.5 26zM530 702q157 -2 490 19q-5 16 -44 140.5t-61 191.5q-8 26 -28.5 79t-28.5 80q-27 95 -59 156q-2 2 -3 5t-3 3q-5 0 -5 -2q-45 -132 -81 -219q-4 -11 -15.5 -34.5 t-15.5 -35.5q-5 -14 -14 -49.5t-17 -54.5q-15 -41 -56 -134.5t-59 -144.5zM541 1608q-33 4 173 264q4 5 11 13q10 13 14 18q43 38 68.5 52t54.5 13q33 -6 74 -39q10 -14 63 -67l31 -39q142 -184 117 -199q-4 -9 -13.5 -13t-17.5 -1q-32 4 -110 102q-15 15 -19 21q0 8 -26 34 l-29 25l-49 59q-21 21 -27 21l-31 -25l-34 -32v2l-31 -35l-33 -35l-35 -39l-22 -27h2l-8 -12l-15 -14l2 2q-3 -16 -63 -51q-30 -12 -47 2z" />
<glyph unicode="&#xe3;" d="M82.5 42q4.5 10 9 15t16.5 7.5t21 2.5h23.5t23.5 1q9 18 31 55t33 59q0 1 9.5 25t24 61t31 77.5t34 80t30.5 63.5q13 32 26 68.5t28 80.5t23 67q7 22 24 61.5t19 44.5l46 104l45 103q11 24 25 70.5t22 66.5q4 12 16 34.5t16 35.5q49 146 70 243q15 60 76 60q25 0 75 -1 t72 -1q28 0 40 -1t22.5 -7t11.5 -19q1 -20 -16 -28.5t-56 -10.5q2 -21 8.5 -46t12.5 -41.5t17.5 -46t15.5 -40.5q18 -50 46.5 -142.5t37.5 -121.5q11 -34 32 -92t29 -82q59 -169 143 -442q13 -48 64 -170q8 -19 19 -53.5t22 -61t26 -49.5q21 1 40.5 1.5t32 -8t11.5 -26.5 q-1 -15 -11 -24.5t-26 -13t-37.5 -4t-45.5 0.5q-114 4 -158 2q-74 0 -74 45q0 22 21 28t65 3q-30 47 -63 146.5t-43 123.5q-20 45 -45 148.5t-47 150.5q-240 0 -543 -10q-22 -39 -64 -154q-10 -28 -34 -77t-31 -66q-61 -152 -88 -209q-2 -5 -15.5 -28t-15.5 -38q32 8 59.5 1 t26.5 -35q-1 -11 -6 -18t-17.5 -9.5t-21 -3t-28.5 -0.5h-13q-20 1 -63.5 -2t-70.5 0t-38 20q-6 16 -1.5 26zM494 1726q2 36 19.5 65t47.5 44q67 33 139 33q69 0 170 -82q43 -28 93 -37q44 -4 95.5 14.5t24.5 51.5q-16 35 10 49t52 -2q33 -39 33 -66q0 -46 -56 -85t-112 -44 q-35 -2 -74.5 10.5t-59 23.5t-57.5 34q-80 51 -125 51q-27 0 -73 -19q-15 -7 -23 -11t-16 -12.5t-9 -19.5v-2q-3 -21 -22.5 -29.5t-38 1.5t-18.5 32zM530 702q157 -2 490 19q-5 16 -44 140.5t-61 191.5q-8 26 -28.5 79t-28.5 80q-27 95 -59 156q-2 2 -3 5t-3 3q-5 0 -5 -2 q-45 -132 -81 -219q-4 -11 -15.5 -34.5t-15.5 -35.5q-5 -14 -14 -49.5t-17 -54.5q-15 -41 -56 -134.5t-59 -144.5z" />
<glyph unicode="&#xe4;" d="M82.5 42q4.5 10 9 15t16.5 7.5t21 2.5h23.5t23.5 1q9 18 31 55t33 59q0 1 9.5 25t24 61t31 77.5t34 80t30.5 63.5q13 32 26 68.5t28 80.5t23 67q7 22 24 61.5t19 44.5l46 104l45 103q11 24 25 70.5t22 66.5q4 12 16 34.5t16 35.5q49 146 70 243q15 60 76 60q25 0 75 -1 t72 -1q28 0 40 -1t22.5 -7t11.5 -19q1 -20 -16 -28.5t-56 -10.5q2 -21 8.5 -46t12.5 -41.5t17.5 -46t15.5 -40.5q18 -50 46.5 -142.5t37.5 -121.5q11 -34 32 -92t29 -82q59 -169 143 -442q13 -48 64 -170q8 -19 19 -53.5t22 -61t26 -49.5q21 1 40.5 1.5t32 -8t11.5 -26.5 q-1 -15 -11 -24.5t-26 -13t-37.5 -4t-45.5 0.5q-114 4 -158 2q-74 0 -74 45q0 22 21 28t65 3q-30 47 -63 146.5t-43 123.5q-20 45 -45 148.5t-47 150.5q-240 0 -543 -10q-22 -39 -64 -154q-10 -28 -34 -77t-31 -66q-61 -152 -88 -209q-2 -5 -15.5 -28t-15.5 -38q32 8 59.5 1 t26.5 -35q-1 -11 -6 -18t-17.5 -9.5t-21 -3t-28.5 -0.5h-13q-20 1 -63.5 -2t-70.5 0t-38 20q-6 16 -1.5 26zM530 702q157 -2 490 19q-5 16 -44 140.5t-61 191.5q-8 26 -28.5 79t-28.5 80q-27 95 -59 156q-2 2 -3 5t-3 3q-5 0 -5 -2q-45 -132 -81 -219q-4 -11 -15.5 -34.5 t-15.5 -35.5q-5 -14 -14 -49.5t-17 -54.5q-15 -41 -56 -134.5t-59 -144.5zM580 1747q0 31 15.5 55.5t39.5 30.5q27 8 61 0q38 -5 49 -59q5 -33 -13 -59t-42 -40q-28 -10 -57 -3.5t-41 24.5q-12 27 -12 51zM938 1747q0 31 15.5 55.5t39.5 30.5h-2q28 7 64 0h-2q38 -5 49 -59 q5 -33 -12.5 -59.5t-42.5 -39.5q-26 -10 -56 -3.5t-41 24.5q-12 27 -12 51z" />
<glyph unicode="&#xe5;" d="M82.5 42q4.5 10 9 15t16.5 7.5t21 2.5h23.5t23.5 1q9 18 31 55t33 59q0 1 9.5 25t24 61t31 77.5t34 80t30.5 63.5q13 32 26 68.5t28 80.5t23 67q7 22 24 61.5t19 44.5l46 104l45 103q11 24 25 70.5t22 66.5q4 12 16 34.5t16 35.5q49 146 70 243q15 60 76 60q25 0 75 -1 t72 -1q28 0 40 -1t22.5 -7t11.5 -19q1 -20 -16 -28.5t-56 -10.5q2 -21 8.5 -46t12.5 -41.5t17.5 -46t15.5 -40.5q18 -50 46.5 -142.5t37.5 -121.5q11 -34 32 -92t29 -82q59 -169 143 -442q13 -48 64 -170q8 -19 19 -53.5t22 -61t26 -49.5q21 1 40.5 1.5t32 -8t11.5 -26.5 q-1 -15 -11 -24.5t-26 -13t-37.5 -4t-45.5 0.5q-114 4 -158 2q-74 0 -74 45q0 22 21 28t65 3q-30 47 -63 146.5t-43 123.5q-20 45 -45 148.5t-47 150.5q-240 0 -543 -10q-22 -39 -64 -154q-10 -28 -34 -77t-31 -66q-61 -152 -88 -209q-2 -5 -15.5 -28t-15.5 -38q32 8 59.5 1 t26.5 -35q-1 -11 -6 -18t-17.5 -9.5t-21 -3t-28.5 -0.5h-13q-20 1 -63.5 -2t-70.5 0t-38 20q-6 16 -1.5 26zM530 702q157 -2 490 19q-5 16 -44 140.5t-61 191.5q-8 26 -28.5 79t-28.5 80q-27 95 -59 156q-2 2 -3 5t-3 3q-5 0 -5 -2q-45 -132 -81 -219q-4 -11 -15.5 -34.5 t-15.5 -35.5q-5 -14 -14 -49.5t-17 -54.5q-15 -41 -56 -134.5t-59 -144.5zM676 1794q0 51 31.5 95.5t76.5 56.5q30 6 66 6q38 0 68 -6q71 -12 94 -115q-1 -54 -34.5 -108.5t-68.5 -75.5q-36 -9 -61 -9q-45 0 -87 19t-63 51q-22 42 -22 86zM752 1788q1 -38 30.5 -60.5 t69.5 -17.5q46 3 74 74q8 19 -4 55q-18 41 -76 41q-38 0 -55 -14l-7 -4q-35 -18 -32 -74z" />
<glyph unicode="&#xe6;" horiz-adv-x="1820" d="M43.5 42q4.5 10 9 15t16.5 7.5t21 2.5h23.5t23.5 1q7 11 31 50.5t37 63.5l10 24q10 25 25.5 62t33 77.5t36.5 80t32 63.5q7 15 84 216q7 21 24 58t21 48l47 104l49 103q10 23 25.5 68.5t25.5 68.5q4 13 16.5 35t16.5 35q52 135 78 243q5 25 24 43.5t33 22.5l11 2 q15 1 47 1t47 1q75 0 259.5 -1t270.5 -1q18 0 70.5 1t86.5 0.5t62 -5.5q0 -10 1.5 -36t1.5 -44t-2.5 -38.5t-11.5 -31.5t-25 -12q-26 0 -37 28t-8 70q-178 10 -334 2q-39 -2 -116.5 -1t-113.5 -1q-12 -195 -4 -608q160 -9 418 0q1 7 2 20t1.5 19t3 14.5t7.5 12.5t13 6 q17 4 27.5 -1t16 -23.5t7 -29t3.5 -39.5q1 -8 1 -12q1 -21 0.5 -40.5t-3 -34.5t-11 -24t-23.5 -9q-24 -2 -33.5 16t-5.5 56q-151 -5 -418 4q-2 -23 -2 -74v-76l6 -141q0 -53 7 -152.5t8 -140.5v-45t2.5 -57.5t9.5 -40.5q55 0 174 -1t202 -0.5t167 3.5q-3 35 0.5 65.5 t11.5 36.5q6 6 19.5 9.5t23.5 0.5q12 -3 18 -19t6.5 -29.5t0.5 -39.5v-8v-14v-14.5t-0.5 -12.5t-1.5 -13t-3 -10.5t-5.5 -9.5t-8.5 -6q-5 -3 -13 -4.5t-19.5 -2t-21.5 -0.5t-26 0.5t-26 0.5q-77 -1 -294 0.5t-298 -4.5q-79 0 -88 4q-10 41 -6 70q10 219 -9 561l-2 12 q-224 -4 -348 -8q-27 -45 -67 -154q-10 -26 -35.5 -73.5t-34.5 -69.5q-65 -151 -94 -209q-3 -7 -17 -29.5t-16 -36.5q32 8 59.5 1t26.5 -35q-1 -11 -6.5 -18t-18.5 -9.5t-21.5 -3t-28.5 -0.5h-13q-20 1 -63.5 -2t-70 0t-36.5 20q-6 16 -1.5 26zM510 702q95 -2 317 7v32 q0 5 -1 42.5t-1 43.5q-4 154 -6 207q-4 86 -4 129q0 15 -3.5 145t1.5 152h-6q-8 -23 -10 -37l-11 -47q-2 0 -2 -2q-52 -144 -86 -219q-28 -58 -32 -70q-6 -15 -16 -50t-19 -54q-16 -40 -59 -133.5t-62 -145.5z" />
<glyph unicode="&#xe7;" horiz-adv-x="1294" d="M158 598q-18 104 4 281q44 281 190 434q28 30 99 82q72 56 104 73q30 15 68.5 25.5t67.5 14.5t78 10t75 10q41 6 162 -31q18 -5 42.5 -20t45.5 -19q3 24 5 33.5t10 19.5t24 11q17 1 27.5 -9t14 -31.5t4 -39t-1 -48.5t-1.5 -42q0 -17 -0.5 -26.5t-3.5 -23.5t-11 -22 t-20 -10q-25 0 -33 10q-13 10 -9.5 36.5t-0.5 47.5q-4 10 -18 26t-27 21q-41 20 -80 31q-75 20 -215 10q-113 -9 -221 -102q-86 -77 -140 -183q-81 -242 -65 -450q4 -110 16 -180q22 -122 86 -228q23 -32 32.5 -44.5t28 -31.5t40.5 -36q46 -34 86 -56q11 -4 40.5 -21 t53.5 -24q168 -39 270 -20q17 4 33.5 11.5t26.5 13.5t28 19t25 17q2 8 1.5 44t9 56.5t36.5 20.5q14 0 22.5 -8.5t11.5 -27t4 -31.5t0 -40t-1 -34q2 -49 -11 -84t-34 -35q-43 0 -37 68q-37 -29 -70 -43q-64 -26 -244 -13q-35 2 -88 10v-104q0 -6 12 -3q10 2 17 3q45 3 86 -6 q74 -16 123 -78q10 -8 16 -34l6 -25q4 -14 4 -27.5t-2 -30t-2 -26.5q-1 -2 -5.5 -16.5t-10.5 -22.5q0 -8 -9 -20.5t-11 -18.5q-24 -33 -39 -45q-11 -9 -21 -15.5t-21.5 -11.5t-18 -7.5t-23 -8t-23.5 -8.5q-43 -4 -45 -4.5t-45 4.5q-38 0 -72 24q-2 2 -9 8.5t-9.5 9 t-7.5 10.5t-3 13.5t3 16.5q29 14 35 6q4 -2 47 -23q44 -7 96 0q38 6 53 23q20 20 31.5 58t11.5 67q0 36 -8 59q-10 40 -72 74q-4 2 -15 2t-25.5 -1t-18.5 -1q-24 -1 -34.5 -4.5t-20.5 -3.5q-13 0 -25 5t-12 15q0 5 -1 43t-1.5 67t0.5 52q-61 17 -88 28q-85 31 -141 82 t-113 134q-104 143 -129 319z" />
<glyph unicode="&#xe8;" horiz-adv-x="1220" d="M133 1489q6 -29 74 -29q-5 -22 -1.5 -152t3.5 -145q0 -43 4 -129q2 -49 1.5 -131t0.5 -129q0 -6 3 -17t3 -16l4 -110q14 -251 0 -561q-57 -3 -70 -14q-8 -6 -10 -15q-5 -20 5.5 -32.5t36 -15.5t46 -3t54 3t41.5 3q81 6 298 4.5t294 -0.5q10 0 26 -0.5t26 -0.5t21.5 0.5 t19.5 2t13 4.5q6 3 9.5 8t5.5 10t2.5 14t0.5 14.5v17v16.5v11q1 78 -24 85q-10 3 -23.5 -0.5t-19.5 -9.5q-8 -6 -11.5 -36.5t-0.5 -65.5q-84 -3 -167 -3.5t-202 0.5t-174 1q-7 18 -9.5 40.5t-2.5 57.5v45q-1 41 -8 140.5t-7 152.5q-1 30 -3.5 103t-2.5 101t2 87 q267 -9 418 -4q-4 -38 5.5 -56t33.5 -16q15 0 23.5 9t11 24t3 34.5t-0.5 40.5q-5 73 -17 91q-12 20 -39 14q-8 -2 -12.5 -6t-7 -12t-3.5 -14.5t-1.5 -19.5t-1.5 -20q-258 -9 -418 0q-8 413 4 608q37 2 113 1t116 1q156 8 334 -2q-3 -42 8 -70t37 -28q16 1 25 12t12 31.5 t3 38t-1.5 44t-1.5 36.5q-28 5 -62 5.5t-86.5 -0.5t-70.5 -1q-86 0 -270.5 1t-259.5 1q-18 -1 -39.5 0t-43 -1t-38.5 -6t-25.5 -14.5t-5.5 -27.5zM344 1937q12 15 35 16.5t42.5 -6t29.5 -16.5l129 -84q184 -126 241 -161q24 -17 17 -37q-9 -25 -55 -10q-7 2 -15 6l-231 127 h-2l-21 12q-13 8 -61.5 36t-69.5 42q-58 37 -39 75z" />
<glyph unicode="&#xe9;" horiz-adv-x="1220" d="M133 1489q-3 17 5.5 27.5t25.5 14.5t38.5 6t43 1t39.5 0q75 0 259.5 -1t270.5 -1q18 0 70.5 1t86.5 0.5t62 -5.5q0 -10 1.5 -36.5t1.5 -44t-3 -38t-12 -31.5t-25 -12q-26 0 -37 28t-8 70q-178 10 -334 2q-39 -2 -116 -1t-113 -1q-12 -195 -4 -608q160 -9 418 0 q1 7 1.5 20t1.5 19.5t3.5 14.5t7 12t12.5 6q17 4 28 -1t16.5 -24.5t7 -29t3.5 -40.5q1 -7 1 -10q1 -21 0.5 -40.5t-3 -34.5t-11 -24t-23.5 -9q-24 -2 -33.5 16t-5.5 56q-151 -5 -418 4q-2 -59 -2 -87t2.5 -101t3.5 -103q0 -53 7 -152.5t8 -140.5v-45t2.5 -57.5t9.5 -40.5 q55 0 174 -1t202 -0.5t167 3.5q-3 35 0.5 65.5t11.5 36.5q6 6 19.5 9.5t23.5 0.5q25 -7 24 -85v-11v-16.5v-17t-0.5 -14.5t-2.5 -14t-5.5 -10t-9.5 -8q-5 -3 -13 -4.5t-19.5 -2t-21.5 -0.5t-26 0.5t-26 0.5q-77 -1 -294 0.5t-298 -4.5q-8 0 -41.5 -3t-54 -3t-46 3t-36 15.5 t-5.5 32.5q4 17 23 22t49 7h8q14 310 0 561l-4 110q0 5 -3 16t-3 17q-1 34 -0.5 129t-1.5 131q-4 86 -4 129q0 15 -3.5 145t1.5 152q-68 0 -74 29zM387 1639q-7 23 16 47q3 3 7 6l219 143l133 80q14 9 31 15t38.5 5t32.5 -14q24 -30 -39 -76q-70 -42 -110 -63l-45 -27 l-234 -121q-42 -22 -49 5z" />
<glyph unicode="&#xea;" horiz-adv-x="1220" d="M133 1489q6 -29 74 -29q-5 -22 -1.5 -152t3.5 -145q0 -43 4 -129q2 -49 1.5 -131t0.5 -129q0 -6 3 -17t3 -16l4 -110q14 -251 0 -561q-57 -3 -70 -14q-8 -6 -10 -15q-5 -20 5.5 -32.5t36 -15.5t46 -3t54 3t41.5 3q81 6 298 4.5t294 -0.5q10 0 26 -0.5t26 -0.5t21.5 0.5 t19.5 2t13 4.5q6 3 9.5 8t5.5 10t2.5 14t0.5 14.5v17v16.5v11q1 78 -24 85q-10 3 -23.5 -0.5t-19.5 -9.5q-8 -6 -11.5 -36.5t-0.5 -65.5q-84 -3 -167 -3.5t-202 0.5t-174 1q-7 18 -9.5 40.5t-2.5 57.5v45q-1 41 -8 140.5t-7 152.5q-1 30 -3.5 103t-2.5 101t2 87 q267 -9 418 -4q-4 -38 5.5 -56t33.5 -16q15 0 23.5 9t11 24t3 34.5t-0.5 40.5q-5 73 -17 91q-12 20 -39 14q-8 -2 -12.5 -6t-7 -12t-3.5 -14.5t-1.5 -19.5t-1.5 -20q-258 -9 -418 0q-8 413 4 608q37 2 113 1t116 1q156 8 334 -2q-3 -42 8 -70t37 -28q16 1 25 12t12 31.5 t3 38t-1.5 44t-1.5 36.5q-28 5 -62 5.5t-86.5 -0.5t-70.5 -1q-86 0 -270.5 1t-259.5 1q-18 -1 -39.5 0t-43 -1t-38.5 -6t-25.5 -14.5t-5.5 -27.5zM301 1645q-32 4 161 246q6 7 16 21q15 18 22 27q43 38 68.5 52.5t54.5 13.5q32 -5 73 -39q10 -14 64 -68l31 -38 q142 -183 116 -199q-4 -9 -13 -13t-17 -1q-34 5 -111 102q-14 14 -18 20q0 8 -27 35l-29 25l-49 59q-21 21 -27 21l-30 -25l-35 -33v2l-31 -34l-33 -35l-34 -39l-23 -27h2l-8 -12l-14 -14l2 2q-1 -7 -20.5 -22.5t-43.5 -29.5q-29 -12 -47 3z" />
<glyph unicode="&#xeb;" horiz-adv-x="1220" d="M133 1489q6 -29 74 -29q-5 -22 -1.5 -152t3.5 -145q0 -43 4 -129q2 -49 1.5 -131t0.5 -129q0 -6 3 -17t3 -16l4 -110q14 -251 0 -561q-57 -3 -70 -14q-8 -6 -10 -15q-5 -20 5.5 -32.5t36 -15.5t46 -3t54 3t41.5 3q81 6 298 4.5t294 -0.5q10 0 26 -0.5t26 -0.5t21.5 0.5 t19.5 2t13 4.5q6 3 9.5 8t5.5 10t2.5 14t0.5 14.5v17v16.5v11q1 78 -24 85q-10 3 -23.5 -0.5t-19.5 -9.5q-8 -6 -11.5 -36.5t-0.5 -65.5q-84 -3 -167 -3.5t-202 0.5t-174 1q-7 18 -9.5 40.5t-2.5 57.5v45q-1 41 -8 140.5t-7 152.5q-1 30 -3.5 103t-2.5 101t2 87 q267 -9 418 -4q-4 -38 5.5 -56t33.5 -16q15 0 23.5 9t11 24t3 34.5t-0.5 40.5q-5 73 -17 91q-12 20 -39 14q-8 -2 -12.5 -6t-7 -12t-3.5 -14.5t-1.5 -19.5t-1.5 -20q-258 -9 -418 0q-8 413 4 608q37 2 113 1t116 1q156 8 334 -2q-3 -42 8 -70t37 -28q16 1 25 12t12 31.5 t3 38t-1.5 44t-1.5 36.5q-28 5 -62 5.5t-86.5 -0.5t-70.5 -1q-86 0 -270.5 1t-259.5 1q-18 -1 -39.5 0t-43 -1t-38.5 -6t-25.5 -14.5t-5.5 -27.5zM350 1757q0 31 15.5 55.5t40.5 30.5q27 8 61 0q38 -5 49 -59q5 -33 -13 -58.5t-42 -39.5q-28 -10 -57.5 -4t-41.5 24 q-12 27 -12 51zM709 1757q0 31 15.5 55.5t39.5 30.5h-2q28 7 63 0h-2q38 -5 49 -59q5 -33 -12.5 -59t-42.5 -39q-26 -10 -55.5 -3.5t-40.5 23.5q-12 27 -12 51z" />
<glyph unicode="&#xec;" horiz-adv-x="706" d="M123 1958q11 14 33 15t40 -6t27 -15l123 -80q174 -121 229 -154q23 -16 16 -35q-9 -24 -53 -9q-7 2 -14 5l-219 121h-2l-18 12q-88 48 -125 74q-55 35 -37 72zM172 1489q3 -17 18 -21.5t35.5 -2t44.5 -1.5q-5 -44 -5 -97t2.5 -116t2.5 -94q0 -82 4 -119q43 -546 15 -970 q-99 5 -101 -33q-1 -16 15.5 -25t47 -11t59 -1.5t67.5 2.5t57 2q11 0 30 -1t31 -1.5t24.5 1t18.5 7t7 15.5q0 9 -1.5 16.5t-4 12t-9 8t-11 5.5t-15 3t-16 1t-19 0.5t-20.5 0.5q-6 20 -7.5 49t-0.5 47t4 56t4 46q5 105 -7 353q-2 23 -2 50t1 61t1 52q0 283 -4 385q0 25 -4 78 t-4 78q0 15 2.5 65t1.5 74q12 3 40 3.5t41.5 7t14.5 26.5q0 8 -2.5 14t-10 9t-14.5 4.5t-20.5 2t-22.5 0t-26.5 -1.5t-27.5 -1q-115 -4 -160 0q-7 1 -20.5 -0.5t-16.5 -1.5q-19 -1 -29 -15t-8 -22z" />
<glyph unicode="&#xed;" horiz-adv-x="706" d="M100 1699q5 20 21 32l209 137l127 76q12 8 29 14t37 5t32 -13q18 -31 -39 -72q-43 -28 -104 -61l-43 -25l-222 -115q-30 -13 -41 -5.5t-6 27.5zM172 1489q-2 8 8 22t29 15q3 0 16.5 1.5t20.5 0.5q45 -4 160 0q10 0 27.5 1t26.5 1.5t22.5 0t20.5 -2t14.5 -4.5t10 -9 t2.5 -14q-1 -20 -14.5 -26.5t-41.5 -7t-40 -3.5q1 -24 -1.5 -74t-2.5 -65q0 -25 4 -78t4 -78q4 -102 4 -385q0 -18 -1 -52t-1 -61t2 -50q12 -248 7 -353q-1 -8 -4 -46t-4 -56t0.5 -47t7.5 -49q7 0 20.5 -0.5t19 -0.5t16 -1t15 -3t11 -5.5t9 -8t4 -12t1.5 -16.5 q-1 -10 -7 -15.5t-18.5 -7t-24.5 -1t-31 1.5t-30 1q-18 0 -57 -2t-67.5 -2.5t-59 1.5t-47 11t-15.5 25q2 38 101 33q28 424 -15 970q-4 37 -4 119q0 31 -2.5 94t-2.5 116t5 97q-24 4 -44.5 1.5t-35.5 2t-18 21.5z" />
<glyph unicode="&#xee;" horiz-adv-x="706" d="M68 1642q-33 4 173 264q4 5 11 13q10 13 14 18q43 38 68.5 52.5t54.5 13.5q33 -6 74 -39q13 -18 63 -68l31 -38q142 -184 117 -199q-4 -9 -13.5 -13t-17.5 -1q-34 5 -111 102q-14 14 -18 20q0 8 -27 35l-28 25l-49 59q-21 21 -27 21l-31 -25l-35 -33v2l-30 -34l-33 -35 l-35 -39l-22 -27h2l-9 -12l-14 -14l2 2q-3 -17 -63 -52q-30 -12 -47 2zM172 1489q3 -17 18 -21.5t35.5 -2t44.5 -1.5q-5 -44 -5 -97t2.5 -116t2.5 -94q0 -82 4 -119q43 -546 15 -970q-99 5 -101 -33q-1 -16 15.5 -25t47 -11t59 -1.5t67.5 2.5t57 2q11 0 30 -1t31 -1.5 t24.5 1t18.5 7t7 15.5q0 9 -1.5 16.5t-4 12t-9 8t-11 5.5t-15 3t-16 1t-19 0.5t-20.5 0.5q-6 20 -7.5 49t-0.5 47t4 56t4 46q5 105 -7 353q-2 23 -2 50t1 61t1 52q0 283 -4 385q0 25 -4 78t-4 78q0 15 2.5 65t1.5 74q12 3 40 3.5t41.5 7t14.5 26.5q0 8 -2.5 14t-10 9 t-14.5 4.5t-20.5 2t-22.5 0t-26.5 -1.5t-27.5 -1q-115 -4 -160 0q-7 1 -20.5 -0.5t-16.5 -1.5q-19 -1 -29 -15t-8 -22z" />
<glyph unicode="&#xef;" horiz-adv-x="706" d="M88 1792q0 31 15.5 55.5t39.5 30.5q27 8 62 0q38 -5 49 -59q5 -33 -13 -59t-42 -40q-28 -10 -57.5 -3.5t-41.5 24.5q-12 27 -12 51zM172 1489q3 -17 18 -21.5t35.5 -2t44.5 -1.5q-5 -44 -5 -97t2.5 -116t2.5 -94q0 -82 4 -119q43 -546 15 -970q-99 5 -101 -33 q-1 -16 15.5 -25t47 -11t59 -1.5t67.5 2.5t57 2q11 0 30 -1t31 -1.5t24.5 1t18.5 7t7 15.5q0 9 -1.5 16.5t-4 12t-9 8t-11 5.5t-15 3t-16 1t-19 0.5t-20.5 0.5q-6 20 -7.5 49t-0.5 47t4 56t4 46q5 105 -7 353q-2 23 -2 50t1 61t1 52q0 283 -4 385q0 25 -4 78t-4 78 q0 15 2.5 65t1.5 74q12 3 40 3.5t41.5 7t14.5 26.5q0 8 -2.5 14t-10 9t-14.5 4.5t-20.5 2t-22.5 0t-26.5 -1.5t-27.5 -1q-115 -4 -160 0q-7 1 -20.5 -0.5t-16.5 -1.5q-19 -1 -29 -15t-8 -22zM446 1792q0 31 15.5 55.5t40.5 30.5h-2q28 7 63 0h-2q38 -5 49 -59 q5 -33 -12.5 -59.5t-42.5 -39.5q-26 -10 -55.5 -3.5t-40.5 24.5q-13 29 -13 51z" />
<glyph unicode="&#xf0;" horiz-adv-x="1005" d="M-57 760q3 13 28 26t47 15q98 4 183 4v20v90q-6 18 -7 38.5t1 48t2 38.5v103q2 83 10 305q-8 1 -24.5 2t-28 2.5t-24 4.5t-19 10t-5.5 18q1 14 11.5 22.5t29.5 11.5t37 3.5t41 0.5t33 1q14 1 31.5 1t39.5 -0.5t33 -0.5q148 0 300 -19q163 -22 271.5 -64.5t178.5 -127.5 q48 -56 72 -90q81 -129 96 -224q2 -11 14 -59t13 -72q1 -8 1 -17.5t-0.5 -21t-0.5 -18.5q5 -101 0 -141q-1 -13 -8 -34.5t-9 -31.5q-1 -4 -4.5 -28.5t-7.5 -36.5q-8 -30 -55 -121q-8 -14 -31.5 -58.5t-38.5 -64.5q-9 -12 -23 -26.5t-22 -21.5t-31.5 -27t-27.5 -23 q-93 -72 -185.5 -118t-204.5 -63q-113 -15 -237 -12q-37 3 -74 0h-90q-20 2 -61 2q-13 1 -25.5 0t-24.5 0.5t-21.5 4.5t-15.5 11.5t-8 22.5q-3 24 20.5 30.5t70.5 4.5q-2 123 3 356t5 281l-174 2q-34 -1 -55 6t-26 16t-3 19zM352 61q29 -2 83 0t93 5l39 2q24 0 47 3.5 t46 11.5t39.5 13.5t40 18.5t34 19t35.5 21.5t31 18.5q15 9 29.5 20t24 18.5t22.5 21t19.5 20t22 23.5t21.5 24q30 33 55 84q30 61 44 93t30.5 89t19.5 111q0 16 1.5 46t2 46.5t0 40t-3.5 43.5q0 1 -6 68q-8 55 -49 147q-34 83 -69 135q-13 23 -70 80q-71 66 -160 109 q-57 26 -92 37q-7 2 -34.5 9t-40.5 10t-36 7.5t-41.5 5.5t-35.5 0q-16 -1 -64 0.5t-65 -4.5q0 -41 -6.5 -234.5t-2.5 -285.5q4 -86 4 -133q118 0 181 -2h28q101 -3 101 -45q0 -38 -88 -41q-9 -1 -33 -0.5t-37 0.5h-152q0 -33 -5 -279.5t-3 -376.5z" />
<glyph unicode="&#xf1;" horiz-adv-x="1439" d="M184 1493q3 -22 22 -28.5t60 -4.5q1 -37 5 -113.5t5 -113.5q3 -69 -2.5 -211t-1.5 -211q1 -25 -1 -72t-1 -69q1 -14 -0.5 -41.5t-1.5 -34.5q1 -29 4 -85t4 -87q2 -28 2.5 -81t2.5 -81q0 -32 4 -78q9 -87 4 -119q-18 1 -34 1t-28 -2.5t-19 -10.5t-7 -22q-1 -17 9.5 -26.5 t32.5 -12t41.5 -2.5t51 2t47.5 2q8 0 28 -1t28 0t19.5 4t16 11.5t4.5 22.5q0 11 -6 17.5t-18.5 9.5t-23 4t-29 1.5t-27.5 1.5q-11 236 -10 283q0 226 -5 287q-3 43 -4 91.5t-1 109.5t-1 94q-1 44 -2 187t-6 212q28 -54 60 -110.5t79 -135.5t64 -108q74 -133 160 -258 q10 -14 26.5 -43.5t26.5 -44.5q8 -15 27.5 -41.5t27.5 -40.5l55 -88q46 -77 140 -206t137 -198q13 -22 20.5 -33.5t23 -23.5t30.5 -10t23.5 14.5t10 33.5t1 38.5t-3.5 43t-3 34.5q-7 147 -2 223q1 12 2 48t2 46q0 15 -2.5 49t-1.5 59q0 44 1 135t1 136q0 22 -4 64.5t-4 62.5 l8 489q15 1 29 0t26.5 0t22 3.5t16 10t7.5 19.5q0 11 -4.5 19.5t-14 12.5t-20.5 6.5t-27.5 2.5t-29 -0.5t-32 -2t-30.5 -1.5q-18 -1 -35.5 -0.5t-34.5 -1.5t-24 -8q-24 -21 -8 -49q9 -15 32.5 -18t51.5 1q-4 -187 -4.5 -552t-4.5 -542q-9 8 -17.5 16.5t-17.5 22.5 t-12.5 19.5t-14 24t-11.5 20.5q-57 88 -142 215q-23 31 -67 113q-8 12 -36.5 47.5t-41.5 56.5q-34 67 -68 113q-33 50 -70 113t-61 107.5t-65 121t-60 110.5q-6 15 -13.5 26.5t-13 19.5t-16.5 13t-16.5 8t-20.5 4t-20.5 1.5t-24.5 0t-26 -0.5q-11 0 -37.5 1.5t-42 1 t-34 -3.5t-27 -13t-7.5 -27zM330 1767q2 36 19.5 65t47.5 44q67 33 140 33q69 0 170 -82q43 -29 92 -37q45 -4 96.5 14.5t24.5 50.5q-16 36 9.5 50t51.5 -2q33 -39 33 -66q0 -46 -56 -85t-112 -44q-35 -2 -74.5 10.5t-59 23.5t-57.5 34q-80 51 -125 51q-27 0 -73 -19 q-15 -6 -23 -10.5t-15.5 -13t-8.5 -19.5v-2q-3 -21 -23 -29.5t-38.5 1.5t-18.5 32z" />
<glyph unicode="&#xf2;" horiz-adv-x="1394" d="M174 829q0 21 1 66t1 66q0 16 3.5 47.5t4.5 42.5l4.5 40.5t6.5 49.5q25 152 157 270q132 115 310 129q55 3 114 0q176 -14 309 -129q133 -119 158 -270q3 -18 6 -49t4 -41q1 -12 5 -43t4 -47q0 -21 1 -66t1 -66q-1 -34 1.5 -134t-1.5 -132q-10 -107 -17 -135 q-23 -113 -65 -186q-37 -66 -95.5 -118t-130.5 -81q-10 -3 -39 -14.5t-47 -16.5q-31 -10 -180 -20l-18 2q-96 5 -127 14q-101 32 -173 87t-124 147q-24 41 -44 117t-26 143q-3 73 -2.5 163.5t-1.5 163.5zM347.5 857q-0.5 -71 1 -165t1.5 -139q3 -91 19 -178q6 -71 32 -139 t54 -101q24 -31 82.5 -53.5t105.5 -29.5l47 -7q31 0 59.5 4t53.5 12.5t39.5 14t34.5 15.5l22 11q39 25 84 82q26 30 49.5 87.5t30.5 111.5q20 108 22 174q0 17 3.5 48t3.5 36q9 127 -7 356q-5 87 -12 144.5t-29.5 127.5t-58.5 107q-127 114 -272 117q-65 -4 -88 -10 q-78 -22 -166 -101q-90 -95 -107 -385q-4 -69 -4.5 -140zM455 1978q12 16 35.5 17t43 -6.5t29.5 -16.5l133 -86q191 -133 250 -168q25 -18 17 -38q-10 -26 -57 -11q-7 3 -15 6l-240 133h-2l-20 13q-131 77 -135 80q-63 41 -39 77z" />
<glyph unicode="&#xf3;" horiz-adv-x="1394" d="M174 829q0 21 1 66t1 66q0 16 3.5 47.5t4.5 42.5l4.5 40.5t6.5 49.5q25 152 157 270q132 115 310 129q55 3 114 0q176 -14 309 -129q133 -119 158 -270q3 -18 6 -49t4 -41q1 -12 5 -43t4 -47q0 -21 1 -66t1 -66q-1 -34 1.5 -134t-1.5 -132q-10 -107 -17 -135 q-23 -113 -65 -186q-37 -66 -95.5 -118t-130.5 -81q-10 -3 -39 -14.5t-47 -16.5q-31 -10 -180 -20l-18 2q-96 5 -127 14q-101 32 -173 87t-124 147q-24 41 -44 117t-26 143q-3 73 -2.5 163.5t-1.5 163.5zM347.5 857q-0.5 -71 1 -165t1.5 -139q3 -91 19 -178q6 -71 32 -139 t54 -101q24 -31 82.5 -53.5t105.5 -29.5l47 -7q31 0 59.5 4t53.5 12.5t39.5 14t34.5 15.5l22 11q39 25 84 82q26 30 49.5 87.5t30.5 111.5q20 108 22 174q0 17 3.5 48t3.5 36q9 127 -7 356q-5 87 -12 144.5t-29.5 127.5t-58.5 107q-127 114 -272 117q-65 -4 -88 -10 q-78 -22 -166 -101q-90 -95 -107 -385q-4 -69 -4.5 -140zM474.5 1679q5.5 21 23.5 35l231 152l139 84q14 8 32.5 14.5t41.5 5.5t35 -14q4 -7 5 -11.5t-0.5 -15t-13.5 -24t-34 -29.5q-27 -18 -115 -68l-47 -26l-246 -127q-33 -14 -45 -5.5t-6.5 29.5z" />
<glyph unicode="&#xf4;" horiz-adv-x="1394" d="M174 829q0 21 1 66t1 66q0 16 3.5 47.5t4.5 42.5l4.5 40.5t6.5 49.5q25 152 157 270q132 115 310 129q55 3 114 0q176 -14 309 -129q133 -119 158 -270q3 -18 6 -49t4 -41q1 -12 5 -43t4 -47q0 -21 1 -66t1 -66q-1 -34 1.5 -134t-1.5 -132q-10 -107 -17 -135 q-23 -113 -65 -186q-37 -66 -95.5 -118t-130.5 -81q-10 -3 -39 -14.5t-47 -16.5q-31 -10 -180 -20l-18 2q-96 5 -127 14q-101 32 -173 87t-124 147q-24 41 -44 117t-26 143q-3 73 -2.5 163.5t-1.5 163.5zM347.5 857q-0.5 -71 1 -165t1.5 -139q3 -91 19 -178q6 -71 32 -139 t54 -101q24 -31 82.5 -53.5t105.5 -29.5l47 -7q31 0 59.5 4t53.5 12.5t39.5 14t34.5 15.5l22 11q39 25 84 82q26 30 49.5 87.5t30.5 111.5q20 108 22 174q0 17 3.5 48t3.5 36q9 127 -7 356q-5 87 -12 144.5t-29.5 127.5t-58.5 107q-127 114 -272 117q-65 -4 -88 -10 q-78 -22 -166 -101q-90 -95 -107 -385q-4 -69 -4.5 -140zM395 1683q-32 4 167 254q4 6 14 18q12 16 18 23q43 38 68.5 52.5t54.5 13.5q33 -6 74 -39q13 -18 63 -68l31 -39q141 -183 116 -198q-4 -9 -13 -13t-17 -1q-34 5 -111 102q-14 14 -18 20q0 8 -27 35l-29 25l-49 59 q-21 21 -26 21l-31 -25l-35 -33v2l-31 -34l-32 -35l-35 -39l-23 -27h2l-8 -12l-14 -14l2 2q-1 -7 -20.5 -22.5t-43.5 -29.5q-30 -12 -47 2z" />
<glyph unicode="&#xf5;" horiz-adv-x="1394" d="M174 829q0 21 1 66t1 66q0 16 3.5 47.5t4.5 42.5l4.5 40.5t6.5 49.5q25 152 157 270q132 115 310 129q55 3 114 0q176 -14 309 -129q133 -119 158 -270q3 -18 6 -49t4 -41q1 -12 5 -43t4 -47q0 -21 1 -66t1 -66q-1 -34 1.5 -134t-1.5 -132q-10 -107 -17 -135 q-23 -113 -65 -186q-37 -66 -95.5 -118t-130.5 -81q-10 -3 -39 -14.5t-47 -16.5q-31 -10 -180 -20l-18 2q-96 5 -127 14q-101 32 -173 87t-124 147q-24 41 -44 117t-26 143q-3 73 -2.5 163.5t-1.5 163.5zM347.5 857q-0.5 -71 1 -165t1.5 -139q3 -91 19 -178q6 -71 32 -139 t54 -101q24 -31 82.5 -53.5t105.5 -29.5l47 -7q31 0 59.5 4t53.5 12.5t39.5 14t34.5 15.5l22 11q39 25 84 82q26 30 49.5 87.5t30.5 111.5q20 108 22 174q0 17 3.5 48t3.5 36q9 127 -7 356q-5 87 -12 144.5t-29.5 127.5t-58.5 107q-127 114 -272 117q-65 -4 -88 -10 q-78 -22 -166 -101q-90 -95 -107 -385q-4 -69 -4.5 -140zM365 1778q2 36 19.5 64.5t47.5 43.5q67 33 139 33q69 0 170 -82q43 -28 93 -37q44 -4 95.5 14.5t24.5 51.5q-16 35 10 49t52 -2q33 -39 33 -66q0 -46 -56 -85t-112 -44q-35 -2 -74.5 10.5t-59 23.5t-57.5 34 q-80 51 -125 51q-29 0 -73 -18q-15 -7 -23 -11t-16 -12.5t-9 -19.5v-2q-3 -21 -22.5 -29.5t-38 1.5t-18.5 32z" />
<glyph unicode="&#xf6;" horiz-adv-x="1394" d="M174 829q0 21 1 66t1 66q0 16 3.5 47.5t4.5 42.5l4.5 40.5t6.5 49.5q25 152 157 270q132 115 310 129q55 3 114 0q176 -14 309 -129q133 -119 158 -270q3 -18 6 -49t4 -41q1 -12 5 -43t4 -47q0 -21 1 -66t1 -66q-1 -34 1.5 -134t-1.5 -132q-10 -107 -17 -135 q-23 -113 -65 -186q-37 -66 -95.5 -118t-130.5 -81q-10 -3 -39 -14.5t-47 -16.5q-31 -10 -180 -20l-18 2q-96 5 -127 14q-101 32 -173 87t-124 147q-24 41 -44 117t-26 143q-3 73 -2.5 163.5t-1.5 163.5zM347.5 857q-0.5 -71 1 -165t1.5 -139q3 -91 19 -178q6 -71 32 -139 t54 -101q24 -31 82.5 -53.5t105.5 -29.5l47 -7q31 0 59.5 4t53.5 12.5t39.5 14t34.5 15.5l22 11q39 25 84 82q26 30 49.5 87.5t30.5 111.5q20 108 22 174q0 17 3.5 48t3.5 36q9 127 -7 356q-5 87 -12 144.5t-29.5 127.5t-58.5 107q-127 114 -272 117q-65 -4 -88 -10 q-78 -22 -166 -101q-90 -95 -107 -385q-4 -69 -4.5 -140zM461 1772q0 31 15.5 55.5t39.5 30.5q27 8 62 0q38 -5 49 -60q5 -33 -13 -58.5t-43 -39.5q-28 -10 -57 -4t-41 24q-12 27 -12 52zM819 1772q0 31 15.5 55.5t39.5 30.5h-2q28 7 64 0h-2q38 -5 49 -60q5 -33 -12.5 -59 t-42.5 -39q-26 -10 -56 -3.5t-41 23.5q-12 27 -12 52z" />
<glyph unicode="&#xf7;" horiz-adv-x="962" d="M106 619v8q-1 17 20 29t44 12q52 4 291 4q203 0 289 -2q38 -1 53 -2t34.5 -5.5t26 -14t6.5 -25.5q4 -24 -9.5 -36.5t-69.5 -17.5q-24 -3 -52.5 -3t-67 1.5t-61.5 1.5h-250l-182 2q-12 0 -22 0.5t-17 3t-12 4t-8.5 7t-6 7t-3.5 8.5t-1.5 8.5t-1.5 9.5zM418 993q0 7 2 13 q48 52 96 47q59 -26 59 -68q0 -20 -26 -63q-30 -31 -60.5 -22t-53 40t-17.5 55v-2zM426 236q0 24 12 47.5t29 27.5h8q60 10 98 -41q17 -52 -8.5 -75t-68.5 -25q-30 -4 -50 17.5t-20 48.5z" />
<glyph unicode="&#xf8;" horiz-adv-x="1394" d="M174 829q0 21 1 66t1 66q0 16 3.5 47.5t4.5 42.5l4.5 40.5t6.5 49.5q25 152 157 270q132 115 310 129q55 3 114 0q69 -7 115 -22l18 47q9 30 26 55t28 25q23 0 30 -33.5t-12 -89.5l-14 -35q57 -25 118 -76q133 -119 158 -270q3 -18 6 -49t4 -41q1 -12 5 -43t4 -47 q0 -21 1 -66t1 -66q-1 -34 1.5 -134t-1.5 -132q-10 -107 -17 -135q-23 -113 -65 -186q-37 -66 -95.5 -118t-130.5 -81q-10 -3 -39 -14.5t-47 -16.5q-31 -10 -180 -20l-18 2q-96 5 -127 14q-12 2 -31 10l-6 -18q-29 -88 -37 -100v2q-12 -38 -28.5 -65t-28.5 -27q-20 0 -21 45 t17 100l18 61l8 35q-119 64 -188 191q-24 41 -44 117t-26 143q-3 73 -2.5 163.5t-1.5 163.5zM347.5 857q-0.5 -71 1 -165t1.5 -139q3 -91 19 -178q6 -71 32 -139t54 -101l4 -6q11 34 16 55q57 167 109 359l104 338l57 176q5 32 35 133q0 1 1 3t1 3q1 3 0.5 7t0.5 7t5 7l9 26 q29 104 69 213q-66 34 -153 37q-65 -4 -88 -10q-78 -22 -166 -101q-90 -95 -107 -385q-4 -69 -4.5 -140zM535 82q32 -13 70.5 -22t61.5 -12l23 -3q31 0 59.5 4t53.5 12.5t39.5 14t34.5 15.5l22 11q39 25 84 82q26 30 49.5 87.5t30.5 111.5q20 108 22 174q0 17 3.5 48t3.5 36 q9 127 -7 356q-5 87 -12 144.5t-29.5 127.5t-58.5 107q-30 25 -45 35l-14 -45q-27 -91 -43 -133l-17 -43q-9 -35 -110 -389l-15 -47l-18 -56q-35 -101 -41 -133q-52 -205 -117 -399q-15 -38 -30 -84z" />
<glyph unicode="&#xf9;" horiz-adv-x="1400" d="M113 1497q1 -11 6 -18t15.5 -10t19.5 -4.5t26 -2.5t27 -2q0 -28 -6.5 -201.5t0.5 -220.5q5 -65 -3 -184.5t-8 -161.5q0 -28 -1 -87t-1 -92.5t3.5 -80.5t11.5 -84q29 -138 107 -220t216 -122q278 -79 531 117q96 75 125 254q18 108 12 233q-2 42 2.5 125t3.5 121 q-8 164 -12 240q-3 58 1.5 186.5t-1.5 183.5q58 3 71 10q15 8 17 27q5 47 -121 39q-8 0 -26 -0.5t-26.5 -1t-23 -1.5t-21.5 -4t-15 -7.5t-11 -11.5t-2 -17q0 -7 2.5 -12.5t7.5 -9.5t9.5 -6t13 -4t14.5 -3t17.5 -2t17.5 -2q6 -76 1.5 -225.5t0.5 -230.5q10 -102 10 -205 q0 -28 -3 -82t-3 -80q0 -71 -0.5 -100.5t-5.5 -77.5t-16 -86q-22 -79 -46 -122.5t-75 -80.5q-4 -3 -38 -34.5t-52 -39.5q-46 -23 -117 -37q-86 -22 -158.5 -5t-142.5 85q-37 35 -58.5 83.5t-39.5 119.5q-11 40 -15 98.5t-3 103.5t4 116.5t3 101.5q1 87 -0.5 231.5 t-1.5 188.5q0 189 17 280q14 1 28 0.5t26 0.5t21 3.5t14.5 10.5t4.5 20q0 23 -19.5 30t-58.5 7q-14 0 -42 2t-42.5 2.5t-34.5 -2.5q-39 -7 -75 -1.5t-60.5 -1t-21.5 -36.5zM451 1933q12 15 35.5 16t42.5 -6.5t28 -15.5l133 -86q187 -129 246 -166q23 -15 17 -35 q-9 -25 -50 -14q-11 3 -22 8l-236 129h-2l-20 15q-9 5 -60.5 33.5t-73.5 43.5q-58 38 -38 78z" />
<glyph unicode="&#xfa;" horiz-adv-x="1400" d="M113 1497q-3 30 21.5 36.5t60.5 1t75 1.5q20 3 34.5 2.5t42.5 -2.5t42 -2q39 0 58.5 -7t19.5 -30q1 -12 -4.5 -20t-14.5 -10.5t-21 -3.5t-26 -0.5t-28 -0.5q-17 -91 -17 -280q0 -44 1.5 -188.5t0.5 -231.5q0 -30 -3 -101.5t-4 -116.5t3 -103.5t15 -98.5 q18 -71 39.5 -119.5t58.5 -83.5q70 -68 142.5 -85t158.5 5q71 14 117 37q18 8 52 39.5t38 34.5q51 37 75 80.5t46 122.5q11 38 16 86t5.5 77.5t0.5 100.5q0 26 3 80t3 82q0 103 -10 205q-5 75 -0.5 231t-1.5 225q-6 1 -17.5 2t-17.5 2t-14.5 3t-13 4t-9.5 6t-7.5 9.5 t-2.5 12.5q-1 10 2 17t11 11.5t15 7.5t21.5 4t23 1.5t26.5 1t26 0.5q126 8 121 -39q-2 -16 -13 -24t-26.5 -10t-37.5 -3h-11q6 -55 1.5 -183.5t-1.5 -186.5q4 -76 12 -240q1 -38 -3.5 -121t-2.5 -125q6 -125 -12 -233q-29 -179 -125 -254q-253 -196 -531 -117 q-138 40 -216 122t-107 220q-8 37 -11.5 84t-3.5 80.5t1 92.5t1 87q0 42 8 161.5t3 184.5q-7 47 -0.5 220.5t6.5 201.5q-10 1 -27 2t-26 2.5t-19.5 4.5t-15.5 10t-6 18zM509.5 1664.5q5.5 20.5 22.5 33.5l218 141l131 80q14 8 31.5 14t38 5t32.5 -13q19 -32 -41 -76 q-17 -11 -108 -63l-43 -25l-232 -119q-31 -14 -43 -6t-6.5 28.5z" />
<glyph unicode="&#xfb;" horiz-adv-x="1400" d="M113 1497q1 -11 6 -18t15.5 -10t19.5 -4.5t26 -2.5t27 -2q0 -28 -6.5 -201.5t0.5 -220.5q5 -65 -3 -184.5t-8 -161.5q0 -28 -1 -87t-1 -92.5t3.5 -80.5t11.5 -84q29 -138 107 -220t216 -122q278 -79 531 117q96 75 125 254q18 108 12 233q-2 42 2.5 125t3.5 121 q-8 164 -12 240q-3 58 1.5 186.5t-1.5 183.5q58 3 71 10q15 8 17 27q5 47 -121 39q-8 0 -26 -0.5t-26.5 -1t-23 -1.5t-21.5 -4t-15 -7.5t-11 -11.5t-2 -17q0 -7 2.5 -12.5t7.5 -9.5t9.5 -6t13 -4t14.5 -3t17.5 -2t17.5 -2q6 -76 1.5 -225.5t0.5 -230.5q10 -102 10 -205 q0 -28 -3 -82t-3 -80q0 -71 -0.5 -100.5t-5.5 -77.5t-16 -86q-22 -79 -46 -122.5t-75 -80.5q-4 -3 -38 -34.5t-52 -39.5q-46 -23 -117 -37q-86 -22 -158.5 -5t-142.5 85q-37 35 -58.5 83.5t-39.5 119.5q-11 40 -15 98.5t-3 103.5t4 116.5t3 101.5q1 87 -0.5 231.5 t-1.5 188.5q0 189 17 280q14 1 28 0.5t26 0.5t21 3.5t14.5 10.5t4.5 20q0 23 -19.5 30t-58.5 7q-14 0 -42 2t-42.5 2.5t-34.5 -2.5q-39 -7 -75 -1.5t-60.5 -1t-21.5 -36.5zM434 1688q-32 4 161 246q6 7 16 21q15 19 22 27q43 38 68.5 52.5t54.5 13.5q32 -5 73 -39 q8 -11 18.5 -22t26 -26t19.5 -19l31 -39q142 -183 116 -199q-4 -9 -13 -13t-17 -1q-34 5 -111 102q-14 14 -18 20q0 8 -27 35l-29 25l-49 59q-21 21 -26 21l-31 -25l-35 -33v2l-31 -34l-32 -35l-35 -39l-23 -27h2l-8 -12l-14 -14l2 2q-3 -16 -64 -51q-30 -12 -47 2z" />
<glyph unicode="&#xfc;" horiz-adv-x="1400" d="M113 1497q1 -11 6 -18t15.5 -10t19.5 -4.5t26 -2.5t27 -2q0 -28 -6.5 -201.5t0.5 -220.5q5 -65 -3 -184.5t-8 -161.5q0 -28 -1 -87t-1 -92.5t3.5 -80.5t11.5 -84q29 -138 107 -220t216 -122q278 -79 531 117q96 75 125 254q18 108 12 233q-2 42 2.5 125t3.5 121 q-8 164 -12 240q-3 58 1.5 186.5t-1.5 183.5q58 3 71 10q15 8 17 27q5 47 -121 39q-8 0 -26 -0.5t-26.5 -1t-23 -1.5t-21.5 -4t-15 -7.5t-11 -11.5t-2 -17q0 -7 2.5 -12.5t7.5 -9.5t9.5 -6t13 -4t14.5 -3t17.5 -2t17.5 -2q6 -76 1.5 -225.5t0.5 -230.5q10 -102 10 -205 q0 -28 -3 -82t-3 -80q0 -71 -0.5 -100.5t-5.5 -77.5t-16 -86q-22 -79 -46 -122.5t-75 -80.5q-4 -3 -38 -34.5t-52 -39.5q-46 -23 -117 -37q-86 -22 -158.5 -5t-142.5 85q-37 35 -58.5 83.5t-39.5 119.5q-11 40 -15 98.5t-3 103.5t4 116.5t3 101.5q1 87 -0.5 231.5 t-1.5 188.5q0 189 17 280q14 1 28 0.5t26 0.5t21 3.5t14.5 10.5t4.5 20q0 23 -19.5 30t-58.5 7q-14 0 -42 2t-42.5 2.5t-34.5 -2.5q-39 -7 -75 -1.5t-60.5 -1t-21.5 -36.5zM469 1782q0 31 15.5 55.5t39.5 30.5q27 8 62 0q38 -5 49 -60q5 -33 -13 -58.5t-42 -39.5 q-28 -10 -57.5 -3.5t-41.5 24.5q-12 27 -12 51zM827 1782q0 31 15.5 55.5t40.5 30.5h-2q28 7 63 0h-2q38 -5 49 -60q5 -33 -12.5 -59t-42.5 -39q-26 -10 -55.5 -3.5t-40.5 24.5q-13 29 -13 51z" />
<glyph unicode="&#xfd;" horiz-adv-x="1667" d="M106 1516q2 13 11.5 19.5t23.5 7t31.5 0.5t34.5 1q39 2 45 2.5t49 -2t49 -2.5q7 0 18.5 -0.5t17.5 -0.5t15.5 -0.5t14.5 -1.5t11.5 -3t10 -4.5t7 -6t5 -9t1.5 -11.5q0 -15 -10 -24t-22 -12t-36 -6q-5 -1 -8 -1q17 -46 51 -108q13 -24 47 -77t49 -87q41 -77 107 -176 q20 -28 61.5 -100t69.5 -107q11 -13 35.5 -51.5t40.5 -53.5q15 16 31 36t28 37t29 43t26 40t27 43.5t24 40.5q24 41 149 235.5t175 290.5q-93 -16 -96 43q0 8 6.5 14t20.5 9t29 5t36 2h37t37.5 -0.5t31.5 -0.5q6 0 20.5 1t20 1t16.5 -0.5t15.5 -3t10 -7t6.5 -12t0 -18.5 q-1 -12 -7 -19t-16 -9.5t-22 -3.5t-26 -0.5t-28 -0.5q-11 -10 -19.5 -23t-18 -31.5t-15.5 -27.5q-7 -12 -25 -37t-26 -40q-57 -117 -150 -246q-11 -17 -116 -180q-33 -43 -88.5 -138.5t-67.5 -128.5q-4 -13 -5.5 -31.5t-1.5 -31.5t0.5 -36.5t0.5 -31.5q0 -2 6 -137 q4 -37 0.5 -134.5t-2.5 -133.5q12 -2 33 -4.5t30.5 -5t17.5 -11t7 -24.5q-3 -28 -43 -34t-94 1q-26 4 -58 0.5t-66 -3.5t-44 9q-23 25 -1.5 49t56.5 19q1 33 -3.5 101.5t-2.5 101.5q5 107 -4 225q0 10 1.5 27t1.5 31t-3 26q-1 9 -16.5 28t-18.5 25q-8 9 -20 29t-15 24 q-5 8 -69 107q-33 48 -66 110q-5 8 -25.5 39.5t-26 40.5t-22 35t-24 39.5t-20.5 35.5t-23 42.5t-21 42.5q-5 12 -17.5 31t-15.5 24q-20 34 -40.5 72t-44 83.5t-37.5 71.5q-45 -2 -68.5 7t-20.5 41zM602 1640q6 22 25 37q31 18 92 58t106 71l45 31l148 88q15 9 34.5 16 t43.5 5.5t37 -15.5q4 -7 5 -12t-0.5 -15.5t-14.5 -25t-36 -31.5q-21 -13 -65.5 -38.5t-56.5 -32.5l-50 -29l-258 -133q-35 -15 -48 -5.5t-7 31.5z" />
<glyph unicode="&#xff;" horiz-adv-x="1667" d="M106 1516q-3 -32 20.5 -41t68.5 -7q14 -26 37.5 -71.5t44 -83.5t40.5 -72q3 -5 15.5 -24t17.5 -31q11 -22 21 -42.5t23 -42.5t20.5 -35.5t24 -39.5t22 -35t26 -40.5t25.5 -39.5q33 -62 66 -110q64 -99 69 -107q3 -4 15 -24t20 -29q3 -6 18.5 -25t16.5 -28q3 -12 3 -26 t-1.5 -31t-1.5 -27q9 -118 4 -225q-2 -33 2.5 -101.5t3.5 -101.5q-35 5 -56.5 -19t1.5 -49q10 -9 44 -9t66 3.5t58 -0.5q54 -7 94 -1t43 34q1 16 -7 24.5t-17.5 11t-30.5 5t-33 4.5q-1 36 2.5 133.5t-0.5 134.5q-6 135 -6 137q0 8 -0.5 31.5t-0.5 36.5t1.5 31.5t5.5 31.5 q12 33 67.5 128.5t88.5 138.5q105 163 116 180q93 129 150 246q8 15 26 40t25 37q6 9 15.5 27.5t18 31.5t19.5 23q14 1 28 0.5t26 0.5t22 3.5t16 9.5t7 19q1 11 0 18.5t-6.5 12t-10 7t-15.5 3t-16.5 0.5t-20 -1t-20.5 -1q-10 0 -31.5 0.5t-37.5 0.5h-37t-36 -2t-29 -5 t-20.5 -9t-6.5 -14q3 -59 96 -43q-50 -96 -175 -290.5t-149 -235.5q-6 -11 -24 -40.5t-27 -43.5t-26 -40t-29 -43t-28 -37t-31 -36q-16 15 -40.5 53.5t-35.5 51.5q-28 35 -69.5 107t-61.5 100q-66 99 -107 176q-15 34 -49 87t-47 77q-34 62 -51 108q54 8 65 17t11 26 q0 6 -1.5 11.5t-5 9t-7 6t-10 4.5t-11.5 3t-14.5 1.5t-15.5 0.5t-17.5 0.5t-18.5 0.5q-6 0 -49 2.5t-49 2t-45 -2.5q-17 -1 -34.5 -1t-31.5 -0.5t-23.5 -7t-11.5 -19.5zM586 1731q0 31 15.5 55.5t39.5 30.5q27 8 61 0q39 -5 50 -60q5 -33 -13 -58.5t-43 -39.5 q-28 -10 -57 -4t-41 24q-12 27 -12 52zM944 1731q0 31 15.5 55.5t39.5 30.5h-2q28 7 64 0h-2q38 -5 49 -60q5 -33 -12.5 -59t-42.5 -39q-26 -10 -56 -3.5t-41 23.5q-12 27 -12 52z" />
<glyph unicode="&#x152;" horiz-adv-x="2099" d="M174 829q0 21 1 66t1 66q0 16 3.5 47.5t4.5 42.5l4.5 40.5t6.5 49.5q25 152 157 270q132 115 310 129q55 3 114 0q169 -14 303 -125q0 31 2 47q-1 3 -0.5 20t0.5 27q0 24 20 28q6 1 58 3q75 0 260 -1t271 -1q18 0 70.5 1t86.5 0.5t62 -5.5q0 -10 1.5 -36.5t1.5 -44 t-3 -38t-12 -31.5t-25 -12q-26 0 -37 28t-8 70q-187 11 -334 3q-39 -2 -116 -1.5t-113 -1.5q-12 -183 -9 -454q0 -4 3.5 -24t3.5 -31q0 -66 2 -99q158 -9 413 0q1 7 2 20t1.5 19t3 14.5t7.5 12.5t13 6q17 4 27.5 -1t16 -23.5t7 -29t3.5 -39.5q1 -8 1 -12q1 -21 0.5 -40.5 t-3 -34.5t-11 -24t-23.5 -9q-24 -2 -33.5 16t-5.5 56q-150 -5 -417 4q-2 -10 -2 -31q0 -24 1 -72t1 -73q0 -41 4 -115q0 -53 6.5 -152.5t7.5 -140.5v-45t2.5 -57.5t9.5 -40.5q55 0 174 -1t202 -0.5t167 3.5q-3 35 0.5 65.5t11.5 36.5q6 6 19.5 9.5t23.5 0.5q12 -3 18 -19 t6.5 -29.5t0.5 -39.5v-8v-16.5v-17t-0.5 -14.5t-2.5 -14t-5.5 -10t-9.5 -8q-5 -3 -13 -4.5t-20 -2t-22 -0.5t-26.5 0.5t-25.5 0.5q-93 -2 -294 -1.5t-298 -2.5q-49 -5 -73 -2t-27 29q0 8 -1.5 23.5t-0.5 23.5q0 12 1 33t1 32q-57 -57 -146 -94q-10 -3 -39 -14.5t-47 -16.5 q-31 -10 -180 -20l-18 2q-96 5 -127 14q-101 32 -173 87t-124 147q-24 41 -44 117t-26 143q-3 73 -2.5 163.5t-1.5 163.5zM347.5 857q-0.5 -71 1 -165t1.5 -139q3 -91 19 -178q6 -71 32 -139t54 -101q24 -31 82.5 -53.5t105.5 -29.5l47 -7q31 0 59.5 4t53.5 12.5t39.5 14 t34.5 15.5l22 11q39 25 84 82q26 30 49.5 87.5t30.5 111.5q20 108 22 174q0 17 3.5 48t3.5 36q4 66 4 107q-6 24 -6 28q-1 24 -1 52t0.5 62t0.5 52q-5 45 -5 55q-5 87 -12 144.5t-29.5 127.5t-58.5 107q-127 114 -272 117q-65 -4 -88 -10q-78 -22 -166 -101 q-90 -95 -107 -385q-4 -69 -4.5 -140z" />
<glyph unicode="&#x153;" horiz-adv-x="2101" d="M174 829q0 21 1 66t1 66q0 16 3.5 47.5t4.5 42.5l4.5 40.5t6.5 49.5q25 152 157 270q132 115 310 129q55 3 114 0q169 -14 303 -125q0 31 2 47q-1 3 -0.5 20t0.5 27q0 24 20 28q6 1 58 3q75 0 260 -1t271 -1q18 0 70.5 1t86.5 0.5t62 -5.5q0 -10 1.5 -36.5t1.5 -44 t-3 -38t-12 -31.5t-25 -12q-26 0 -37 28t-8 70q-187 11 -334 3q-39 -2 -116 -1.5t-113 -1.5q-12 -183 -9 -454q0 -4 3.5 -24t3.5 -31q0 -66 2 -99q158 -9 413 0q1 7 2 20t1.5 19t3 14.5t7.5 12.5t13 6q17 4 27.5 -1t16 -23.5t7 -29t3.5 -39.5q1 -8 1 -12q1 -21 0.5 -40.5 t-3 -34.5t-11 -24t-23.5 -9q-24 -2 -33.5 16t-5.5 56q-150 -5 -417 4q-2 -10 -2 -31q0 -24 1 -72t1 -73q0 -41 4 -115q0 -53 6.5 -152.5t7.5 -140.5v-45t2.5 -57.5t9.5 -40.5q55 0 174 -1t202 -0.5t167 3.5q-3 35 0.5 65.5t11.5 36.5q6 6 19.5 9.5t23.5 0.5q12 -3 18 -19 t6.5 -29.5t0.5 -39.5v-8v-16.5v-17t-0.5 -14.5t-2.5 -14t-5.5 -10t-9.5 -8q-5 -3 -13 -4.5t-20 -2t-22 -0.5t-26.5 0.5t-25.5 0.5q-93 -2 -294 -1.5t-298 -2.5q-49 -5 -73 -2t-27 29q0 8 -1.5 23.5t-0.5 23.5q0 12 1 33t1 32q-57 -57 -146 -94q-10 -3 -39 -14.5t-47 -16.5 q-31 -10 -180 -20l-18 2q-96 5 -127 14q-101 32 -173 87t-124 147q-24 41 -44 117t-26 143q-3 73 -2.5 163.5t-1.5 163.5zM347.5 857q-0.5 -71 1 -165t1.5 -139q3 -91 19 -178q6 -71 32 -139t54 -101q24 -31 82.5 -53.5t105.5 -29.5l47 -7q31 0 59.5 4t53.5 12.5t39.5 14 t34.5 15.5l22 11q39 25 84 82q26 30 49.5 87.5t30.5 111.5q20 108 22 174q0 17 3.5 48t3.5 36q4 66 4 107q-6 24 -6 28q-1 24 -1 52t0.5 62t0.5 52q-5 45 -5 55q-5 87 -12 144.5t-29.5 127.5t-58.5 107q-127 114 -272 117q-65 -4 -88 -10q-78 -22 -166 -101 q-90 -95 -107 -385q-4 -69 -4.5 -140z" />
<glyph unicode="&#x178;" horiz-adv-x="1667" d="M106 1516q-3 -32 20.5 -41t68.5 -7q14 -26 37.5 -71.5t44 -83.5t40.5 -72q3 -5 15.5 -24t17.5 -31q11 -22 21 -42.5t23 -42.5t20.5 -35.5t24 -39.5t22 -35t26 -40.5t25.5 -39.5q33 -62 66 -110q64 -99 69 -107q3 -4 15 -24t20 -29q3 -6 18.5 -25t16.5 -28q3 -12 3 -26 t-1.5 -31t-1.5 -27q9 -118 4 -225q-2 -33 2.5 -101.5t3.5 -101.5q-35 5 -56.5 -19t1.5 -49q10 -9 44 -9t66 3.5t58 -0.5q54 -7 94 -1t43 34q1 16 -7 24.5t-17.5 11t-30.5 5t-33 4.5q-1 36 2.5 133.5t-0.5 134.5q-6 135 -6 137q0 8 -0.5 31.5t-0.5 36.5t1.5 31.5t5.5 31.5 q12 33 67.5 128.5t88.5 138.5q105 163 116 180q93 129 150 246q8 15 26 40t25 37q6 9 15.5 27.5t18 31.5t19.5 23q14 1 28 0.5t26 0.5t22 3.5t16 9.5t7 19q1 11 0 18.5t-6.5 12t-10 7t-15.5 3t-16.5 0.5t-20 -1t-20.5 -1q-10 0 -31.5 0.5t-37.5 0.5h-37t-36 -2t-29 -5 t-20.5 -9t-6.5 -14q3 -59 96 -43q-50 -96 -175 -290.5t-149 -235.5q-6 -11 -24 -40.5t-27 -43.5t-26 -40t-29 -43t-28 -37t-31 -36q-16 15 -40.5 53.5t-35.5 51.5q-28 35 -69.5 107t-61.5 100q-66 99 -107 176q-15 34 -49 87t-47 77q-34 62 -51 108q54 8 65 17t11 26 q0 6 -1.5 11.5t-5 9t-7 6t-10 4.5t-11.5 3t-14.5 1.5t-15.5 0.5t-17.5 0.5t-18.5 0.5q-6 0 -49 2.5t-49 2t-45 -2.5q-17 -1 -34.5 -1t-31.5 -0.5t-23.5 -7t-11.5 -19.5zM586 1731q0 31 15.5 55.5t39.5 30.5q27 8 61 0q39 -5 50 -60q5 -33 -13 -58.5t-43 -39.5 q-28 -10 -57 -4t-41 24q-12 27 -12 52zM944 1731q0 31 15.5 55.5t39.5 30.5h-2q28 7 64 0h-2q38 -5 49 -60q5 -33 -12.5 -59t-42.5 -39q-26 -10 -56 -3.5t-41 23.5q-12 27 -12 52z" />
<glyph unicode="&#x2c6;" horiz-adv-x="940" d="M231 1589q-32 4 167 254q4 6 14 18q12 16 18 23q43 38 68.5 52.5t54.5 13.5q33 -6 74 -39q13 -18 63 -68l31 -39q141 -183 117 -198q-4 -9 -13.5 -13.5t-17.5 -1.5q-33 5 -111 103q-14 14 -18 20q0 8 -27 35l-28 25l-50 59q-20 20 -26 20l-31 -24l-35 -33v2l-30 -35 l-33 -34l-35 -39l-23 -27h2l-8 -12l-14 -15l2 2q-3 -16 -63 -51q-30 -12 -48 2z" />
<glyph unicode="&#x2dc;" horiz-adv-x="903" d="M98 1556q2 36 20 65t48 44q67 33 139 33q69 0 170 -82q43 -29 92 -37q44 -4 96 14.5t25 51.5q-16 35 10 49t52 -2q32 -38 32 -66q0 -46 -56 -85t-112 -44q-35 -2 -74.5 11t-58 23t-57.5 34q-80 51 -125 51q-28 0 -74 -19q-15 -6 -23 -10.5t-15.5 -13t-8.5 -19.5v-2 q-3 -21 -23 -29.5t-38.5 1.5t-18.5 32z" />
<glyph unicode="&#x2000;" horiz-adv-x="1024" />
<glyph unicode="&#x2001;" horiz-adv-x="2048" />
<glyph unicode="&#x2002;" horiz-adv-x="1024" />
<glyph unicode="&#x2003;" horiz-adv-x="2048" />
<glyph unicode="&#x2004;" horiz-adv-x="682" />
<glyph unicode="&#x2005;" horiz-adv-x="512" />
<glyph unicode="&#x2006;" horiz-adv-x="341" />
<glyph unicode="&#x2007;" horiz-adv-x="341" />
<glyph unicode="&#x2008;" horiz-adv-x="256" />
<glyph unicode="&#x2009;" horiz-adv-x="409" />
<glyph unicode="&#x200a;" horiz-adv-x="113" />
<glyph unicode="&#x2010;" horiz-adv-x="993" d="M113 631q3 13 28 26t47 15q57 4 218 4h67q197 0 281 -2h28q101 -3 101 -45q0 -38 -88 -41q-16 -1 -34 -1t-41.5 0.5t-37.5 0.5h-307l-178 2q-34 -1 -55 6t-26 16t-3 19z" />
<glyph unicode="&#x2011;" horiz-adv-x="993" d="M113 631q3 13 28 26t47 15q57 4 218 4h67q197 0 281 -2h28q101 -3 101 -45q0 -38 -88 -41q-16 -1 -34 -1t-41.5 0.5t-37.5 0.5h-307l-178 2q-34 -1 -55 6t-26 16t-3 19z" />
<glyph unicode="&#x2012;" horiz-adv-x="993" d="M113 631q3 13 28 26t47 15q57 4 218 4h67q197 0 281 -2h28q101 -3 101 -45q0 -38 -88 -41q-16 -1 -34 -1t-41.5 0.5t-37.5 0.5h-307l-178 2q-34 -1 -55 6t-26 16t-3 19z" />
<glyph unicode="&#x2013;" horiz-adv-x="993" d="M113 631q4 19 75 24q57 4 218 4h67q197 0 281 -2h28q75 -2 87 -7q14 -6 14 -21q0 -34 -88 -37q-16 -1 -34 -1t-41.5 0.5t-37.5 0.5h-307l-178 2q-35 -1 -55.5 5t-25.5 14t-3 18z" />
<glyph unicode="&#x2014;" horiz-adv-x="1116" d="M113 635q4 19 75 24q100 7 439 7q76 0 198 -4q10 0 38.5 -1.5t37.5 -1.5h29q74 -2 85 -7q13 -6 13 -21q0 -30 -86 -33q-29 -2 -98 -2q-51 0 -78 2t-107 2q-123 0 -178 -2q-24 0 -58.5 -1t-43.5 -1q-47 0 -92.5 1.5t-67.5 2.5l-22 2q-92 -2 -84 33z" />
<glyph unicode="&#x2018;" horiz-adv-x="405" d="M102 1270q9 48 80 174q19 31 43 51t45 26.5t40 6.5t30 -5.5t12 -11.5q1 -18 -8 -25.5t-31 -12.5h-2l-6 -5q-2 -1 -10.5 -5.5t-17 -10t-17.5 -14.5q-17 -17 -41 -59.5t-37 -96.5q58 0 108 -27t46 -67q-5 -55 -40.5 -86.5t-96.5 -24.5h2q-65 6 -88 63.5t-11 129.5z" />
<glyph unicode="&#x2019;" horiz-adv-x="401" d="M92 1096q-1 18 8 26t31 15h2l8 4q1 1 10.5 5.5t17 10t15.5 14.5q17 17 41 59t39 97q-60 0 -109.5 26.5t-45.5 67.5q5 54 41.5 86t95.5 25h-2q65 -6 87.5 -63t10.5 -130q-10 -54 -78 -174q-19 -31 -43.5 -51t-46 -26.5t-40.5 -6.5t-30 4.5t-12 10.5z" />
<glyph unicode="&#x201a;" horiz-adv-x="444" d="M113 -182q-1 18 7.5 26t29.5 15h2l8 4q35 21 45 31q18 18 41.5 59t36.5 96q-58 0 -108 26.5t-46 67.5q5 54 41 86t96 25h-2q65 -6 87.5 -63t10.5 -130q-9 -51 -79 -174q-19 -31 -43 -51t-45 -26.5t-40 -6.5t-30 4.5t-12 10.5z" />
<glyph unicode="&#x201c;" horiz-adv-x="712" d="M94 1270q10 54 78 174q19 31 43.5 51t46 26.5t40.5 6.5t30 -5.5t12 -11.5q1 -18 -8 -25.5t-31 -12.5h-2l-8 -5q-2 -1 -10.5 -5.5t-17 -10t-17.5 -14.5q-50 -58 -78 -156q59 0 109.5 -27t46.5 -67q-5 -55 -42 -86.5t-96 -24.5h3q-65 6 -88 63.5t-11 129.5zM380.5 1182.5 q-3.5 41.5 0.5 85.5q9 48 80 174q19 31 43 51t45.5 26.5t40.5 6.5t30.5 -5.5t12.5 -11.5q0 -19 -9 -26.5t-30 -12.5h-2l-8 -4q-2 -1 -10.5 -5.5t-17 -10t-17.5 -14.5q-16 -16 -39.5 -58.5t-38.5 -97.5q58 0 108.5 -27t46.5 -67q-5 -55 -41.5 -86.5t-95.5 -24.5h2 q-45 4 -71 35t-29.5 72.5z" />
<glyph unicode="&#x201d;" horiz-adv-x="712" d="M88 1096q-1 18 7.5 26t29.5 15h2l8 4q2 1 10.5 5.5t17 10t17.5 14.5q18 18 41.5 59.5t36.5 96.5q-58 0 -108 26.5t-46 67.5q5 54 41.5 86t96.5 25h-2q65 -6 87.5 -63t10.5 -130q-9 -48 -80 -174q-19 -31 -43 -51t-45 -26.5t-40 -6.5t-30 4.5t-12 10.5zM375 1094 q0 19 8.5 26.5t30.5 14.5h2l8 4q2 1 10.5 5.5t17 10t17.5 14.5q17 17 40 58.5t38 97.5q-59 0 -109.5 26.5t-46.5 67.5q5 54 41.5 86t95.5 25h-2q45 -4 71.5 -35t30 -72.5t-0.5 -85.5q-9 -48 -80 -174q-19 -31 -43 -51t-45.5 -26.5t-40.5 -6.5t-30.5 4.5t-12.5 10.5z" />
<glyph unicode="&#x201e;" horiz-adv-x="712" d="M113 -182q-1 18 7.5 26t29.5 15h2l8 4q35 21 45 31q18 18 41.5 59t36.5 96q-58 0 -108 26.5t-46 67.5q5 54 41 86t96 25h-2q65 -6 87.5 -63t10.5 -130q-9 -51 -79 -174q-19 -31 -43 -51t-45 -26.5t-40 -6.5t-30 4.5t-12 10.5zM399 -184q0 19 8.5 26.5t30.5 14.5h2l9 4 q2 1 10.5 5.5t17 10t17.5 14.5q16 16 39 58t38 98q-59 0 -109 26.5t-46 67.5q5 54 41.5 86t95.5 25h-2q45 -4 71 -35t29.5 -72.5t-0.5 -85.5q-9 -48 -80 -174q-19 -31 -43 -51t-45.5 -26.5t-40.5 -6.5t-30.5 4.5t-12.5 10.5z" />
<glyph unicode="&#x2026;" horiz-adv-x="1017" d="M138.5 88.5q12.5 36.5 51.5 42.5q8 4 41 4q22 0 39 -16t23 -39q5 -34 -12.5 -57t-42.5 -35q-64 -20 -91 30q-21 34 -8.5 70.5zM440.5 88.5q12.5 36.5 51.5 42.5q8 4 40 4q22 0 39 -16t23 -39q5 -34 -12.5 -57t-42.5 -35q-63 -19 -90 30q-21 34 -8.5 70.5zM730.5 88.5 q12.5 36.5 51.5 42.5q8 4 41 4q22 0 39 -16t23 -39q9 -61 -56 -92q-63 -19 -90 30q-21 34 -8.5 70.5z" />
<glyph unicode="&#x202f;" horiz-adv-x="409" />
<glyph unicode="&#x2039;" horiz-adv-x="894" d="M133 676q0 6 6 24q9 24 25 29l143 107q39 30 244 182l59 47q38 25 64 25q12 0 21.5 -19t4.5 -31l-43 -43l-18 -16l-49 -37l-135 -96q-12 -10 -48.5 -38.5t-54.5 -43.5l-106 -88l41 -27l22 -12l125 -88q21 -18 31 -23l70 -47l88 -67q59 -52 61 -54h-2q9 -13 5 -31.5 t-13 -33.5q-15 0 -35 8l-14 10l2 -2q-4 0 -6 2q-6 0 -9 6v-2l-123 86q-61 44 -83 58l-115 86l-76 53l-16 6l-13 6l-18 6l-16 21h2l-19 14z" />
<glyph unicode="&#x203a;" horiz-adv-x="880" d="M135 1055q-3 9 6 22t21 13q21 0 63 -21l105 -74l104 -77l121 -87l76 -55q14 -8 36 -25.5t33 -23.5q17 -3 29 -27v2q10 -20 10 -28l-2 -23l-22 -10l-17 -25l-22 -4l-8 -4l-15 -6h2l-47 -33l-33 -22l-126 -86l-97 -60l-116 -75l-37 -21q-3 0 -23 -10q-1 0 -1 -0.5 t-1.5 -0.5t-4 -0.5t-7.5 -0.5h-12q-8 12 -11 31t6 32v-2q14 14 39 34.5t31 21.5l33 24l51 39l63 35h-2l62 39l127 86l33 16q2 1 10.5 7.5t13.5 9.5l19 12l-117 88l-57 41l-52 35l-112 84l-82 59q-15 11 -39 34.5t-31 35.5z" />
<glyph unicode="&#x205f;" horiz-adv-x="512" />
<glyph unicode="&#x20ac;" horiz-adv-x="1460" d="M160 897q0 7 2 12t7 9t10 6.5t13 4t14.5 2.5t16.5 1h16.5h17h15.5h162q36 179 130 316.5t243 219.5q65 36 93 45t83 9q52 0 132.5 -29.5t103.5 -34.5q5 46 15 56q8 8 23 8q39 0 39 -74q0 -17 -2 -49.5t-2 -46.5q0 -6 1 -19.5t1 -19.5q0 -38 -26 -43q-45 0 -45 33 q0 6 1 19.5t1 20.5q0 23 -28 41.5t-95 38.5q-8 2 -22 7.5t-27 8.5t-29 3q-156 0 -289 -144q-52 -57 -91 -153.5t-56 -212.5q154 -2 471 -2q1 0 15 1t24 1q67 0 67 -37q0 -18 -14 -29q-10 -5 -24.5 -7t-25.5 -2t-27 0.5t-21 0.5h-473q-5 -39 -5 -94q0 -58 5 -102 q276 -3 548 -3q33 -5 33 -18q4 -4 4 -16q0 -18 -14 -26.5t-28.5 -9.5t-46.5 -1h-13q-311 0 -475 -2q18 -137 53 -209q51 -113 176 -203t234 -90q50 0 111 23t61 57v9q0 19 0.5 29.5t3.5 25t11.5 21.5t21.5 7q22 0 30 -14.5t8 -44.5q0 -13 -2 -41.5t-2 -42.5q0 -12 1 -34 t1 -32q0 -28 -7 -40.5t-29 -12.5q-37 3 -37 49q0 3 1 9t1 9q-7 0 -64 -28.5t-96 -28.5q-141 0 -257.5 48t-194.5 130.5t-126 185t-65 218.5h-195q-45 3 -56 15q-9 9 -9 24q0 14 6.5 22.5t20.5 11.5t23.5 4t28.5 0t23 -1h150v38q0 96 10 160h-234l-4 2q-5 1 -6.5 2t-5.5 3 t-5.5 4.5t-4 6t-3.5 8.5t-1 11z" />
<glyph unicode="&#x25fc;" horiz-adv-x="1546" d="M0 0v1546h1546v-1546h-1546z" />
</font>
</defs>
</svg>
