<?xml version="1.0" ?><!DOCTYPE svg  PUBLIC '-//W3C//DTD SVG 1.1//EN'  'http://www.w3.org/Graphics/SVG/1.1/DTD/svg11.dtd'><svg height="512px" style="enable-background:new 0 0 512 512;" version="1.1" viewBox="0 0 512 512" width="512px" xml:space="preserve" xmlns="http://www.w3.org/2000/svg" xmlns:xlink="http://www.w3.org/1999/xlink"><g id="_x33_10_x2C__mountain_x2C__landscape_x2C__hill_x2C__nature_x2C__tree"><g><path d="M328.935,246.146l8.624,12.881l14.273-0.658l0.465,0.02l14.815,2.359    l10.211-19.438l-17.271-40.383c-10.193,15.047-18.566,27.289-27.598,39.609c0.096,0.638-0.059,1.315-0.504,1.856L328.935,246.146z     M135.585,389.982v-11.585l-6.401,0.077v11.508H135.585z M128.41,373.891c0.116-0.02,0.232-0.039,0.348-0.039    c0.677-0.058,1.354-0.097,2.051-0.115h0.058h0.039l0.116-0.02h0.116h0.116h0.097h0.019l0.116-0.02h0.117h0.116l0.328-0.02h0.116    h0.116h0.058h0.058h0.118h0.116h0.116h0.077h0.039h0.116h0.096h0.116l0.116-0.02h0.019h0.099h0.116h0.116h0.116h0.116h0.116h0.116    l0.696,0.02h0.097h0.116l0.349,0.02h0.116h0.116h0.116h0.039h0.077l0.116,0.02h0.118h0.058c9.147,0.328,18.333,2.649,27.444,7.232    l-5.938-14.698c-0.231-0.599-0.231-1.315,0.097-1.934c0.465-0.948,1.49-1.431,2.476-1.276l-5.512-13.693    c-0.253-0.6-0.233-1.296,0.077-1.934l0.02-0.04l0.019-0.038l0.02-0.039l0.039-0.039l0.019-0.038l0.02-0.038l0,0l0.019-0.039    l0.039-0.039l0.02-0.038l0,0l0.019-0.038l0.039-0.039l0.02-0.039l0.039-0.02v-0.02l0.02-0.02h0.019l0.02-0.039l0.039-0.038    l0.019-0.019l0,0l0.039-0.039l0.039-0.039l0,0l0,0l0.02-0.02l0,0l0.039-0.038l0.039-0.02l0,0l0.039-0.019l0.02-0.039l0,0    l0.04-0.02l0.039-0.039l0,0l0.039-0.02l0,0l0.039-0.02l0,0l0.039-0.02l0.039-0.02l0.039-0.038l0,0l0.039-0.019l0.039-0.02l0,0    l0.039-0.02l0.039-0.02l0,0l0.039-0.02l0.039-0.02l0,0h0.039v-0.019h0.039l0.039-0.02l0,0l0.039-0.02l0,0l0.039-0.019h0.039h0.02    l0.039-0.02l0,0l0.039-0.02l0,0h0.039l0,0l0.041-0.02l0,0h0.039h0.019l0.039-0.02l0,0h0.039l0,0h0.039l0,0l0.039-0.02l0,0h0.058    l0,0h0.039l0,0h0.039l0,0h0.039l0,0l0.058-0.019l0,0h0.039l0,0h0.039l0,0h0.097l0,0l0.039,0.019l0,0h0.039l0,0h0.058l-3.81-9.399    v-0.038l-0.019-0.039l-0.02-0.039l-0.019-0.039l0,0v-0.038l-0.02-0.038v-0.039l-0.019-0.039l0,0v-0.038l-0.02-0.04v-0.038    l-0.019-0.038l0,0v-0.039l0,0v-0.039l0,0l-0.02-0.038l0,0V336.1l0,0v-0.039l0,0v-0.059l0,0v-0.038h-0.019v-0.038l0,0v-0.04v-0.154    v-0.038v-0.039v-0.039h0.019v-0.038l0,0v-0.038l0,0V335.5l0,0v-0.039l-5.55-13.732l-0.465-0.213l-0.444-0.192l-0.446-0.214    l-0.425-0.192l-0.426-0.214l-0.405-0.212l-0.407-0.213l0,0l-0.386-0.212l-0.368-0.214l0,0l-0.367-0.212l0,0l-0.348-0.213l0,0    l-0.349-0.232l0,0l-0.328-0.213l0,0l-0.33-0.231l0,0l-0.309-0.233h-0.02l-0.29-0.212l0,0l-0.311-0.232l-0.29-0.231l0,0    l-0.27-0.252l0,0l-0.272-0.231l0,0l-0.271-0.232l0,0l-0.251-0.251l0,0l-0.25-0.252l0,0l-0.233-0.232l-0.232-0.251h-0.019    l-0.212-0.271l-0.233-0.252l0,0l-0.212-0.252l0,0l-0.193-0.271l0,0l-0.212-0.271l0,0l-0.193-0.252v-0.02l-0.195-0.27l0,0    l-0.174-0.271l0,0l-0.348-0.561l0,0l-0.173-0.29l0,0l-0.176-0.29l0,0l-0.154-0.29l0,0l-0.154-0.29l0,0L136.301,312v-0.02    l-0.154-0.289l0,0l-0.135-0.31l0,0l-0.137-0.31l0,0l-0.154-0.309v-0.02l-0.135-0.311l0,0l-0.135-0.328l0,0l-0.116-0.309v-0.021    l-0.135-0.328l0,0l-0.137-0.328l0,0l-0.116-0.349l0,0l-0.116-0.329l-0.02-0.02l-0.116-0.328v-0.02l-0.116-0.348l0,0l-0.116-0.349    l0,0l-0.135-0.367l0,0l-0.118-0.368l0,0l-0.116-0.366l0,0l-0.116-0.368v-0.02l-0.116-0.367l0,0l-0.116-0.387h-0.02l-0.116-0.387    l0,0l-0.116-0.406l0,0l-0.135-0.387v-0.02l-0.118-0.387v-0.02l-0.733-2.359l-0.871,2.823l0,0l-0.137,0.406l0,0l-0.116,0.388v0.019    l-0.116,0.387l0,0l-0.116,0.368v0.02l-0.116,0.367h-0.019l-0.097,0.367h-0.019l-0.097,0.367h-0.019l-0.099,0.367h-0.019    l-0.097,0.349h-0.019l-0.097,0.349h-0.02l-0.096,0.348h-0.02l-0.096,0.328h-0.02l-0.116,0.33v0.019l-0.116,0.31v0.02l-0.116,0.31    l0,0l-0.117,0.31v0.019l-0.135,0.31l0,0l-0.116,0.311h-0.02l-0.116,0.289v0.02l-0.135,0.29l0,0l-0.135,0.29l0,0l-0.135,0.29v0.019    l-0.137,0.271l0,0l-0.155,0.291l0,0l-0.135,0.289l0,0l-0.155,0.271l0,0l-0.154,0.271l0,0l-0.175,0.27l0,0l-0.154,0.271l0,0    l-0.174,0.25l0,0l-0.174,0.271l0,0l-0.174,0.252l0,0l-0.193,0.251l0,0l-0.195,0.252l-0.193,0.251l-0.212,0.252l0,0l-0.212,0.251    l0,0l-0.214,0.232h-0.02l-0.212,0.251l0,0l-0.231,0.232l0,0l-0.251,0.232v0.02l-0.253,0.231l0,0l-0.251,0.232l0,0l-0.27,0.231l0,0    l-0.272,0.232l0,0l-0.29,0.213l0,0l-0.29,0.232l0,0l-0.311,0.231l0,0l-0.309,0.232l0,0l-0.309,0.212h-0.02l-0.33,0.232l0,0    l-0.328,0.232l0,0l-0.369,0.213l-0.347,0.231h-0.02l-0.367,0.214l0,0l-0.388,0.23l-0.405,0.214l0,0l-0.407,0.231l-0.405,0.232    h-0.02l-0.426,0.213l0,0l-0.444,0.232l0,0l-0.465,0.212l-0.463,0.233l-0.484,0.23l-5.589,13.811    c0.058,0.406,0.019,0.83-0.155,1.256l-3.946,9.748h0.039l0,0h0.039l0,0h0.02h0.077h0.041h0.135l0,0h0.135l0,0l0.097,0.02h0.019    h0.02l0.135,0.039h0.02h0.02l0,0l0.039,0.02l0,0l0.077,0.02l0,0l0.096,0.02l0,0l0.099,0.038c0.947,0.387,1.526,1.315,1.488,2.282    v0.058l0,0v0.058l0,0v0.059h-0.019v0.059l0,0v0.058l0,0l-0.02,0.058l0,0v0.059l0,0l-0.02,0.058l0,0l-0.019,0.058l0,0v0.059h-0.02    v0.058l0,0l-0.019,0.059l0,0l-0.02,0.058l0,0l-0.039,0.059l0,0l-5.531,13.693c0.405-0.059,0.851-0.02,1.256,0.154    c1.22,0.483,1.799,1.856,1.316,3.074l-5.957,14.758c9.109-4.178,18.239-6.809,27.386-7.543H128.41L128.41,373.891z M438.77,339.6    v-8.838h-0.039l-3.423,0.019h-0.02v8.819H438.77z M433.721,326.197l0.251-0.02l0.233-0.02h0.059h0.038h0.039    c0.851-0.059,1.702-0.098,2.553-0.116l0.039-0.02h0.038h0.059l0,0h0.038h0.02h0.038h0.02h0.02h0.077h0.02h0.038h0.02h0.039h0.019    h0.097h0.039l0,0h0.058l0,0h0.038h0.138h0.019h0.039h0.02h0.038l0,0h0.039h0.019h0.039l0,0h0.058l0,0h0.039h0.02h0.038h0.02h0.02    h0.038h0.02h0.02h0.02h0.038h0.02h0.038l0,0h0.059l0,0h0.058l0,0h0.039h0.019h0.137h0.02h0.02h0.038h0.02h0.039l0,0h0.058l0,0    h0.039h0.058l0,0h0.038h0.02h0.039h0.019h0.02h0.039h0.02h0.038h0.02h0.02h0.019h0.039h0.02h0.038v0.02h0.058l0,0h0.041h0.02    h0.038h0.02h0.02h0.038h0.02h0.02h0.02h0.038h0.02h0.038l0,0h0.059l0,0h0.038h0.02h0.038h0.02h0.02h0.077h0.02l0.097,0.019h0.058    l0,0h0.058l0,0h0.272h0.038l0.328,0.02l1.141,0.078h0.118c0.598,0.039,1.198,0.097,1.798,0.174l0.174,0.02l0.193,0.02l0.212,0.02    l0.174,0.019l0.214,0.02l0.155,0.038l0.386,0.039l0.253,0.039l0.135,0.02l0.367,0.059l0.289,0.038l0.099,0.02l0.753,0.116    l0.329,0.057l0.059,0.02l0.347,0.059l0.02,0.02l0.368,0.058h0.02l0.387,0.078l0,0l0.754,0.173h0.039l0.348,0.078h0.038l0.33,0.077    l0.058,0.019l0.328,0.078l0.077,0.02l0.292,0.078l0.096,0.019l0.29,0.077l0.115,0.02l0.272,0.077l0.116,0.038l0.251,0.059    l0.154,0.039l0.231,0.078l0.156,0.038l0.212,0.058l0.174,0.059l0.213,0.057l0.194,0.059l0.193,0.059l0.192,0.059l0.174,0.058    l0.231,0.058l0.156,0.059l0.231,0.076l0.155,0.039l0.231,0.077l0.135,0.059l0.272,0.077l0.115,0.039l0.271,0.096l0.097,0.039    l0.311,0.116l0.077,0.019l0.309,0.117l0.077,0.02l0.311,0.115l0.058,0.02l0.348,0.135l0.039,0.02l0.348,0.137h0.019l0.388,0.154    l0,0l0.387,0.154l0,0l0.368,0.155l0.02,0.019l0.366,0.136l0.039,0.019l0.33,0.136l0.058,0.04l0.328,0.135l0.077,0.039l0.29,0.135    l0.098,0.038l0.29,0.117l0.097,0.058l0.289,0.115l0.116,0.059l0.252,0.135l0.136,0.059l0.251,0.116l0.154,0.077l-4.564-11.295    c-0.231-0.6-0.231-1.315,0.077-1.934c0.369-0.736,1.083-1.199,1.838-1.297l-4.391-10.85c-0.231-0.619-0.213-1.314,0.097-1.934    c0.349-0.715,1.007-1.16,1.721-1.277l-2.958-7.329c-0.154-0.368-0.193-0.755-0.154-1.142l-4.525-11.197    c-8.453-3.617-9.806-8.008-12.05-15.338l-0.232-0.773l-0.347,1.16c-2.245,7.292-3.327,10.851-12.128,14.932l-1.817,4.486    l-0.02,0.059l-2.707,6.711l0,0v0.038l0,0v0.038l0,0v0.02v0.021v0.02l0,0v0.038l0,0l0.019,0.039l0,0v0.039l0,0v0.038l0,0v0.038    h-0.019V295v0.02v0.02v0.038l0,0v0.039l0,0v0.038v0.039l0,0v0.039h-0.02v0.02l0,0l-0.02,0.115l0,0l-0.038,0.174l0,0l-0.02,0.039    l0,0l-0.02,0.078v0.02v0.02l-0.02,0.02l-0.021,0.038l0,0v0.038l-3.094,7.602l0.503,0.154l0.039,0.02h0.02l0.038,0.019h0.02    l0.039,0.021l0,0l0.058,0.039l0,0l0.058,0.019l0,0l0.039,0.038h0.019l0.039,0.02l0,0l0.039,0.039h0.019l0.039,0.039l0,0    l0.058,0.038l0,0l0.039,0.02l0,0l0.038,0.038l0,0l0.058,0.039l0,0l0.039,0.039l0,0l0.039,0.038l0,0l0.038,0.04l0,0l0.039,0.038    l0,0l0.04,0.058l0,0l0.039,0.039l0,0l0.038,0.038l0,0l0.039,0.039l0,0l0.038,0.058l0,0l0.039,0.039l0,0l0.019,0.058l0,0    l0.039,0.038l0,0l0.02,0.059h0.019l0.02,0.039l0,0l0.02,0.059h0.02l0.02,0.038l0,0l0.019,0.058l0,0l0.02,0.039h0.02l0.02,0.058    l0,0l0.019,0.058l0,0l0.02,0.059l0,0l0.02,0.039l0,0l0.02,0.059l0,0l0.019,0.057l0,0v0.059h0.02v0.058l0,0l0.02,0.058l0,0v0.039    l0,0l0.02,0.059l0,0v0.059l0,0l0.019,0.058l0,0v0.058l0,0v0.059l0,0v0.058v0.173v0.06l0,0v0.058l0,0v0.059l0,0v0.058l0,0    l-0.019,0.058l0,0v0.059l0,0l-0.02,0.057l0,0v0.06h-0.02v0.058l0,0l-0.02,0.059l0,0l-0.019,0.058l0,0l-0.02,0.058l0,0l-0.02,0.059    l0,0l-0.02,0.057l0,0l-4.39,10.871l0.6,0.154l0,0l0.058,0.019l0,0l0.059,0.02v0.019l0.038,0.02l0,0l0.058,0.02l0,0l0.059,0.039    l0,0l0.058,0.02l0,0l0.039,0.039l0,0l0.058,0.02v0.02l0.038,0.019l0,0l0.059,0.039l0,0l0.038,0.038l0,0l0.039,0.039h0.02    l0.04,0.039l0,0l0.038,0.038l0,0l0.039,0.038l0,0l0.039,0.039l0,0l0.038,0.039h0.02l0.02,0.039h0.019l0.02,0.039h0.02l0.02,0.038    v0.02l0.038,0.038l0,0l0.039,0.039l0,0l0.038,0.058l0,0l0.02,0.038h0.02l0.02,0.039v0.02l0.038,0.039l0,0l0.02,0.039v0.02    l0.038,0.038l0,0l0.02,0.058l0,0l0.02,0.039l0,0l0.038,0.059l0,0l0.02,0.057l0,0l0.02,0.039v0.02l0.02,0.039l0,0l0.019,0.058l0,0    l0.02,0.059l0,0l0.02,0.038v0.02l0.02,0.039l0,0v0.058l0,0l0.02,0.058l0,0v0.059h0.019v0.058l0,0v0.058h0.02v0.059l0,0v0.059l0,0    v0.058l0,0l0.02,0.058c0.02,0.311-0.039,0.639-0.174,0.986l-4.603,11.373l0.135-0.059l0.116-0.058l0.135-0.058h0.021l0.115-0.059    l0.116-0.059l0.135-0.058h0.02l0.116-0.038l0.115-0.059l0.136-0.058l0.019-0.02l0.118-0.038l0.115-0.059l0.136-0.059h0.038    l0.097-0.039l0.116-0.058l0.58-0.231l0.077-0.039l0.639-0.252l0.077-0.038l0.059-0.019l0.115-0.059l0.136-0.039l0.077-0.038    l0.058-0.02l0.116-0.039l0.135-0.058l0.099-0.039l0.038-0.02l0.136-0.039c1.353-0.521,2.727-1.023,4.099-1.449    c1.084-0.33,2.167-0.639,3.23-0.929h0.02c3.52-0.929,7.04-1.548,10.579-1.837h0.02H433.721z M431.652,342.056v-0.077v-10.792    c-3.462,0.444-6.924,1.219-10.387,2.321c-3.327,1.043-6.673,2.398-10.018,3.983l-0.194,0.116l-0.406,0.193l-0.192,0.078    l-0.02,0.019l-0.619,0.31l-0.193,0.097l-0.077,0.039l-0.135,0.058l-1.22,0.639l0,0l-0.058,0.02v0.02l-0.059,0.02l0,0l-0.038,0.019    l0,0l-0.059,0.02l0,0l-0.058,0.019v0.02h-0.058v0.02h-0.058l0,0l-0.059,0.02l0,0l-0.058,0.02l0,0l-0.058,0.02l0,0h-0.06v0.019    h-0.059l0,0l-0.058,0.02l0,0h-0.058l0,0h-0.059l0,0l-0.038,0.02l0,0h-0.058l0,0h-0.059h-0.174h-0.058l0,0h-0.058l0,0l-0.059-0.02    l0,0h-0.058l0,0h-0.058l0,0l-0.06-0.02l0,0h-0.058v-0.019h-0.059l0,0l-0.058-0.02l0,0h-0.039v-0.02h-0.058v-0.02h-0.058l0,0    l-0.058-0.02l0,0l-0.039-0.02l0,0l-0.058-0.019v-0.02l-0.059-0.019l0,0l-0.058-0.02l0,0l-0.039-0.02l0,0l-0.058-0.02v-0.02    L405.93,339l0,0l-0.059-0.02v-0.02l-0.038-0.02l0,0l-0.06-0.038l0,0l-0.039-0.02l0,0l-0.058-0.038l0,0l-0.039-0.039l0,0    l-0.058-0.039l0,0l-0.038-0.038l0,0l-0.039-0.02v-0.019l-0.038-0.039l0,0l-0.059-0.039l0,0l-0.038-0.038l0,0l-0.039-0.04l0,0    l-0.038-0.038l0,0l-0.039-0.058l0,0l-0.038-0.039l0,0l-0.02-0.039v-0.019l-0.039-0.039l0,0l-0.038-0.058l0,0l-0.039-0.039l0,0    l-0.02-0.058l0,0l-0.038-0.059l0,0l-0.02-0.038l0,0l-0.02-0.039l0,0l-0.019-0.02l0,0l-0.02-0.039l0,0v-0.019v-0.02l-0.02-0.02l0,0    l-0.021-0.038l0,0v-0.02l0,0l-0.019-0.039l0,0l-0.02-0.02v-0.019v-0.02l0,0l-0.02-0.038l0,0v-0.02l0,0l-0.02-0.039l0,0v-0.02    v-0.02l-0.019-0.02l0,0v-0.039l0,0l-0.02-0.019v-0.02v-0.02l0,0l-0.02-0.038l0,0v-0.02l0,0v-0.039l0,0l-0.02-0.038l0,0v-0.02l0,0    v-0.038l0,0v-0.02v-0.02l-0.019-0.02l0,0v-0.039l0,0v-0.02v-0.02v-0.02l0,0v-0.038l0,0v-0.019l0,0v-0.039l0,0v-0.039l0,0v-0.02    l0,0v-0.038l0,0v-0.02v-0.019v-0.02l0,0v-0.039l0,0v-0.02v-0.02v-0.019l0,0v-0.04l0,0v-0.02l0,0v-0.038l0,0v-0.038l0,0l0.019-0.02    l0,0v-0.039l0,0v-0.02l0,0v-0.038l0,0l0.02-0.038l0,0v-0.02l0,0v-0.039l0,0l0.02-0.02l0,0v-0.038l0,0v-0.02v-0.019l0.02-0.021l0,0    v-0.038l0,0l0.019-0.019l0,0v-0.039l0,0l0.02-0.02l0,0v-0.039l0,0l0.02-0.019v-0.02v-0.02l0,0l0.02-0.019v-0.02v-0.02l0,0    l4.797-11.855l-0.038-0.02l0,0h-0.02h-0.02h-0.019l0,0h-0.039l0,0l-0.038-0.02l0,0h-0.039l0,0l-0.02-0.02h-0.02h-0.019l0,0h-0.039    l0,0l-0.04-0.02l0,0l-0.059-0.02l0,0l-0.135-0.038l0,0l-0.058-0.02h-0.02l-0.02-0.019l0,0l-0.038-0.02l0,0l-0.039-0.02l0,0h-0.02    l0,0l-0.038-0.02l0,0l-0.058-0.039l0,0l-0.039-0.02l0,0l-0.058-0.039l0,0h-0.02h-0.02l-0.019-0.038l0,0l-0.02-0.02h-0.02    l-0.058-0.038l-0.02-0.02l-0.058-0.039l0,0l-0.039-0.02l0,0l-0.02-0.019l0,0l-0.021-0.02l-0.058-0.058l0,0l-0.059-0.039l0,0    l-0.02-0.02l0,0l-0.038-0.038l0,0l-0.039-0.059l0,0l-0.019-0.02h-0.02l-0.02-0.02l0,0l-0.02-0.038l0,0l-0.019-0.02l0,0    l-0.02-0.039l0,0l-0.02-0.02h-0.02l-0.019-0.038l0,0l-0.02-0.019l0,0l-0.02-0.039l0,0l-0.02-0.02l0,0l-0.02-0.039l0,0    l-0.019-0.038l0,0l-0.02-0.02l0,0l-0.02-0.039l0,0l-0.02-0.02l0,0l-0.019-0.038l0,0l-0.02-0.039l0,0l-0.02-0.039l0,0v-0.02h-0.02    v-0.038l0,0l-0.019-0.019l0,0l-0.02-0.039l0,0v-0.02l0,0l-0.02-0.039l0,0l-0.02-0.038l0,0v-0.02l0,0l-0.019-0.038l0,0v-0.021    h-0.02v-0.038l0,0v-0.039h-0.02v-0.02l0,0v-0.039h-0.02v-0.019l0,0v-0.038l0,0l-0.02-0.039l0,0v-0.02l0,0v-0.039l0,0l-0.019-0.038    l0,0v-0.02l0,0v-0.038l0,0l-0.02-0.02l0,0v-0.039l0,0v-0.039l0,0v-0.02l0,0v-0.039l0,0v-0.038h-0.02v-0.019l0,0v-0.039v-0.039    v-0.02v-0.154v-0.039l0,0v-0.039v-0.019v-0.039h0.02v-0.019l0,0v-0.039l0,0v-0.039l0,0v-0.02l0,0v-0.038h0.02v-0.038l0,0v-0.02    l0,0v-0.039l0,0l0.019-0.02l0,0v-0.038l0,0v-0.04h0.02v-0.019l0,0v-0.039l0,0l0.02-0.019l0,0v-0.039l0,0v-0.02h0.02v-0.039l0,0    v-0.019h0.02v-0.038l0,0l0.019-0.039l0,0v-0.02l0,0l0.02-0.039l0,0l4.429-10.966c-0.214-0.038-0.426-0.116-0.639-0.192v-0.021    l-0.058-0.019l0,0l-0.058-0.038l-0.02-0.02h-0.02l-0.038-0.02l-0.02-0.02l-0.039-0.02h-0.019l-0.078-0.058l0,0l-0.077-0.058v-0.02    l-0.06-0.039l-0.019-0.02l0,0l-0.02-0.019l0,0l-0.039-0.02l0,0l-0.019-0.019l0,0l-0.02-0.02v-0.021l-0.02-0.02h-0.02l-0.038-0.038    l0,0l-0.02-0.02v-0.02l-0.02-0.02h-0.02v-0.02h-0.019l-0.02-0.019v-0.02l-0.02-0.019l0,0l-0.02-0.02l0,0l-0.02-0.02v-0.02    l-0.019-0.02l0,0l-0.02-0.02v-0.02l-0.02-0.019h-0.02v-0.02l-0.019-0.019v-0.02h-0.02v-0.02l-0.02-0.02v-0.02h-0.02v-0.039h-0.019    v-0.02l0,0l-0.02-0.039l0,0l-0.02-0.019v-0.02l-0.02-0.019l0,0l-0.038-0.059v-0.039l0,0l-0.02-0.019v-0.02l-0.02-0.02l0,0    l-0.02-0.058l0,0l-0.019-0.02v-0.02v-0.02l0,0l-0.02-0.039l0,0l-0.02-0.02v-0.02v-0.019l0,0l-0.02-0.02v-0.019v-0.02v-0.02    l-0.019-0.02l0,0v-0.02v-0.02v-0.019l0,0l-0.02-0.039l0,0l0,0v-0.019v-0.02v-0.02h-0.02v-0.039l0,0v-0.02l0,0v-0.038l0,0    l-0.02-0.021v-0.02v-0.019l0,0v-0.038l0,0v-0.02v-0.02l-0.021-0.02l0,0v-0.039l0,0v-0.019v-0.02v-0.058l0,0v-0.059v-0.02v-0.019    v-0.02l0,0v-0.038v-0.04v-0.019l0,0v-0.039l0,0v-0.02v-0.02v-0.02l0,0v-0.019l0.021-0.02v-0.02l0,0v-0.019v-0.02l0,0v-0.02l0,0    v-0.02l0,0v-0.02h0.02v-0.038l0,0v-0.02l0,0v-0.038l0,0l0.02-0.02v-0.02v-0.02l0,0v-0.039l0,0l0.02-0.02l0,0v-0.039l0,0    l0.019-0.019v-0.02v-0.019l0,0v-0.02l0.02-0.02v-0.02l0,0v-0.02l0.02-0.02v-0.02l0,0l0.02-0.019v-0.02v-0.019l0,0l0.019-0.039l0,0    l0.367-0.909L415,295.329v-0.019l0,0v-0.039l0,0v-0.039l0,0v-0.02v-0.02v-0.02v-0.154l0,0v-0.059v-0.019v-0.02l0.019-0.077l0,0    v-0.039l0,0v-0.019v-0.02v-0.021v-0.02l0.02-0.019l0,0v-0.039l0,0v-0.038l0,0l0.02-0.039l0,0v-0.02v-0.02l0.02-0.019l0,0v-0.038    l0.019-0.039l0,0v-0.039l0,0l0.02-0.02l0,0v-0.038l0,0l0.02-0.038l0,0v-0.021l0.02-0.038l0.02-0.039l2.126-5.3l-10.442-1.722    c-0.696-0.096-1.277-0.502-1.625-1.063l-25.201-39.822l-9.515,18.141c-0.503,0.948-1.567,1.412-2.553,1.219l-16.151-2.572    l-15.395,0.717c-0.851,0.038-1.625-0.388-2.068-1.046l-8.549-12.784l-9.09,11.276l-0.039,0.038l-5.376,6.673l-0.039,0.038l0,0    l-0.038,0.039l0,0l-0.02,0.02l-0.02,0.02v0.02l-0.02,0.019l0,0l-0.021,0.02l0,0l-0.02,0.019l0,0l0,0l-0.019,0.02h-0.02l-0.02,0.04    l0,0l-0.02,0.019l-0.02,0.02h-0.02l-0.019,0.02l-0.02,0.02l0,0l-0.02,0.02l-0.019,0.02h-0.02l-0.02,0.019l-0.02,0.02l0,0    l-0.039,0.019l-0.057,0.039l-0.039,0.039l-0.039,0.02l-0.02,0.02l0,0l-0.038,0.019h-0.02l-0.019,0.02l-0.02,0.019h-0.02    l-0.02,0.02l-0.039,0.02h-0.019l-18.645,10.174l-15.027,22.744l-1.838,26.479v0.038v0.038l0,0l-0.019,0.039l0,0v0.02v0.02v0.019    l0,0v0.02v0.019v0.02v0.02l-0.02,0.02v0.059l-0.02,0.019v0.021v0.02l0,0l-0.02,0.038v0.038v0.02l-0.021,0.039v0.02l0,0    l-0.02,0.038v0.038l0,0l-0.02,0.02l0,0v0.039l0,0l-0.02,0.02l0,0l-0.019,0.039l0,0v0.038l0,0l-0.02,0.019l0,0l-0.02,0.04v0.02l0,0    l-0.02,0.038l-0.019,0.02l0,0l-0.02,0.059l0,0l-0.02,0.038l0,0l-0.039,0.058l0,0l-0.019,0.02l0,0v0.02v0.02l-0.02,0.019h-0.02    v0.02l-0.038,0.058l-0.02,0.04l-0.02,0.019l-0.02,0.02l-0.019,0.039l0,0l-0.02,0.02h-0.02l-0.02,0.02l0,0l-0.019,0.019v0.02    l-0.02,0.019l0,0l-0.02,0.02l0,0l-0.02,0.02l0,0l-0.02,0.02v0.02l-0.019,0.02l0,0h-0.02l-0.02,0.019l-0.02,0.02l-0.019,0.038    l-0.039,0.02l0,0l-0.02,0.02l-0.019,0.02l-0.039,0.02l-0.058,0.039l-0.02,0.039l-0.02,0.02l-0.04,0.019l-44.502,31.294h82.004    l1.703-4.217v-0.039l0,0v-0.039l0,0v-0.019v-0.02v-0.02v-0.019v-0.02v-0.156l0,0v-0.057v-0.02v-0.02l0,0l0.02-0.077v-0.039l0,0    v-0.019v-0.02l0.019-0.02v-0.02v-0.02l0,0v-0.039l0,0l0.02-0.039l0,0v-0.038l0,0v-0.02l0,0l0.019-0.038l0,0v-0.039l0,0l0.02-0.039    l0,0v-0.019v-0.02l0.02-0.019l0,0v-0.039l0,0l0.02-0.039l0,0v-0.02l0.02-0.038l0.02-0.04l5.434-13.499    c0.252-0.599,0.697-1.044,1.259-1.276l0.347-0.154l0.348-0.155v-0.02l0.33-0.154l0,0l0.328-0.154l0.309-0.155l0.311-0.154l0,0    l0.29-0.154l0.29-0.156l0,0l0.291-0.154l0,0l0.27-0.154l0.252-0.155l0,0l0.271-0.154l0.231-0.155l0,0l0.251-0.154l0,0l0.231-0.154    l0,0l0.233-0.155v-0.02l0.213-0.154l0,0l0.212-0.154l0.192-0.155l0,0l0.215-0.154l0,0l0.193-0.174l0,0l0.174-0.155l0,0    l0.192-0.174l0,0l0.174-0.155l0,0l0.156-0.174l0,0l0.174-0.154l0,0l0.154-0.175l0,0l0.154-0.174l0,0l0.136-0.173l0,0l0.156-0.176    l0.135-0.174l0,0l0.135-0.174l0,0l0.135-0.174l0,0l0.116-0.193l0,0l0.116-0.174l0,0l0.135-0.193l0,0l0.098-0.193l0,0l0.116-0.174    v-0.02l0.116-0.175l0.096-0.193v-0.019l0.116-0.193l0,0l0.097-0.194l0,0l0.097-0.212l0.097-0.194v-0.019l0.077-0.193l0,0    l0.099-0.213l0,0l0.096-0.213v-0.02l0.077-0.213l0,0l0.097-0.213l0.077-0.232l0,0l0.097-0.23l0,0l0.077-0.233l0,0l0.077-0.231l0,0    l0.077-0.252l0,0l0.097-0.231v-0.021l0.079-0.231l0.077-0.251v-0.02l0.077-0.252l0,0l0.097-0.251l0,0l0.077-0.271l0,0l0.077-0.271    l0,0l0.097-0.271l0,0l0.077-0.271v-0.02l0.077-0.271l0,0l0.038-0.096v-0.02l0.039-0.097l0,0l0.02-0.097l0,0l0.038-0.116l0,0    l0.039-0.097v-0.02l0.04-0.096l0,0l0.02-0.117l0,0l0.039-0.097l0,0l0.038-0.116l0,0l0.019-0.115l0,0l0.039-0.098l0,0l0.039-0.115    l0,0l0.038-0.116l0,0l0.039-0.097v-0.02l0.019-0.097l0,0l0.039-0.116l0,0l0.039-0.115l0,0l0.038-0.116l0,0l0.038-0.116l0,0    l0.039-0.116l0,0l0.039-0.116l0,0l0.02-0.115l0,0l0.038-0.117l0,0l0.038-0.115l0,0l0.039-0.116l0,0l0.039-0.136l0,0l0.038-0.116    l0,0l0.038-0.116l0.039-0.115l0,0l0.039-0.136l0,0l0.06-0.116l0,0l0.038-0.115l0,0l0.039-0.136l0,0l0.039-0.116l0,0l0.038-0.135    l0.038-0.116l0.059-0.136l0.039-0.116l0,0l0.038-0.136l0,0l0.038-0.135l0.059-0.116v-0.02l0.038-0.116l0,0l0.039-0.135l0,0    l0.058-0.136l0.039-0.116v-0.02l0.038-0.115l0,0l0.058-0.137l0,0l0.039-0.135l0.058-0.135l0,0l0.039-0.135l0,0l0.06-0.137l0,0    l0.039-0.135l0.057-0.154l0,0l0.059-0.137l0.039-0.135l0,0l0.058-0.135l0.058-0.137v-0.019l0.039-0.136l0.058-0.135l0,0    l0.058-0.136v-0.02l0.059-0.136l0.058-0.135l0.038-0.155l0.059-0.154c0.484-1.199,1.856-1.817,3.076-1.354    c0.637,0.251,1.121,0.755,1.353,1.354l0.038,0.136l0.059,0.136l0.058,0.135l0.04,0.136l0.059,0.135l0.038,0.136l0.058,0.136    l0.059,0.115v0.02l0.039,0.117l0.038,0.135l0.058,0.135l0.039,0.117l0.058,0.135l0.038,0.135l0,0l0.039,0.117l0.059,0.135    l0.038,0.115l0.038,0.136l0,0l0.059,0.116l0.038,0.136l0.039,0.116l0.038,0.116l0.061,0.136l0.038,0.115l0,0l0.038,0.115    l0.039,0.137l0.039,0.115l0.038,0.116l0,0l0.038,0.116l0.039,0.116l0,0l0.039,0.136l0.038,0.115l0.038,0.117l0,0l0.039,0.115l0,0    l0.039,0.115l0.039,0.116l0.038,0.117l0,0l0.038,0.116l0.039,0.115l0.039,0.097v0.019l0.038,0.098l0.038,0.116l0.02,0.116l0,0    l0.039,0.115l0.039,0.098v0.02l0.039,0.096l0,0l0.039,0.116l0,0l0.02,0.116l0,0l0.039,0.097l0,0l0.038,0.116l0,0l0.038,0.096v0.02    l0.02,0.097l0,0l0.039,0.117l0,0l0.039,0.097l0,0l0.038,0.115l0,0l0.019,0.097l0,0l0.039,0.116l0,0l0.039,0.098l0,0l0.02,0.096    v0.02l0.038,0.097l0,0l0.038,0.097v0.02l0.02,0.097l0,0l0.039,0.097l0,0l0.039,0.096l0,0l0.076,0.291l0,0l0.097,0.289l0,0    l0.077,0.291l0,0l0.099,0.271l0,0l0.077,0.27l0,0l0.097,0.271v0.02l0.077,0.252l0,0l0.077,0.27l0,0l0.097,0.271l0,0l0.077,0.251    l0,0l0.097,0.251l0.077,0.252l0,0l0.097,0.252l0,0l0.078,0.232v0.02l0.097,0.23l0,0l0.077,0.232l0,0l0.097,0.232l0.097,0.232l0,0    l0.097,0.231l0.097,0.232l0,0l0.096,0.212l0.098,0.232l0.117,0.213l0,0l0.096,0.213l0.116,0.213l0.097,0.213l0,0l0.115,0.193    l0.116,0.213l0.136,0.193l0,0l0.115,0.193l0.117,0.213l0.136,0.193l0,0l0.135,0.174l0.136,0.193l0.154,0.193l0.135,0.174    l0.156,0.194l0.154,0.173l0.174,0.174l0.154,0.176l0.174,0.173l0.174,0.175l0.195,0.154l0.173,0.174l0.193,0.155l0.212,0.174    l0.195,0.154l0.212,0.155l0.212,0.154l0.232,0.154l0.233,0.156l0.231,0.154l0.251,0.154l0.251,0.154l0.252,0.136l0.271,0.154    l0.27,0.136l0.291,0.136l0.29,0.154l0.289,0.136l0.312,0.135l0.309,0.136l0.328,0.136l0.33,0.135    c0.637,0.252,1.082,0.736,1.333,1.315l5.454,13.499l0.02,0.04v0.038l0.019,0.02l0.02,0.039v0.039l0.019,0.038v0.038l0.02,0.02    v0.039l0,0l0.021,0.038v0.038l0,0v0.039l0.02,0.039v0.02v0.02v0.02l0.02,0.039v0.038l0,0v0.038v0.02v0.02v0.02v0.02l0.02,0.02    v0.038l0,0v0.038v0.039l0,0v0.039l0,0v0.019l0,0v0.04l0,0v0.038l0,0v0.039l0,0l-0.02,0.038l0,0v0.02v0.02v0.02l0,0l1.699,4.217    h127.089l-18.992-21.798h-0.135h-0.041l0,0h-0.038l0,0h-0.02h-0.02h-0.019h-0.039v-0.02h-0.038l0,0h-0.02h-0.02h-0.02h-0.02    l-0.019-0.02h-0.02h-0.02h-0.02l0,0l-0.038-0.019h-0.02h-0.058l-0.02-0.02l0,0h-0.038l0,0l-0.039-0.02l0,0h-0.02h-0.02    l-0.019-0.02h-0.02h-0.02l-0.02-0.02l0,0h-0.038l0,0l-0.039-0.02l0,0l-0.019-0.019h-0.02h-0.02l-0.02-0.02h-0.019l-0.02-0.019l0,0    h-0.041v-0.02h-0.019l-0.02-0.02h-0.02l0,0l-0.02-0.02l0,0l-0.038-0.02l0,0h-0.039V339h-0.019l-0.02-0.02h-0.02l-0.02-0.02l0,0    l-0.366-0.213l-0.077-0.057l-0.292-0.176l-0.174-0.096l-0.192-0.116l-1.083-0.638l-0.058-0.02l-0.311-0.174l-1.103-0.6    l-0.366-0.175l-0.02-0.019l-0.33-0.174l-0.115-0.059l-0.251-0.136l-0.193-0.097l-0.176-0.077l-0.27-0.136l-0.097-0.038    l-0.367-0.175l0,0l-0.368-0.174l-0.077-0.038l-0.29-0.136l-0.154-0.078l-0.214-0.076l-0.231-0.116l-0.116-0.058l-0.328-0.137    l-0.038-0.02l-0.369-0.154l-0.058-0.02l-0.309-0.135l-0.136-0.058l-0.232-0.097l-0.213-0.078l-0.154-0.058l-0.289-0.116    l-0.059-0.038l-0.368-0.136h-0.02l-0.348-0.136l-0.097-0.038l-0.271-0.097l-0.174-0.077l-0.193-0.059l-0.27-0.097l-0.099-0.039    l-0.348-0.116h-0.019l-0.348-0.115l-0.077-0.039l-0.292-0.097l-0.154-0.039l-0.212-0.077l-0.231-0.077l-0.137-0.038l-0.31-0.097    h-0.058l-0.348-0.116h-0.058l-0.311-0.098l-0.136-0.038l-0.231-0.058l-0.214-0.059l-0.154-0.058l-0.289-0.059l-0.078-0.02    l-0.368-0.097l0,0l-0.348-0.096l-0.097-0.02l-0.27-0.059l-0.176-0.058l-0.193-0.038l-0.25-0.059l-0.116-0.02l-0.35-0.078h-0.019    l-0.348-0.076l-0.077-0.02l-0.29-0.059l-0.156-0.02l-0.212-0.038l-0.231-0.058l-0.136-0.02l-0.311-0.059h-0.058l-0.348-0.059    l-0.038-0.019l-0.328-0.039l-0.118-0.019l-0.251-0.039l-0.192-0.039l-0.174-0.02l-0.369-0.038l-0.347-0.058h-0.02h-0.02    l-0.696-0.077l-0.174-0.02l-0.193-0.021l-0.696-0.077h-0.02v11.044c0,1.314-1.063,2.379-2.379,2.379h-5.996l0,0h-0.077l0,0h-0.059    l0,0h-0.058l0,0h-0.058l0,0l-0.059-0.02l0,0h-0.058l0,0l-0.058-0.019l0,0h-0.058l0,0l-0.059-0.02l0,0l-0.058-0.021l0,0h-0.058l0,0    l-0.059-0.02l0,0l-0.058-0.019l0,0l-0.06-0.02l0,0l-0.039-0.019l0,0l-0.058-0.02l0,0l-0.058-0.039l0,0l-0.058-0.02l0,0    l-0.039-0.02l0,0l-0.058-0.038l0,0l-0.039-0.02h-0.02l-0.038-0.038l0,0l-0.058-0.02l0,0l-0.039-0.039l0,0l-0.038-0.02h-0.02    l-0.039-0.038l0,0l-0.038-0.038l0,0l-0.039-0.04h-0.02l-0.038-0.038l0,0l-0.039-0.039l0,0l-0.038-0.039l0,0l-0.039-0.038l0,0    l-0.04-0.038l0,0l-0.039-0.039h-0.019l-0.02-0.039l0,0l-0.039-0.058l0,0l-0.038-0.038l0,0l-0.039-0.04l0,0l-0.038-0.058l0,0    l-0.02-0.039l0,0l-0.038-0.038l0,0l-0.02-0.058h-0.02l-0.02-0.059l0,0l-0.02-0.039h-0.019l-0.02-0.057l0,0l-0.02-0.039l0,0    l-0.02-0.059h-0.019l-0.02-0.059l0,0l-0.02-0.058l0,0l-0.02-0.038l0,0l-0.02-0.059l0,0l-0.019-0.058l0,0l-0.02-0.058l0,0v-0.059    h-0.02v-0.059l0,0l-0.02-0.058l0,0v-0.058h-0.019v-0.059l0,0v-0.058l0,0l-0.02-0.058l0,0v-0.059l0,0v-0.058l0,0V342.056z     M337.501,401.142v-8.839l-4.603,0.02v8.819H337.501z M331.777,387.758c0.115-0.039,0.251-0.039,0.367-0.039l0.291-0.019    c0.908-0.059,1.817-0.116,2.707-0.136h0.059h0.038h0.058h0.039h0.058h0.058h0.039h0.058h0.097h0.039h0.058h0.038h0.059h0.058h0.04    l0,0h0.059h0.038h0.058h0.039h0.059h0.038h0.058h0.039h0.058h0.058h0.039h0.058h0.038h0.059h0.039h0.096h0.061h0.038h0.058h0.059    h0.038h0.154h0.038h0.059h0.039h0.058h0.038h0.059h0.038h0.02l0.038,0.02h0.039h0.059h0.039h0.059h0.039h0.058h0.192h0.039h0.058    h0.039h0.058l0.039,0.019h0.038h0.02c7.351,0.29,14.776,2.089,22.106,5.609l-4.564-11.294c-0.231-0.601-0.231-1.316,0.077-1.936    c0.368-0.734,1.083-1.199,1.837-1.295l-4.371-10.85c-0.25-0.601-0.23-1.316,0.078-1.936c0.349-0.715,1.007-1.16,1.721-1.276    l-0.058-0.174l-0.02-0.038l-0.019-0.039l-2.862-7.059v-0.02v-0.02l-0.02-0.02v-0.02v-0.02l-0.02-0.019v-0.02v-0.02l-0.019-0.059    l-0.02-0.02v-0.019v-0.02l-0.02-0.02l0,0v-0.039l0,0v-0.038h-0.02v-0.038l0,0v-0.02l-0.02-0.02v-0.02l0,0v-0.039l0,0l0,0v-0.038    l0,0l-0.02-0.038l0,0v-0.039l0,0v-0.039l0,0v-0.02l-0.019-0.039l0,0v-0.039l0,0v-0.076v-0.136v-0.038v-0.039v-0.039l0.019-0.039    v-0.039l-4.525-11.197l-0.406-0.174l-0.367-0.155l-0.368-0.174l0,0l-0.367-0.175l0,0l-0.347-0.174l-0.35-0.192l-0.328-0.175l0,0    l-0.33-0.174l0,0l-0.309-0.174l-0.309-0.193l-0.291-0.174l0,0l-0.29-0.193l0,0l-0.271-0.193l-0.271-0.175v-0.02l-0.271-0.174l0,0    l-0.251-0.194l0,0l-0.251-0.192l0,0l-0.253-0.212l0,0l-0.231-0.194l0,0l-0.231-0.192l0,0l-0.213-0.214l0,0l-0.214-0.192v-0.02    l-0.212-0.194l0,0l-0.213-0.212l-0.193-0.213l0,0l-0.175-0.213h-0.02l-0.173-0.213l0,0l-0.174-0.232l0,0l-0.174-0.213l0,0    l-0.174-0.231l0,0l-0.156-0.214l-0.02-0.019l-0.154-0.212l0,0l-0.154-0.232l-0.135-0.252l-0.154-0.232l0,0l-0.136-0.231l0,0    l-0.156-0.252l0,0l-0.116-0.251l0,0l-0.135-0.252l0,0l-0.135-0.252l0,0l-0.116-0.25l0,0l-0.135-0.252l-0.116-0.271l-0.117-0.271    l-0.116-0.271l-0.116-0.271l-0.096-0.271l-0.116-0.271l0,0l-0.097-0.29l-0.115-0.291l-0.097-0.289l-0.118-0.291l-0.096-0.29    l-0.097-0.31l-0.097-0.29v-0.019l-0.097-0.291v-0.02l-0.116-0.309l0,0l-0.096-0.31l0,0l-0.097-0.31v-0.02l-0.097-0.31l0,0    l-0.117-0.328l0,0l-0.097-0.329v-0.02l-0.097-0.329l0,0l-0.115-0.349l0,0l-0.232-0.772l-0.349,1.16l0,0l-0.116,0.329v0.02    l-0.096,0.328l0,0l-0.098,0.328l-0.096,0.311v0.019l-0.097,0.31l0,0l-0.097,0.311l-0.115,0.309l0,0l-0.099,0.31l0,0l-0.097,0.29    l0,0l-0.097,0.29l0,0l-0.097,0.29l-0.096,0.291l0,0l-0.098,0.289l-0.096,0.271l0,0l-0.097,0.271l0,0l-0.116,0.271l-0.098,0.252    v0.02l-0.116,0.25l0,0l-0.097,0.252l-0.115,0.252v0.019l-0.116,0.232l0,0l-0.116,0.252l0,0l-0.115,0.251l-0.115,0.232l0,0    l-0.138,0.232l0,0l-0.116,0.232l-0.135,0.23l0,0l-0.135,0.232l0,0l-0.135,0.232l0,0l-0.29,0.445l-0.311,0.425l0,0l-0.174,0.214    l0,0l-0.154,0.212l-0.349,0.425l0,0l-0.387,0.406l0,0l-0.386,0.388l-0.214,0.212l0,0l-0.213,0.193h-0.02l-0.212,0.193    l-0.231,0.194l-0.233,0.192l-0.251,0.194l0,0l-0.251,0.193l-0.272,0.194l0,0l-0.27,0.192l-0.271,0.192l0,0l-0.292,0.176l0,0    l-0.289,0.192l0,0l-0.619,0.388l0,0l-0.328,0.173l-0.328,0.194l0,0l-0.35,0.193l-0.348,0.193l0,0l-0.368,0.174l-0.366,0.193    l-0.387,0.193l-0.388,0.193l-0.425,0.193l-4.545,11.256v0.039l0,0v0.039l0,0v0.039l0,0v0.02v0.019v0.02l0,0l0.02,0.038l0,0v0.039    l0,0v0.039l0,0v0.038h-0.02v0.02v0.019v0.02v0.039l0,0v0.039l0,0v0.039v0.039l0,0v0.038h-0.019v0.038l0,0l-0.02,0.098l0,0    l-0.04,0.173l0,0v0.039l0,0l-0.039,0.078v0.019v0.02l-0.02,0.02l-0.02,0.039l0,0v0.038l-2.804,6.944l-0.019,0.038l-0.078,0.173    l-0.02,0.039l0,0l-0.154,0.426l0.482,0.135c1.221,0.484,1.799,1.857,1.316,3.076l-4.391,10.869l0.601,0.154    c1.218,0.483,1.799,1.877,1.314,3.095l-4.603,11.372C317.078,390.408,324.428,388.357,331.777,387.758z M220.877,110.858    l-37.269,63.611c-0.676,1.122-2.127,1.489-3.248,0.831l-15.125-8.857l-40.056,85.428c-0.54,1.141-1.875,1.662-3.036,1.198    l-27.116-10.985l-26.089,60.75c-0.233,0.521-0.62,0.928-1.065,1.159l-19.881,12.339L37.76,336.467l6.403-8.974    c0.251-0.388,0.598-0.696,1.044-0.91l19.901-8.761l26.612-44.097c0.542-0.87,1.644-1.335,2.688-1.044l27.601,7.949l40.112-60.827    c0.581-1.044,1.856-1.508,2.978-1.044l15.744,6.576l38.469-46.67c0.193-0.252,0.425-0.464,0.714-0.638    c1.123-0.677,2.572-0.29,3.25,0.831l7.389,12.476l8.142-2.128c0.909-0.252,1.895,0.059,2.476,0.832l26.514,34.484l14.138-2.166    c0.755-0.097,1.548,0.154,2.091,0.754l30.675,33.092l9.398-11.643l0.038-0.039l0.039-0.039l2.998-3.714l-45.973-69.741    l-13.926,2.979c-1.102,0.231-2.186-0.329-2.649-1.315l-26.303-48.101l-7.988,2.939c-1.218,0.445-2.592-0.193-3.036-1.412    L220.877,110.858z M26.001,361.107h74.21l3.076-7.602l-0.041,0.019l0,0h-0.039l0,0h-0.039l0,0h-0.058l0,0h-0.039l0,0h-0.039l0,0    h-0.039l0,0h-0.058l0,0H102.9l0,0l-0.039-0.019l0,0h-0.039l0,0h-0.039h-0.02h-0.039l0,0l-0.039-0.02l0,0h-0.039l0,0h-0.039l0,0    l-0.039-0.02l0,0h-0.039h-0.02l-0.039-0.02l0,0l-0.039-0.02l0,0h-0.039l0,0l-0.041-0.02l0,0l-0.039-0.019l0,0h-0.039l0,0    l-0.039-0.02h-0.019l-0.02-0.019h-0.019l-0.039-0.02l0,0l-0.039-0.02l0,0h-0.039l0,0l-0.039-0.02l0,0l-0.039-0.039l0,0    l-0.039-0.019l0,0l-0.039-0.02l0,0l-0.019-0.02h-0.02l-0.019-0.019h-0.02l-0.02-0.02h-0.019l-0.02-0.021l0,0l-0.039-0.02l0,0    l-0.039-0.038l0,0l-0.039-0.02l0,0l-0.039-0.02l0,0l-0.019-0.039l0,0l-0.039-0.019l0,0l-0.039-0.02l0,0l-0.02-0.038h-0.021    l-0.02-0.039l0,0l-0.039-0.02l0,0l-0.019-0.038h-0.02l-0.019-0.02l0,0l-0.039-0.038l0,0l-0.02-0.039l0,0l-0.039-0.02l0,0    l-0.02-0.039l0,0l-0.039-0.039l0,0l-0.019-0.039l0,0l-0.02-0.038h-0.019l-0.02-0.019l0,0l-0.019-0.039l0,0l-0.039-0.039l0,0    l-0.02-0.038l0,0l-0.019-0.039l0,0l-0.02-0.038l0,0l-0.019-0.039l0,0l-0.02-0.039h-0.019v-0.039l0,0l-0.02-0.039l0,0l-0.02-0.019    l0,0l-0.019-0.038l0,0v-0.02l0,0l-0.02-0.039l0,0l-0.019-0.02l0,0v-0.038l0,0l-0.02-0.039l0,0v-0.019h-0.019v-0.039l0,0    l-0.02-0.02l0,0v-0.039l0,0v-0.038h-0.019v-0.021l0,0l-0.02-0.038l0,0v-0.038l0,0v-0.02l0,0l-0.019-0.039l0,0v-0.02l0,0v-0.038    h-0.02v-0.038l0,0v-0.02l0,0v-0.039l0,0v-0.039h-0.019v-0.02l0,0v-0.038l0,0v-0.038l0,0v-0.021l0,0v-0.038l0,0v-0.02l-0.02-0.039    v-0.039v-0.154v-0.038h0.02v-0.02v-0.038v-0.02l0,0v-0.039l0,0v-0.039l0,0v-0.02l0,0l0.019-0.039l0,0v-0.038l0,0v-0.019l0,0    v-0.039l0,0l0.02-0.02l0,0v-0.039l0,0v-0.019l0,0l0.019-0.039l0,0v-0.038l0,0v-0.02h0.02v-0.039l0,0v-0.02h0.019v-0.039l0,0v-0.02    h0.02v-0.038l0,0v-0.038h0.019v-0.02l0,0l0.02-0.039l0,0v-0.02l0,0l5.589-13.809c-0.077-0.445-0.02-0.871,0.154-1.277    l6.538-16.149c0.232-0.599,0.695-1.044,1.237-1.296l0.426-0.193l0.425-0.192l0.405-0.194l0.407-0.192l0.386-0.194l0.369-0.193    l0.367-0.174l0.349-0.193l0.348-0.193l0.328-0.193l0,0l0.33-0.193l0.309-0.193l0.309-0.174l0.291-0.194v-0.019l0.29-0.174    l0.27-0.193l0,0l0.272-0.193l0,0l0.25-0.193l0,0l0.251-0.194l0.253-0.212l0,0l0.231-0.194l0,0l0.232-0.192l0.212-0.194l0,0    l0.214-0.212l0,0l0.212-0.193l0.193-0.213l0,0l0.193-0.213l0,0l0.193-0.193l0,0l0.175-0.213l0,0l0.174-0.213l0,0l0.174-0.213    l0.173-0.232l0,0l0.155-0.212l0,0l0.156-0.214l0,0l0.155-0.23l0,0l0.135-0.232l0,0l0.135-0.232l0.135-0.232l0,0l0.135-0.231l0,0    l0.137-0.232l0,0l0.116-0.252l0,0l0.135-0.251l0,0l0.116-0.252l0,0l0.116-0.251l0,0l0.116-0.251l0,0l0.097-0.252l0.019-0.02    l0.097-0.251l0,0l0.118-0.271l0,0l0.097-0.271l0,0l0.116-0.271v-0.02l0.096-0.271l0,0l0.097-0.29l0,0l0.097-0.29h0.019l0.097-0.29    l0,0l0.097-0.29v-0.02l0.098-0.291l0,0l0.096-0.309l0,0l0.097-0.31v-0.019l0.097-0.311h0.019l0.097-0.328l0,0l0.097-0.328l0,0    l0.096-0.33h0.02l0.096-0.348l0,0l0.097-0.349l0,0l0.039-0.116v-0.02l0.041-0.115l0,0l0.039-0.117l0,0l0.039-0.135l0,0    l0.039-0.115v-0.02l0.039-0.115l0,0l0.039-0.137h0.02l0.019-0.115l0.02-0.02l0.019-0.116h0.02l0.039-0.136l0,0l0.039-0.135l0,0    l0.039-0.136l0,0l0.039-0.116v-0.02l0.039-0.115v-0.02l0.039-0.116v-0.02l0.039-0.116l0.02-0.019l0.039-0.116v-0.02l0.039-0.116    v-0.02l0.039-0.135l0,0l0.039-0.136h0.02l0.039-0.136l0,0l0.039-0.135v-0.02l0.039-0.116v-0.02l0.04-0.135h0.02l0.039-0.136l0,0    l0.039-0.155l0,0l0.058-0.135l0,0l0.039-0.135v-0.02l0.058-0.137l0,0l0.039-0.135v-0.02l0.039-0.135h0.02l0.039-0.155l0,0    l0.058-0.136v-0.019l0.039-0.136l0,0l0.058-0.154l0,0l0.039-0.155l0,0l0.058-0.154l0,0l0.058-0.136v-0.02l0.039-0.135v-0.02    l0.058-0.135v-0.02l0.06-0.137v-0.019l0.058-0.136l0,0l0.039-0.154v-0.02l0.058-0.154l0,0l0.058-0.154l0,0l0.058-0.154l0,0    l0.058-0.156l0,0l0.058-0.174l0,0l0.058-0.154l0,0l0.058-0.155l0,0l0.058-0.173l0,0l0.058-0.156l0,0l0.058-0.174l0,0l0.058-0.154    l0,0l0.058-0.174l0.058-0.174l0.079-0.154l0,0l0.058-0.176l0.058-0.173l0.077-0.175l0.058-0.174l0.058-0.174l0.077-0.174    l0.058-0.174c0.484-1.219,1.856-1.818,3.076-1.354c0.637,0.25,1.122,0.753,1.353,1.354l0.058,0.174l0.058,0.154l0.058,0.154    l0.058,0.155l0.058,0.175l0.058,0.154l0.079,0.154l0.039,0.155l0.058,0.154l0.058,0.154l0.058,0.155l0,0l0.058,0.154l0.058,0.154    l0.058,0.156l0.058,0.154l0.058,0.135l0.039,0.155l0,0l0.058,0.154l0.058,0.154l0,0l0.039,0.136l0.058,0.154l0,0l0.058,0.154    l0.04,0.137l0,0l0.058,0.154l0,0l0.039,0.135l0,0l0.058,0.156l0,0l0.039,0.135h0.019l0.039,0.154l0,0l0.039,0.136l0,0l0.058,0.136    l0,0l0.039,0.154l0,0l0.058,0.136l0,0l0.039,0.135l0,0l0.058,0.136v0.02l0.039,0.135l0,0l0.039,0.136l0,0l0.039,0.136l0,0    l0.058,0.135l0,0l0.039,0.136l0,0l0.039,0.135l0,0l0.039,0.136h0.02l0.04,0.136l0,0l0.039,0.135l0,0l0.039,0.136l0,0l0.039,0.136    l0,0l0.058,0.135l0,0l0.039,0.136l0,0l0.039,0.116v0.02l0.039,0.116l0,0l0.039,0.135l0,0l0.039,0.136l0,0l0.039,0.116v0.02    l0.039,0.115l0,0l0.039,0.135l0,0l0.039,0.117l0.019,0.02l0.02,0.115h0.019l0.02,0.116l0.02,0.019l0.019,0.117l0,0l0.039,0.115    l0.02,0.02l0.019,0.116h0.02l0.019,0.116l0.02,0.02l0.019,0.116l0,0l0.039,0.116l0,0l0.039,0.115v0.02l0.118,0.348l0,0    l0.097,0.349h0.019l0.097,0.349l0,0l0.097,0.328l0.019,0.02l0.097,0.328l0,0l0.097,0.33l0,0l0.116,0.328l0,0l0.096,0.328l0,0    l0.099,0.311l0,0l0.116,0.309v0.02l0.096,0.29v0.019l0.116,0.291v0.02l0.096,0.29l0,0l0.116,0.29v0.02l0.116,0.29l0,0l0.096,0.29    l0,0l0.118,0.271v0.021l0.116,0.27l0,0l0.116,0.291l0,0l0.116,0.27l0,0l0.116,0.271l0,0l0.135,0.271l0,0l0.116,0.25v0.02    l0.137,0.252l0,0l0.135,0.271l0,0l0.135,0.252l0,0l0.135,0.251l0,0l0.135,0.252l0,0l0.154,0.232l0,0l0.154,0.25l0,0l0.156,0.232    l0.154,0.232l0.174,0.232l0.174,0.231l0.174,0.232l0.175,0.231l0.193,0.214l0,0l0.174,0.212l0,0l0.212,0.213v0.02l0.193,0.193    v0.02l0.214,0.213l0.212,0.193l0.231,0.213l0.231,0.193l0.233,0.213l0.251,0.193l0.251,0.193l0.253,0.193l0.27,0.193l0,0    l0.271,0.193l0.291,0.193l0.29,0.174l0.309,0.193l0.311,0.174l0.309,0.193l0.328,0.174l0.349,0.175l0.328,0.174l0.367,0.175    l0.368,0.174l0.367,0.174l0.388,0.154l0.405,0.174l0.407,0.154c0.618,0.252,1.083,0.756,1.314,1.335l6.558,16.188l0,0l0.019,0.039    l0,0v0.038l0,0l0.02,0.039l0,0l0.019,0.038l0,0v0.02h0.02v0.059l0,0l0.019,0.02l0,0v0.059l0,0l0.02,0.038l0,0v0.038l0,0v0.02h0.02    v0.059l0,0v0.038l0,0v0.038h0.019v0.039l0,0v0.039l0,0v0.038l0,0v0.04l0,0v0.038h0.02v0.038v0.039v0.039v0.038v0.039v0.038v0.039    l-0.02,0.039v0.038l0,0v0.04l0,0v0.038l0,0v0.038l0,0l-0.019,0.039l5.589,13.809c0.484,1.219-0.116,2.592-1.314,3.076    l-0.039,0.019l-0.041,0.02h-0.019l0,0l-0.039,0.019l0,0l0,0h-0.039v0.02h-0.039l0,0h-0.039l-0.019,0.02l0,0h-0.039v0.02h-0.039    l0,0h-0.039l-0.02,0.02h-0.019h-0.02l0,0h-0.019h-0.02l0,0l-0.039,0.02l0,0h-0.039l0,0h-0.02h-0.039l0,0l-0.039,0.019l0,0h-0.039    h-0.039l0,0h-0.019l0,0h-0.039h-0.039h-0.039l0,0h-0.039h-0.021h-0.039h-0.039l0,0h-0.039h-0.02h-0.039l3.076,7.602h56.649    l49.104-34.543l1.818-25.993v-0.039v-0.038v-0.04l0.019-0.019v-0.02v-0.058l0,0v-0.039l0.02-0.038v-0.039l0.02-0.077l0.02-0.039    l0,0v-0.038l0.019-0.059l0.021-0.058v-0.02l0.02-0.02l0.019-0.039v-0.038l0.02-0.038l0.02-0.039l0.02-0.039l0,0l0.02-0.038    l0.019-0.038l0.02-0.039l0.02-0.02v-0.02l0.02-0.02l0,0l0.019-0.039l0,0l0.02-0.039l0.02-0.038l0,0l0.02-0.02l0,0l0.019-0.038    l0.02-0.039l15.647-23.674l0.02-0.038l0.019-0.019v-0.02l0.039-0.02l0.02-0.039l0.019-0.038l0.02-0.02l0.039-0.038l0.02-0.02    l0.019-0.039l0,0l0.039-0.02l0,0l0.02-0.038l0.019-0.02l0.039-0.04l0.02-0.019l0.038-0.02l0.02-0.038l0.038-0.02l0.02-0.02    l0.02-0.02l0,0h0.02v-0.02l0.02-0.019l0.038-0.02l0.02-0.019l0.038-0.02l0,0l0.039-0.02l0.02-0.02h0.019l0.02-0.02l0.039-0.02l0,0    l0.019-0.02l0.02-0.019l0,0h0.02l0,0l0,0l0.02-0.02l0.04-0.019l0.039-0.02l18.779-10.252l3.81-4.699l-30.287-32.686l-14.273,2.166    c-0.947,0.154-1.856-0.29-2.341-1.025l-26.303-34.213l-8.374,2.205c-1.044,0.271-2.107-0.213-2.63-1.103l-6.577-11.102    l-37.52,45.527c-0.697,0.831-1.818,1.063-2.746,0.677l-15.57-6.498l-40.073,60.807c-0.6,0.91-1.722,1.277-2.708,0.948    l-27.444-7.911l-26.07,43.188c-0.272,0.425-0.639,0.754-1.084,0.948l-19.978,8.818L26.001,361.107z" style="fill-rule:evenodd;clip-rule:evenodd;"/></g></g><g id="Layer_1"/></svg>